<?xml version="1.0" encoding="UTF-8" standalone="no"?>
<!-- Created with Inkscape (http://www.inkscape.org/) -->
<svg xmlns:rdf="http://www.w3.org/1999/02/22-rdf-syntax-ns#" xmlns="http://www.w3.org/2000/svg" version="1.1" xmlns:cc="http://creativecommons.org/ns#" xmlns:dc="http://purl.org/dc/elements/1.1/" viewBox="0 0 100 100">
 <defs></defs>
 <metadata>
  <rdf:RDF>
   <cc:Work rdf:about="">
    <dc:format>image/svg+xml</dc:format>
    <dc:type rdf:resource="http://purl.org/dc/dcmitype/StillImage"/>
    <dc:title/>
   </cc:Work>
  </rdf:RDF>
 </metadata>
 <path d="M49.289,0.18509c-3.288,0.0436-6.607,0.37347-9.628,0.97801-7.786,1.5579-14.546,4.8011-21.095,10.135-1.5842,1.29-6.0044,5.699-7.4027,7.3858-2.4881,3.0015-4.4932,6.0624-6.0874,9.2913-1.4022,2.84-1.8657,4.0636-2.9004,7.5882-0.8489,2.892-0.9721,3.352-1.4164,5.834-0.47031,2.628-0.75483,6.14-0.75882,9.241-0.0044787,3.517,0.78817,9.075,1.8886,13.271,0.47882,1.8258,1.3538,4.4725,1.838,5.5309,0.21087,0.46091,0.58725,1.291,0.82627,1.8549,0.23903,0.56389,0.76741,1.5939,1.1804,2.2765,0.41298,0.6826,1.0791,1.7753,1.467,2.4282,0.8826,1.4856,1.9018,2.9176,3.4062,4.789,9.1462,11.377,20.638,17.751,34.383,19.055,2.9575,0.2805,8.779,0.1711,11.77-0.21921,10.957-1.431,20.346-6.08,28.566-14.149,2.4255-2.3807,4.4786-4.8221,5.9862-7.116,0.70221-1.0684,1.6033-2.4148,2.0067-3.0015,1.3049-1.8981,3.4751-6.6262,4.418-9.6117,1.7471-5.5317,2.5741-12.717,2.1584-18.937-0.19603-2.933-0.88159-7.5236-1.3996-9.3925-0.13984-0.50453-0.35154-1.3335-0.45529-1.838-0.375-1.825-2.83-7.515-4.435-10.251-2.127-3.626-4.838-7.078-8.127-10.37-7.999-8.0065-17.343-12.739-28.245-14.3-2.082-0.29796-4.297-0.44612-6.543-0.47216-0.46794-0.00545-0.92982-0.006205-1.3996,0zm-21.904,28.515c4.9049-0.01371,12.302-0.0092,22.276,0l29.493,0.01684,0.03373,0.55647c0.07137,1.2238-0.63715,4.6582-1.3153,6.3403-0.20465,0.50762-0.49508,1.2878-0.64078,1.72-0.27872,0.82678-0.71876,1.6544-1.8718,3.5243-2.1724,3.5231-6.0416,7.2452-9.8815,9.4937-1.8024,1.0554-4.2376,2.1664-5.5647,2.5463-0.6609,0.18915-2.5294,1.9727-3.3388,3.187-0.21761,0.32646-0.50617,0.70948-0.64078,0.85999-0.37633,0.42082-1.0982,2.2026-1.3321,3.2713-0.16986,0.77602-0.2149,1.4073-0.21921,3.2545-0.0032,1.2562,0.0266,2.5225,0.06745,2.8161,0.2965,2.1298,1.9122,6.7748,3.4231,9.814,0.26415,0.53136,0.57563,1.1622,0.6745,1.3996,0.09887,0.23743,0.39366,0.79745,0.65764,1.2478,0.5442,0.92847,0.58306,1.2168,0.23608,1.7368-0.77182,1.1568-3.5917,2.1464-7.2003,2.5294-1.3227,0.14038-3.5501,0.18156-4.3843,0.08431-0.17807-0.02078-0.78512-0.08779-1.349-0.15176-2.2024-0.24989-4.8653-1.0247-5.8513-1.7031-0.57841-0.39796-1.0455-1.032-1.0455-1.4165,0-0.14713,0.63171-1.5155,1.3996-3.0353,1.8755-3.712,2.2-4.5783,3.2882-8.6674,0.64427-2.4209,0.76585-5.8714,0.28666-8.0435-0.48077-2.1793-2.1517-4.8888-3.811-6.1549-0.93261-0.71161-1.1171-0.81023-1.7874-1.0455-1.8739-0.65768-4.3173-1.8285-5.9694-2.8666-1.6193-1.0175-2.6418-1.8054-4.1482-3.1533-2.8609-2.5598-4.7143-4.9551-6.3235-8.1615-1.3758-2.7415-2.0236-4.7635-2.4114-7.605-0.25198-1.8465-0.26566-2.1877-0.11804-2.3102,0.04486-0.03723,2.4641-0.07059,7.369-0.08431zm-17.706,12.276,5.6827,0,5.6827,0,0.21921,0.47215c0.11318,0.26402,0.52867,0.93178,0.92744,1.4839,0.39879,0.55213,1.0653,1.4902,1.4839,2.0741,0.90891,1.2677,3.5477,3.8777,5.0419,4.9913,2.3898,1.7811,4.9078,3.2018,6.9811,3.929,0.72712,0.25504,1.3153,0.48206,1.3153,0.52274,0,0.20522-1.6802,1.0001-2.7486,1.2984-1.2992,0.36284-1.6133,0.57997-2.2259,1.5345-0.49422,0.77011-1.0403,2.4369-1.1635,3.5243-0.12319,1.0875-0.03574,2.0936,0.37098,3.9796,0.39894,1.8499,0.76256,2.8255,1.8549,4.9913,0.55201,1.0945,0.99489,2.0749,0.99489,2.1753,0,0.25083-0.58101,0.81355-1.1298,1.0792-0.73715,0.35685-1.859,0.63777-3.2376,0.80941-1.2168,0.15149-2.0538,0.17295-2.7992,0.08431-1.9809-0.23553-3.111-0.46054-3.8953-0.79254-0.62918-0.26633-1.231-0.83071-1.231-1.1467,0-0.14283,0.45814-1.1873,1.0286-2.327,1.6089-3.2145,2.229-5.3793,2.2259-7.858-0.0021-1.6631-0.20317-2.5812-0.79254-3.6761-0.889-1.652-1.219-1.919-3.101-2.477-1.621-0.48-3.657-1.669-5.43-3.187-2.359-2.02-2.898-2.64-4.132-4.789-1.074-1.871-1.6895-3.859-1.8544-5.919l-0.06745-0.77568zm68.513,0.05056,5.8851,0,5.8682,0,0.03373,0.38784c0.03518,0.41842-0.08388,1.0647-0.60705,3.1196-0.28855,1.1334-0.46828,1.5432-1.0623,2.58-1.1007,1.921-1.5547,2.571-2.58,3.6255-2.5466,2.6189-4.9639,4.2166-7.5545,4.9913-0.6041,0.18067-1.205,0.38725-1.3321,0.45529-0.27012,0.14457-1.2922,1.6874-1.6694,2.5125-1.0868,2.3775-0.32867,7.0399,1.838,11.264,0.49911,0.97309,0.91058,1.8635,0.91058,1.9729,0,0.31034-0.36488,0.68722-0.96117,1.0118-0.67053,0.36496-1.2856,0.55666-2.5463,0.77568-2.6571,0.46163-5.8885,0.16103-7.6219-0.70823-0.60279-0.30229-1.1804-0.85576-1.1804-1.1298,0-0.07893,0.4795-1.0777,1.0623-2.2259,1.506-2.9666,2.1544-5.1458,2.2596-7.605,0.04295-1.0042,0.0073-1.5022-0.1349-2.1416-0.2244-1.0086-1.0891-2.7869-1.5851-3.2545-0.33222-0.31316-1.218-0.69366-2.6643-1.1635-0.70008-0.22744-2.0874-1.0226-2.0404-1.1635,0.01851-0.05557,0.44074-0.23542,0.94431-0.4047,1.2622-0.42432,1.9648-0.73857,3.3219-1.5176,2.913-1.6722,4.0253-2.5246,6.3572-4.8227,2.3321-2.2982,3.5697-3.842,4.6709-5.8513l0.38784-0.70823z" fill="#000"/>
</svg>
