<svg id="Layer_1" xmlns:rdf="http://www.w3.org/1999/02/22-rdf-syntax-ns#" xmlns="http://www.w3.org/2000/svg" enable-background="new 0 0 100 100" xml:space="preserve" height="100" viewBox="0 0 43.450001 100" width="43.45" version="1.1" y="0px" x="0px" xmlns:cc="http://creativecommons.org/ns#" xmlns:dc="http://purl.org/dc/elements/1.1/"><metadata id="metadata14"><rdf:RDF><cc:Work rdf:about=""><dc:format>image/svg+xml</dc:format><dc:type rdf:resource="http://purl.org/dc/dcmitype/StillImage"/><dc:title/></cc:Work></rdf:RDF></metadata>
<g id="Layer_2" transform="matrix(0.99482007,0,0,0.99482007,-28.016123,-6.2415011)">
</g>
<g id="g4" transform="matrix(0.99482007,0,0,0.99482007,-28.016123,-6.2415011)">
	<path id="path6" d="M65.029,6.898h-1.104v-0.174c0-0.248-0.198-0.45-0.446-0.45h-6.91c-0.248,0-0.451,0.202-0.451,0.45v0.174h-20.409c-3.754,0-6.808,3.054-6.808,6.808v2.354h-0.289c-0.248,0-0.45,0.202-0.45,0.451v3.46c0,0.248,0.202,0.45,0.45,0.45h0.289v3.695h-0.289c-0.248,0-0.45,0.202-0.45,0.45v2.31c0,0.249,0.202,0.451,0.45,0.451h0.289v3.689h-0.289c-0.248,0-0.45,0.202-0.45,0.451v2.31c0,0.248,0.202,0.45,0.45,0.45h0.289v52.692c0,3.754,3.054,6.808,6.808,6.808h29.32c3.753,0,6.807-3.054,6.807-6.808v-73.213c0-3.754-3.054-6.808-6.807-6.808zm-18.073,6.706h6.248c0.47,0,0.854,0.333,0.854,0.743s-0.388,0.743-0.854,0.743h-6.248c-0.471,0-0.854-0.333-0.854-0.743s0.383-0.743,0.854-0.743zm-3.249,0.024c0.396,0,0.719,0.322,0.719,0.719s-0.322,0.719-0.719,0.719-0.719-0.322-0.719-0.719,0.323-0.719,0.719-0.719zm6.375,76.169c-2.329,0-4.217-1.889-4.217-4.217,0-2.329,1.888-4.217,4.217-4.217,2.328,0,4.217,1.888,4.217,4.217,0,2.328-1.889,4.217-4.217,4.217zm19.167-11.885h-38.334v-57.501h38.334v57.501z"/>
	<path id="path8" d="m50.991,83.896h-1.854c-0.404,0-0.731,0.328-0.731,0.729v1.881c0,0.403,0.327,0.729,0.731,0.729h1.854c0.405,0,0.735-0.326,0.735-0.729v-1.881c0.001-0.4-0.33-0.729-0.735-0.729z"/>
</g>
</svg>
