<!-- Generator: Adobe Illustrator 13.0.0, SVG Export Plug-In . SVG Version: 6.00 Build 14948)  -->
<svg id="Layer_1" xmlns:rdf="http://www.w3.org/1999/02/22-rdf-syntax-ns#" xmlns="http://www.w3.org/2000/svg" enable-background="new 0 0 225.938 407.407" xml:space="preserve" height="100" viewBox="0 0 48.259997 99.999997" width="48.26" version="1.1" y="0px" x="0px" xmlns:cc="http://creativecommons.org/ns#" xmlns:dc="http://purl.org/dc/elements/1.1/"><metadata id="metadata44"><rdf:RDF><cc:Work rdf:about=""><dc:format>image/svg+xml</dc:format><dc:type rdf:resource="http://purl.org/dc/dcmitype/StillImage"/><dc:title/></cc:Work></rdf:RDF></metadata>
<path id="path5" d="m35.963,0.0019341c-2.0625,0.062427-1.9547,1.5863-2.022,3.5101-0.07687,2.1986,0.29522,3.7718,1.2946,7.554-3.3979-2.5676-3.1519-8.1852-6.1193-7.0935-2.9674,1.0916-2.182,3.6434-1.1211,6.4262,1.0609,2.7829,2.4709,5.4604,4.8847,7.8743-2.706,0.44587-6.3292,1.6327-5.3452,4.431,0.98399,2.7982,3.2388,0.68707,5.3452,0.84082s3.6125,2.2619,5.7189,2.4157c2.1064,0.15375,2.5868,4.2432,2.4023,7.4873-0.16935,2.9778-3.8493,5.0869-5.7723,3.1898-8.727-14.544-20.068-24.696-24.798-27.34,1.43,2.9944,0.952,20.226-0.36,31.804-1.8409,9.517-6.8434,10.901-7.1072,15.195-0.27675,4.5048,1.4556,4.9356,1.348,9.1022-0.10762,4.1666-3.8116,5.8544-4.2575,8.1145-0.44587,2.2601,1.9081,2.9829,3.2765,2.9829,0.40028,0,0.80126-0.51317,1.1811-1.3346-0.13002,1.4636-0.23722,2.9028-0.30696,4.3042-0.21525,4.2127,0.43098,5.8724,3.1831,5.8724,4.8585,0,11.025-10.24,18.758-10.01,7.749,0.23062,10.212,11.748,13.84,11.671,3.6285-0.07686,6.549-1.3372,6.5797-12.545,0.03195-9.9323-2.4177-19.309-6.0926-27.7-0.0028-0.0064-0.0038-0.01358-0.0066-0.02001-0.95462-3.2646-0.51925-7.1151,1.3013-9.6894,1.968-2.7829,0.30915-8.9766,1.3546-11.698,1.0455-2.7214,3.4733-1.9512,4.2575-6.1793,0.78413-4.2281-2.5496-7.1329,0.03337-12.499,2.585-5.3664-1.478-5.338-3.262-4.0312-1.783,1.3069-2.231,4.4874-2.969,6.9935-2.429-2.6445-1.076-9.1321-4.198-9.5626-0.39-0.053814-0.726-0.075649-1.021-0.066728zm-12.865,31.737c2.5164-0.07184,4.9375,0.89802,6.0392,3.0363,0.01529-0.0035,0.03142-0.0034,0.04672-0.0066,0.19077,0.39749,0.3236,0.81433,0.40706,1.2412,0.000427,0.0022-0.000428,0.0046,0,0.0066,0.05605,0.23994,0.0989,0.49299,0.12679,0.75406,0.01178,0.23204,0.0128,0.4605,0.0066,0.68733,0.000081,0.01116-0.000047,0.0222,0,0.03336,0.00064,0.16771-0.00064,0.339-0.0066,0.50716-0.05456,0.57106-0.17777,1.122-0.36035,1.6483-0.0022,0.0067-0.0045,0.01331-0.0066,0.02001-0.0153,0.04376-0.03058,0.09008-0.04672,0.13346-0.01514,0.04317-0.0374,0.08374-0.0534,0.12679-0.02026,0.05146-0.03865,0.10256-0.06006,0.15348-0.0668,0.16875-0.1335,0.33992-0.21354,0.50716-0.67606,1.4136-1.7901,2.5083-3.1164,3.2565-0.02101,0.0125-0.04562,0.02107-0.06673,0.03336-0.701,0.40893-1.4597,0.72097-2.2555,0.91422-0.6685,0.16234-1.3481,0.24371-2.022,0.24023-0.01109-0.000058-0.02226,0.000102-0.03336,0-0.20191,0.005-0.40666,0.0013-0.60726-0.0066-1.2449-0.04999-2.3959-0.47654-3.3566-1.1611-0.01565-0.01115-0.03117-0.02208-0.04672-0.03336-0.0051-0.0036-0.0082-0.0098-0.01334-0.01334-0.07361-0.05377-0.14897-0.10339-0.22021-0.16016-0.0039-0.0029-0.0094-0.0036-0.01334-0.0066-0.6755-0.51471-1.2476-1.1771-1.6683-1.9819,0.0025-0.0016,0.0041-0.0049,0.0066-0.0066-0.60371-1.1065-0.89126-2.3964-0.74072-3.7236,0.36386-3.2089,4.3145-5.7151,7.2804-6.1193,0.33114-0.04511,0.66358-0.07063,0.9943-0.08008zm8.3681,2.6959c4.7816,7.4568,12.87,24.383,12.639,37.636-0.231,13.254-1.656,12.409-3.824,12.486s-5.679-11.688-14.581-11.764c-8.886-0.077-14.311,10.484-18.124,10.069s3.672-33.211,4.871-39.084c0.55343-0.37252,1.1284-0.76584,1.7083-1.1611,0.08561,0.16525,0.17084,0.33122,0.26692,0.49381,1.8495,3.1299,5.9464,4.1661,9.3024,3.3833,4.5924-1.0709,7.986-5.0875,7.6875-9.8629-0.07505-0.77648-0.2551-1.4914-0.52718-2.1421,0.19475-0.02077,0.38664-0.04098,0.58056-0.0534zm-24.124,18.725c0.261,0.007,0.40084,0.37346,0.31364,1.2545-0.53265,2.6267-1.0415,5.3634-1.5015,8.1346-0.56061-1.6355-1.348-3.0223-1.348-4.5311,0-1.8786,1.7735-4.8785,2.5358-4.858z"/>
</svg>
