<svg id="svg2" xmlns:rdf="http://www.w3.org/1999/02/22-rdf-syntax-ns#" xmlns="http://www.w3.org/2000/svg" height="100" width="62.6" version="1.1" xmlns:cc="http://creativecommons.org/ns#" xmlns:dc="http://purl.org/dc/elements/1.1/" viewBox="0 0 156.5 250">
 <metadata id="metadata34">
  <rdf:RDF>
   <cc:Work rdf:about="">
    <dc:format>image/svg+xml</dc:format>
    <dc:type rdf:resource="http://purl.org/dc/dcmitype/StillImage"/>
    <dc:title/>
   </cc:Work>
  </rdf:RDF>
 </metadata>
 <path id="path6-6" fill="#5382a1" d="m50.482,166.45c-4.6926,1.2328-13.115,4.334-10.832,10.682,4.361,6.8957,13.693,7.901,21.064,9.392,18.691,2.6187,38.105-0.18528,55.152-8.3118-5.8557-1.8407-11.341-5.3174-16.744-7.4416-15.737,3.2083-32.53,4.5583-48.19,0.36007,0.80124-1.8699,7.9791-6.1653,1.9882-4.8601-0.81275,0.0597-1.6255,0.11938-2.4383,0.17908z"/>
 <path id="path8-8" fill="#5382a1" d="m45.44,143.61c-4.6911,1.888-13.044,4.1384-12.243,10.682,2.9001,6.5499,11.62,7.1497,17.752,8.5806,23.301,3.3832,47.197,0.40541,69.566-6.5702-4.9366-1.8486-10.208-3.5927-13.863-7.5916-19.824,3.9297-40.76,5.9056-60.583,1.7104-2.7885-1.4693,2.8556-4.2146,3.1686-5.6986,5.5968-4.7914-1.9525-0.70128-3.7987-1.1128z"/>
 <path id="path10-8" fill="#e76f00" d="m124.27,47.59c-16.51,4.9826-34.399,11.813-44.199,26.766-6.9797,10.881-1.9134,24.851,6.2713,33.517,5.6728,5.58,3.436,14.736-2.3705,19.294-6.0849,5.3148,0.94088,4.383,4.4709,1.8304,8.6292-5.3281,18.268-15.062,14.583-26.166-2.9-8.385-13.784-15.334-9.939-25.133,7.469-13.478,23.029-19.407,34.749-28.557,4.5081-3.0099-1.8258-1.1305-3.5708-1.5395z"/>
 <path id="path12-1" fill="#5382a1" d="m28.907,181.54c-9.8888,0.96436-20.481,3.5507-27.696,10.802-3.5772,4.2084,1.4975,9.0161,5.7912,9.512,36.582,6.886,74.699,7.8965,111.44,1.4703,9.5921-2.4962,21.058-3.5953,27.996-11.342,3.2359-5.4864-4.375-9.5044-8.8356-9.8506-1.8428,0.46057,3.2736,3.7269,3.1344,6.1298-4.492,4.959-12.444,4.8202-18.724,6.3914-31.204,4.0457-63.371,5.3149-94.55,0.4501-3.3827-0.8552-7.6128-1.4089-10.262-3.2707,7.2084-4.7913,16.09-6.0343,24.605-4.861-3.9894-2.8918-7.6395-6.1631-12.903-5.4312z"/>
 <path id="path14-9" fill="#5382a1" d="m52.252,119.82c-11.971,0.66717-24.3,3.6098-34.297,10.292-3.5368,3.3465,0.86838,7.688,4.531,8.1317,21.119,5.2655,43.459,4.0472,65.05,2.4601,9.8783-1.5413,20.689-1.4785,29.501-6.511,3.5553-1.922,7.3173-3.4307,10.262-6.3013-11.535-0.68988-22.817,3.1052-34.293,3.5113-18.638,1.1434-37.734,3.2729-56.206-0.27059-2.8567-0.66101,2.3232-2.1505,3.0606-2.7306,6.644-2.9533,13.984-3.6124,20.374-7.2015-2.6496-0.6028-5.2185-1.7235-7.9817-1.3803z"/>
 <path id="path16-1" fill="#5382a1" d="m136.18,117.84c-6.0616-0.0254-11.883,2.8745-14.345,8.6973-2.8397,3.8509,4.7576-1.764,7.2939-1.7058,8.0932-3.3588,17.896,5.4462,14.043,13.743-3.9797,10.081-14.766,14.919-22.865,20.704-6.7362,5.5193-4.585,5.7756,2.6054,3.1631,13.018-3.8078,28.621-9.9038,32.892-24.078,3.0781-11.667-8.2649-21.607-19.624-20.524z"/>
 <path id="path18-4" fill="#e76f00" d="M97.021,7.2015c4.039,13.114-2.184,26.86-12.302,35.318-11.355,11.263-27.675,18.965-34.448,34.147-4.4282,12.987,5.8334,24.838,14.042,33.705,5.6477,5.7252,11.383,11.537,17.975,16.285-3.007-15.24-19.979-25.06-18.454-41.442,3.028-15.734,19.524-22.64,28.987-33.997,9.899-10.479,17.879-26.681,10.739-40.839-1.83-4.0571-5.333-6.9692-8.099-10.382,0.52,2.4005,1.04,4.801,1.56,7.2015z"/>
 <path id="path20-1" fill="#5382a1" d="m152.77,194.92c-7.2904,7.0711-18.359,8.4255-27.886,10.815-33.504,6.4284-68.173,5.7781-101.86,1.2176,9.4047,9.1127,23.432,8.4975,35.528,9.9321,27.612,1.1926,55.972,1.4431,82.518-6.8715,7.5731-2.4622,17.246-8.421,15.125-17.851,0.62817-5.643-2.2228,1.7831-3.4224,2.7577z"/>
</svg>
