<?xml version="1.0" encoding="UTF-8" standalone="no"?>
<!-- Created with Inkscape (http://www.inkscape.org/) -->
<svg xmlns:rdf="http://www.w3.org/1999/02/22-rdf-syntax-ns#" xmlns="http://www.w3.org/2000/svg" version="1.0" xmlns:cc="http://creativecommons.org/ns#" xmlns:xlink="http://www.w3.org/1999/xlink" viewBox="0 0 50.31 100" xmlns:dc="http://purl.org/dc/elements/1.1/">
 <defs></defs>
 <metadata>
  <rdf:RDF>
   <cc:Work rdf:about="">
    <dc:format>image/svg+xml</dc:format>
    <dc:type rdf:resource="http://purl.org/dc/dcmitype/StillImage"/>
    <dc:title/>
   </cc:Work>
  </rdf:RDF>
 </metadata>
 <path d="M25.128,0,23.536,4.4534,18.785,17.719,4.7503,18.097,0,18.219l3.7652,2.9015,11.188,8.61-3.9676,13.428-1.3495,4.5344,3.9136-2.6721,2.6991-1.8354v13.495,23.32h8.9069,8.9204v-23.32s-0.08961-8.9691-0.06748-13.59l2.7935,1.9028,3.9136,2.6856-1.337-4.548-3.981-13.522,11.134-8.543,3.778-2.874-4.75-0.135-14.13-0.405-4.709-13.199-1.593-4.4534zm0,10.027,3.4953,9.8381,0.39136,1.0931,1.1606,0.027,10.553,0.29689-8.3131,6.3698-0.90418,0.68826,0.32389,1.1201,2.969,10.081-8.637-5.8974-0.95816-0.66126-0.94467,0.66126-8.7045,5.9244,2.9555-10,0.32389-1.1066-0.90418-0.70176-8.3536-6.4238,10.459-0.2834,1.1471-0.027,0.39136-1.0931,3.5493-9.9055z" fill="#000"/>
</svg>
