<svg id="svg2" xmlns:rdf="http://www.w3.org/1999/02/22-rdf-syntax-ns#" xmlns="http://www.w3.org/2000/svg" enable-background="new 0 0 100 100" xml:space="preserve" version="1.1" y="0px" x="0px" xmlns:cc="http://creativecommons.org/ns#" xmlns:dc="http://purl.org/dc/elements/1.1/" viewBox="0 0 96.25 100"><metadata id="metadata70"><rdf:RDF><cc:Work rdf:about=""><dc:format>image/svg+xml</dc:format><dc:type rdf:resource="http://purl.org/dc/dcmitype/StillImage"/><dc:title/></cc:Work></rdf:RDF></metadata>
<g id="レイヤー_3" display="none">
	<path id="path5" display="inline" d="m61.549,4.018c1.271,0,2.303,1.145,2.303,2.557,0,0-24.986,15.756-24.985,43.705-0.002,27.706,24.983,43.702,24.983,43.702,0.002,1.414-1.028,2.559-2.299,2.559s-25.584-18.555-25.583-46.261c-0.002-27.949,24.311-46.262,25.581-46.262z"/>
	<rect id="rect7" display="inline" height="87.394" width="1.244" y="6.493" x="61.194"/>
</g>
<g id="レイヤー_1" display="none">
	<rect id="rect10" display="inline" height="87.396" width="3.5" y="6.762" x="60.5"/>
	<path id="path12" display="inline" d="m61.588,97.941c-2.367,0-27.92-20.541-27.92-47.771,0-27.771,25.553-47.771,27.92-47.771,2.369,0,4.289,1.962,4.289,4.382,0,0-25.633,15.492-25.633,43.639,0,26.854,25.633,43.139,25.633,43.139,0,2.421-1.92,4.382-4.289,4.382z"/>
</g>
<g id="レイヤー_4" display="none">
	<path id="path15" display="inline" d="m75.99,32.014c0,17.463-16.975,35.42-26.028,35.42s-26.027-18.106-26.027-35.42c0-15.438,11.652-27.952,26.027-27.952s26.028,12.515,26.028,27.952z"/>
	<g id="g17" display="inline">
		<path id="path19" d="m51.123,66.397c-0.934-0.582-1.525-0.175-1.314,0.904l1.971,10.109c0.211,1.079,1.077,1.391,1.926,0.69l5.426-4.473c0.849-0.7,0.779-1.749-0.154-2.331l-7.855-4.899z"/>
	</g>
	<path id="path21" display="inline" d="m37.418,96.938c-0.522,0-1.029-0.272-1.305-0.758-0.41-0.72-0.158-1.636,0.562-2.046,5.019-2.856,4.865-5.358,4.56-10.344-0.077-1.263-0.165-2.694-0.165-4.258,0-8.365,7.784-13.18,8.115-13.381,0.709-0.427,1.631-0.203,2.06,0.506,0.43,0.708,0.204,1.629-0.503,2.059-0.107,0.066-6.672,4.182-6.672,10.816,0,1.472,0.081,2.795,0.16,4.075,0.32,5.226,0.573,9.353-6.07,13.134-0.236,0.133-0.491,0.197-0.742,0.197z"/>
</g>
<g id="レイヤー_5" display="none">
	<path id="path24" display="inline" d="m57.843,46.789c0,12.554,12.13,25.464,18.6,25.464,6.468,0,18.598-13.017,18.598-25.464,0-11.1-8.326-20.097-18.598-20.097-10.273,0-18.6,8.997-18.6,20.097z"/>
	<g id="g26" display="inline">
		<path id="path28" d="m75.843,71.067c-0.953-0.55-1.547-0.119-1.32,0.957l1.544,7.32c0.227,1.076,1.128,1.411,2.002,0.744l4.182-3.19c0.874-0.667,0.811-1.663-0.143-2.213l-6.265-3.618z"/>
	</g>
	<path id="path30" display="inline" d="m59.819,93.871c-0.414,0-0.818-0.205-1.057-0.581-0.37-0.583-0.196-1.355,0.387-1.725,16.235-10.292,14.671-29.134,14.654-29.324-0.064-0.688,0.44-1.297,1.128-1.36,0.679-0.066,1.296,0.44,1.36,1.128,0.02,0.204,1.71,20.565-15.804,31.668-0.207,0.132-0.438,0.194-0.668,0.194z"/>
	<path id="path32" display="inline" d="m42.699,46.789c0,12.554-12.204,25.464-18.713,25.464-6.508,0-18.713-13.017-18.713-25.464,0-11.1,8.378-20.097,18.713-20.097s18.713,8.997,18.713,20.097z"/>
	<g id="g34" display="inline">
		<path id="path36" d="m24.597,71.063c0.954-0.547,1.548-0.114,1.32,0.961l-1.552,7.322c-0.229,1.075-1.132,1.412-2.009,0.748l-4.22-3.2c-0.876-0.664-0.813-1.656,0.141-2.203l6.32-3.628z"/>
	</g>
	<path id="path38" fill="#000" display="inline" d="M50.309,3.7c-13.812,0-25.049,12.008-25.049,26.769,0,16.586,16.07,33.444,25.049,33.444,4.617,0,10.77-4.078,16.057-10.642,5.715-7.093,8.993-15.404,8.993-22.802,0-14.761-11.238-26.769-25.05-26.769zm0,58.425c-8.091,0-23.262-16.181-23.262-31.656,0-13.797,10.415-24.981,23.262-24.981s23.263,11.185,23.263,24.981c0,15.608-15.171,31.656-23.263,31.656z"/>
	<path id="path40" display="inline" d="m73.572,30.469c0,15.608-15.171,31.656-23.263,31.656-8.091,0-23.262-16.181-23.262-31.656,0-13.797,10.415-24.981,23.262-24.981s23.263,11.184,23.263,24.981z"/>
	<g id="g42" display="inline">
		<path id="path44" d="m51.526,60.311c-0.933-0.582-1.524-0.175-1.314,0.904l2.133,10.936c0.211,1.079,1.077,1.391,1.926,0.69l5.926-4.885c0.849-0.7,0.779-1.749-0.154-2.331l-8.517-5.314z"/>
	</g>
	<path id="path46" display="inline" d="m52.331,93.678c-0.508,0-1.004-0.258-1.285-0.725-10.84-17.962-0.436-34.984,0.013-35.7,0.441-0.703,1.368-0.915,2.067-0.476,0.702,0.439,0.915,1.364,0.477,2.065-0.1,0.16-9.856,16.209,0.012,32.56,0.428,0.71,0.2,1.632-0.509,2.06-0.244,0.146-0.51,0.216-0.775,0.216z"/>
	<path id="path48" display="inline" d="m40.71,93.871c-0.228,0-0.458-0.063-0.666-0.192-17.62-11.103-15.918-31.467-15.899-31.671,0.065-0.687,0.672-1.194,1.36-1.127,0.687,0.064,1.192,0.673,1.129,1.36-0.018,0.188-1.551,19.055,14.743,29.322,0.584,0.368,0.759,1.14,0.391,1.724-0.237,0.378-0.643,0.584-1.058,0.584z"/>
</g>
<g id="レイヤー_6" display="none">
	<path id="path51" display="inline" d="M87.529,67.603c-0.898-8.087-4.992-9.737-11.518-18.696-5.868-8.058-7.357-13.994-7.932-22.381,0,0-2.219-1.054-5.283-1.054,0,0,0.901,9.681-12.797,9.681-13.699,0-12.798-9.681-12.798-9.681-3.064,0-5.283,1.054-5.283,1.054-0.574,8.387-2.063,14.323-7.932,22.381-6.525,8.959-10.619,10.609-11.517,18.696-1.979,17.821,22.69,19.508,37.531,19.508,14.84,0,39.51-1.687,37.529-19.508z"/>
	<path id="path53" display="inline" d="m50,12.08c-8.463,0-29.733,1.889-39.367,8.702-9.633,6.814-6.523,22.623,4.326,20.417,12.217-2.484,14.749-8.591,8.26-14.516,0,0,11.269-5.012,26.781-5.012"/>
	<path id="path55" display="inline" d="m50,12.08c8.463,0,29.734,1.889,39.367,8.702s6.523,22.623-4.326,20.417c-12.217-2.484-14.749-8.591-8.26-14.516,0,0-11.27-5.012-26.781-5.012"/>
	<circle id="circle57" cx="50" cy="56.698" r="14.596" display="inline" fill="#000"/>
</g>
<g id="レイヤー_2" transform="matrix(1.066226,0,0,1.066226,-5.1880217,-12.88001)">
	<path id="path60" d="m50,12.08c-8.463,0-29.733,1.889-39.367,8.702-9.633,6.814-6.523,22.623,4.326,20.417,12.217-2.484,14.749-8.591,8.26-14.516,0,0,11.269-5.012,26.781-5.012"/>
	<path id="path62" d="m50,12.08c8.463,0,29.734,1.889,39.367,8.702s6.523,22.623-4.326,20.417c-12.217-2.484-14.749-8.591-8.26-14.516,0,0-11.27-5.012-26.781-5.012"/>
	<path id="path64" d="M87.529,67.603c-0.898-8.087-4.992-9.737-11.518-18.696-5.868-8.058-7.357-13.994-7.932-22.381,0,0-2.219-1.054-5.283-1.054,0,0,0.901,9.681-12.797,9.681-13.699,0-12.798-9.681-12.798-9.681-3.064,0-5.283,1.054-5.283,1.054-0.574,8.387-2.063,14.323-7.932,22.381-6.525,8.959-10.619,10.609-11.517,18.696-1.979,17.821,22.69,19.508,37.531,19.508,14.84,0,39.51-1.687,37.529-19.508zm-37.529,3.692c-8.061,0-14.596-6.536-14.596-14.597s6.535-14.596,14.596-14.596,14.596,6.536,14.596,14.596-6.535,14.597-14.596,14.597z"/>
</g>
</svg>
