<svg id="svg2" xmlns:rdf="http://www.w3.org/1999/02/22-rdf-syntax-ns#" xmlns="http://www.w3.org/2000/svg" xml:space="preserve" height="100" width="93.37" version="1.1" xmlns:cc="http://creativecommons.org/ns#" xmlns:dc="http://purl.org/dc/elements/1.1/" viewBox="0 0 74.696003 79.999999"><metadata id="metadata34"><rdf:RDF><cc:Work rdf:about=""><dc:format>image/svg+xml</dc:format><dc:type rdf:resource="http://purl.org/dc/dcmitype/StillImage"/><dc:title/></cc:Work></rdf:RDF></metadata>
<g id="Layer_x0020_3" transform="matrix(0.18355298,0,0,0.17067197,-2.3157767,-2.0202271)">
<path id="path10" d="m68.219,0c-3.5703,0.030838-6.6662,0.53351-8.8125,1-1.0732,0.23325-1.9311,0.46479-2.4688,0.625-0.26882,0.080103-0.45652,0.13863-0.59375,0.1875-0.03431,0.012218-0.05237,0.01476-0.09375,0.03125-0.01449,0.00577-0.04211,0.022447-0.0625,0.03125-0.0099-0.00229-0.02138,0.00228-0.03125,0-2.207-0.5104-4.58-0.8357-7.155-0.875-5.085-0.07754-9.154,1.1871-12.312,3.1875-1.572-0.5637-7.636-2.6275-14.719-2.9375-1.168-0.0511-2.344-0.0321-3.531,0.0312-4.752,0.2534-9.6315,1.5595-13.188,5.0626s-5.6307,9.0729-5.1875,17.312c0.10413,1.9363,0.79877,5.9525,2,10.938,1.2012,4.985,2.8909,10.838,4.9688,16.094,2.0778,5.2554,4.4767,9.8897,7.4688,12.594,1.496,1.352,3.2703,2.2644,5.2188,2.1875,1.9485-0.07692,3.802-1.1369,5.4688-3,3.9764-4.4481,7.2368-7.6564,7.875-8.2812,1.7185,0.85968,3.6363,1.3913,5.6562,1.4375,0.0032,0.0418-0.0028,0.08338,0,0.125-1.1674,1.2749-1.719,2.0522-2.2812,2.4688-0.65468,0.48505-1.7254,0.88369-4.7812,1.4688-1.6843,0.32282-2.7814,0.67283-3.625,1.3125-0.42179,0.31983-0.80175,0.76486-0.9375,1.3125s0.01793,1.1311,0.25,1.5312c0.46412,0.80024,1.159,1.1982,1.875,1.5625,0.71602,0.36427,1.4587,0.64311,2.1875,0.8125,1.5625,0.36356,4.1946,0.80991,7.125,0.34375,2.1618-0.34389,4.5102-1.2191,6.5938-2.9688-0.02968,3.5562,0.01954,6.976,0.15625,9.9375,0.10031,2.1729,0.2429,4.1134,0.4375,5.6875s0.38875,2.7434,0.78125,3.6562c0.56807,1.3203,1.5181,3.468,3.5938,5.0938,2.0757,1.6257,5.3037,2.567,9.7188,1.6875,3.5695-0.71154,6.2162-1.8104,8.0938-3.625,1.8775-1.8146,2.8413-4.2343,3.4062-7.2812,0.66813-3.5995,1.7744-11.801,2.2812-16.219,0.0096,0.0028,0.02164-0.0028,0.03125,0,1.2134,0.35067,2.6719,0.45331,4.2188,0.4375,3.0936-0.03161,6.5676-0.57534,9-1.625,2.742-1.1841,4.8871-2.6082,5.9688-4.125,0.2704-0.3792,0.50554-0.79384,0.5625-1.3438,0.05696-0.5499-0.24416-1.3075-0.78125-1.6875-1.0742-0.75999-2.1189-0.55248-3.5312-0.28125-5.6128,1.0772-8.4251,0.66138-9.6562,0.1875-0.308-0.119-0.535-0.24-0.687-0.344,5.907-8.358,10.122-17.658,12.343-25.656,1.146-4.122,1.761-7.884,1.813-11.032,0.052-3.147-0.371-5.718-1.844-7.4682-6.548-7.7806-15.672-9.6555-22.812-9.5938zm0,2.6562c6.5986-0.056994,14.666,1.5573,20.562,8.5625,0.72512,0.86162,1.2973,2.9328,1.25,5.7812-0.04731,2.8484-0.64784,6.4385-1.75,10.406-2.0477,7.3716-5.885,16.027-11.219,23.844-0.16424-0.18791-0.32966-0.36678-0.5-0.5625,2.0276-3.122,2.4035-6.2937,2.25-9.1875-0.16305-3.0748-0.83379-5.8832-0.75-8.2812,0.11368-3.3143,1.0687-5.6437,0.9375-9.125,0.0061-0.01892,0.0268-0.0453,0.03125-0.0625,0.06839-0.26437,0.04017-0.40845,0.03125-0.5625-0.01783-0.3081-0.06659-0.5945-0.15625-0.9375-0.179-0.687-0.499-1.546-0.968-2.594-0.939-2.098-2.491-4.865-4.813-7.626-2.818-3.3497-6.819-6.7226-12.125-8.9058,1.9175-0.36895,4.4006-0.72566,7.2188-0.75zm-19.25,1.0312c10.697,0.16307,17.599,5.1986,21.875,10.281,2.1379,2.5413,3.592,5.0797,4.4375,6.9688,0.24991,0.5584,0.3538,0.89284,0.5,1.3125-5.0462-0.47422-8.394,0.36521-10.312,2.4062-2.1645,2.3028-2.0642,5.5671-1.2188,8.7188,0.84543,3.1517,2.4722,6.3923,3.9688,9.0625,0.74825,1.3351,1.4646,2.5237,2.0312,3.4688,0.56667,0.94508,1.0015,1.6982,1.0938,1.9062,0.86446,1.9488,1.9779,3.3271,2.8438,4.3438,0.44684,0.52468,0.78696,0.9521,1.0312,1.2812-0.31334,0.08555-0.69358,0.20742-1.0938,0.375-0.81128,0.33973-1.7376,0.9669-2.3438,2-0.577,0.981-0.849,2.281-0.782,3.937a1.4309,1.3305,0,0,0,0,0.0625c-0.18112,2.2456-1.7278,14.34-2.5,18.5-0.51477,2.7762-1.31,4.6052-2.6562,5.9062-1.3462,1.3011-3.3557,2.1921-6.625,2.8438-3.7707,0.7511-5.8422,0.0021-7.2812-1.125-1.4391-1.1271-2.237-2.7976-2.7812-4.0625-0.16332-0.37983-0.44233-1.4912-0.625-2.9688-0.183-1.476-0.309-3.337-0.407-5.467-0.197-4.261-0.221-9.559-0.063-14.813a1.4301,1.3298,0,0,0,-0.093,-0.563c-0.063-0.365-0.147-0.725-0.281-1.062-0.53717-1.3478-1.5452-2.5018-3-3.0625-0.47586-0.18328-1.291-0.52046-2.3125-0.4375-0.18466,0.015-0.37472,0.08026-0.5625,0.125,0.29593-1.1379,0.82207-2.4888,1.4375-4.0312,1.4481-3.6184,5.3701-8.4333,2.375-21.312-0.62431-2.6839-2.3501-4.438-4.4375-5.1875-1.0437-0.37474-2.147-0.53075-3.25-0.53125-1.103-0.000427-2.2129,0.14586-3.2812,0.375-2.1366,0.45827-4.136,1.2442-5.6562,2.0312-0.01363,0.0071-0.0177,0.0242-0.03125,0.03125,0.21275-2.3998,0.74124-5.9678,2.1875-9.5312,1.245-3.0675,3.1145-6.0645,5.9375-8.25s6.5857-3.6119,11.875-3.5312zm-28.094,0.2188c5.3203,0.097474,10.466,1.4038,13.25,2.25-2.6682,2.428-4.4573,5.4208-5.6562,8.375-2.6926,6.6342-2.536,13.167-2.5312,13.344,0.000065,0.0024,0,0.0625,0,0.0625a1.4379,1.337,0,0,0,0.03125,0.25c0.02047,0.8866,0.13986,2.2157,0.1875,4.1875,0.05223,2.1619,0.0019,4.8913-0.4375,7.8125-0.75301,5.0068,1.3585,9.6509,4.9375,12.5-0.99362,0.97734-3.931,3.8917-7.6875,8.0938-1.3558,1.5156-2.4535,1.9949-3.375,2.0312-0.921,0.036-1.933-0.389-3.093-1.438-2.321-2.097-4.768-6.532-6.7812-11.625-2.0136-5.093-3.6634-10.852-4.8438-15.75s-1.8897-9.03-1.9688-10.5c-0.4182-7.774,1.4987-12.449,4.4063-15.312,2.9075-2.864,6.9825-4.0208,11.282-4.25,0.761-0.0406,1.521-0.0452,2.281-0.0313zm52.688,20.875c0.77058,0.01435,1.6521,0.07913,2.5938,0.1875-0.05338,2.6193-0.82142,4.7719-0.9375,8.1562-0.10068,2.8817,0.60262,5.7207,0.75,8.5,0.11918,2.2474-0.09793,4.429-1.2188,6.625-0.26498-0.4377-0.51369-0.90478-0.75-1.4375-0.25399-0.57245-0.6817-1.2397-1.25-2.1875s-1.2443-2.1135-1.9688-3.4062c-1.449-2.5854-3.0045-5.6896-3.75-8.4688-0.74551-2.7792-0.64402-5.0602,0.5625-6.3438,0.90489-0.96269,2.7008-1.6859,5.9688-1.625zm-35.625,0.469c0.82813,0.000427,1.5812,0.08357,2.2188,0.3125,1.2752,0.45785,2.2193,1.2686,2.6875,3.2812,2.8662,12.325-0.55131,15.484-2.2812,19.812-0.59338,1.487-1.2018,2.8911-1.5625,4.2812-6.2048-0.0093-11.486-5.6103-10.469-12.375,0.46831-3.1137,0.55452-5.9936,0.5-8.25-0.04975-2.0589-0.19684-3.4499-0.21875-4.0312,0.03927-0.03333,0.04004-0.02188,0.09375-0.0625,0.30962-0.23415,0.85078-0.57012,1.5-0.90625,1.2984-0.67226,3.1048-1.3949,4.9062-1.7812,0.90071-0.19319,1.7969-0.2816,2.625-0.28125zm33.906,0.78125c-0.28027-0.0064-0.59331,0.02194-0.90625,0.0625-0.62586,0.08109-1.1853,0.25656-1.5938,0.46875-0.20422,0.10609-0.37632,0.20429-0.5,0.34375s-0.18327,0.31508-0.15625,0.5c0.02681,0.17697,0.10877,0.33684,0.25,0.5s0.33573,0.32593,0.5625,0.46875c0.45354,0.28563,1.0772,0.49343,1.75,0.40625,0.67351-0.08682,1.2238-0.45192,1.625-0.84375,0.20058-0.19592,0.36016-0.39876,0.46875-0.59375,0.10345-0.18575,0.17498-0.34871,0.15625-0.53125-0.000918-0.0091,0.0014-0.02212,0-0.03125-0.02775-0.1849-0.15266-0.33478-0.3125-0.4375s-0.36618-0.16862-0.59375-0.21875c-0.22757-0.05014-0.46973-0.08734-0.75-0.09375zm-33.719,0.688c-0.29414,0.0067-0.56504,0.03922-0.8125,0.09375s-0.49215,0.1243-0.6875,0.25c-0.08184,0.05266-0.15086,0.10946-0.21875,0.1875h-0.125l-0.0625,0.40625c-0.04211,0.2772,0.03507,0.46985,0.15625,0.6875s0.31633,0.4464,0.53125,0.65625c0.42985,0.41971,1.0359,0.81016,1.7812,0.90625,0.74428,0.09652,1.4148-0.15909,1.9062-0.46875,0.24573-0.15483,0.43578-0.31734,0.59375-0.5s0.30692-0.34816,0.34375-0.59375c0.03912-0.26112-0.099-0.51684-0.25-0.6875s-0.3404-0.29084-0.5625-0.40625c-0.4442-0.23082-1.0049-0.4157-1.6562-0.5-0.3253-0.04222-0.64336-0.03792-0.9375-0.03125zm38.75,29.062c0.37729,0.28605,0.84559,0.55342,1.4375,0.78125,2.0504,0.78923,5.3886,1.0736,11.312-0.0625-0.87552,0.73518-2.3109,1.7081-4,2.4375-1.7767,0.76671-5.0969,1.3473-7.8125,1.375-1.357,0.013-2.581-0.102-3.312-0.313-0.34934-0.10096-0.55053-0.22662-0.625-0.28125-0.06682-1.3716,0.13888-2.1693,0.40625-2.625,0.27581-0.47007,0.59965-0.66301,1.0312-0.84375,0.4316-0.18074,0.93512-0.26313,1.5625-0.46875zm-34.25,0.375c0.22635-0.01839,0.51904,0.04554,0.96875,0.21875,0.46082,0.17762,1.1118,0.8236,1.4062,1.5625,0.14725,0.36945,0.20486,0.70825,0.1875,1.0312-0.000296,0.01045,0.000294,0.0208,0,0.03125-0.02185,0.31049-0.10878,0.58799-0.28125,0.8125-2.0746,2.701-4.5082,3.7535-6.8438,4.125-2.3355,0.37152-4.5705,0.0056-5.9375-0.3125-0.4791-0.11136-1.0707-0.32818-1.5312-0.5625-0.1899-0.09661-0.19027-0.09519-0.3125-0.1875,0.38327-0.167,0.96505-0.40138,1.9688-0.59375,3.1709-0.60708,4.746-1.0628,5.9688-1.9688,1.2227-0.90592,1.7354-1.8968,3.2188-3.4375,0.63-0.65558,0.96115-0.70037,1.1875-0.71875z" transform="matrix(4.3584147,0,0,4.6873544,12.616394,11.836895)"/>
</g>
</svg>
