<?xml version="1.0" encoding="UTF-8" standalone="no"?>
<svg xmlns:rdf="http://www.w3.org/1999/02/22-rdf-syntax-ns#" xmlns="http://www.w3.org/2000/svg" height="100" width="63.8" version="1.1" xmlns:cc="http://creativecommons.org/ns#" xmlns:dc="http://purl.org/dc/elements/1.1/" viewBox="0 0 159.5 250">
 <metadata>
  <rdf:RDF>
   <cc:Work rdf:about="">
    <dc:format>image/svg+xml</dc:format>
    <dc:type rdf:resource="http://purl.org/dc/dcmitype/StillImage"/>
    <dc:title/>
   </cc:Work>
  </rdf:RDF>
 </metadata>
 <path fill="#000" d="M159.42,0c-11.73,13.625-113.9,24.086-159.02,29.009v51.161c43.396-3.868,147.49-11.428,158.42-29.009z"/>
 <path fill="#000" d="M159.35,68.962c-11.74,13.625-113.9,24.086-159.02,29.009v51.161c43.397-3.87,147.49-11.43,158.41-29.01z"/>
 <path fill="#000" d="M159.5,137.33c-11.73,13.63-113.9,24.09-159.02,29.01v51.161c43.396-3.87,147.49-11.43,158.41-29.01z"/>
 <path d="m135.75,57.16c-2.3815,0.03147-4.2806,0.42067-5.6003,0.83093-0.80802,0.2512-0.98378,0.38981-1.3766,0.58165l-128.77,17.089,0.28158,5.208c56.586,2.708,102.27,24.06,154.15,36.56l3.6918,0.88633,0.0626-3.3791,0.78216-46.477,0.0312-0.38777-0.12515-0.36007s-0.27511-0.7684-0.81344-1.5234c-0.53833-0.75498-1.4321-1.71-2.7532-2.5482-8.1219-5.153-14.791-6.5442-19.554-6.4813zm0.0939,5.2349c3.4008-0.04494,8.7167,0.87909,16.019,5.5118,0.64701,0.4105,1.005,0.79468,1.1889,1.0525l-0.72,42.43c-42.69-10.7-82.327-27.36-128.65-33.567l106.31-14.126,0.65701-0.08309,0.53187-0.33237s0.1608-0.11826,0.9386-0.36007c0.77778-0.24181,2.0226-0.50379,3.7231-0.52626z" fill="#000"/>
 <path d="m135.44,125.77c-2.3827,0.032-4.2482,0.41378-5.569,0.83093-0.76748,0.24239-0.9148,0.35883-1.314,0.55396l-128.47,17.37,0.28158,5.21c56.406,2.74,101.97,24.36,153.71,37.03l3.6918,0.91403,0.0626-3.4068,0.81344-47.058v-0.38777l-0.12514-0.38777s-0.89582-2.3703-3.5354-4.0716c-8.1015-5.2216-14.789-6.656-19.554-6.5921zm0.0938,5.2626c3.3748-0.0453,8.6782,0.87652,15.956,5.5672,1.1826,0.76219,1.2088,1.0972,1.2202,1.1633l-0.75087,42.932c-42.59-10.84-82.134-27.77-128.37-34.04l106.12-14.32,0.6883-0.083,0.56316-0.33238s0.13675-0.11672,0.9073-0.36007,1.9731-0.5036,3.6605-0.52626z" fill="#000"/>
</svg>
