<?xml version="1.0" encoding="UTF-8" standalone="no"?>
<!-- Generator: Adobe Illustrator 14.0.0, SVG Export Plug-In . SVG Version: 6.00 Build 43363)  -->
<svg xmlns:rdf="http://www.w3.org/1999/02/22-rdf-syntax-ns#" xmlns="http://www.w3.org/2000/svg" enable-background="new 0 0 300 200" xml:space="preserve" version="1.1" y="0px" x="0px" xmlns:cc="http://creativecommons.org/ns#" xmlns:dc="http://purl.org/dc/elements/1.1/" viewBox="0 0 100 100"><metadata><rdf:RDF><cc:Work rdf:about=""><dc:format>image/svg+xml</dc:format><dc:type rdf:resource="http://purl.org/dc/dcmitype/StillImage"/><dc:title/></cc:Work></rdf:RDF></metadata><defs>
</defs><path d="m46.928,45.812-8.5713-5.7491,5.7491-2.6133z"/><path d="m38.879,46.334-6.3762-3.2402,3.3449-1.9861z"/><path d="m30.412,50.411-4.3901-3.0315,2.9267-2.1952z"/><path d="m72.955,63.372,4.8081-2.1952-2.0904-1.9861z"/><path d="m75.569,67.344,6.0626-1.5679-1.6726-1.777z"/><path d="m72.537,25.742,2.0904-7.2123-5.331,0.10435z"/><path d="m58.008,31.7-4.5994,0.31381-0.52251-3.0315z"/><path d="m57.276,35.777-2.6131,0.73159-0.5227-1.9857z"/><path d="m86.544,32.746,3.4493,0.52251,0.73197-2.2995z"/><path d="m85.813,37.031,2.6129,0.94067,0.62724-1.8817z"/><path d="m51.203,43.935,10.088,0,0,1.2451-10.088,0z"/><path d="m51.203,40.946,10.088,0,0,1.2455-10.088,0z"/><path d="m82.007,43.935,10.088,0,0,1.2451-10.088,0z"/><path d="m82.007,40.946,10.088,0,0,1.2455-10.088,0z"/><path d="M78.452,33.563h-16.44v-1.1208h5.1159c0.62987-2.6974,0.75449-5.2754-0.0053-6.5824-0.32432-0.55554-0.77251-0.8153-1.4121-0.8153-2.9249,0-4.1332,3.093-4.1835,3.2244l0.000769-0.000769-1.0495-0.39376c0.06006-0.16141,1.524-3.9507,5.2322-3.9507,1.0349,0,1.8581,0.47522,2.3798,1.3723,0.9264,1.5916,0.81755,4.3453,0.18994,7.1462h8.9769c1.1925-3.5037,3.6827-5.1557,7.8433-5.1557v1.1205c-4.5097,0-5.7728,1.9117-6.6752,4.0352h4.8982l-0.01126,1.1152-4.861,0.0056z"/><path d="m79.188,39.098,0.0071-0.0011c-1.3296-1.9605-1.7507-3.6343-1.1948-5.54l-1.1419,0.0056c-0.39789,1.2687-0.23836,3.1801,0.74135,4.8201h-11.405c0.69405-1.39,1.3374-3.0848,1.8074-4.8201h-1.161c-0.51801,1.8401-1.2458,3.661-2.0649,5.1035l-0.26501,0.46621,6.4008,4.0292-3.6035,2.3746,0.6171,0.93616,4.0277-2.6553,4.3479,2.8374,0.59721-0.94856-4.0314-2.4939s6.0277-3.9155,6.3272-4.1065c-0.0019-0.0026-0.0031-0.0049-0.0049-0.0071zm-7.2495,3.3858-4.7345-2.9808,9.2524,0.0023-4.5179,2.9785z"/><path d="m92.512,21.653c-0.0071-1.9489-0.6141-10.186-1.7297-12.454-3.0247,1.1494-8.5291,4.8738-9.7749,8.6823-5.9702-0.8915-12.701-0.78602-18.596,0.23423-0.98496-4.0975-5.9287-7.2333-9.6584-8.9998-1.5732,2.6546-2.2702,8.8099-2.0929,13.176-0.0068,0.0045-0.01407,0.009-0.02083,0.01389,0.6918,18.335,9.6862,29.751,21.448,36.669,12.101-6.9143,20.745-20.394,20.411-37.33,0.0049,0.003,0.01015,0.0053,0.01465,0.0083zm-10.069-3.535c0.04392,0.0079,0.08784,0.01614,0.13213,0.0244-0.04392-0.0083-0.08783-0.01652-0.13213-0.0244zm-0.75261-0.12988c0.10585,0.01689,0.21283,0.03604,0.31906,0.05405-0.10623-0.01802-0.21246-0.03641-0.31906-0.05405zm8.9394,4.9875c0.312,15.256-7.472,27.398-18.369,33.625-18.495-9.216-21.979-32.56-18.825-45.083,0.87742,4.7874,2.4694,7.79,5.9169,9.2629,7.5079-2.149,17.844-2.3186,25.458-0.21884,3.173-2.307,4.4034-5.831,5.0753-8.9097,0.83932,3.5829,0.74248,11.322,0.7451,11.323z"/><path d="M98.517,75.757c-1.899-2.125-5.62-3.13-8.728-3.056-2.205-2.625-14.992-16.091-14.992-16.091l-0.88624,1.116,15.437,16.62,0.67003-0.05743c4.1944-0.35923,6.5787,1.9155,7.2097,2.6212,0.46283,0.51763,0.7421,0.98985,0.89412,1.3603h-8.485c-19.459-10.153-36.546-17.314-54.696-18.877,0.03979-2.5258,0.48948-5.385,1.3523-8.5711l-1.6694-0.45232c-0.88699,3.2751-1.3543,6.2409-1.4071,8.8917-1.8911-0.12537-3.7946-0.19031-5.7148-0.19031-1.6285,0-3.1116,0.15128-4.4642,0.41403-1.7642-1.7631-3.2672-3.4436-4.5444-5.0386,8.4317-8.7828,22.351-16.72,34.414-19.638l-0.39-1.691c-12.989,3.1321-27.206,11.66-35.128,19.896-3.6765-4.9624-5.1352-9.0343-5.5684-12.12-0.54729-3.8974,0.38306-7.4728,2.6903-10.339,3.612-4.4871,8.7442-4.8032,14.021-3.9158-0.10304,0.83332,0.0066,1.6298,0.34027,2.1227,1.3956,2.0611,8.8958,2.7852,13.373,0.7879-3.3038-4.6298-9.996-6.8902-11.85-5.9845-0.61429,0.29992-1.0777,0.85096-1.3952,1.4936-1.8239-0.3262-3.6354-0.56906-4.9595-0.5593-4.6538,0.03416-8.2115,1.6602-10.876,4.971-2.6144,3.2481-3.6711,7.2818-3.0559,11.665,0.58276,4.1512,2.6381,8.5663,6.0828,13.145-0.57225,0.61373-1.1254,1.2199-1.6576,1.8153-8.3977,9.392-14.535,19.466-14.535,21.135v0.86485h11.076l-0.19406-1.0255c-0.62555-3.3059,0.62367-7.4379,3.1824-10.526,1.6064-1.9388,4.2664-4.1516,8.4439-5.1726,3.7143,3.6249,8.4465,7.4747,13.714,11.189h8.2309v-0.86485c0-0.97596-0.48385-1.8303-1.3626-2.405-1.3003-0.85021-3.3076-0.96732-5.1514-0.33858-1.7578-1.9575-2.7434-4.5727-2.9562-7.8208,17.864,1.583,34.95,8.797,54.23,18.868h10.608l0.13889-0.69518c0.2-0.99-0.342-2.316-1.443-3.548zm-85.784-10.315c-2.62,3.162-4.0089,7.339-3.6908,10.926h-6.9775c1.402-3.0341,6.9865-11.805,15.238-20.664,1.137,1.4054,2.4035,2.825,3.7946,4.2563-4.0513,1.2177-6.7074,3.4823-8.3647,5.4822z"/></svg>
