<svg id="Layer_1" xmlns:rdf="http://www.w3.org/1999/02/22-rdf-syntax-ns#" xmlns="http://www.w3.org/2000/svg" enable-background="new 0 0 100 80.502" xml:space="preserve" viewBox="0 0 100 100" version="1.1" y="0px" x="0px" xmlns:cc="http://creativecommons.org/ns#" xmlns:dc="http://purl.org/dc/elements/1.1/"><metadata id="metadata15"><rdf:RDF><cc:Work rdf:about=""><dc:format>image/svg+xml</dc:format><dc:type rdf:resource="http://purl.org/dc/dcmitype/StillImage"/><dc:title/></cc:Work></rdf:RDF></metadata>
<path id="path3" d="m93.805,37c-1.586,0-3.171-0.605-4.381-1.814-21.74-21.74-57.111-21.738-78.849,0-2.42,2.419-6.341,2.419-8.761,0-2.419-2.419-2.419-6.342,0-8.761,26.569-26.568,69.801-26.569,96.371,0,2.419,2.419,2.419,6.342,0,8.761-1.209,1.209-2.794,1.814-4.38,1.814z"/>
<path id="path5" d="m19.337,50.142c-1.585,0-3.17-0.605-4.38-1.814-2.419-2.419-2.419-6.342,0-8.761,9.36-9.361,21.806-14.516,35.043-14.516,13.238,0,25.684,5.156,35.044,14.516,2.419,2.419,2.419,6.342,0,8.761-2.42,2.42-6.341,2.418-8.761,0-7.021-7.021-16.355-10.887-26.283-10.887s-19.262,3.866-26.282,10.887c-1.21,1.209-2.796,1.814-4.381,1.814z"/>
<path id="path7" d="m67.522,63.284c-1.586,0-3.171-0.605-4.381-1.814-7.246-7.247-19.036-7.247-26.282,0-2.42,2.418-6.341,2.418-8.761,0-2.419-2.419-2.419-6.342,0-8.761,12.078-12.077,31.727-12.077,43.805,0,2.419,2.419,2.419,6.342,0,8.761-1.211,1.209-2.796,1.814-4.381,1.814z"/>
<path id="path9" d="m50,87c-3.309,0-6.42-1.289-8.761-3.628-4.831-4.832-4.831-12.691-0.001-17.522,2.34-2.34,5.452-3.629,8.762-3.629s6.421,1.289,8.761,3.628c4.83,4.832,4.83,12.691,0,17.522-2.341,2.34-5.452,3.629-8.761,3.629z"/>
</svg>
