<?xml version="1.0" encoding="utf-8"?>
<!-- Generator: Adobe Illustrator 19.2.1, SVG Export Plug-In . SVG Version: 6.00 Build 0)  -->
<svg version="1.1" id="Layer_1" xmlns="http://www.w3.org/2000/svg" xmlns:xlink="http://www.w3.org/1999/xlink" x="0px" y="0px"
	 viewBox="0 0 595.3 580.4" style="enable-background:new 0 0 595.3 580.4;" xml:space="preserve">
<path d="M0,580.4h595.3V0H0V580.4z M389.9,206.9c0-2,0.7-3,3-3h38.9c2,0,3,0.7,3,3v195.7c0,2-0.5,3-3,3h-38.4
	c-2.5,0-3.2-1.2-3.2-3.2V206.9H389.9L389.9,206.9z M387.2,150.6c0-15.9,11.2-25.3,25.3-25.3c15.1,0,25.3,10.2,25.3,25.3
	c0,16.4-10.7,25.3-25.8,25.3C397.6,175.9,387.2,166.9,387.2,150.6z M275.6,288.5c-6.9-27.5-23.3-87.6-29.5-116.6h-0.5
	c-5.2,29-18.4,78.1-28.8,116.6H275.6L275.6,288.5z M206.6,328.6L187,403.1c-0.5,2-1.2,2.5-3.7,2.5h-36.5c-2.5,0-3-0.7-2.5-3.7
	l70.4-246.5c1.2-4.5,2-8.4,2.5-20.6c0-1.7,0.7-2.5,2-2.5h52.1c1.7,0,2.5,0.5,3,2.5l78.9,267.6c0.5,2,0,3.2-2,3.2H310
	c-2,0-3.2-0.5-3.7-2.2L286,328.6H206.6L206.6,328.6z"/>
</svg>
