<?xml version="1.0" encoding="utf-8"?>
<!-- Generator: Adobe Illustrator 19.2.1, SVG Export Plug-In . SVG Version: 6.00 Build 0)  -->
<svg version="1.1" id="Layer_1" xmlns="http://www.w3.org/2000/svg" xmlns:xlink="http://www.w3.org/1999/xlink" x="0px" y="0px"
	 viewBox="0 0 595.3 580.4" style="enable-background:new 0 0 595.3 580.4;" xml:space="preserve">
<g>
	<path d="M0,580.4h595.3V0H0V580.4z M421.2,279.8c12.6,0,17.1,0,18.4-0.5c0-1.7,0.5-3,0.5-4.2c0-13.4-6.4-38.2-32.2-38.2
		c-23.8,0-34,20.8-36.5,42.9H421.2z M370.8,313.8c0.5,33.5,16.4,56.1,54.1,56.1c14.6,0,27.3-2,40.4-7.7c1.7-0.7,3-0.5,3,1.7v31
		c0,2.5-0.7,3.7-2.5,5c-13.1,6.4-29.5,9.4-49.9,9.4c-65.5,0-90-48.4-90-102.2c0-58.5,30.3-106.4,83.6-106.4
		c54.1,0,72.9,45.4,72.9,82.3c0,11.9-0.7,21.6-2,26.3c-0.5,2-1.2,2.7-3.2,3.2c-5,0.7-19.6,1.7-41.4,1.7h-65V313.8L370.8,313.8z
		 M237.9,288.5c-6.9-27.5-23.8-87.6-30-116.6h-0.5c-5.2,29-18.9,78.1-29,116.6H237.9L237.9,288.5z M168.2,328.6l-19.6,74.2
		c-0.5,2-1.2,2.7-3.7,2.7h-36.5c-2.5,0-3-0.7-2.5-3.7l70.4-246.3c1.2-4.5,2-7.9,2.5-20.3c0-1.7,0.7-2.5,2-2.5h52.1
		c1.7,0,2.5,0.5,3,2.5l78.9,267.1c0.5,2,0,3.2-2,3.2h-40.9c-2,0-3.2-0.7-3.7-2.5l-20.3-74.4H168.2L168.2,328.6z"/>
</g>
</svg>
