<?xml version="1.0" encoding="UTF-8" standalone="no"?>
<!-- Created with Inkscape (http://www.inkscape.org/) -->

<svg
   xmlns:dc="http://purl.org/dc/elements/1.1/"
   xmlns:cc="http://creativecommons.org/ns#"
   xmlns:rdf="http://www.w3.org/1999/02/22-rdf-syntax-ns#"
   xmlns:svg="http://www.w3.org/2000/svg"
   xmlns="http://www.w3.org/2000/svg"
   version="1.1"
   width="513.93359"
   height="544.40094"
   id="svg2">
  <defs
     id="defs4" />
  <metadata
     id="metadata7">
    <rdf:RDF>
      <cc:Work
         rdf:about="">
        <dc:format>image/svg+xml</dc:format>
        <dc:type
           rdf:resource="http://purl.org/dc/dcmitype/StillImage" />
        <dc:title></dc:title>
      </cc:Work>
    </rdf:RDF>
  </metadata>
  <g
     transform="translate(-942.79062,223.30723)"
     id="layer1">
    <g
       transform="translate(265.71429,-402.85714)"
       id="g3050">
      <path
         d="m 823.738,664.97512 c -58.47891,-32.43667 -107.1969,-60.74809 -108.26215,-62.91427 -1.06527,-2.16622 -4.78396,-30.16673 -8.26377,-62.22342 -6.3096,-58.1256 -12.57806,-113.06306 -23.60886,-206.91129 -3.20273,-27.24817 -6.10573,-52.69066 -6.45113,-56.53883 -0.53517,-5.96251 1.52584,-7.75084 13.94323,-12.09863 8.01417,-2.80604 51.9464,-18.46971 97.62716,-34.8081 45.68074,-16.33842 96.40521,-34.25671 112.72102,-39.81844 l 29.66508,-10.11223 72.33342,24.70034 c 39.7834,13.58518 98.2612,33.51218 129.9507,44.2822 l 57.6172,19.58188 -1.5728,9.09194 c -0.8651,5.00058 -10.077,77.28527 -20.471,160.63263 -10.3939,83.34738 -19.5908,154.86263 -20.4375,158.92278 -1.2973,6.22007 -15.8604,15.28642 -92.517,57.59702 -50.0376,27.61819 -98.84587,54.57481 -108.46284,59.90356 l -17.48547,9.6886 L 823.738,664.97512 z m 23.27198,-110.74249 16.02571,-39.51831 70.62039,-0.55253 70.62042,-0.55254 16.9556,39.34228 16.9555,39.34228 28.2653,0.8341 c 15.5458,0.45876 28.2652,-0.0525 28.2652,-1.13618 0,-1.08366 -36.0638,-79.26087 -80.1417,-173.72712 -44.07798,-94.46625 -80.14174,-172.96738 -80.14174,-174.44697 0,-1.47959 -1.96712,-2.69017 -4.37137,-2.69017 -2.40427,0 -4.37136,1.1421 -4.37136,2.53801 0,2.5584 -31.33255,72.89244 -111.08018,249.34855 -23.85611,52.786 -43.37473,97.04608 -43.37473,98.35571 0,1.30966 13.44308,2.38119 29.87363,2.38119 l 29.87361,0 16.02572,-39.5183 z m 39.05375,-93.07977 c 10.16006,-25.05063 42.84827,-101.81869 43.73064,-102.70103 1.36357,-1.36357 51.26815,100.66779 51.26815,104.81928 0,1.6383 -19.33005,2.34882 -48.09037,1.76769 -30.53285,-0.61695 -47.65884,-2.03566 -46.90842,-3.88594 z"
         id="path3531"
         style="fill:#808080" />
    </g>
  </g>
</svg>
