<svg id="Ebene_1" xmlns:rdf="http://www.w3.org/1999/02/22-rdf-syntax-ns#" xmlns="http://www.w3.org/2000/svg" enable-background="new 0 0 89.04 151.391" xml:space="preserve" height="100" viewBox="0 0 71.092537 151.391" width="47.06" version="1.1" y="0px" x="0px" xmlns:cc="http://creativecommons.org/ns#" xmlns:dc="http://purl.org/dc/elements/1.1/"><metadata id="metadata25"><rdf:RDF><cc:Work rdf:about=""><dc:format>image/svg+xml</dc:format><dc:type rdf:resource="http://purl.org/dc/dcmitype/StillImage"/><dc:title/></cc:Work></rdf:RDF></metadata>
<g id="g3" fill="#000" transform="matrix(0.8,0,0,0.8,-0.09522985,0)">
	<path id="path5" d="m44.554,128.08,26.858,23.307h6.643l-31.615-108.43h-3.84l-31.615,108.43h6.705l26.864-23.306zm28.105,19.091-25.054-21.737,14.938-12.959,10.116,34.696zm-12.787-43.86-12.134-9.675,7.552-6.036,4.582,15.711zm-7.916-27.147-4.779-5.391,2.412-2.728,2.367,8.119zm-7.435-25.501,3.744,12.843-3.762,4.253-3.737-4.217,3.755-12.879zm-5.079,17.417,2.391,2.697-4.739,5.357,2.348-8.054zm5.065,5.711,8.98,10.129-8.956,7.159-8.982-7.162,8.958-10.126zm-10.756,13.808,7.576,6.041-12.175,9.73,4.599-15.771zm10.783,8.599,15.979,12.741-15.959,13.846-15.959-13.847,15.939-12.74zm-18.022,16.228,14.99,13.006-25.143,21.814,10.153-34.82z"/>
	<g id="g7">
		<path id="path9" d="m62.54,44.52c0,4.56-1.721,8.71-4.521,11.89l-1.41-4.84c1.222-2.07,1.931-4.48,1.931-7.05,0-7.73-6.289-14.011-14.021-14.011-7.729,0-14.01,6.28-14.01,14.011,0,2.58,0.7,4.97,1.92,7.05l-1.41,4.84c-2.8-3.18-4.51-7.33-4.51-11.89,0-9.931,8.08-18.011,18.01-18.011,9.931,0.001,18.021,8.081,18.021,18.011z"/>
		<path id="path11" d="m75.79,44.52c0,10.729-5.439,20.22-13.699,25.85l-1.182-4.07c6.601-4.98,10.881-12.89,10.881-21.78,0-15.03-12.229-27.261-27.271-27.261-15.03,0-27.27,12.23-27.27,27.261,0,8.89,4.279,16.8,10.89,21.779l-1.19,4.07c-8.26-5.63-13.699-15.12-13.699-25.85,0-17.24,14.029-31.261,31.27-31.261s31.27,14.022,31.27,31.262z"/>
		<path id="path13" d="m62.54,44.52c0,4.56-1.721,8.71-4.521,11.89l-1.41-4.84c1.222-2.07,1.931-4.48,1.931-7.05,0-7.73-6.289-14.011-14.021-14.011-7.729,0-14.01,6.28-14.01,14.011,0,2.58,0.7,4.97,1.92,7.05l-1.41,4.84c-2.8-3.18-4.51-7.33-4.51-11.89,0-9.931,8.08-18.011,18.01-18.011,9.931,0.001,18.021,8.081,18.021,18.011z"/>
    <path id="path15" d="m89.04,44.52c0,16.79-9.351,31.439-23.109,39.021l-1.15-3.95c12.1-7.021,20.26-20.101,20.26-35.07-0.001-22.341-18.182-40.521-40.521-40.521s-40.52,18.18-40.52,40.52c0,14.97,8.159,28.05,20.26,35.069l-1.15,3.95c-13.76-7.579-23.11-22.229-23.11-39.019,0-24.55,19.97-44.52,44.52-44.52s44.52,19.97,44.52,44.52z"/>
		<path id="path17" d="m62.54,44.52c0,4.56-1.721,8.71-4.521,11.89l-1.41-4.84c1.222-2.07,1.931-4.48,1.931-7.05,0-7.73-6.289-14.011-14.021-14.011-7.729,0-14.01,6.28-14.01,14.011,0,2.58,0.7,4.97,1.92,7.05l-1.41,4.84c-2.8-3.18-4.51-7.33-4.51-11.89,0-9.931,8.08-18.011,18.01-18.011,9.931,0.001,18.021,8.081,18.021,18.011z"/>
		<path id="path19" d="m75.79,44.52c0,10.729-5.439,20.22-13.699,25.85l-1.182-4.07c6.601-4.98,10.881-12.89,10.881-21.78,0-15.03-12.229-27.261-27.271-27.261-15.03,0-27.27,12.23-27.27,27.261,0,8.89,4.279,16.8,10.89,21.779l-1.19,4.07c-8.26-5.63-13.699-15.12-13.699-25.85,0-17.24,14.029-31.261,31.27-31.261s31.27,14.022,31.27,31.262z"/>
	</g>
</g>
</svg>
