<!-- Created with Inkscape (http://www.inkscape.org/) -->
<svg id="svg2" xmlns:rdf="http://www.w3.org/1999/02/22-rdf-syntax-ns#" xmlns="http://www.w3.org/2000/svg" viewBox="0 0 100 100" version="1.0" xmlns:cc="http://creativecommons.org/ns#" xmlns:xlink="http://www.w3.org/1999/xlink" xmlns:dc="http://purl.org/dc/elements/1.1/">
 <defs id="defs4"></defs>
 <metadata id="metadata7">
  <rdf:RDF>
   <cc:Work rdf:about="">
    <dc:format>image/svg+xml</dc:format>
    <dc:type rdf:resource="http://purl.org/dc/dcmitype/StillImage"/>
    <dc:title/>
    <dc:creator>
     <cc:Agent>
      <dc:title>hrum</dc:title>
     </cc:Agent>
    </dc:creator>
    <dc:subject>
     <rdf:Bag>
      <rdf:li>feather</rdf:li>
      <rdf:li>bird</rdf:li>
     </rdf:Bag>
    </dc:subject>
    <cc:license rdf:resource="http://creativecommons.org/licenses/publicdomain/"/>
   </cc:Work>
   <cc:License rdf:about="http://creativecommons.org/licenses/publicdomain/">
    <cc:permits rdf:resource="http://creativecommons.org/ns#Reproduction"/>
    <cc:permits rdf:resource="http://creativecommons.org/ns#Distribution"/>
    <cc:permits rdf:resource="http://creativecommons.org/ns#DerivativeWorks"/>
   </cc:License>
  </rdf:RDF>
 </metadata>
 <g id="layer1" transform="translate(-41.7017,-537.54073)">
  <g id="g4360" transform="matrix(0.15183836,0,0,0.15183768,35.369777,531.73802)">
   <path id="path2383" d="m96.031,0.5c-0.11611,0.00905-0.21242,0.048559-0.3125,0.09375-0.01283,0.005794-0.01874,0.024769-0.03125,0.03125-0.1786,0.010474-0.37198,0.01281-0.5625,0.03125-0.48231-0.1012-1.2249,0.09014-1.6562,0.21875-0.02198,0.004551-0.04048,0.026713-0.0625,0.03125-0.01064,0.001936-0.02058-0.001954-0.03125,0-0.37705,0.07741-0.75408,0.17201-1.125,0.25-0.11794,0.026255-0.22334,0.034381-0.34375,0.0625-0.25616,0.05799-0.51562,0.11856-0.75,0.1875-0.29027,0.074001-0.57253,0.13524-0.875,0.21875-0.0629,0.15674-0.15229,0.33489-0.21875,0.5-0.32718,0.53485-0.55142,1.2906-0.8125,2.0312-0.08476,0.20698-0.16919,0.42932-0.25,0.625-0.11753,0.2846-0.05639,0.16641-0.15625,0.40625-0.01601,0.038442-0.01569,0.025179-0.03125,0.0625-0.0091,0.021933-0.02226,0.0097-0.03125,0.03125-0.07806,0.13316-0.1588,0.25776-0.25,0.375-0.02468,0.15462-0.03959,0.25842-0.0625,0.375-0.0019,0.00947,0.0021,0.021613,0,0.03125-0.06921,0.16338-0.13727,0.32005-0.1875,0.4375-0.01776,0.041518-0.04706,0.12026-0.0625,0.15625-0.03266,0.071089-0.07809,0.1513-0.09375,0.1875-0.0993,0.013748-0.12753-0.23997-0.09375-0.59375,0.0022-0.022625-0.0029-0.039158,0-0.0625,0.04221-0.2299,0.04549-0.20195,0.09375-0.46875,0.0017-0.00939-0.0017-0.021822,0-0.03125,0.0042-0.012389,0.02655-0.018696,0.03125-0.03125,0.03816-0.102,0.0731-0.21479,0.125-0.3125,0.06341-0.52902,0.09063-0.86367,0.125-1.2188,0.01233-0.077645,0.02035-0.14453,0.03125-0.21875,0.0017-0.0108-0.0017-0.020532,0-0.03125,0.04858-0.31393,0.08164-0.58275,0.125-0.875,0.0019-0.00867-0.0019-0.022528,0-0.03125,0.0019-0.0087-0.002-0.022515,0-0.03125,0.0508-0.22677,0.12871-0.46196,0.21875-0.75-0.02627,0.00749-0.06669,0.023215-0.09375,0.03125,0.0031-0.0285-0.0029-0.065707,0-0.09375-0.67942,0.20952-1.3995,0.43847-2.125,0.6875-0.22113,0.040554-0.45688,0.077095-0.6875,0.09375-0.17688,0.11654-0.37152,0.24094-0.5625,0.34375-0.02018,0.010866-0.04218,0.02052-0.0625,0.03125-0.52999,0.1916-1.0446,0.38376-1.5938,0.59375-0.88593,0.33238-1.778,0.67256-2.7188,1.0625-0.01281,0.00529-0.01843,0.025948-0.03125,0.03125-0.08058,0.035042-0.17025,0.060457-0.25,0.09375-0.07998,0.033919-0.17176,0.058538-0.25,0.09375-0.18559,0.080466-0.37666,0.16781-0.5625,0.25-0.37804,0.16103-0.77334,0.33133-1.1562,0.5-0.19405,0.084859-0.39903,0.16257-0.59375,0.25-0.01286,0.00571-0.01839,0.025536-0.03125,0.03125-0.05,0.022186-0.10617,0.040202-0.15625,0.0625-0.38536,0.17408-0.76476,0.35248-1.1562,0.53125-0.06392,0.029525-0.12347,0.06405-0.1875,0.09375-0.36319,0.16652-0.72706,0.32796-1.0938,0.5-0.72818,0.34328-1.4447,0.69857-2.1875,1.0625-1.0198,0.4999-2.0282,1.0252-3.0625,1.5625-0.0083,0.0043-0.02294-0.00432-0.03125,0-0.02093,0.01087-0.04157,0.02037-0.0625,0.03125-0.02896,0.01506-0.06478,0.01617-0.09375,0.03125-0.62,0.274-1.219,0.561-1.784,0.938-0.04269,0.03063-0.08287,0.0634-0.125,0.09375-0.03038,0.02188-0.06254,0.04166-0.09375,0.0625-0.51982,0.2809-1.0421,0.55451-1.5625,0.84375-0.17665,0.09551-0.35544,0.18268-0.53125,0.28125-0.08605,0.04802-0.16403,0.10777-0.25,0.15625-0.22385,0.118-0.44162,0.24501-0.65625,0.375-0.98276,0.56061-1.9613,1.1313-2.9375,1.7188-0.21693,0.12919-0.44065,0.24381-0.65625,0.375-0.11629,0.0706-0.2278,0.14766-0.34375,0.21875-0.17035,0.08122-0.31241,0.20292-0.46875,0.3125-0.14267,0.08824-0.29513,0.16124-0.4375,0.25-0.0076,0.0047-0.02369-0.0047-0.03125,0-0.75333,0.27006-1.3421,0.83453-1.9688,1.2812-0.01862,0.01328-0.04382,0.01816-0.0625,0.03125-0.01939,0.01258-0.04312,0.01866-0.0625,0.03125-0.01286,0.0057-0.01957,0.02365-0.03125,0.03125-0.01937,0.01259-0.04313,0.01865-0.0625,0.03125-0.19316,0.1283-0.38322,0.25172-0.59375,0.34375-0.09694,0.09197-0.20774,0.16748-0.3125,0.25-0.01151,0.0091-0.01983,0.02209-0.03125,0.03125-0.04057,0.03254-0.0836,0.06222-0.125,0.09375-0.03859,0.02566-0.08645,0.0368-0.125,0.0625-0.25449,0.17098-0.49662,0.3595-0.75,0.53125-0.03815,0.02598-0.08691,0.03648-0.125,0.0625-0.03327,0.01741-0.06278,0.04143-0.09375,0.0625-0.8407,0.49023-1.7095,0.94719-2.375,1.625-0.38659,0.30315-0.80514,0.62819-1.2188,0.9375-0.06051,0.04525-0.12765,0.08003-0.1875,0.125-0.10824,0.08028-0.20518,0.16964-0.3125,0.25-0.23954,0.1682-0.48848,0.32484-0.71875,0.5-0.19592,0.14901-0.36849,0.3188-0.5625,0.46875-0.12308,0.09525-0.2522,0.18545-0.375,0.28125-0.03077,0.02329-0.06298,0.03916-0.09375,0.0625-0.33367,0.26123-0.67257,0.5175-1,0.78125-0.65632,0.51336-1.2871,1.0497-1.9062,1.5938-0.0793,0.06773-0.17116,0.11964-0.25,0.1875-0.10365,0.09293-0.21073,0.18729-0.3125,0.28125-0.09455,0.08326-0.18719,0.16638-0.28125,0.25-0.1537,0.13465-0.31699,0.27116-0.46875,0.40625-0.06041,0.0545-0.12791,0.10097-0.1875,0.15625-0.14642,0.13148-0.29297,0.27442-0.4375,0.40625-0.14899,0.14235-0.28658,0.29727-0.4375,0.4375-0.43949,0.40737-0.89241,0.8081-1.3125,1.2188-0.1596,0.15224-0.30971,0.31599-0.46875,0.46875-0.0328,0.03217-0.06103,0.06164-0.09375,0.09375-0.04363,0.04282-0.0815,0.08228-0.125,0.125-0.05419,0.05324-0.10228,0.10316-0.15625,0.15625-1.0499,1.0097-2.1036,2.0159-3.1562,3.0312-0.08939,0.13409-0.18386,0.24977-0.28125,0.375-0.03226,0.03253-0.06177,0.06143-0.09375,0.09375-0.36981,0.37315-0.70391,0.72855-1.0625,1.0938-0.07138,0.07319-0.14669,0.14521-0.21875,0.21875-0.07361,0.07278-0.14687,0.14525-0.21875,0.21875-0.05418,0.04812-0.10209,0.10832-0.15625,0.15625-0.6873,0.60825-1.3566,1.199-1.875,1.9375-0.0098,0.01017-0.02152,0.0211-0.03125,0.03125-0.02293,0.02958-0.04163,0.06215-0.0625,0.09375-0.11999,0.12663-0.25262,0.24251-0.375,0.375-0.15042,0.14713-0.30247,0.29536-0.4375,0.4375-0.0049,0.0052,0.0049,0.0261,0,0.03125-0.90058,0.9482-1.7125,1.8287-2.5312,2.7188-0.01237,0.0091-0.01877,0.02219-0.03125,0.03125-0.0062,0.0136-0.02491,0.01777-0.03125,0.03125-0.22873,0.24884-0.4304,0.50271-0.65625,0.75-0.11355,0.12476-0.26304,0.2514-0.375,0.375-0.11804,0.13031-0.22675,0.24557-0.34375,0.375-0.07257,0.08041-0.14742,0.17055-0.21875,0.25-0.01104,0.0086-0.02029,0.02266-0.03125,0.03125-0.03044,0.03393-0.06343,0.05991-0.09375,0.09375-0.26141,0.21433-0.49765,0.43018-0.65625,0.71875-0.01132,0.02061-0.02057,0.04121-0.03125,0.0625-0.08867,0.10015-0.16198,0.21077-0.25,0.3125-0.23115,0.26062-0.49777,0.52738-0.71875,0.78125-0.55744,0.64086-1.0833,1.2677-1.5938,1.875-0.01826,0.02168-0.04432,0.04084-0.0625,0.0625-0.04471,0.05326-0.0807,0.10322-0.125,0.15625-0.08524,0.09547-0.17368,0.18961-0.25,0.28125-0.20894,0.25123-0.41706,0.49176-0.625,0.75-0.20818,0.25731-0.42579,0.52999-0.625,0.78125-0.06276,0.07865-0.12662,0.17389-0.1875,0.25-0.43479,0.55175-0.85205,1.1048-1.25,1.625-0.30879,0.40388-0.65409,0.83399-0.9375,1.2188-0.03093,0.04198-0.0631,0.08322-0.09375,0.125-0.10294,0.14034-0.18258,0.26949-0.28125,0.40625-0.03749,0.05148-0.08834,0.10524-0.125,0.15625-0.07053,0.09815-0.11847,0.18422-0.1875,0.28125-0.20643,0.29123-0.42961,0.59018-0.625,0.875-0.24296,0.35439-0.49761,0.72385-0.71875,1.0625-0.0581,0.08889-0.09962,0.16227-0.15625,0.25-0.01898,0.02945-0.04369,0.06443-0.0625,0.09375-0.25727,0.40116-0.49656,0.807-0.71875,1.1875-0.22382,0.3728-0.42975,0.74168-0.625,1.0938-0.27165,0.48982-0.56258,0.98354-0.78125,1.4375-0.17374,0.36071-0.32657,0.72319-0.46875,1.0625-0.0085,0.0204-0.02282,0.04229-0.03125,0.0625-0.12366,0.29789-0.24392,0.59455-0.34375,0.875-0.0217,0.05934-0.04189,0.12893-0.0625,0.1875-0.07827,0.22262-0.15736,0.44434-0.21875,0.65625-0.03575,0.12177-0.06326,0.25682-0.09375,0.375-0.01865,0.07303-0.04552,0.14758-0.0625,0.21875-0.07852,0.33009-0.14502,0.66533-0.1875,0.96875-0.0342,0.24409-0.05032,0.45978-0.0625,0.6875-0.0042,0.07759,0.00049,0.14378,0,0.21875-0.000422,0.01968,0.000261,0.04292,0,0.0625-0.0029,0.21573,0.01474,0.42379,0.03125,0.625,0.0018,0.01997-0.0018,0.04259,0,0.0625,0.01502,0.16655,0.0036,0.34299,0.03125,0.5,0.01966,0.10867,0.06827,0.20824,0.09375,0.3125,0.008,0.03154,0.02313,0.06297,0.03125,0.09375,0.02506,0.09566,0.06386,0.18925,0.09375,0.28125,0.01604,0.04918,0.01388,0.10808,0.03125,0.15625,0.02512,0.06933,0.03468,0.15148,0.0625,0.21875-0.77537,0.98099-1.5109,1.9373-2.25,2.9062-0.32102,0.41317-0.65891,0.8379-0.96875,1.25-0.04411,0.05865-0.08103,0.12893-0.125,0.1875-0.10897,0.1452-0.23571,0.29283-0.34375,0.4375-1.5333,2.0531-2.9225,4.0143-4.25,5.9062-0.63407,0.90333-1.2941,1.8382-1.875,2.6875-0.54506,0.79753-1.0366,1.5098-1.5312,2.25-0.1726,0.266-0.3614,0.564-0.5286,0.816-0.1339,0.202-0.214,0.334-0.3437,0.531-0.0971,0.147-0.2178,0.325-0.3125,0.469-0.72056,1.0998-1.3956,2.1626-1.9688,3.0625-0.025009,0.0393-0.069036,0.08612-0.09375,0.125-0.10881,0.16721-0.21857,0.35114-0.3125,0.5-0.051976,0.08069-0.1058,0.16977-0.15625,0.25-0.085634,0.136-0.16883,0.24549-0.25,0.375-0.28116,0.44105-0.56814,0.90528-0.78125,1.25-0.010208,0.01653-0.021154,0.04614-0.03125,0.0625-0.20162,0.33011-0.48004,0.7923-0.625,1.0312-0.22291,0.372-0.6562,1.095-0.6562,1.095l0.28125,0.25,6.0312-6.25s0.24131-0.42207,0.375-0.65625c0.017337-0.02973,0.064714-0.07821,0.09375-0.125,0.072241-0.12464,0.056555-0.11385,0.15625-0.28125,0.02077-0.03496,0.041312-0.09007,0.0625-0.125,0.12515-0.20771,0.33862-0.52129,0.5-0.78125,0.14196-0.22979,0.24926-0.40852,0.40625-0.65625,0.00988-0.01555,0.01721-0.04174,0.03125-0.0625,0.00674-0.01058,0.024461-0.02061,0.03125-0.03125,0.0068-0.012,0.0247-0.023,0.0314-0.033,0.42069-0.65967,0.99248-1.5204,1.5938-2.4062,0.099631-0.14787,0.14552-0.25386,0.25-0.40625,0.00783-0.01142,0.023387-0.0198,0.03125-0.03125,0.3933-0.57312,0.81339-1.1559,1.2812-1.8125,0.09923-0.13913,0.20985-0.32595,0.3125-0.46875,0.52426-0.72912,1.1026-1.5204,1.7188-2.3438,0.0095-0.01271,0.02172-0.01852,0.03125-0.03125,0.02144-0.02863,0.04065-0.06479,0.0625-0.09375,0.22488-0.29988,0.51277-0.65684,0.75-0.96875,0.62874-0.82658,1.3133-1.7141,2.0312-2.625,0.0085-0.01073,0.02276-0.0205,0.03125-0.03125,0.0677-0.08584,0.11895-0.16352,0.1875-0.25,0.95022-1.1987,1.9528-2.4466,3.0625-3.7812,0.05176-0.01898,0.10346-0.04154,0.15625-0.0625l-0.125,0.125,2.0625-0.59375s0.73975-0.27282,1.2812-0.46875c0.18474-0.0683,0.53265-0.1995,0.75-0.28125,0.73616-0.19447,1.4325-0.36279,2.0938-0.5,0.05156-0.0107,0.10556-0.01572,0.15625-0.03125,0.69198-0.14116,1.312-0.24664,1.9375-0.34375,0.01956-0.003,0.04299,0.003,0.0625,0,0.59682-0.09116,1.168-0.18278,1.7188-0.25,0.45233-0.0552,0.88256-0.10748,1.3125-0.15625,0.11747-0.01353,0.2276-0.01782,0.34375-0.03125,1.0729-0.12241,2.0941-0.2433,3.125-0.4375,0.27684-0.05215,0.56224-0.12636,0.84375-0.1875s0.55912-0.10923,0.84375-0.1875c0.03055-0.0084,0.06312-0.02267,0.09375-0.03125,0.04084-0.01128,0.08403-0.01964,0.125-0.03125,0.11367-0.03266,0.22812-0.08841,0.34375-0.125,0.09247-0.0266,0.18887-0.03705,0.28125-0.0625,0.02204-0.0073,0.04042-0.02383,0.0625-0.03125,0.03189-0.01047,0.06176-0.02055,0.09375-0.03125,0.06132-0.02033,0.12523-0.04235,0.1875-0.0625,0.15218-0.05262,0.31426-0.09712,0.46875-0.15625,0.04911-0.01849,0.10684-0.04344,0.15625-0.0625h0.03125c0.03461-0.01265,0.05937-0.0492,0.09375-0.0625,0.3349-0.12953,0.66938-0.26405,1-0.40625,0.16353-0.07034,0.34014-0.1128,0.5-0.1875,0.71301-0.17104,1.3067-0.61474,1.875-1.0312,0.02417-0.01772,0.03824-0.04684,0.0625-0.0625,0.0852-0.0503,0.19491-0.10416,0.28125-0.15625,0.20682-0.12432,0.41128-0.24007,0.625-0.375,0.03059-0.01931,0.06301-0.04296,0.09375-0.0625,0.23168-0.11112,0.46075-0.21134,0.71875-0.25,1.9689-1.5011,4.1265-3.2242,5.9375-4.6562,0.61676-0.6195,1.2883-1.2524,1.9688-1.875,0.17178-0.15367,0.3872-0.34155,0.5625-0.5l0.03-0.033c0.33064-0.30342,0.63743-0.63056,0.96875-0.9375,0.19266-0.17734,0.39692-0.3483,0.59375-0.53125,0.49666-0.46166,1.0703-1.0299,1.5938-1.5312,0.01586-0.01519,0.04646-0.01608,0.0625-0.03125,0.1375-0.13115,0.29807-0.30378,0.4375-0.4375,0.59317-0.56924,1.2771-1.2268,1.9062-1.8438,2.3912-2.287,4.7767-4.592,7.2812-6.75,0.01109-0.0096,0.02016-0.0217,0.03125-0.03125,0.0726-0.06249,0.14596-0.12523,0.21875-0.1875,0.20587-0.16977,0.41795-0.3324,0.625-0.5,0.08119-0.06578,0.16836-0.12266,0.25-0.1875,0.39435-0.31736,0.7892-0.62672,1.1875-0.9375,0.44532-0.34666,0.89441-0.69246,1.3438-1.0312,0.06509-0.04921,0.12247-0.10709,0.1875-0.15625,0.7891-0.59394,1.5779-1.1775,2.375-1.75,0.1576-0.11322,0.31095-0.2313,0.46875-0.34375,0.63777-0.45859,1.293-0.89688,1.9375-1.3438,1.1514-0.79715,2.2929-1.5786,3.4375-2.3438,0.10488-0.07012,0.20581-0.14878,0.3125-0.21875,0.11193-0.07464,0.22806-0.14605,0.34375-0.21875,0.14268-0.09496,0.2951-0.1867,0.4375-0.28125,0.0866-0.05723,0.16337-0.13032,0.25-0.1875,0.97864-0.6493,1.9162-1.2727,2.875-1.9062,0.59018-0.38925,1.1924-0.7639,1.7812-1.1562,0.55459-0.36889,1.082-0.7278,1.625-1.0938,1.2371-0.71014,2.3922-1.5594,3.5312-2.4375,0.44109-0.34004,0.90338-0.65621,1.3438-1,0.67747-0.49834,1.3305-0.9988,1.9688-1.5,0.55692-0.43636,1.1003-0.87195,1.625-1.3125,0.03048-0.02233,0.06213-0.04247,0.09375-0.0625,0.0281-0.02369,0.06575-0.0388,0.09375-0.0625,0.02216-0.01876,0.04041-0.04373,0.0625-0.0625,0.61656-0.4569,1.2068-0.93099,1.6562-1.4688,0.01877-0.02246,0.0443-0.03984,0.0625-0.0625,0.29507-0.27706,0.60034-0.55727,0.875-0.84375-0.05312-0.29561-0.14424-0.64004-0.21875-0.96875-0.01861-0.33997-0.09361-0.70448-0.28125-1.0938-0.0087-0.06982-0.04969-0.12065-0.0625-0.1875-0.09508-0.49607-0.32811-0.88718-0.59375-1.25-0.005-0.0068,0.0051-0.02444,0-0.03125-0.03545-0.04996-0.08477-0.10574-0.125-0.15625-0.11152-0.13644-0.21836-0.27765-0.34375-0.40625-0.0047-0.0053,0.0048-0.02596,0-0.03125-0.01426-0.01583-0.01675-0.04662-0.03125-0.0625-0.182-0.181-0.375-0.363-0.565-0.533-0.109-0.105-0.229-0.208-0.344-0.313-0.111-0.1-0.205-0.21-0.312-0.312-0.04019-0.03507-0.0845-0.05889-0.125-0.09375-0.01048-0.01036-0.02085-0.02085-0.03125-0.03125-0.13022-0.13019-0.26001-0.26715-0.375-0.40625-0.01282,0.01233-0.10606-0.04902-0.25-0.125v-0.03125c-0.08842-0.04701-0.1823-0.12761-0.28125-0.1875-0.08526-0.06729-0.16309-0.13147-0.25-0.1875-0.03136-0.02022-0.06285-0.04214-0.09375-0.0625-0.05409-0.04196-0.10317-0.05303-0.15625-0.09375-0.0055-0.0042,0.0055-0.02709,0-0.03125,0.0041-0.01246,0.0028,0.0018,0.03125,0,0.39594,0.24883,0.65882,0.41634,0.8125,0.53125,0.02333,0.01634,0.03858,0.04575,0.0625,0.0625,0.06016,0.05119,0.13212,0.11815,0.125,0.125,0.35441,0.21033,0.69931,0.44833,1.0312,0.6875,0.09053,0.06523,0.19227,0.12031,0.28125,0.1875,0.0185,0.01296,0.01258,0.01817,0.03125,0.03125,0.0063,0.0091,0.0124,0.01806,0.03125,0.03125,0.7798,0.59601,1.5074,1.2518,2.1875,1.9688,0.0103,0.01086,0.02097,0.02036,0.03125,0.03125,0.01013,0.01073,0.02114,0.0205,0.03125,0.03125,0.03924,0.04753,0.05578,0.10884,0.09375,0.15625,0.16169,0.20137,0.3304,0.39819,0.46875,0.59375,0.17151,0.24243,0.33112,0.46943,0.46875,0.6875,0.01798-0.02295,0.04465-0.03949,0.0625-0.0625,0.17422-0.22459,0.34122-0.45249,0.5-0.6875,0.17752-0.25344,0.33823-0.51978,0.5-0.78125,0.17-0.25307,0.32415-0.50973,0.46875-0.78125,0.004-0.0074-0.0049-0.02406,0-0.03125,0.01626-0.02396,0.04939-0.03767,0.0625-0.0625,0.12795-0.24686,0.23327-0.49232,0.34375-0.75,0.0097-0.02108,0.02167-0.04137,0.03125-0.0625,0.01281-0.03034,0.01866-0.06329,0.03125-0.09375,0.01902-0.04276,0.04394-0.08211,0.0625-0.125,0.08095-0.1863,0.14662-0.37309,0.21875-0.5625,0.0081-0.02132,0.02321-0.04113,0.03125-0.0625,0.09484-0.26965,0.19831-0.53967,0.28125-0.8125,0.0059-0.01909-0.0058-0.04337,0-0.0625,0.11717-0.38293,0.22639-0.78772,0.3125-1.1875,0.0082-0.03152,0.02244-0.06197,0.03125-0.09375,0.0027-0.0097-0.0027-0.0215,0-0.03125,0.04062-0.14688,0.08918-0.29428,0.125-0.4375,0.01761-0.12425,0.02592-0.23193,0.03125-0.34375,0.000481-0.010089-0.000462-0.021093,0-0.03125,0.06145-0.41506,0.0973-0.81624,0.125-1.25,0.0021-0.032204-0.0019-0.06144,0-0.09375,0.000573-0.010079-0.000564-0.021146,0-0.03125,0.02358-0.42298,0.04089-0.87088,0.03125-1.3125-0.002-0.082882,0.0032-0.16644,0-0.25-0.033-0.2921-0.05-0.5475-0.06-0.813-0.018-0.5216-0.022-1.0483-0.187-1.5937-0.005-0.0313-0.026-0.0621-0.032-0.0938-0.031-0.1896-0.056-0.4009-0.093-0.5938-0.054-0.2792-0.122-0.5575-0.188-0.8437-0.0044-0.019058,0.0044-0.043395,0-0.0625-0.117-0.5029-0.251-1.0061-0.406-1.5312-0.05235-0.06573-0.12046-0.099317-0.1875-0.15625,0.0054-0.00816-0.01899-0.023545-0.0625-0.0625-0.06112-0.045989-0.11607-0.11652-0.1875-0.15625-0.01061-0.005861-0.02041-0.025524-0.03125-0.03125-0.03729-0.046355-0.08286-0.092677-0.125-0.125-0.07335,0.014704-0.16905,0.00047589-0.25,0-0.07924-0.027136-0.16322-0.070849-0.25-0.09375-0.03768-0.009288-0.0859-0.022859-0.125-0.03125-0.10508-0.022552-0.2286-0.015122-0.34375-0.03125-0.07494-0.005837-0.14155-0.023052-0.21875-0.03125-0.05258-0.005584-0.10167-0.027061-0.15625-0.03125-0.02832-0.002053-0.06494,0.001734-0.09375,0-0.282-0.06642-0.565-0.11312-0.813-0.09385zm-8.156,6.8438c-0.00012,0.11062-0.04058,0.1632-0.0625,0.21875,0.0075-0.054929-0.003-0.10974,0-0.125,0.02573-0.032989,0.02062-0.056927,0.0625-0.09375zm3.5,14.594,0,0.03125,0-0.03125zm-0.781,0.593,0.031,0.031-0.031-0.031zm-62.063,21.219,0.031,0.062-0.031-0.062zm-1.3125,1.7188,0,0.03125,0-0.03125zm27.688,4.5,0.03125,0-0.03125,0zm-6.75,6.2812,0,0.0625,0-0.0625zm-2.8438,2.3125-0.03125,0.03125,0.03125-0.03125zm-0.375,0.3125,0.03125,0.03125l-0.03-0.03zm-0.34375,0.09375,0,0.03125,0-0.03125zm0.0625,0.0625-0.03125,0.03125,0.03125-0.03125zm0.0625,0.09375,0,0.03125,0-0.03125zm-1.8125,1.125,0.03125,0-0.03125,0zm-0.156,0.126,0.031,0.031-0.031-0.031zm-0.5,0.15625,0,0.03125,0-0.03125zm-0.3125,0.125,0,0.03125,0-0.03125zm-0.719,0.594-0.031,0.031,0.031-0.031zm-0.15625,0.15625-0.03125,0.03125,0.03125-0.03125zm0.09375,0.0625,0,0.0625,0-0.0625zm-1.845,0.782v0.03125-0.03125zm-0.1875,0.03125,0,0.03125,0-0.03125zm0,0.09375,0,0.03125,0-0.03125zm-0.71875,0.15625,0.03125,0-0.03125,0zm-0.655,0.25-0.031,0.031,0.031-0.031z" transform="matrix(6.585951,0,0,6.5859805,41.701735,38.216535)"/>
  </g>
 </g>
</svg>
