<svg id="Page_1" data-name="Page 1" xmlns="http://www.w3.org/2000/svg" viewBox="0 0 566.93 210"><defs><style>.cls-1{stroke:#fff;stroke-miterlimit:2.41;stroke-width:0.57px;}</style></defs><title>ASP_NET</title><g id="Layer_1-2" data-name="Layer 1"><path class="cls-1" d="M147.16,60.85a13.47,13.47,0,0,0,7-1.9A12.36,12.36,0,0,0,159,53.61q1.68-3.43,1.68-9.44,0-7.4-3.79-11.59a12.52,12.52,0,0,0-9.76-4.2,12.93,12.93,0,0,0-9.1,3.45q-4.48,4.15-4.48,12.78,0,7.88,3.75,12.05A12.56,12.56,0,0,0,147.16,60.85ZM141.06,35.7a7.74,7.74,0,0,1,12.17,0q2.44,3,2.44,8.74,0,6.11-2.42,9.1a7.73,7.73,0,0,1-12.19,0q-2.43-3-2.43-8.94T141.06,35.7ZM183,55.05a4.56,4.56,0,0,0,1.64-3.47,3.27,3.27,0,0,0-1.45-2.82,20.26,20.26,0,0,0-5-1.78,43.34,43.34,0,0,1-7.48-2.54,7.44,7.44,0,0,1-3.17-3,8.27,8.27,0,0,1-1.08-4.16,8.39,8.39,0,0,1,.89-3.84,8.3,8.3,0,0,1,2.41-2.95A10,10,0,0,1,172.84,29a14,14,0,0,1,4.24-.63,15.8,15.8,0,0,1,6,1.06,8.16,8.16,0,0,1,3.81,2.85,11.66,11.66,0,0,1,1.68,4.81l-4.79.71a5.8,5.8,0,0,0-1.9-3.75,6.59,6.59,0,0,0-4.43-1.35q-3.38,0-4.82,1.2a3.56,3.56,0,0,0-1.45,2.81,3,3,0,0,0,.6,1.85A4.39,4.39,0,0,0,173.65,40c0.49,0.19,1.94.64,4.34,1.34a56.8,56.8,0,0,1,7.26,2.45,7.46,7.46,0,0,1,3.24,2.77,8.12,8.12,0,0,1,1.17,4.5,9.37,9.37,0,0,1-1.43,5,9.49,9.49,0,0,1-4.13,3.6A14.12,14.12,0,0,1,178,60.85q-5.65,0-8.61-2.52a11.92,11.92,0,0,1-3.77-7.46l4.85-.82a7.47,7.47,0,0,0,2.28,4.8A7.56,7.56,0,0,0,178,56.53,7.34,7.34,0,0,0,183,55.05Zm63.27-21.87h-3.6V29.09h3.6v-7.7l4.89-3.16V29.09h4.93v4.09h-4.93V51.35a10,10,0,0,0,.25,2.89,2.22,2.22,0,0,0,.85,1,3.12,3.12,0,0,0,1.68.38,14.57,14.57,0,0,0,2.16-.21l0.71,4.65a17.13,17.13,0,0,1-3.7.47,7.91,7.91,0,0,1-4.15-.91,4.94,4.94,0,0,1-2.07-2.39c-0.4-1-.61-3.06-0.61-6.21V33.18Zm-125.67,27h-4.91V29.09h4.41v4.7a12.68,12.68,0,0,1,3.13-4.35,5.21,5.21,0,0,1,3.15-1.06,9.15,9.15,0,0,1,5,1.7L129.71,35a6.57,6.57,0,0,0-3.59-1.15,4.49,4.49,0,0,0-2.89,1,5.68,5.68,0,0,0-1.83,2.89,21.69,21.69,0,0,0-.82,6.14V60.15Zm87.76,0.7a13.46,13.46,0,0,0,7-1.9,12.36,12.36,0,0,0,4.88-5.34q1.68-3.43,1.68-9.44,0-7.4-3.79-11.59a12.53,12.53,0,0,0-9.76-4.2,12.93,12.93,0,0,0-9.1,3.45q-4.48,4.15-4.48,12.78,0,7.88,3.75,12.05A12.56,12.56,0,0,0,208.33,60.85ZM202.23,35.7a7.74,7.74,0,0,1,12.18,0q2.44,3,2.44,8.74,0,6.11-2.42,9.1a7.73,7.73,0,0,1-12.19,0q-2.43-3-2.43-8.94T202.23,35.7Zm27.68-2.52h-4.33V29.09h4.33v-3.3a15.45,15.45,0,0,1,.52-4.65,6.66,6.66,0,0,1,2.49-3.33,8.51,8.51,0,0,1,5-1.27,21.9,21.9,0,0,1,4.58.53l-0.73,4.59a15,15,0,0,0-2.9-.3,4.06,4.06,0,0,0-3.15,1c-0.62.68-.93,2-0.93,3.83v2.87h5.64v4.09h-5.64v27h-4.89v-27Zm-198.76,27H26V17.27h8l9.46,30.37C44.35,50.46,45,52.57,45.38,54q0.68-2.34,2.13-6.88l9.57-29.84H64.2V60.15H59.1V24.26L47.49,60.15H42.71L31.15,23.65V60.15Zm47,0H73.23V29.09h4.92V60.15Zm0-36.82H73.23V17.27h4.92v6.06ZM88.82,56.69q-3.62-4.16-3.62-12a23.08,23.08,0,0,1,1.55-8.81,11.4,11.4,0,0,1,4.74-5.66,13.26,13.26,0,0,1,6.91-1.89,11.45,11.45,0,0,1,7.72,2.57A12,12,0,0,1,110,38.22L105.2,39a8.73,8.73,0,0,0-2.41-4.71,6,6,0,0,0-4.19-1.58,7.4,7.4,0,0,0-6,2.86q-2.32,2.85-2.32,9t2.24,9.11a7.09,7.09,0,0,0,5.84,2.84,6.61,6.61,0,0,0,4.82-1.91,9.72,9.72,0,0,0,2.46-5.85l4.82,0.68a13.7,13.7,0,0,1-4,8.38,11.33,11.33,0,0,1-8,3A12,12,0,0,1,88.82,56.69Zm205.43,56.84c0-11.06-2.85-19.62-8.53-25.6s-14.23-9-25.62-9H207.72v65a32.53,32.53,0,0,0-2.38-5.56c-2.71-5-7.05-9.14-13-12.5s-15.82-6.7-29.59-10c-5.58-1.29-9.1-2.65-10.59-4.15a6.53,6.53,0,0,1-2.28-4.83,8.22,8.22,0,0,1,2.78-6.28c1.85-1.73,4.61-2.57,8.29-2.57,4.44,0,7.93,1.16,10.45,3.44s4.2,6,5,11.08l29.71-1.92q-2-17.53-12.21-25.58T164,77Q148.11,77,139,81.42a31.19,31.19,0,0,0-13.7,12.16A31.83,31.83,0,0,0,120.7,110q0,13.24,8.91,21.77t29.57,13.68c8.45,2,13.82,4.23,16.15,6.54a10.78,10.78,0,0,1,3.47,7.85,11,11,0,0,1-3.63,8.11c-2.45,2.34-5.91,3.49-10.4,3.49-6,0-10.69-2.26-13.92-6.83-2-2.84-3.33-6.93-4-12.32L117,154.38,91.36,78.92H57L18.67,191.71h32.2l4.94-18.62H91.72l5,18.62h33L125.4,179a41.71,41.71,0,0,0,2.82,3.51q10,11.11,36,11.08,14.82,0,24.56-4.73A34.81,34.81,0,0,0,204,175a38.77,38.77,0,0,0,3.74-8.49v25.19h31.66V149.85h17.24q19.06,0,28.36-9.61T294.26,113.53ZM62.62,148.69l11.21-40.55,11.28,40.55H62.62Zm197.27-25.18c-2.47,2.34-6.72,3.49-12.8,3.49h-7.72V101.85h9c5.89,0,9.9,1.23,12,3.7a13.22,13.22,0,0,1,3.21,9A11.87,11.87,0,0,1,259.89,123.51Zm252.44,52.91a8.63,8.63,0,0,1-4.87-1.17,6.79,6.79,0,0,1-2.46-3.18c-0.49-1.33-.73-4.29-0.73-9V107h14.34V94.3H504.27V60.74l-14.2,9.76V94.3h-45.5v0a36.12,36.12,0,0,0-12.83-2.23q-17.45,0-28.38,13.4t-10.93,37.64q0,23.43,10.82,36.4t29.28,13q14.65,0,24.11-8.12t12.91-22.91l-14.74-2.07q-3.25,10.33-8.79,15a20,20,0,0,1-13.39,4.72c-7,0-12.88-2.81-17.59-8.43s-7.33-13.68-7.85-24.24h62.77q0.08-2.87.08-4.35,0-22.23-9.38-35.16h29.43v55.26c0,9.76.59,16.18,1.76,19.2a15,15,0,0,0,6,7.38c2.87,1.88,6.87,2.81,12.07,2.81a47,47,0,0,0,10.77-1.45l-2.06-14.39A39.93,39.93,0,0,1,512.33,176.43ZM407.95,133.08q0.73-12.55,7.41-20.07a21.3,21.3,0,0,1,16.53-7.5q10.84,0,17.67,9.42c2.95,4,4.76,10.1,5.38,18.15h-47Zm-33.44-17.63a108.86,108.86,0,0,1,.78,15.84v59.06H361V131.91c0-6.61-.54-11.58-1.65-14.88a15.26,15.26,0,0,0-5.9-7.84,17,17,0,0,0-10-3,21.65,21.65,0,0,0-15.75,6.61c-4.41,4.42-6.6,12.75-6.6,25.07v52.45H306.89v-96h12.83v13.65Q329,92.11,346.5,92.11a31.51,31.51,0,0,1,14,3.12,22.51,22.51,0,0,1,9.55,8.21A33.75,33.75,0,0,1,374.51,115.45ZM297,177.13A11.36,11.36,0,1,1,285.6,165.6,11.45,11.45,0,0,1,297,177.13ZM537.5,94.2v5.71h-5.74V94.2h5.74ZM265.53,42a7.55,7.55,0,0,0,5.22-2.34,5,5,0,0,0,.45,1.95h3c-0.56-.73-0.84-2.08-0.84-4l0-1.34V31a5.32,5.32,0,0,0-1.36-4c-0.93-.9-2.5-1.34-4.73-1.34a6.69,6.69,0,0,0-4.42,1.3,4.87,4.87,0,0,0-1.79,3.25L263.88,31a3.2,3.2,0,0,1,1-2,3.49,3.49,0,0,1,2.41-.71,4.12,4.12,0,0,1,1.92.38,2.18,2.18,0,0,1,1,.9,5.25,5.25,0,0,1,.28,2.06c-0.32.09-1,.23-2,0.43l-3,.48a13.81,13.81,0,0,0-2,.46,4.84,4.84,0,0,0-1.66,1,4,4,0,0,0-1,1.4,5.16,5.16,0,0,0,1,5.28A4.94,4.94,0,0,0,265.53,42Zm-1.38-6.19a4.76,4.76,0,0,1,2.39-.85c1.89-.32,3.19-0.58,3.92-0.78a10.24,10.24,0,0,1-.17,2.25,4.18,4.18,0,0,1-4.06,3,2.78,2.78,0,0,1-2-.63,2,2,0,0,1-.69-1.53A1.92,1.92,0,0,1,264.14,35.83Z"/></g></svg>