<?xml version="1.0" encoding="utf-8"?>
<!-- Generator: Adobe Illustrator 19.2.1, SVG Export Plug-In . SVG Version: 6.00 Build 0)  -->
<svg version="1.1" id="Layer_1" xmlns="http://www.w3.org/2000/svg" xmlns:xlink="http://www.w3.org/1999/xlink" x="0px" y="0px"
	 viewBox="0 0 512 92" style="enable-background:new 0 0 512 92;" xml:space="preserve">
<g>
	<g transform="translate(103.403922, 21.082353)">
		<path d="M0.6,1.3h13.4c6,0,10.4,1,13.3,3.1c2.8,2,4.2,5.1,4.2,9.3c0,2.8-0.9,5.2-2.6,7c-1.7,1.9-4.2,3.1-7.5,3.6v0.2
			c3.9,0.6,6.7,1.8,8.6,3.7c1.8,1.9,2.7,4.5,2.7,7.8c0,4.5-1.5,7.9-4.5,10.4c-3,2.4-7.2,3.6-12.7,3.6H0.6V1.3L0.6,1.3z M4,23h10.7
			c4.6,0,7.9-0.8,10-2.3c2.1-1.5,3.1-3.9,3.1-7.1c0-3.2-1.2-5.6-3.5-7.1c-2.3-1.5-5.8-2.2-10.5-2.2H4V23L4,23z M4,26v21h11.5
			c9,0,13.5-3.7,13.5-11c0-6.7-4.8-10-14.3-10H4L4,26z"/>
		<path d="M66.8,32.9H47l-6.8,17.2h-3.8L56,1.1h2.2l19.2,48.9h-3.8L66.8,32.9L66.8,32.9z M48.2,29.8h17.4L59,12.2
			c-0.6-1.4-1.2-3.3-2-5.7c-0.6,2.1-1.3,4.1-2,5.8L48.2,29.8L48.2,29.8z"/>
		<path d="M105.1,3.7c-6.1,0-10.9,2-14.4,5.9c-3.5,3.9-5.3,9.3-5.3,16.1c0,7,1.7,12.4,5,16.2c3.3,3.8,8,5.8,14.2,5.8
			c4.1,0,7.8-0.5,11.3-1.6v3c-3.2,1.1-7.2,1.7-12.1,1.7c-6.8,0-12.2-2.2-16.2-6.6c-3.9-4.4-5.9-10.6-5.9-18.5c0-5,0.9-9.3,2.8-13.1
			c1.9-3.8,4.6-6.7,8.1-8.7c3.5-2.1,7.6-3.1,12.3-3.1c4.8,0,9,0.9,12.8,2.7l-1.4,3.1C112.7,4.6,109,3.7,105.1,3.7L105.1,3.7
			L105.1,3.7z"/>
		<path d="M159.4,50.1h-4.2l-18.7-25.7l-6.5,5.7v20h-3.4V1.3h3.4v25.3l5.4-5.4l19.1-19.9h4.3l-20,20.6L159.4,50.1L159.4,50.1z"/>
		<path d="M166.4,1.3h13.4c6,0,10.4,1,13.3,3.1c2.8,2,4.2,5.1,4.2,9.3c0,2.8-0.9,5.2-2.6,7c-1.7,1.9-4.2,3.1-7.5,3.6v0.2
			c3.9,0.6,6.7,1.8,8.6,3.7c1.8,1.9,2.7,4.5,2.7,7.8c0,4.5-1.5,7.9-4.5,10.4c-3,2.4-7.2,3.6-12.7,3.6h-14.9V1.3L166.4,1.3z
			 M169.8,23h10.7c4.6,0,7.9-0.8,10-2.3c2.1-1.5,3.1-3.9,3.1-7.1c0-3.2-1.2-5.6-3.5-7.1c-2.3-1.5-5.8-2.2-10.5-2.2h-9.8V23L169.8,23
			z M169.8,26v21h11.5c9,0,13.5-3.7,13.5-11c0-6.7-4.8-10-14.3-10H169.8L169.8,26z"/>
		<path d="M250.1,25.6c0,7.7-1.9,13.8-5.8,18.3c-3.9,4.5-9.2,6.7-16,6.7c-6.8,0-12.1-2.2-16-6.7c-3.9-4.5-5.8-10.6-5.8-18.4
			c0-7.8,1.9-13.9,5.8-18.3c3.9-4.5,9.2-6.7,16-6.7c6.8,0,12.1,2.2,16,6.7C248.2,11.8,250.1,17.9,250.1,25.6L250.1,25.6L250.1,25.6z
			 M210.3,25.6c0,7,1.6,12.4,4.7,16.2c3.1,3.8,7.6,5.7,13.4,5.7c5.9,0,10.3-1.9,13.4-5.7c3.1-3.8,4.6-9.2,4.6-16.2
			c0-7-1.5-12.4-4.6-16.1c-3.1-3.7-7.6-5.6-13.4-5.6c-5.8,0-10.3,1.9-13.4,5.7C211.8,13.3,210.3,18.7,210.3,25.6L210.3,25.6
			L210.3,25.6z"/>
		<path d="M296.7,50.1h-3.4L264.4,6.8h-0.3c0.3,5.2,0.4,9,0.4,11.7v31.6h-3.3V1.3h3.4l28.8,43.2h0.2c-0.2-4-0.3-7.8-0.3-11.4V1.3
			h3.3V50.1L296.7,50.1z"/>
		<path d="M337.1,50.1h-26.6V1.3h26.6v3.1h-23.2v18.4h21.9V26h-21.9v20.9h23.2V50.1L337.1,50.1z"/>
		<path d="M346.7,47.5c0-2.2,0.9-3.3,2.7-3.3c1.8,0,2.7,1.1,2.7,3.3c0,2.2-0.9,3.3-2.7,3.3C347.6,50.7,346.7,49.6,346.7,47.5
			L346.7,47.5L346.7,47.5z"/>
		<path d="M356.5,62.4c-2,0-3.7-0.3-5-0.9v-2.9c1.7,0.4,3.4,0.7,5,0.7c5.4,0,8.1-2.9,8.1-8.8V1.3h3.4v48.7
			C367.8,58.3,364,62.4,356.5,62.4L356.5,62.4L356.5,62.4z"/>
		<path d="M408.3,37.5c0,4.1-1.5,7.3-4.5,9.7c-3,2.4-7,3.6-11.9,3.6c-6,0-10.5-0.7-13.7-2v-3.4c3.5,1.5,8,2.2,13.4,2.2
			c4,0,7.2-0.9,9.5-2.7c2.3-1.8,3.5-4.2,3.5-7.2c0-1.8-0.4-3.4-1.2-4.6c-0.8-1.2-2-2.3-3.8-3.3c-1.8-1-4.3-2.1-7.7-3.2
			c-5-1.7-8.4-3.6-10.3-5.5c-1.9-2-2.8-4.6-2.8-7.9c0-3.6,1.4-6.6,4.3-8.9c2.9-2.3,6.5-3.4,11-3.4c4.6,0,8.9,0.9,12.9,2.6l-1.2,2.9
			c-4-1.7-7.9-2.5-11.6-2.5c-3.6,0-6.5,0.8-8.6,2.5c-2.1,1.7-3.2,3.9-3.2,6.8c0,1.8,0.3,3.3,1,4.4c0.7,1.2,1.7,2.2,3.2,3.1
			c1.5,0.9,4,2,7.7,3.3c3.8,1.3,6.7,2.6,8.6,3.8c1.9,1.2,3.3,2.6,4.2,4.2C407.8,33.4,408.3,35.3,408.3,37.5L408.3,37.5L408.3,37.5z"
			/>
	</g>
	<g>
		<path d="M0.3,0.5v49.3L37,70.8V56.6l-24.6-14v-22l24.6,14V21.5L0.3,0.5L0.3,0.5z"/>
		<path d="M73.7,0.5v49.3L37,70.8V56.6l24.6-14v-22L37,34.6V21.5L73.7,0.5L73.7,0.5z"/>
		<path d="M0.3,91.7V42.4L37,21.5v14.2l-24.6,14v20.9l24.6-14v14.2L0.3,91.7L0.3,91.7z"/>
		<path d="M73.7,91.7V42.4L37,21.5v14.2l24.6,14v20.9L37,56.6v14.2L73.7,91.7L73.7,91.7z"/>
	</g>
</g>
</svg>
