<?xml version="1.0" encoding="utf-8"?>
<!-- Generator: Adobe Illustrator 19.2.1, SVG Export Plug-In . SVG Version: 6.00 Build 0)  -->
<svg version="1.1" id="Layer_1" xmlns="http://www.w3.org/2000/svg" xmlns:xlink="http://www.w3.org/1999/xlink" x="0px" y="0px"
	 viewBox="0 0 900 900" style="enable-background:new 0 0 900 900;" xml:space="preserve">
<g transform="translate(0.000000,900.000000) scale(0.100000,-0.100000)">
	<path d="M1335,8379c-4-6-4-1758,0-3895c7-3235,10-3884,21-3884c8,0,44,19,81,41c38,23,93,55,123,72c30,16,109,61,175,100
		c66,38,167,97,225,130s158,91,222,128c64,38,119,69,122,69s47,25,98,56c50,31,101,60,113,65c21,10,32,16,171,100c45,27,84,49,87,49
		c4,0,51,27,105,60c55,33,102,60,106,60c3,0,47,25,98,56s99,59,108,63c8,3,81,45,162,94c81,48,149,87,152,87s50,27,104,60
		c55,33,102,60,105,60c4,0,51,27,105,60c55,33,102,60,105,60c5,0,216,123,257,150c8,6,24,14,35,19c19,8,187,106,225,131
		c8,6,21,13,27,16c11,5,127-56,238-123c11-7,27-16,35-20s59-33,113-65s100-58,102-58s47-26,102-58c54-32,105-62,113-66s24-12,35-19
		s63-37,115-67s104-60,115-67s27-15,35-19s44-25,79-47c35-21,74-43,85-48c12-5,28-13,36-19c8-5,62-37,120-70s112-65,120-70
		c8-6,22-13,30-17s59-33,113-65c55-32,101-58,103-58s32-17,66-38c35-21,95-56,133-76c39-21,77-45,86-52c8-8,18-14,22-14s39-19,79-43
		s80-46,88-50s22-11,30-17c24-16,221-130,225-130c2,0,49-27,104-60c56-33,103-60,105-60s60-33,127-73c68-40,131-76,139-80
		s24-13,35-20s52-30,90-52c39-22,79-45,90-52c37-23,45-25,60-19c18,6,19,731,8,5079c-5,2197-9,2707-19,2707c-7,0-58-27-112-60
		c-55-33-102-60-105-60c-4,0-51-27-105-60c-55-33-103-60-106-60c-4,0-19-8-34-19c-15-10-74-45-132-78s-150-86-205-118
		s-124-71-152-87c-29-15-83-46-119-69c-37-22-77-45-88-50c-22-10-33-16-172-100c-45-27-84-49-87-49c-4,0-51-27-105-60
		c-55-33-102-60-105-60c-5,0-152-85-227-131c-85-51-289-169-294-169c-3,0-50-27-104-60c-55-33-102-60-105-60c-4,0-51-27-105-60
		c-55-33-103-60-107-60s-19-8-33-19c-15-10-43-28-63-39c-88-49-213-121-309-178c-161-94-142-89-207-53c-32,18-91,52-131,76
		c-41,24-75,43-77,43s-49,27-104,60c-56,33-103,60-105,60c-4,0-196,111-226,130c-8,6-22,13-30,17c-16,7-205,117-230,133
		c-8,6-22,13-30,17s-44,24-79,46c-35,21-74,43-85,48c-12,5-28,13-36,19c-8,5-62,37-120,70s-112,65-120,70c-8,6-22,13-30,17
		s-59,33-113,65c-55,32-100,58-102,58s-49,27-103,60c-55,33-103,60-107,60s-27,14-52,30c-24,17-46,30-48,30c-3,0-37,19-77,43
		s-80,46-88,50s-24,13-35,20s-51,30-90,52c-38,22-79,45-90,52s-27,16-35,20s-59,33-113,65c-53,32-99,58-101,58s-48,26-103,58
		c-54,32-105,61-113,65s-22,11-30,17c-45,29-223,130-230,130c-4,0-13,7-20,15C1376,8392,1344,8395,1335,8379z M6608,6587
		c7-8,11-206,11-599c0-564,0-587-18-593c-13-4-53,15-120,55c-55,33-102,60-105,60c-4,0-194,109-226,130c-8,6-22,13-30,17
		s-48,26-88,50s-75,43-79,43s-14,6-22,14c-9,7-38,26-66,41c-27,15-79,44-115,65s-90,52-120,68c-30,17-61,39-68,50
		c-14,21-15,20,133,102c22,12,81,46,130,75c50,29,140,80,200,115c61,35,151,86,200,115c50,28,97,55,105,59c8,3,67,37,130,76
		c63,38,120,69,126,69C6592,6600,6602,6594,6608,6587z M2453,6560c25-16,47-30,50-30s49-26,104-58c54-32,105-62,113-66s24-12,35-19
		s63-37,115-67s104-60,115-67s27-16,35-20s47-26,85-48c39-23,77-44,85-48s22-11,30-17c48-31,156-93,177-101c42-16,30-51-29-82
		c-29-15-60-32-68-37s-51-30-95-55c-44-26-87-51-95-56s-28-16-45-25c-36-20-178-102-337-195c-64-38-119-69-122-69s-49-27-103-59
		c-72-44-101-57-110-49c-10,8-13,138-13,598c0,322,3,590,7,593C2398,6594,2407,6591,2453,6560z M4538,5363c26-16,56-33,67-40
		s27-15,35-19s44-25,79-47c35-21,74-43,85-48c12-5,28-13,36-19c24-16,264-155,280-163c8-4,22-11,30-17c24-16,221-130,225-130
		c2,0,49-27,105-60s103-60,105-60s48-26,102-58s105-61,113-65s22-11,30-17c32-20,166-96,181-102c9-4,19-16,22-27c5-21,3-22-153-109
		c-25-14-77-45-117-69c-39-23-74-43-77-43s-50-27-104-60c-55-33-102-60-105-60c-4,0-58-31-122-70c-64-38-118-70-122-70
		c-3,0-54-29-113-65s-110-65-113-65s-62-34-130-75c-69-41-128-75-133-75c-4,0-15-6-23-14c-16-14-107-66-186-107l-41-21l-74,44
		c-41,24-82,47-90,51s-22,11-30,17c-25,16-272,160-275,160c-2,0-49,27-105,60s-103,60-105,60s-47,26-102,58c-54,32-105,62-113,66
		s-24,12-35,19s-63,37-115,67s-104,60-115,67s-27,15-35,19s-44,25-79,47c-35,21-74,43-85,48c-12,6-30,15-41,22s-46,27-78,45
		c-89,52-90,62-8,111c38,23,72,41,75,41s50,27,104,60c55,33,102,60,105,60c4,0,51,27,105,60c55,33,102,60,105,60c4,0,58,32,122,70
		c64,39,118,70,122,70c3,0,50,27,105,60c54,33,101,60,104,60s65,36,138,80c74,44,136,80,138,80c3,0,57,31,119,69
		c63,38,120,70,127,70C4485,5390,4512,5378,4538,5363z M6610,2996c0-657,4-627-70-581c-22,14-51,30-63,35c-12,6-29,14-37,20
		c-24,16-221,130-225,130c-2,0-60,34-130,75c-69,41-128,75-130,75s-48,26-102,58s-105,61-113,65s-37,21-65,38c-27,16-65,37-82,45
		c-50,22-45,53,15,84c26,13,88,49,137,79c50,29,115,67,145,84c72,38,374,213,422,243c21,13,41,24,45,24c5,0,55,29,113,64
		c81,50,109,62,122,55C6609,3580,6610,3544,6610,2996z M2472,3547c40-24,80-46,88-50s24-13,35-20s51-30,90-52c38-22,79-45,90-52
		s27-15,35-19s44-25,79-47c35-21,74-43,85-48c12-5,35-18,51-29c17-11,37-23,45-27s59-33,113-65s100-58,102-58s31-16,65-36
		c93-56,93-65,9-113c-39-23-72-41-75-41c-2,0-45-25-96-56c-50-31-101-60-113-65c-11-5-27-13-35-19c-27-18-220-130-224-130
		c-2,0-61-34-131-75c-69-41-128-75-130-75c-3,0-39-21-80-46c-46-28-80-43-86-37s-13,871-9,1191C2380,3598,2395,3593,2472,3547z"/>
</g>
</svg>
