<?xml version="1.0" encoding="UTF-8" standalone="no"?>
<!-- Generator: Adobe Illustrator 19.2.1, SVG Export Plug-In . SVG Version: 6.00 Build 0)  -->

<svg
   xmlns:dc="http://purl.org/dc/elements/1.1/"
   xmlns:cc="http://creativecommons.org/ns#"
   xmlns:rdf="http://www.w3.org/1999/02/22-rdf-syntax-ns#"
   xmlns:svg="http://www.w3.org/2000/svg"
   xmlns="http://www.w3.org/2000/svg"
   xmlns:sodipodi="http://sodipodi.sourceforge.net/DTD/sodipodi-0.dtd"
   xmlns:inkscape="http://www.inkscape.org/namespaces/inkscape"
   version="1.1"
   id="Layer_1"
   x="0px"
   y="0px"
   viewBox="0 0 631.81392 779.84025"
   xml:space="preserve"
   inkscape:version="0.48.4 r9939"
   width="100%"
   height="100%"
   sodipodi:docname="backbone.svg"><metadata
     id="metadata3351"><rdf:RDF><cc:Work
         rdf:about=""><dc:format>image/svg+xml</dc:format><dc:type
           rdf:resource="http://purl.org/dc/dcmitype/StillImage" /><dc:title></dc:title></cc:Work></rdf:RDF></metadata><defs
     id="defs3349" /><sodipodi:namedview
     pagecolor="#ffffff"
     bordercolor="#666666"
     borderopacity="1"
     objecttolerance="10"
     gridtolerance="10"
     guidetolerance="10"
     inkscape:pageopacity="0"
     inkscape:pageshadow="2"
     inkscape:window-width="640"
     inkscape:window-height="480"
     id="namedview3347"
     showgrid="false"
     fit-margin-top="0"
     fit-margin-left="0"
     fit-margin-right="0"
     fit-margin-bottom="0"
     inkscape:zoom="0.26222222"
     inkscape:cx="316.8"
     inkscape:cy="390.88891"
     inkscape:window-x="0"
     inkscape:window-y="0"
     inkscape:window-maximized="0"
     inkscape:current-layer="Layer_1" /><g
     transform="matrix(0.1,0,0,-0.1,-133.2,838.95135)"
     id="g3343"><path
       d="m 1335,8379 c -4,-6 -4,-1758 0,-3895 7,-3235 10,-3884 21,-3884 8,0 44,19 81,41 38,23 93,55 123,72 30,16 109,61 175,100 66,38 167,97 225,130 58,33 158,91 222,128 64,38 119,69 122,69 3,0 47,25 98,56 50,31 101,60 113,65 21,10 32,16 171,100 45,27 84,49 87,49 4,0 51,27 105,60 55,33 102,60 106,60 3,0 47,25 98,56 51,31 99,59 108,63 8,3 81,45 162,94 81,48 149,87 152,87 3,0 50,27 104,60 55,33 102,60 105,60 4,0 51,27 105,60 55,33 102,60 105,60 5,0 216,123 257,150 8,6 24,14 35,19 19,8 187,106 225,131 8,6 21,13 27,16 11,5 127,-56 238,-123 11,-7 27,-16 35,-20 8,-4 59,-33 113,-65 54,-32 100,-58 102,-58 2,0 47,-26 102,-58 54,-32 105,-62 113,-66 8,-4 24,-12 35,-19 11,-7 63,-37 115,-67 52,-30 104,-60 115,-67 11,-7 27,-15 35,-19 8,-4 44,-25 79,-47 35,-21 74,-43 85,-48 12,-5 28,-13 36,-19 8,-5 62,-37 120,-70 58,-33 112,-65 120,-70 8,-6 22,-13 30,-17 8,-4 59,-33 113,-65 55,-32 101,-58 103,-58 2,0 32,-17 66,-38 35,-21 95,-56 133,-76 39,-21 77,-45 86,-52 8,-8 18,-14 22,-14 4,0 39,-19 79,-43 40,-24 80,-46 88,-50 8,-4 22,-11 30,-17 24,-16 221,-130 225,-130 2,0 49,-27 104,-60 56,-33 103,-60 105,-60 2,0 60,-33 127,-73 68,-40 131,-76 139,-80 8,-4 24,-13 35,-20 11,-7 52,-30 90,-52 39,-22 79,-45 90,-52 37,-23 45,-25 60,-19 18,6 19,731 8,5079 -5,2197 -9,2707 -19,2707 -7,0 -58,-27 -112,-60 -55,-33 -102,-60 -105,-60 -4,0 -51,-27 -105,-60 -55,-33 -103,-60 -106,-60 -4,0 -19,-8 -34,-19 -15,-10 -74,-45 -132,-78 -58,-33 -150,-86 -205,-118 -55,-32 -124,-71 -152,-87 -29,-15 -83,-46 -119,-69 -37,-22 -77,-45 -88,-50 -22,-10 -33,-16 -172,-100 -45,-27 -84,-49 -87,-49 -4,0 -51,-27 -105,-60 -55,-33 -102,-60 -105,-60 -5,0 -152,-85 -227,-131 -85,-51 -289,-169 -294,-169 -3,0 -50,-27 -104,-60 -55,-33 -102,-60 -105,-60 -4,0 -51,-27 -105,-60 -55,-33 -103,-60 -107,-60 -4,0 -19,-8 -33,-19 -15,-10 -43,-28 -63,-39 -88,-49 -213,-121 -309,-178 -161,-94 -142,-89 -207,-53 -32,18 -91,52 -131,76 -41,24 -75,43 -77,43 -2,0 -49,27 -104,60 -56,33 -103,60 -105,60 -4,0 -196,111 -226,130 -8,6 -22,13 -30,17 -16,7 -205,117 -230,133 -8,6 -22,13 -30,17 -8,4 -44,24 -79,46 -35,21 -74,43 -85,48 -12,5 -28,13 -36,19 -8,5 -62,37 -120,70 -58,33 -112,65 -120,70 -8,6 -22,13 -30,17 -8,4 -59,33 -113,65 -55,32 -100,58 -102,58 -2,0 -49,27 -103,60 -55,33 -103,60 -107,60 -4,0 -27,14 -52,30 -24,17 -46,30 -48,30 -3,0 -37,19 -77,43 -40,24 -80,46 -88,50 -8,4 -24,13 -35,20 -11,7 -51,30 -90,52 -38,22 -79,45 -90,52 -11,7 -27,16 -35,20 -8,4 -59,33 -113,65 -53,32 -99,58 -101,58 -2,0 -48,26 -103,58 -54,32 -105,61 -113,65 -8,4 -22,11 -30,17 -45,29 -223,130 -230,130 -4,0 -13,7 -20,15 -14,17 -46,20 -55,4 z M 6608,6587 c 7,-8 11,-206 11,-599 0,-564 0,-587 -18,-593 -13,-4 -53,15 -120,55 -55,33 -102,60 -105,60 -4,0 -194,109 -226,130 -8,6 -22,13 -30,17 -8,4 -48,26 -88,50 -40,24 -75,43 -79,43 -4,0 -14,6 -22,14 -9,7 -38,26 -66,41 -27,15 -79,44 -115,65 -36,21 -90,52 -120,68 -30,17 -61,39 -68,50 -14,21 -15,20 133,102 22,12 81,46 130,75 50,29 140,80 200,115 61,35 151,86 200,115 50,28 97,55 105,59 8,3 67,37 130,76 63,38 120,69 126,69 6,1 16,-5 22,-12 z m -4155,-27 c 25,-16 47,-30 50,-30 3,0 49,-26 104,-58 54,-32 105,-62 113,-66 8,-4 24,-12 35,-19 11,-7 63,-37 115,-67 52,-30 104,-60 115,-67 11,-7 27,-16 35,-20 8,-4 47,-26 85,-48 39,-23 77,-44 85,-48 8,-4 22,-11 30,-17 48,-31 156,-93 177,-101 42,-16 30,-51 -29,-82 -29,-15 -60,-32 -68,-37 -8,-5 -51,-30 -95,-55 -44,-26 -87,-51 -95,-56 -8,-5 -28,-16 -45,-25 -36,-20 -178,-102 -337,-195 -64,-38 -119,-69 -122,-69 -3,0 -49,-27 -103,-59 -72,-44 -101,-57 -110,-49 -10,8 -13,138 -13,598 0,322 3,590 7,593 11,11 20,8 66,-23 z M 4538,5363 c 26,-16 56,-33 67,-40 11,-7 27,-15 35,-19 8,-4 44,-25 79,-47 35,-21 74,-43 85,-48 12,-5 28,-13 36,-19 24,-16 264,-155 280,-163 8,-4 22,-11 30,-17 24,-16 221,-130 225,-130 2,0 49,-27 105,-60 56,-33 103,-60 105,-60 2,0 48,-26 102,-58 54,-32 105,-61 113,-65 8,-4 22,-11 30,-17 32,-20 166,-96 181,-102 9,-4 19,-16 22,-27 5,-21 3,-22 -153,-109 -25,-14 -77,-45 -117,-69 -39,-23 -74,-43 -77,-43 -3,0 -50,-27 -104,-60 -55,-33 -102,-60 -105,-60 -4,0 -58,-31 -122,-70 -64,-38 -118,-70 -122,-70 -3,0 -54,-29 -113,-65 -59,-36 -110,-65 -113,-65 -3,0 -62,-34 -130,-75 -69,-41 -128,-75 -133,-75 -4,0 -15,-6 -23,-14 -16,-14 -107,-66 -186,-107 l -41,-21 -74,44 c -41,24 -82,47 -90,51 -8,4 -22,11 -30,17 -25,16 -272,160 -275,160 -2,0 -49,27 -105,60 -56,33 -103,60 -105,60 -2,0 -47,26 -102,58 -54,32 -105,62 -113,66 -8,4 -24,12 -35,19 -11,7 -63,37 -115,67 -52,30 -104,60 -115,67 -11,7 -27,15 -35,19 -8,4 -44,25 -79,47 -35,21 -74,43 -85,48 -12,6 -30,15 -41,22 -11,7 -46,27 -78,45 -89,52 -90,62 -8,111 38,23 72,41 75,41 3,0 50,27 104,60 55,33 102,60 105,60 4,0 51,27 105,60 55,33 102,60 105,60 4,0 58,32 122,70 64,39 118,70 122,70 3,0 50,27 105,60 54,33 101,60 104,60 3,0 65,36 138,80 74,44 136,80 138,80 3,0 57,31 119,69 63,38 120,70 127,70 7,1 34,-11 60,-26 z M 6610,2996 c 0,-657 4,-627 -70,-581 -22,14 -51,30 -63,35 -12,6 -29,14 -37,20 -24,16 -221,130 -225,130 -2,0 -60,34 -130,75 -69,41 -128,75 -130,75 -2,0 -48,26 -102,58 -54,32 -105,61 -113,65 -8,4 -37,21 -65,38 -27,16 -65,37 -82,45 -50,22 -45,53 15,84 26,13 88,49 137,79 50,29 115,67 145,84 72,38 374,213 422,243 21,13 41,24 45,24 5,0 55,29 113,64 81,50 109,62 122,55 17,-9 18,-45 18,-593 z m -4138,551 c 40,-24 80,-46 88,-50 8,-4 24,-13 35,-20 11,-7 51,-30 90,-52 38,-22 79,-45 90,-52 11,-7 27,-15 35,-19 8,-4 44,-25 79,-47 35,-21 74,-43 85,-48 12,-5 35,-18 51,-29 17,-11 37,-23 45,-27 8,-4 59,-33 113,-65 54,-32 100,-58 102,-58 2,0 31,-16 65,-36 93,-56 93,-65 9,-113 -39,-23 -72,-41 -75,-41 -2,0 -45,-25 -96,-56 -50,-31 -101,-60 -113,-65 -11,-5 -27,-13 -35,-19 -27,-18 -220,-130 -224,-130 -2,0 -61,-34 -131,-75 -69,-41 -128,-75 -130,-75 -3,0 -39,-21 -80,-46 -46,-28 -80,-43 -86,-37 -6,6 -13,871 -9,1191 0,20 15,15 92,-31 z"
       id="path3345"
       inkscape:connector-curvature="0" /></g></svg>