<?xml version="1.0" encoding="UTF-8" standalone="no"?>
<svg xmlns:rdf="http://www.w3.org/1999/02/22-rdf-syntax-ns#" xmlns="http://www.w3.org/2000/svg" xml:space="preserve" viewBox="0 0 56.75 100" version="1.1" x="0px" y="0px" enable-background="new 0 0 100 100" xmlns:cc="http://creativecommons.org/ns#" xmlns:dc="http://purl.org/dc/elements/1.1/">
  
  <metadata>
    <rdf:RDF>
      <cc:Work rdf:about="">
        <dc:format>image/svg+xml</dc:format>
        <dc:type rdf:resource="http://purl.org/dc/dcmitype/StillImage"/>
        <dc:title/>
      </cc:Work>
    </rdf:RDF>
  </metadata>

  <path fill="#000" d="m41.667,5.1398c1.0464-0.44691,2.3871-0.73379,3.8282-0.67326,0.62932,3.9857-1.3291,7.0776-3.8629,8.3653-1.4526,0.73876-3.2718,1.1467-5.1747,0.77939-1.7188-0.33166-3.0014-1.0654-4.0778-2.1616-1.098-1.121-1.686-2.3609-2.091-4.1468-0.364-1.6112-1.497-2.7486-3.189-3.0488-1.973-0.3499-3.4,0.7023-4.077,2.0207-0.77856,1.5157-0.21723,3.2959,0.10614,5.1407,1.1682-0.09618,2.5073-0.32835,3.8282-0.39053,0.75949,4.0495,1.4178,8.2002,2.1616,12.264,8.4208,0.51241,14.277,3.4691,18.858,7.8686,4.4642,4.2891,7.9265,10.115,8.6496,18.042,0.80179,8.794-2.436,15.58-6.2028,20.275-3.873,4.8274-9.3239,8.6685-16.66,10.033-4.0727,0.75656-8.3322,0.61892-11.982-0.24976-3.5786-0.85136-6.6933-2.3198-9.2865-4.0754-5.3196-3.604-9.2713-8.662-11.305-15.383-1.0621-3.511-1.49-7.883-0.95682-11.84,0.51738-3.841,1.7379-7.224,3.2967-10.031,3.1814-5.733,7.92-9.889,14.143-12.548-0.662-4.159-1.498-8.143-2.126-12.336,1.2351-0.33544,2.4802-0.66085,3.7919-0.92154-0.238-1.497-0.632-2.81-0.602-4.2883,0.02819-1.4153,0.47344-2.7503,1.0986-3.7925,1.2031-2.0049,3.4484-3.5453,6.2028-3.7221,2.2719-0.1451,4.1557,0.74042,5.4583,1.8432,1.3798,1.1682,2.1889,2.7851,2.6243,4.6797,0.43944,1.9178,2.0729,3.1971,4.0405,3.0479,2.1799-0.165,4.0405-2.0297,3.509-4.7493z"/>
</svg>
