<?xml version="1.0" standalone="no"?>
<!DOCTYPE svg PUBLIC "-//W3C//DTD SVG 20010904//EN"
 "http://www.w3.org/TR/2001/REC-SVG-20010904/DTD/svg10.dtd">
<svg version="1.0" xmlns="http://www.w3.org/2000/svg"
 width="540.000000pt" height="540.000000pt" viewBox="0 0 540.000000 540.000000"
 preserveAspectRatio="xMidYMid meet">
<metadata>
Created by potrace 1.10, written by Peter Selinger 2001-2011
</metadata>
<g transform="translate(0.000000,540.000000) scale(0.100000,-0.100000)"
fill="#000000" stroke="none">
<path d="M675 5391 c8 -14 -23 -27 -83 -35 -30 -4 -61 -11 -70 -16 -10 -4 -52
-25 -94 -45 -144 -70 -273 -199 -343 -344 -53 -110 -54 -110 -67 -176 -15 -77
-17 -4091 -2 -4170 13 -64 41 -140 71 -187 13 -21 23 -42 23 -47 0 -11 78
-111 114 -147 36 -35 136 -114 146 -114 5 0 31 -13 57 -28 47 -28 108 -49 206
-71 67 -15 4047 -15 4114 0 98 22 159 43 206 71 26 15 52 28 57 28 10 0 110
79 146 114 36 36 114 136 114 147 0 5 11 27 25 48 30 49 65 146 65 182 0 38
10 59 26 59 12 0 14 301 14 2025 0 1751 -2 2025 -14 2025 -16 0 -21 14 -31 84
-4 27 -10 56 -14 65 -91 188 -145 263 -252 349 -34 28 -96 67 -138 87 -42 20
-83 41 -93 45 -9 5 -40 12 -70 16 -60 8 -91 21 -83 35 4 5 -741 9 -2015 9
-1274 0 -2019 -4 -2015 -9z m2509 -1126 c244 -37 402 -108 537 -240 159 -156
224 -363 199 -630 -10 -103 -24 -155 -63 -235 -64 -133 -179 -252 -306 -315
-29 -15 -50 -32 -48 -38 2 -7 24 -17 48 -23 186 -47 364 -209 443 -404 10 -25
24 -60 32 -78 8 -18 14 -45 14 -60 1 -15 7 -54 15 -87 19 -79 19 -203 -1 -317
-21 -124 -47 -198 -100 -288 -94 -159 -230 -269 -434 -349 -30 -12 -64 -26
-75 -31 -11 -4 -56 -16 -100 -25 -44 -9 -108 -23 -142 -31 -51 -11 -213 -14
-918 -14 l-855 0 0 1583 c0 871 3 1587 7 1590 3 4 375 7 826 7 682 0 837 -3
921 -15z"/>
<path d="M2005 3792 c-7 -19 -6 -807 1 -826 5 -14 52 -16 428 -16 406 1 605 9
643 28 10 5 40 20 67 33 61 30 135 101 160 154 10 22 24 49 30 60 6 11 12 75
14 142 3 96 0 135 -14 180 -32 106 -87 175 -168 208 -23 9 -50 22 -61 29 -14
7 -117 12 -320 14 -165 1 -407 3 -537 5 -191 2 -239 -1 -243 -11z"/>
<path d="M2006 2533 c-3 -4 -6 -224 -6 -490 l0 -484 543 4 c338 2 561 8 594
15 131 27 254 117 307 222 53 108 70 306 35 410 -22 65 -58 135 -86 167 -35
40 -123 103 -143 103 -9 0 -20 4 -26 10 -13 13 -89 29 -184 40 -85 10 -1024
12 -1034 3z"/>
</g>
</svg>
