<?xml version="1.0" encoding="UTF-8" standalone="no"?>
<!-- Generator: Adobe Illustrator 16.0.3, SVG Export Plug-In . SVG Version: 6.00 Build 0)  -->
<svg xmlns:rdf="http://www.w3.org/1999/02/22-rdf-syntax-ns#" xmlns="http://www.w3.org/2000/svg" enable-background="new 0 0 1000 1405.488" xml:space="preserve" height="100" viewBox="0 0 73.139999 99.999997" width="73.14" version="1.1" y="0px" x="0px" xmlns:cc="http://creativecommons.org/ns#" xmlns:dc="http://purl.org/dc/elements/1.1/">
  <metadata>
    <rdf:RDF>
      <cc:Work rdf:about="">
        <dc:format>image/svg+xml</dc:format>
        <dc:type rdf:resource="http://purl.org/dc/dcmitype/StillImage"/><dc:title/>
      </cc:Work>
    </rdf:RDF>
  </metadata>

  <path fill="#000" d="m51.875,30.655s-1.1792-10.995-12.088-11.3c-10.909-0.30531-16.512,8.2462-16.512,20.462s6.1918,21.99,16.806,21.99,11.794-12.216,11.794-12.216l20.344,1.2215s1.1979,11.033-7.3154,19.451c-8.5134,8.4171-18.963,9.7923-26.26,9.7351-7.2972-0.05825-17.415,0.11433-27.199-9.9068-9.7848-10.021-11.445-19.756-11.445-29.319s1.8555-22.232,13.489-31.839c7.907-6.5281,15.922-8.9333,23.938-8.9333,33.465,0,35.713,30.865,35.713,30.865l-21.265-0.21047z"/>
</svg>
