<?xml version="1.0" standalone="no"?>
<!DOCTYPE svg PUBLIC "-//W3C//DTD SVG 1.1//EN" "http://www.w3.org/Graphics/SVG/1.1/DTD/svg11.dtd">
<svg width="100%" height="100%" viewBox="0 0 82 80" version="1.1" xmlns="http://www.w3.org/2000/svg" xmlns:xlink="http://www.w3.org/1999/xlink" xml:space="preserve" style="fill-rule:evenodd;clip-rule:evenodd;stroke-linejoin:round;stroke-miterlimit:1.41421;">
    <g>
        <path d="M37.965,37.403C31.561,37.403 26.35,32.193 26.35,25.789C26.35,19.384 31.561,14.173 37.965,14.173C43.252,14.173 47.721,17.724 49.122,22.565L53.616,22.565C52.12,15.294 45.672,9.81 37.965,9.81C29.155,9.81 21.987,16.978 21.987,25.789C21.987,34.599 29.155,41.767 37.965,41.767C45.672,41.767 52.12,36.284 53.616,29.013L49.122,29.013C47.721,33.853 43.252,37.403 37.965,37.403" style="fill:rgb(67,83,99);fill-rule:nonzero;"/>
        <path d="M30.135,33.618C32.141,35.624 34.911,36.867 37.965,36.867L37.965,32.236C36.185,32.236 34.573,31.513 33.406,30.347L30.135,33.618Z" style="fill:rgb(67,83,99);fill-rule:nonzero;"/>
        <path d="M26.887,25.788C26.887,27.373 27.225,28.881 27.827,30.246L32.063,28.383C31.713,27.589 31.517,26.712 31.517,25.788C31.517,22.227 34.404,19.341 37.964,19.341L37.964,14.71C31.856,14.71 26.887,19.68 26.887,25.788" style="fill:rgb(243,139,0);fill-rule:nonzero;"/>
        <path d="M41.981,15.465L40.301,19.782C41.673,20.317 42.818,21.304 43.546,22.564L48.562,22.564C47.572,19.313 45.124,16.692 41.981,15.465" style="fill:rgb(67,83,99);fill-rule:nonzero;"/>
        <path d="M40.303,31.794L41.982,36.111C45.125,34.884 47.573,32.262 48.564,29.011L43.548,29.011C42.818,30.272 41.674,31.26 40.303,31.794" style="fill:rgb(243,139,0);fill-rule:nonzero;"/>
        <path d="M17.47,31.985C17.397,31.743 17.327,31.499 17.262,31.253C17.258,31.238 17.254,31.223 17.25,31.208C17.19,30.98 17.135,30.752 17.082,30.522C17.071,30.475 17.061,30.428 17.051,30.381C17.007,30.184 16.967,29.985 16.928,29.786C16.911,29.697 16.896,29.608 16.881,29.519C16.853,29.36 16.825,29.202 16.8,29.041C16.779,28.904 16.761,28.768 16.743,28.631C16.617,27.697 16.549,26.748 16.55,25.787L12.175,25.787C12.174,26.835 12.24,27.87 12.363,28.892C12.365,28.914 12.369,28.936 12.372,28.958C12.406,29.236 12.444,29.514 12.487,29.789C12.499,29.865 12.512,29.941 12.525,30.018C12.563,30.244 12.602,30.47 12.646,30.695C12.668,30.815 12.694,30.933 12.719,31.052C12.756,31.231 12.794,31.41 12.835,31.588C12.871,31.744 12.91,31.9 12.95,32.056C12.985,32.195 13.019,32.334 13.056,32.473C13.106,32.657 13.159,32.839 13.212,33.022C13.234,33.098 13.254,33.176 13.277,33.251L13.279,33.251C13.581,34.25 13.939,35.225 14.355,36.169L18.364,34.406C18.019,33.624 17.721,32.814 17.47,31.985Z" style="fill:rgb(67,83,99);fill-rule:nonzero;"/>
        <path d="M37.965,47.204C32.061,47.204 26.709,44.8 22.832,40.922L19.733,44.021C24.4,48.688 30.844,51.578 37.965,51.578C51.116,51.578 61.966,41.734 63.553,29.013L59.138,29.013C57.578,39.296 48.678,47.204 37.965,47.204" style="fill:rgb(243,139,0);fill-rule:nonzero;"/>
        <path d="M37.965,4.374C42.762,4.374 47.193,5.959 50.767,8.634L53.388,5.121C49.086,1.905 43.748,0 37.965,0C27.022,0 17.672,6.816 13.928,16.435L18.009,18.023C21.124,10.042 28.895,4.374 37.965,4.374" style="fill:rgb(243,139,0);fill-rule:nonzero;"/>
        <path d="M59.138,22.565L63.553,22.565C63.08,18.77 61.782,15.231 59.844,12.133L56.126,14.453C57.644,16.876 58.691,19.623 59.138,22.565" style="fill:rgb(67,83,99);fill-rule:nonzero;"/>
        <path d="M54.164,22.565L58.594,22.565C57.438,15.137 52.351,8.995 45.534,6.334L43.952,10.402C49.136,12.426 53.057,16.993 54.164,22.565" style="fill:rgb(243,139,0);fill-rule:nonzero;"/>
        <path d="M37.965,9.273L37.966,4.911L37.965,4.911C29.122,4.911 21.547,10.437 18.509,18.218L22.574,19.8C24.978,13.645 30.97,9.273 37.965,9.273" style="fill:rgb(67,83,99);fill-rule:nonzero;"/>
        <path d="M21.45,25.788L17.088,25.788C17.088,34.561 22.529,42.084 30.213,45.168L31.833,41.119C25.754,38.679 21.45,32.728 21.45,25.788" style="fill:rgb(243,139,0);fill-rule:nonzero;"/>
        <path d="M37.965,42.303L37.965,46.666C48.381,46.666 57.039,38.998 58.594,29.011L54.163,29.011C52.66,36.581 45.969,42.303 37.965,42.303" style="fill:rgb(67,83,99);fill-rule:nonzero;"/>
    </g>
</svg>
