<?xml version="1.0" encoding="utf-8"?>
<!-- Generator: Adobe Illustrator 19.2.1, SVG Export Plug-In . SVG Version: 6.00 Build 0)  -->
<svg version="1.1"
	 id="svg2" xmlns:cc="http://creativecommons.org/ns#" xmlns:dc="http://purl.org/dc/elements/1.1/" xmlns:rdf="http://www.w3.org/1999/02/22-rdf-syntax-ns#" xmlns:svg="http://www.w3.org/2000/svg"
	 xmlns="http://www.w3.org/2000/svg" xmlns:xlink="http://www.w3.org/1999/xlink" x="0px" y="0px" viewBox="0 0 417.4 87"
	 style="enable-background:new 0 0 417.4 87;" xml:space="preserve">
<g>
	<path d="M29.1,25.4c4.6,0,8.9,1.7,12.1,4.4l4.5-5.3c-4.5-3.8-10.3-6.1-16.6-6.1C14.8,18.4,3.2,30,3.2,44.3s11.6,25.9,25.9,25.9
		c6.3,0,12.1-2.3,16.6-6.1l-4.5-5.3c-3.3,2.8-7.5,4.4-12.1,4.4c-10.4,0-18.9-8.5-18.9-18.9C10.2,33.9,18.7,25.4,29.1,25.4z"/>
	<path d="M172.3,19.9h-13.9c-1.9,0-3.5,1.6-3.5,3.5v41.8c0,1.9,1.6,3.5,3.5,3.5h13.9c13.4,0,24.4-10.9,24.4-24.4
		C196.6,30.9,185.7,19.9,172.3,19.9z M172.3,61.7h-10.4V26.9h10.4c9.6,0,17.4,7.8,17.4,17.4S181.9,61.7,172.3,61.7z"/>
	<path d="M215.5,23.4v41.8c0,1.9,1.6,3.5,3.5,3.5h29v-7h-25.5V47.8h16.2v-7h-16.2V26.9H248v-7h-29C217,19.9,215.5,21.5,215.5,23.4z"
		/>
	<path d="M320.9,23.4v41.8c0,1.9,1.6,3.5,3.5,3.5h29v-7h-25.5V47.8h16.2v-7h-16.2V26.9h25.5v-7h-29
		C322.4,19.9,320.9,21.5,320.9,23.4z"/>
	<path d="M287.7,19.9h-15.1c-1.9,0-3.5,1.6-3.5,3.5v45.2h7V47.8h11.6c7.7,0,13.9-6.2,13.9-13.9S295.4,19.9,287.7,19.9z M287.7,40.8
		h-11.6V26.9h11.6c3.8,0,7,3.1,7,7S291.6,40.8,287.7,40.8z"/>
	<path d="M407.8,19.9v35.6l-28.7-34.4c-0.9-1.1-2.5-1.5-3.9-1s-2.3,1.8-2.3,3.3v45.2h7V33l28.7,34.4c0.7,0.8,1.7,1.3,2.7,1.3
		c0.4,0,0.8-0.1,1.2-0.2c1.4-0.5,2.3-1.8,2.3-3.3V19.9H407.8z"/>
	<path d="M135.1,32.4c0-0.1,0-0.2-0.1-0.3c0-0.1,0-0.1,0-0.2c0-0.1-0.1-0.2-0.1-0.2c0-0.1,0-0.1-0.1-0.2c0-0.1-0.1-0.1-0.1-0.2
		c0-0.1-0.1-0.1-0.1-0.1c0-0.1-0.1-0.1-0.1-0.2l-0.1-0.1c0-0.1-0.1-0.1-0.2-0.2l-0.1-0.1c-0.1-0.1-0.1-0.1-0.2-0.2l-0.1-0.1
		c0,0,0,0-0.1,0L99.8,7.7c-1.1-0.7-2.5-0.7-3.5,0L62.4,30.3c0,0,0,0-0.1,0l-0.1,0.1c-0.1,0-0.1,0.1-0.2,0.2l-0.1,0.1
		c-0.1,0.1-0.1,0.1-0.2,0.2L61.6,31c0,0.1-0.1,0.1-0.1,0.2l-0.1,0.1c0,0.1-0.1,0.1-0.1,0.2c0,0.1,0,0.1-0.1,0.2
		c0,0.1-0.1,0.2-0.1,0.2c0,0.1,0,0.1,0,0.2c0,0.1,0,0.2-0.1,0.3v0.1c0,0.1,0,0.3,0,0.4v22.6c0,0.1,0,0.3,0,0.4V56
		c0,0.1,0,0.2,0.1,0.3c0,0.1,0,0.1,0,0.2c0,0.1,0.1,0.2,0.1,0.2c0,0.1,0,0.1,0.1,0.2c0,0.1,0.1,0.1,0.1,0.2l0.1,0.1
		c0,0.1,0.1,0.1,0.1,0.2l0.1,0.1c0.1,0.1,0.1,0.1,0.2,0.2l0.1,0.1c0.1,0.1,0.1,0.1,0.2,0.2l0.1,0.1c0,0,0,0,0.1,0l33.9,22.6
		c0.5,0.4,1.2,0.5,1.8,0.5s1.2-0.2,1.8-0.5l33.9-22.6c0,0,0,0,0.1,0L134,58c0.1,0,0.1-0.1,0.2-0.2l0.1-0.1c0.1-0.1,0.1-0.1,0.2-0.2
		l0.1-0.1c0-0.1,0.1-0.1,0.1-0.2l0.1-0.1c0-0.1,0.1-0.1,0.1-0.2c0-0.1,0-0.1,0.1-0.2c0-0.1,0.1-0.2,0.1-0.2c0-0.1,0-0.1,0-0.2
		c0-0.1,0-0.2,0.1-0.3v-0.1c0-0.1,0-0.3,0-0.4V33c0-0.1,0-0.3,0-0.4C135.1,32.5,135.1,32.5,135.1,32.4z M98,51.8l-11.3-7.5L98,36.8
		l11.3,7.5L98,51.8z M94.8,31.2L81,40.4L69.8,33l25-16.7V31.2z M75.3,44.3l-8,5.3V38.9L75.3,44.3z M81,48.1l13.8,9.3v14.9l-25-16.7
		L81,48.1z M101.2,57.4l13.8-9.3l11.2,7.5l-25,16.7V57.4z M120.8,44.3l8-5.3v10.7L120.8,44.3z M115,40.4l-13.8-9.3V16.3l25,16.7
		L115,40.4z"/>
</g>
</svg>
