<?xml version="1.0" encoding="utf-8"?>
<!-- Generator: Adobe Illustrator 19.2.1, SVG Export Plug-In . SVG Version: 6.00 Build 0)  -->
<svg version="1.1"
	 id="svg2" xmlns:cc="http://creativecommons.org/ns#" xmlns:dc="http://purl.org/dc/elements/1.1/" xmlns:rdf="http://www.w3.org/1999/02/22-rdf-syntax-ns#" xmlns:svg="http://www.w3.org/2000/svg"
	 xmlns="http://www.w3.org/2000/svg" xmlns:xlink="http://www.w3.org/1999/xlink" x="0px" y="0px" viewBox="0 0 417.4 412"
	 style="enable-background:new 0 0 417.4 412;" xml:space="preserve">
<style type="text/css">
	.st0{fill:#231F20;}
</style>
<g>
	<path class="st0" d="M209.5,9C99.9,9,11,97.9,11,207.5s88.9,198.5,198.5,198.5c109.7,0,198.5-88.9,198.5-198.5S319.2,9,209.5,9z
		 M209.5,373.5C118,373.5,43.6,299,43.6,207.5S118,41.6,209.5,41.6c91.5,0,165.9,74.4,165.9,165.9S301,373.5,209.5,373.5z"/>
	<path class="st0" d="M332.2,168.8c0-0.2-0.1-0.3-0.1-0.5c-0.1-0.3-0.1-0.6-0.2-0.9c0-0.2-0.1-0.3-0.2-0.5c-0.1-0.3-0.2-0.5-0.3-0.8
		c-0.1-0.2-0.2-0.3-0.2-0.5c-0.1-0.2-0.2-0.5-0.4-0.7c-0.1-0.2-0.2-0.3-0.3-0.5c-0.1-0.2-0.3-0.4-0.4-0.6c-0.1-0.2-0.2-0.3-0.4-0.5
		c-0.2-0.2-0.3-0.4-0.5-0.6c-0.1-0.1-0.3-0.3-0.4-0.4c-0.2-0.2-0.4-0.3-0.6-0.5c-0.2-0.1-0.3-0.2-0.5-0.4c-0.1,0-0.1-0.1-0.2-0.1
		L215.4,86.6c-3.5-2.4-8.2-2.4-11.7,0L91.5,161.4c-0.1,0-0.1,0.1-0.2,0.1c-0.2,0.1-0.3,0.2-0.5,0.4c-0.2,0.2-0.4,0.3-0.6,0.5
		c-0.1,0.1-0.3,0.3-0.4,0.4c-0.2,0.2-0.4,0.4-0.5,0.6c-0.1,0.1-0.2,0.3-0.4,0.5c-0.2,0.2-0.3,0.4-0.4,0.6c-0.1,0.2-0.2,0.3-0.3,0.5
		c-0.1,0.2-0.2,0.5-0.4,0.7c-0.1,0.2-0.2,0.3-0.2,0.5c-0.1,0.3-0.2,0.5-0.3,0.8c-0.1,0.2-0.1,0.3-0.2,0.5c-0.1,0.3-0.1,0.6-0.2,0.9
		c0,0.2-0.1,0.3-0.1,0.5c-0.1,0.5-0.1,0.9-0.1,1.4V245c0,0.5,0,0.9,0.1,1.4c0,0.1,0.1,0.3,0.1,0.5c0.1,0.3,0.1,0.6,0.2,0.9
		c0,0.2,0.1,0.3,0.2,0.5c0.1,0.3,0.2,0.5,0.3,0.8c0.1,0.2,0.2,0.3,0.2,0.5c0.1,0.2,0.2,0.5,0.4,0.7c0.1,0.2,0.2,0.3,0.3,0.5
		c0.1,0.2,0.3,0.4,0.4,0.6c0.1,0.2,0.2,0.3,0.4,0.5c0.2,0.2,0.3,0.4,0.5,0.6c0.1,0.1,0.3,0.3,0.4,0.4c0.2,0.2,0.4,0.3,0.6,0.5
		c0.2,0.1,0.3,0.2,0.5,0.4c0.1,0,0.1,0.1,0.2,0.1l112.2,74.8c1.8,1.2,3.8,1.8,5.9,1.8c2,0,4.1-0.6,5.9-1.8l112.2-74.8
		c0.1,0,0.1-0.1,0.2-0.1c0.2-0.1,0.3-0.2,0.5-0.4c0.2-0.2,0.4-0.3,0.6-0.5c0.1-0.1,0.3-0.3,0.4-0.4c0.2-0.2,0.4-0.4,0.5-0.6
		c0.1-0.1,0.2-0.3,0.4-0.5c0.2-0.2,0.3-0.4,0.4-0.6c0.1-0.2,0.2-0.3,0.3-0.5c0.1-0.2,0.2-0.5,0.4-0.7c0.1-0.2,0.2-0.3,0.2-0.5
		c0.1-0.3,0.2-0.5,0.3-0.8c0.1-0.2,0.1-0.3,0.2-0.5c0.1-0.3,0.1-0.6,0.2-0.9c0-0.1,0.1-0.3,0.1-0.5c0.1-0.5,0.1-0.9,0.1-1.4v-74.8
		C332.3,169.7,332.3,169.2,332.2,168.8z M220.1,115.1l82.7,55.1l-36.9,24.7l-45.7-30.6V115.1z M199,115.1v49.2l-45.7,30.6
		l-36.9-24.7L199,115.1z M107.9,189.9l26.4,17.7l-26.4,17.7V189.9z M199,300l-82.7-55.1l36.9-24.7l45.7,30.6V300z M209.5,232.5
		l-37.3-25l37.3-25l37.3,25L209.5,232.5z M220.1,300v-49.2l45.7-30.6l36.9,24.7L220.1,300z M311.2,225.2l-26.4-17.7l26.4-17.7V225.2
		z"/>
</g>
</svg>
