<?xml version="1.0" encoding="utf-8"?>
<!-- Generator: Adobe Illustrator 19.2.1, SVG Export Plug-In . SVG Version: 6.00 Build 0)  -->
<svg version="1.1"
	 id="Layer_1" inkscape:version="0.91 r13725" sodipodi:docname="codeigniter-with-text-official.svg" xmlns:cc="http://creativecommons.org/ns#" xmlns:dc="http://purl.org/dc/elements/1.1/" xmlns:inkscape="http://www.inkscape.org/namespaces/inkscape" xmlns:rdf="http://www.w3.org/1999/02/22-rdf-syntax-ns#" xmlns:sodipodi="http://sodipodi.sourceforge.net/DTD/sodipodi-0.dtd" xmlns:svg="http://www.w3.org/2000/svg"
	 xmlns="http://www.w3.org/2000/svg" xmlns:xlink="http://www.w3.org/1999/xlink" x="0px" y="0px" viewBox="0 0 486.6 138.6"
	 style="enable-background:new 0 0 486.6 138.6;" xml:space="preserve">
<style type="text/css">
	.st0{fill:#2E3037;}
</style>
<sodipodi:namedview  bordercolor="#666666" borderopacity="1" fit-margin-bottom="0" fit-margin-left="0" fit-margin-right="0" fit-margin-top="0" gridtolerance="10" guidetolerance="10" id="namedview37" inkscape:current-layer="Layer_1" inkscape:cx="243.27817" inkscape:cy="69.29" inkscape:pageopacity="0" inkscape:pageshadow="2" inkscape:window-height="480" inkscape:window-maximized="0" inkscape:window-width="664" inkscape:window-x="0" inkscape:window-y="23" inkscape:zoom="0.62" objecttolerance="10" pagecolor="#ffffff" showgrid="false">
	</sodipodi:namedview>
<g id="g3" transform="translate(-6.7218256,-5.71)">
	<g id="g5">
		<path id="path7" inkscape:connector-curvature="0" class="st0" d="M185.2,81.2H177c0-0.1,0-0.1,0-0.1c0-5-2-7.8-8.1-7.8
			c-9.1,0-11.9,6.1-13.4,16.7c-0.3,2.4-0.6,4.8-0.6,6.8c0,6.2,2,10.3,9.1,10.3c4.6,0,8.7-1.6,12.4-7.6l5.8,3.9
			c-3.5,6-9.4,10.8-19.3,10.8c-13.1,0-16.7-8.5-16.7-17.8c0-2.1,0.2-4.2,0.5-6.4C149,74.3,155.1,66,169.9,66
			c10.9,0,15.3,6.4,15.3,13.7C185.2,80.2,185.2,80.7,185.2,81.2z"/>
		<path id="path9" inkscape:connector-curvature="0" class="st0" d="M217.6,96c-1.7,11.9-6.9,18.3-18.8,18.3
			c-10.1,0-13.8-6.2-13.8-14.1c0-1.3,0.1-2.8,0.3-4.2c1.7-12.1,6.9-18.2,18.7-18.2c10.1,0,13.9,5.9,13.9,13.8
			C217.9,93,217.8,94.5,217.6,96z M203.1,84.6c-5.3,0-7.8,2.7-9.1,11.4c-0.3,1.7-0.4,3.3-0.4,4.6c0,5.2,2.1,6.9,6.2,6.9
			c5.2,0,8-2.7,9.2-11.5c0.3-1.7,0.4-3.1,0.4-4.4C209.4,86.3,207.3,84.6,203.1,84.6z"/>
		<path id="path11" inkscape:connector-curvature="0" class="st0" d="M249.1,113.2H243l-0.6-2.5c-2.5,2.1-5.7,3.5-9,3.5
			c-7.8,0-13.5-3.7-13.5-13.5c0-1.4,0.1-2.8,0.3-4.4c1.9-13.5,7.9-18.5,18.5-18.5c2.2,0,5.6,0.4,7.4,1.9c-0.4-1-0.5-1.6-0.3-2.6
			l2-13.7h8.5C256.3,63.3,249.1,113.2,249.1,113.2z M237.7,84.3c-4.2,0-7.5,1.8-9,12c-0.3,1.9-0.5,3.6-0.5,5.1c0,3.9,1.3,6.4,6,6.4
			c1.7,0,4.6-0.4,7.4-2.1l2.9-19.8C242.6,84.8,240.5,84.3,237.7,84.3z"/>
		<path id="path13" inkscape:connector-curvature="0" class="st0" d="M287.4,98.5h-23.1c-0.1,1-0.2,1.9-0.2,2.8
			c0,4.2,1.9,6.2,6.7,6.2c4.4,0,6.9-1.9,8.8-4.8l6.5,2.6c-3,5.8-8.7,8.9-16.2,8.9c-9.7,0-14.2-5.2-14.2-13.9c0-1.4,0.1-2.9,0.3-4.4
			c1.9-12.6,7.4-18.2,19.1-18.2c10.6,0,13.1,7.5,13.1,13.9C288.1,93.6,287.7,96.2,287.4,98.5z M274,84.6c-4.9,0-7.2,1.9-8.7,7.9
			h14.1c0.1-0.8,0.2-1.5,0.2-2.1C279.6,86.6,277.8,84.6,274,84.6z"/>
		<path id="path15" inkscape:connector-curvature="0" class="st0" d="M312.8,72.5H308l-5.1,35.3h4.7l-0.8,5.4h-18.1l0.8-5.4h4.8
			l5.1-35.3h-4.7l0.8-5.5h18.1L312.8,72.5z"/>
		<path id="path17" inkscape:connector-curvature="0" class="st0" d="M349.5,85.3h-2.2c-0.6,0-2-0.1-3.1-0.6
			c0.6,1.5,0.9,3.3,0.9,4.7c0,10-8,13.9-16.9,13.9c-2,0-3.9-0.2-5.6-0.6c-0.3-0.1-0.5-0.1-0.8-0.1c-1,0-1.5,0.5-1.5,1.5
			c0,0.7,0.3,1.1,1.7,1.4l12.4,2.3c6.9,1.3,9.2,4.2,9.2,8c0,11.1-10.4,13.1-19.1,13.1c-6.9,0-16-1.9-16-10.5c0-4.5,2.4-8.3,6.2-10.6
			c-0.8-1-1.2-2.1-1.2-3.1c0-2.3,1.7-4.1,3.6-5.1c-1.2-1.5-2.2-4-2.2-6.8c0-10.1,7.8-14.8,17-14.8c3.2,0,6.6,0.6,9.1,2.2l4.5-2.2
			h6.2L349.5,85.3L349.5,85.3z M331.9,113.4l-12.1-2.2c-1.9,2.1-2.8,3.4-2.8,6.3c0,3.3,2.3,4.8,8.5,4.8c4,0,9.6-0.6,9.6-5.8
			C335.2,114.7,334.3,113.8,331.9,113.4z M331.1,84.5c-4.8,0-7.6,2.8-7.6,7.5c0,3.2,2.1,4.6,5.8,4.6c4.8,0,7.5-2.6,7.5-7.3
			C336.8,86.1,334.9,84.5,331.1,84.5z"/>
		<path id="path19" inkscape:connector-curvature="0" class="st0" d="M382.1,91.6l-3.1,21.7h-8.5l3.1-21.7c0.1-0.8,0.2-1.5,0.2-2.2
			c0-2.9-1.2-4.9-4.4-4.9c-2.6,0-5.7,1.5-8.2,3l-3.7,25.8H349l4.9-34.4h7.1l0.6,3.1c4-3.1,7.2-4.2,10.8-4.2
			c7.2,0,10.1,4.6,10.1,10.6C382.4,89.5,382.3,90.5,382.1,91.6L382.1,91.6z"/>
		<path id="path21" inkscape:connector-curvature="0" class="st0" d="M401.7,113.8h-4.4c-5,0-7.4-2.2-7.4-6.7c0-0.7,0.1-1.4,0.2-2.2
			l2.6-17.8c0.1-0.5,0.4-1.3,0.9-1.9h-6.2l0.9-6.5h14.2l-3.7,26.1c-0.1,0.3-0.1,0.6-0.1,0.9c0,0.8,0.3,1,1.3,1h2.8
			C402.6,106.8,401.7,113.8,401.7,113.8z M403.4,71.9c-0.1,0.6-0.1,0.6-0.6,0.6h-8.3c-0.5,0-0.5,0-0.5-0.6l1.2-8
			c0.1-0.6,0.1-0.7,0.6-0.7h8.3c0.5,0,0.5,0.1,0.5,0.7L403.4,71.9z"/>
		<path id="path23" inkscape:connector-curvature="0" class="st0" d="M430.9,85.3h-9.7l-2.7,18.5c-0.1,0.3-0.1,0.6-0.1,0.9
			c0,1.9,1,2.8,3.1,2.8c2.9,0,4.3-0.9,6.3-2.1l4,4.9c-3.1,2.6-7.2,4-12.2,4c-5.4,0-9.9-2.4-9.9-8.5c0-0.6,0-1.3,0.1-2.1l2.3-15.9
			c0.1-0.6,0.6-1.7,1.2-2.6h-6l0.9-6.5h5.2l1.6-11.2l9-2.5l-2,13.7h11.8C433.8,78.8,430.9,85.3,430.9,85.3z"/>
		<path id="path25" inkscape:connector-curvature="0" class="st0" d="M465.2,98.5H442c-0.1,1-0.2,1.9-0.2,2.8c0,4.2,1.9,6.2,6.7,6.2
			c4.4,0,6.9-1.9,8.8-4.8l6.5,2.6c-3,5.8-8.7,8.9-16.2,8.9c-9.8,0-14.2-5.2-14.2-13.9c0-1.4,0.1-2.9,0.3-4.4
			c1.9-12.6,7.4-18.2,19.1-18.2c10.6,0,13.1,7.5,13.1,13.9C465.9,93.6,465.5,96.2,465.2,98.5L465.2,98.5z M451.8,84.6
			c-4.9,0-7.3,1.9-8.7,7.9h14.1c0.1-0.8,0.2-1.5,0.2-2.1C457.4,86.6,455.6,84.6,451.8,84.6z"/>
		<path id="path27" inkscape:connector-curvature="0" class="st0" d="M492.2,85.5c-1.4-0.2-2.9-0.3-4.4-0.3c-2.4,0-5,0.4-7.2,1.7
			l-3.8,26.4h-8.6l4.9-34.4h7.1l0.5,2.8c2.9-2.8,5.8-3.8,8.9-3.8c1.2,0,2.5,0.2,3.8,0.4L492.2,85.5L492.2,85.5z"/>
	</g>
	<g id="g29">
		<path id="path31" inkscape:connector-curvature="0" class="st0" d="M92.9,60.4c-0.2,1-0.7,2-1.2,2.9
			C92.4,62.6,92.9,61.6,92.9,60.4z"/>
		<path id="path33" inkscape:connector-curvature="0" class="st0" d="M93.2,58.1C93.5,67.4,81.1,71,75.6,64c-7-8.9,0.1-18.6,1.1-28
			C78,24.1,70.6,12.6,61.3,5.7c5.1,8.2-1.6,19.1-7,25.2C49.2,36.8,42.9,41.7,37.1,47C31,52.8,25.1,58.8,20,65.6
			C9.9,79.1,3.7,96.1,8.2,112.9c4.6,16.8,19.1,27.6,35.6,31.3c-8.3-3.6-16.1-12.7-16.1-22.1c0-10.2,6.4-18.8,14.5-24.5
			c-1,3.6-1.5,7,0.9,10.2c2.2,3,6.1,4.5,9.8,3.7c8.6-1.9,9-11.3,3.9-16.8c-5-5.4-9.9-11.6-8-19.5c1-4,3.4-7.7,6.5-10.3
			c-2.4,6.2,4.4,12.4,8.8,15.4c7.7,5.3,16.1,9.3,23.2,15.5c7.4,6.5,12.9,15.4,11.8,25.6c-1.2,11.1-10,18.8-19.9,22.7
			c20.9-4.6,42.5-20.8,43-44C122.5,81.2,109.4,66.5,93.2,58.1"/>
		<path id="path35" inkscape:connector-curvature="0" class="st0" d="M92.9,60.4c0.2-0.7,0.3-1.4,0.3-2.2c0,0,0-0.1,0-0.1
			c-0.3-0.2-0.5-0.3-0.9-0.5C92.8,58.7,92.9,59.6,92.9,60.4z"/>
	</g>
</g>
</svg>
