<svg id="Page_1" data-name="Page 1" xmlns="http://www.w3.org/2000/svg" viewBox="0 0 447.92 538.87"><title>code-ignitor</title><g id="Layer_1-2" data-name="Layer 1"><path d="M47.76,334.48c1.22-7.76,2.07-15.61,3.73-23.27,6.26-28.9,19.84-54.33,37.71-77.62,20.42-26.62,44.82-49.37,70-71.39,14.57-12.77,29-25.75,40-41.87C207,109,213.12,97,215,83.11c1-7.27,0-13.65-3.43-23.09,2.69,2.29,5.49,4.48,8.07,6.9,17.5,16.42,30.16,35.66,34.77,59.62,2.8,14.54.27,28.5-3.65,42.51a288.28,288.28,0,0,0-7.65,33.74c-2.29,15,7.6,32.07,20.46,37.35,13.79,5.67,34.51,0,39.26-17.67,0.71-2.66.1-5.68,0.1-8.85a5.93,5.93,0,0,1,1.41.38c27,14.27,50.4,32.77,66.76,59,29.46,47.24,23.94,102.58-14.25,143.52C333,442.09,303.45,458.13,270,467.3a7.82,7.82,0,0,1-1.34,0c1-.67,1.62-1.11,2.27-1.47s1.59-.81,2.38-1.21c14.18-7.2,26.46-16.71,35.8-29.72,17.57-24.48,17.47-56.13-.15-83.48-10.62-16.49-24.91-29.24-41.12-39.87-15.85-10.4-32.11-20.2-48-30.5a103.9,103.9,0,0,1-13.5-10.59c-12.65-11.56-15.5-18.32-15.4-35.22a14.36,14.36,0,0,0-1.92,1.34c-10.6,10.51-17.42,22.95-17.94,38.07a43.08,43.08,0,0,0,8,26.26c5.29,7.61,11.2,14.81,17.17,21.9,6.8,8.08,10.84,17.13,9.38,27.69-2,14.46-14.21,23.61-28.84,22.37-17.79-1.5-28.74-16.31-25.28-34.16l1.27-6.54-0.94-.65c-4.67,4-9.57,7.85-14,12.15-13.4,13.09-23.1,28.37-26.7,47.06-3.94,20.46,2.15,38.19,14.9,54.06a91.88,91.88,0,0,0,27.75,23A150.46,150.46,0,0,1,108.35,449c-30.23-18.91-50.41-45.11-57.67-80.47-1.27-6.2-2-12.52-2.92-18.78V334.48Z"/></g></svg>