<?xml version="1.0" encoding="utf-8"?>
<!-- Generator: Adobe Illustrator 19.2.1, SVG Export Plug-In . SVG Version: 6.00 Build 0)  -->
<svg version="1.1" id="Layer_1" xmlns="http://www.w3.org/2000/svg" xmlns:xlink="http://www.w3.org/1999/xlink" x="0px" y="0px"
	 viewBox="0 0 256 304" style="enable-background:new 0 0 256 304;" xml:space="preserve">
<g>
	<path d="M13.1,287.3c-5.2,0-6.7-3-6.7-7.6c0-1.5,0.2-3.2,0.4-5c1.1-7.9,3.9-12.3,10.6-12.3c4.5,0,6.8,2,6.8,5.7v1.8h4.5
		c0.1,0,0.1-1.7,0.1-2c0-5.4-3.3-10.5-11.3-10.5c-10.9,0-15.4,5.9-17.1,17.6c-0.2,1.6-0.4,3-0.4,4.6c0,6.9,2.7,13.1,12.3,13.1
		c7.3,0,11.7-3.6,14.2-8l-4.3-2.9C19.5,286.1,16.5,287.3,13.1,287.3L13.1,287.3z M42.7,265.6c-8.8,0-12.5,4.5-13.8,13.4
		c-0.1,1-0.2,2.1-0.2,3.1c0,5.8,2.7,10.4,10.2,10.4c8.8,0,12.6-4.7,13.9-13.5c0.1-1.1,0.2-2.2,0.2-3.2
		C52.9,270,50.1,265.6,42.7,265.6L42.7,265.6z M46.3,279.1c-0.9,6.5-3,8.5-6.8,8.5c-3.1,0-4.6-1.3-4.6-5.1c0-0.9,0.1-2.1,0.3-3.4
		c0.9-6.4,2.8-8.4,6.7-8.4c3.1,0,4.7,1.3,4.7,5.2C46.6,276.8,46.5,277.8,46.3,279.1L46.3,279.1z M74.9,257.8l-1.5,8.7
		c-0.1,0.8,0,0.5,0.2,1.2c-1.4-1-3.8-1.7-5.5-1.7c-7.9,0-12.3,3.6-13.7,13.5c-0.2,1.2-0.2,2.2-0.2,3.2c0,7.2,4.3,9.9,10,9.9
		c2.4,0,4.8,0.1,6.6-1.5l0.5,2.9h4.5l5.3-36.2H74.9L74.9,257.8z M70.4,286.2c-2.1,1.3-4.2,1.6-5.5,1.6c-3.5,0-4.4-1.8-4.4-4.7
		c0-1.1,0.1-2.4,0.3-3.7c1.1-7.5,3.5-8.8,6.6-8.8c2,0,3.6,0.3,5.1,1.1L70.4,286.2L70.4,286.2z M95,265.6c-8.7,0-12.7,4.1-14.1,13.4
		c-0.1,1.1-0.2,2.2-0.2,3.3c0,6.4,3.3,10.2,10.5,10.2c5.6,0,9.7-2.3,12-6.6l-4.8-1.9c-1.4,2.1-3.2,3.5-6.5,3.5
		c-3.5,0-4.9-0.9-4.9-4.1c0-0.6,0-1.5,0.1-1.5h17.1c0.2-2.4,0.5-4.1,0.5-5.5C104.7,271.7,102.9,265.6,95,265.6L95,265.6z
		 M98.3,277.1H87.9c1-2.4,2.8-6.2,6.4-6.2c2.8,0,4.2,1.6,4.2,4.4C98.4,275.9,98.4,277.1,98.3,277.1L98.3,277.1z M122.9,265.1
		l0.6-4.8h-13.3l-0.6,4.8h3.5l-3.8,24.1h-3.5l-0.6,4.8h13.3l0.6-4.8h-3.5l3.8-24.1H122.9z M150,272.3l1.7-4.8h-4.6l-3.3,0.7
		c-1.8-1.2-4.4-2.1-6.7-2.1c-6.8,0-12.5,3.3-12.5,10.7c0,2.1,0.8,3.8,1.7,4.9c-1.4,0.8-2.6,2-2.6,3.7c0,0.8,0.3,1.5,0.9,2.2
		c-2.8,1.7-4.6,4.5-4.6,7.8c0,6.4,6.7,7.8,11.8,7.8c6.4,0,14.1-1.5,14.1-9.7c0-2.8-1.7-5-6.8-5.9l-9.1-1.7c-1-0.2-1.3-0.5-1.3-1
		c0-0.7,0.4-1.1,1.1-1.1l0.6,0.1c1.2,0.3,2.7,0.4,4.1,0.4c6.6,0,12.4-2.8,12.4-10.2c0-1-0.2-1.7-0.7-2.9c0.8,0.4,1.8,1,2.3,1
		L150,272.3L150,272.3z M137,291.9c1.8,0.3,2.4,1,2.4,2.2c0,3.8-4.1,4.3-7.1,4.3c-4.5,0-6.2-1.1-6.2-3.5c0-2.1,0.6-3.1,2-4.6
		L137,291.9L137,291.9z M135,279.5c-2.7,0-4.3-1-4.3-3.4c0-3.5,2-5.5,5.6-5.5c2.8,0,4.2,1.2,4.2,3.5
		C140.6,277.6,138.6,279.5,135,279.5L135,279.5z M166.8,265.6c-2.7,0-5,1.3-7.9,3.6l-0.4-1.8h-5.2l-3.6,26.6h6.3l2.7-20.1
		c1.8-1.1,4.1-2.8,6.1-2.8c2.4,0,3.2,1.1,3.2,3.3c0,0.5-0.1,2.1-0.1,2.6l-2.3,17h6.3l2.3-17.1c0.1-0.8,0.2-2.1,0.2-2.9
		C174.2,269.6,172.1,265.6,166.8,265.6L166.8,265.6z M186.2,287.4l0-0.6l2.7-19.2h-10.5l-0.7,4.8h4.6c-0.4,0-0.6,0.4-0.7,0.8
		l-1.9,12.8c-0.1,0.6-0.1,1.9-0.1,2.4c0,3.3,1.8,5.7,5.5,5.7h3.2l0.7-4.8h-2C186.4,289.2,186.2,287.9,186.2,287.4L186.2,287.4z
		 M190.2,257.8h-6.2c-0.4,0-0.4-1.4-0.4-0.9l-0.9,6.8c0,0.4,0,1.4,0.3,1.4h6.2c0.4,0,0.4-1.7,0.4-2.1l0.9-5.2
		C190.6,257.3,190.6,257.8,190.2,257.8L190.2,257.8z M203.1,287.5c-1.6,0-2.3-0.7-2.3-2.1l0-0.1l2-13.1h7.2l2.2-4.8h-8.7l1.5-10.6
		l-6.6,2.1l-1.2,8.5h-3.8l-0.7,4.8h4.4c-0.4,2.4-0.9,0.8-0.9,1.3l-1.7,11.4c-0.1,0.5-0.1,0.9-0.1,1.4c0,4.5,3.3,6.2,7.3,6.2
		c3.7,0,6.7-1.1,9-3l-2.9-3.6C206.2,286.9,205.2,287.5,203.1,287.5L203.1,287.5z M226.1,265.6c-8.7,0-12.7,4.1-14.1,13.4
		c-0.1,1.1-0.2,2.2-0.2,3.3c0,6.4,3.3,10.2,10.5,10.2c5.6,0,9.7-2.3,12-6.6l-4.8-1.9c-1.4,2.1-3.2,3.5-6.5,3.5
		c-3.5,0-4.9-0.9-4.9-4.1c0-0.6,0.1-1.5,0.1-1.5h17.1c0.2-2.4,0.5-4.1,0.5-5.5C235.8,271.7,234,265.6,226.1,265.6L226.1,265.6z
		 M229.4,277.1H219c1-2.4,2.8-6.2,6.4-6.2c2.8,0,4.2,1.6,4.2,4.4C229.5,275.9,229.5,277.1,229.4,277.1L229.4,277.1z M253.2,265.6
		c-2.3,0-4.4,1.3-6.5,3.3l-0.4-1.5h-5.2l-3.6,26.6h6.3l2.8-20.6c1.7-1,3.5-1.8,5.3-1.8c1.1,0,2.2-0.2,3.3,0l0.8-5.5
		C255,265.9,254.1,265.6,253.2,265.6L253.2,265.6z M92.5,238.8c-14.3-6.2-27.7-21.9-27.8-38c0-17.6,11.1-32.4,24.9-42.2
		c-1.7,6.3-2.6,12,1.5,17.6c3.8,5.2,10.5,7.8,16.9,6.4c14.8-3.2,15.5-19.5,6.7-29c-8.7-9.4-17.1-20-13.8-33.6
		c1.7-6.8,5.8-13.2,11.2-17.8c-4.1,10.7,7.5,21.3,15.2,26.6c13.3,9.1,27.8,16,40,26.8c12.8,11.3,22.3,26.5,20.4,44.1
		c-2.1,19.1-17.3,32.4-34.3,39.2c36-8,73.3-35.9,74-75.9c0.6-32.9-21.9-58.2-49.9-72.7l-1.5-0.8c0.8,1.9,1,3.4,1,4.9
		c0.3-1,0.4-2.1,0.5-3.2c0,1.4-0.2,2.7-0.5,3.9l0-0.7c-0.4,1.8-1.1,3.4-2.1,4.9l0.4-0.4c-5.6,9.2-20.7,11.3-28.1,1.7
		c-12-15.4,0.3-32,2-48.3c2.1-20.4-10.7-40.3-26.6-52.2c8.8,14.2-2.8,32.9-12,43.4C101.7,53.5,90.9,62,81,71.2
		c-10.6,9.9-20.8,20.3-29.5,32c-17.4,23.3-28.1,52.5-20.3,81.6C39,213.8,64.2,232.3,92.5,238.8L92.5,238.8z"/>
</g>
</svg>
