<svg id="Layer_1" xmlns:rdf="http://www.w3.org/1999/02/22-rdf-syntax-ns#" xmlns="http://www.w3.org/2000/svg" enable-background="new 0 0 255.12 141.73" xml:space="preserve" height="100" viewBox="0 0 173.73672 256.32022" width="68.1" version="1.1" y="0px" x="0px" xmlns:cc="http://creativecommons.org/ns#" xmlns:dc="http://purl.org/dc/elements/1.1/"><metadata id="metadata11"><rdf:RDF><cc:Work rdf:about=""><dc:format>image/svg+xml</dc:format><dc:type rdf:resource="http://purl.org/dc/dcmitype/StillImage"/><dc:title/></cc:Work></rdf:RDF></metadata>
<path id="path3" d="M69.517,51.672c1.322-13.234,5.405-38.296,8.377-51.584-0.866-0.041009-1.729-0.088174-2.601-0.088174-41.914,0-75.893,45.904-75.893,102.53,0,55.345,32.467,100.42,73.071,102.43,2.6421-19.833,7.5457-41.598,5.1758-60.449-4.163-33.1-13.187-57.367-8.13-92.838z"/>
<path id="path5" d="M100.68,0.088188c-2.969,13.288-7.214,38.35-8.534,51.584-5.0407,35.356,3.5508,59.852,7.7237,92.874,2.4006,18.974-2.3454,40.763-4.6109,60.414,0.93733,0.0452,1.8767,0.0964,2.8243,0.0964,41.869,0,75.848-45.904,75.848-102.53,0-55.449-32.58-100.59-73.25-102.44z"/>
</svg>
