<svg id="Layer_1" xmlns:rdf="http://www.w3.org/1999/02/22-rdf-syntax-ns#" xmlns="http://www.w3.org/2000/svg" enable-background="new 0 0 100 100" xml:space="preserve" viewBox="0 0 80 100" version="1.1" y="0px" x="0px" xmlns:cc="http://creativecommons.org/ns#" xmlns:dc="http://purl.org/dc/elements/1.1/">
  <metadata id="metadata9">
    <rdf:RDF>
      <cc:Work rdf:about="">
        <dc:format>image/svg+xml</dc:format>
        <dc:type rdf:resource="http://purl.org/dc/dcmitype/StillImage"/><dc:title/>
      </cc:Work>
    </rdf:RDF>
  </metadata>
<path id="path3" d="M6.4062,0.1875c-3.4,0-6.4062,2.825-6.4062,6.125v0.0937c0,0.2,0.3125,0.4876,0.3125,0.6876l6.7813,61c0.1,0.9,0.4062,1.705,0.9062,2.406,0.6,1.199,1.6125,2.088,2.812,2.688l26.876,13.218c0.9,0.398,1.818,0.594,2.718,0.594s1.788-0.195,2.688-0.594l26.812-13.218c2.199-1.1,3.508-3.383,3.406-5.782l6.594-60.5c0-0.2,0.094-0.5187,0.094-0.7187v-0.0937c0-3.1-2.788-5.9063-6.188-5.9063h-59.124-8.2818zm21.782,19.812h5.406v4.75h-1.719c-2.344,0-3.879,0.317-4.594,0.938-0.698,0.606-1.031,1.902-1.031,3.906v3.531c0,2.215-0.377,3.811-1.125,4.813-0.748,1.001-2.046,1.678-3.875,2.031,1.845,0.381,3.143,1.092,3.875,2.093,0.748,1.002,1.125,2.581,1.125,4.782v3.531c0,2.018,0.333,3.331,1.031,3.937,0.715,0.621,2.25,0.938,4.594,0.938h1.719v4.75h-5.406c-3.625,0-6.276-0.633-7.938-1.875-1.663-1.242-2.5-3.214-2.5-5.937v-4.063c0-2.116-0.446-3.588-1.344-4.406-0.898-0.833-2.514-1.25-4.875-1.25h-1.531v-4.719h1.531c2.361,0,3.977-0.4,4.875-1.219,0.898-0.818,1.344-2.29,1.344-4.406v-4.344c0-2.723,0.837-4.678,2.5-5.906,1.662-1.242,4.313-1.875,7.938-1.875zm18.218,0h5.406c3.625,0,6.275,0.633,7.938,1.875,1.662,1.228,2.5,3.183,2.5,5.906v4.344c0,2.116,0.446,3.588,1.344,4.406,0.897,0.819,2.514,1.219,4.875,1.219h1.531v4.719h-1.531c-2.361,0-3.978,0.417-4.875,1.25-0.898,0.818-1.344,2.29-1.344,4.406v4.063c0,2.723-0.838,4.695-2.5,5.937-1.663,1.242-4.313,1.875-7.938,1.875h-5.406v-4.75h1.75c2.328,0,3.833-0.317,4.532-0.938,0.714-0.606,1.062-1.919,1.062-3.937v-3.531c0-2.201,0.377-3.78,1.125-4.782,0.748-1.001,2.061-1.712,3.906-2.093-1.845-0.353-3.158-1.03-3.906-2.031-0.748-1.002-1.125-2.598-1.125-4.813v-3.531c0-2.004-0.348-3.3-1.062-3.906-0.699-0.621-2.204-0.938-4.532-0.938h-1.75v-4.75z"/>
</svg>
