<?xml version="1.0" encoding="utf-8"?>
<!-- Generator: Adobe Illustrator 19.2.1, SVG Export Plug-In . SVG Version: 6.00 Build 0)  -->
<svg version="1.1" id="Layer_1" xmlns="http://www.w3.org/2000/svg" xmlns:xlink="http://www.w3.org/1999/xlink" x="0px" y="0px"
	 viewBox="0 0 149.5 141.7" style="enable-background:new 0 0 149.5 141.7;" xml:space="preserve">
<g>
	<path d="M48.5,87.5C48.5,87.6,48.5,87.6,48.5,87.5c0,0.1-0.1,0.2-0.1,0.2C48.5,87.7,48.5,87.7,48.5,87.5
		C48.5,87.6,48.5,87.6,48.5,87.5z"/>
	<path d="M80.6,118.2c-0.1,0.2-0.3,0.4-0.4,0.6l0,0C80.3,118.5,80.5,118.2,80.6,118.2C80.6,118.2,80.6,118.2,80.6,118.2z"/>
	<path d="M149.3,102.1c0,0.1,0,0.2,0,0.3l0,0c0-0.2,0-0.4,0-0.5v-0.1c0-0.1,0-0.2,0-0.3C149.4,101.7,149.3,101.9,149.3,102.1z
		 M48.5,87.6L48.5,87.6C48.5,87.6,48.5,87.6,48.5,87.6C48.5,87.6,48.5,87.6,48.5,87.6z M71.3,110C71.3,110.1,71.3,110.1,71.3,110
		v0.1C71.4,110.1,71.4,110.1,71.3,110L71.3,110z"/>
	<path d="M71.4,110.1L71.4,110.1c-12.6,19.1-34.3,31.7-58.9,31.6H0v-31.1h12.6c15.7,0,29.4-9.2,35.8-22.6c0,0,0,0,0-0.1
		c0,0,0-0.1,0.1-0.1c0,0,0,0,0,0c0,0,0-0.1,0.1-0.1c0,0,0,0,0-0.1c0,0,0,0,0,0.1l-0.1-0.1c2.4-5.1,3.7-10.7,3.7-16.7
		c0-21.9-17.8-39.7-39.7-39.7H0V0h12.5c39.1,0,70.9,31.8,70.9,70.8C83.3,85.3,79,98.8,71.4,110.1L71.4,110.1
		C71.3,110.1,71.3,110.1,71.4,110.1L71.4,110.1C71.4,110.1,71.4,110.1,71.4,110.1z"/>
	<path d="M139.5,70.7c6.2,7.5,10,17.1,10,27.6c0,1.2-0.1,2.4-0.2,3.6c0-0.1,0-0.2,0-0.3c0,0.2,0,0.4,0,0.6l0,0c0,0.1,0,0.2,0,0.3
		l0,0c-2,21.9-20.6,39.1-43,39.1h-3.1l-0.1-0.1H56c9.3-5.8,17.4-13.2,23.7-22c0.2-0.2,0.4-0.5,0.5-0.7l0,0c0.1-0.2,0.3-0.4,0.4-0.6
		c1.7-2.5,3.3-5.1,4.7-7.6h21c6.6,0,12-5.4,12-12c0-6.6-5.4-12-12-12H94c0.9-5,1.5-10.2,1.5-15.4c0-5.4-0.5-10.6-1.5-15.7h7.6
		c-0.2-0.2-0.3-0.3-0.3-0.3h5.1c6.6,0,12-5.4,12-12c0-6.6-5.4-12-12-12H85.3C78.3,18.4,68,7.7,55.5,0h50.8c23.8,0,43.1,19.3,43.2,43
		C149.5,53.5,145.8,63.2,139.5,70.7z"/>
	<path d="M149.4,101.5c0,0.1,0,0.2,0,0.3v0.1c0,0.1,0,0.2,0,0.2l0,0C149.3,101.9,149.4,101.7,149.4,101.5z"/>
	<path d="M80.2,118.7c-0.2,0.2-0.3,0.5-0.5,0.7C79.8,119.3,80,119,80.2,118.7L80.2,118.7z M71.3,110C71.3,110.1,71.3,110.1,71.3,110
		v0.1C71.4,110.1,71.4,110.1,71.3,110L71.3,110z"/>
</g>
</svg>
