<!-- Created with Inkscape (http://www.inkscape.org/) -->
<svg id="svg2" xmlns:rdf="http://www.w3.org/1999/02/22-rdf-syntax-ns#" xmlns="http://www.w3.org/2000/svg" viewBox="0 0 66.2 100" version="1.0" xmlns:cc="http://creativecommons.org/ns#" xmlns:dc="http://purl.org/dc/elements/1.1/">
 <metadata id="metadata7">
  <rdf:RDF>
   <cc:Work rdf:about="">
    <dc:format>image/svg+xml</dc:format>
    <dc:type rdf:resource="http://purl.org/dc/dcmitype/StillImage"/>
    <dc:title/>
   </cc:Work>
  </rdf:RDF>
 </metadata>
 <path id="path2527" d="m66.136,8.7505a32.946,8.7496,0,0,1,-65.892,0,32.946,8.7496,0,1,1,65.892,0z" fill="#000"/>
 <path id="rect4146" fill="#000" d="m0.26926,15.32s0.31707,2.206,7.1537,4.5234c1.8622,0.63124,5.481,1.4443,8.2856,1.9374,4.467,0.78536,10.077,1.2814,17.087,1.2853,3.6851,0.0021,7.066-0.0872,10.282-0.37823,4.5258-0.40958,5.2957-0.56313,8.8882-1.1515,3.4348-0.56251,6.7335-1.537,9.1511-2.4969,4.1749-1.6576,5.0743-3.7195,5.0743-3.7195v17.393s-3.0463,3.9442-11.381,5.5304c-2.9255,0.55675-4.0856,1.0848-9.4175,1.6177-4.6322,0.46301-10.731,0.68452-12.643,0.68528-1.9126,0.000774-6.7142,0.01764-14.541-1.1785-4.743-0.725-9.3254-1.701-11.616-2.612-4.6031-1.832-6.3228-4.043-6.3228-4.043z"/>
 <path id="rect4146-4" fill="#000" d="m0.17889,38.241s0.31707,2.206,7.1537,4.5234c1.8622,0.63124,5.481,1.4443,8.2856,1.9374,4.467,0.78536,10.077,1.2814,17.087,1.2853,3.6851,0.0021,7.066-0.0872,10.282-0.37823,4.5258-0.40958,5.2957-0.56314,8.8882-1.1515,3.4348-0.56251,6.7335-1.537,9.1511-2.4969,4.1749-1.6576,5.0743-3.7195,5.0743-3.7195v17.393s-3.0463,3.9442-11.381,5.5304c-2.9255,0.55675-4.0856,1.0848-9.4175,1.6177-4.6322,0.46301-10.731,0.68452-12.643,0.68528-1.9126,0.000774-6.7142,0.01764-14.541-1.1785-4.743-0.724-9.3257-1.7-11.616-2.611-4.603-1.832-6.3228-4.043-6.3228-4.043z"/>
 <path id="rect4146-4-7" fill="#000" d="m0,61.774s0.31707,2.206,7.1537,4.5234c1.8622,0.63124,5.481,1.4443,8.2856,1.9374,4.467,0.78536,10.077,1.2814,17.087,1.2853,3.6851,0.0021,7.066-0.0872,10.282-0.37823,4.5258-0.40958,5.2957-0.56314,8.8882-1.1515,3.4348-0.56251,6.7335-1.537,9.1511-2.4969,4.1749-1.6576,5.0743-3.7195,5.0743-3.7195v17.393s-3.0463,3.9443-11.381,5.5304c-2.9255,0.55674-4.0856,1.0848-9.4175,1.6177-4.6322,0.46301-10.731,0.68451-12.643,0.68529-1.9126,0.000774-6.7142,0.01766-14.541-1.1785-4.742-0.726-9.3246-1.701-11.615-2.613-4.603-1.832-6.3228-4.043-6.3228-4.043z"/>
</svg>
