<?xml version="1.0" encoding="UTF-8" standalone="no"?>
<!-- Generator: Adobe Illustrator 12.0.1, SVG Export Plug-In . SVG Version: 6.00 Build 51448)  -->

<svg
   xmlns:dc="http://purl.org/dc/elements/1.1/"
   xmlns:cc="http://creativecommons.org/ns#"
   xmlns:rdf="http://www.w3.org/1999/02/22-rdf-syntax-ns#"
   xmlns:svg="http://www.w3.org/2000/svg"
   xmlns="http://www.w3.org/2000/svg"
   xmlns:sodipodi="http://sodipodi.sourceforge.net/DTD/sodipodi-0.dtd"
   xmlns:inkscape="http://www.inkscape.org/namespaces/inkscape"
   version="1.0"
   id="Layer_1"
   width="113.312"
   height="145.99301"
   viewBox="0 0 113.31199 145.99301"
   overflow="visible"
   enable-background="new 0 0 436.505 152.503"
   xml:space="preserve"
   sodipodi:docname="django-dj.svg"
   inkscape:version="0.92.2 5c3e80d, 2017-08-06"
   style="overflow:visible"><metadata
     id="metadata23"><rdf:RDF><cc:Work
         rdf:about=""><dc:format>image/svg+xml</dc:format><dc:type
           rdf:resource="http://purl.org/dc/dcmitype/StillImage" /><dc:title></dc:title></cc:Work></rdf:RDF></metadata><defs
     id="defs21" /><sodipodi:namedview
     pagecolor="#ffffff"
     bordercolor="#666666"
     borderopacity="1"
     objecttolerance="10"
     gridtolerance="10"
     guidetolerance="10"
     inkscape:pageopacity="0"
     inkscape:pageshadow="2"
     inkscape:window-width="1920"
     inkscape:window-height="1165"
     id="namedview19"
     showgrid="false"
     inkscape:zoom="1.827279"
     inkscape:cx="-39.330141"
     inkscape:cy="-96.07234"
     inkscape:window-x="0"
     inkscape:window-y="0"
     inkscape:window-maximized="1"
     inkscape:current-layer="g14"
     fit-margin-top="0"
     fit-margin-left="0"
     fit-margin-right="0"
     fit-margin-bottom="0" /><g
     id="g16"
     transform="translate(-35.482,15.572994)"><g
       id="g14"><path
         d="m 86.946,-15.572994 h 23.872 v 110.496 c -12.246,2.325 -21.237,3.255 -31.002,3.255 -29.143,-10e-4 -44.334,-13.175 -44.334,-38.443 0,-24.337 16.122,-40.147 41.078,-40.147 3.875,0 6.82,0.309 10.386,1.239 z m 0,55.62 c -2.79,-0.929 -5.115,-1.239 -8.06,-1.239 -12.091,0 -19.067,7.441 -19.067,20.461 0,12.712 6.666,19.687 18.912,19.687 2.634,0 4.805,-0.155 8.215,-0.619 z"
         id="path2"
         style="fill:#000000;fill-opacity:1"
         inkscape:connector-curvature="0" /><path
         d="m 148.794,21.292006 v 55.338 c 0,19.067 -1.395,28.212004 -5.58,36.118004 -3.876,7.597 -8.992,12.401 -19.532,17.672 l -22.167,-10.541 c 10.541,-4.96 15.656,-9.299 18.911,-15.967 3.411,-6.820004 4.497,-14.726004 4.497,-35.497004 v -47.123 z m -23.871,-36.738 h 23.871 v 24.492 h -23.871 z"
         id="path4"
         style="fill:#000000;fill-opacity:1"
         inkscape:connector-curvature="0" /></g></g></svg>