<svg width="250" height="237" viewBox="0 0 250 237" version="1.1" xmlns="http://www.w3.org/2000/svg" xmlns:xlink="http://www.w3.org/1999/xlink">
<title>dotnet-foundation-logo</title>
<desc>Created using Figma</desc>
<g id="Canvas" transform="translate(-22954 -3694)">
<g id="dotnet-foundation-logo">
<g id="path2">
<use xlink:href="#path0_fill" transform="translate(22969.5 3694)" fill="#68217A"/>
</g>
<g id="path4">
<use xlink:href="#path1_fill" transform="translate(22999.7 3772.35)" fill="#FFFFFF"/>
</g>
<g id="path6">
<use xlink:href="#path2_fill" transform="translate(23060.1 3772.35)" fill="#FFFFFF"/>
</g>
<g id="path8">
<use xlink:href="#path3_fill" transform="translate(23095.7 3772.35)" fill="#FFFFFF"/>
</g>
<g id="path4571">
<use xlink:href="#path4_fill" transform="translate(23000 3841.86)" fill="#FFFFFF"/>
</g>
<g id="path4573">
<use xlink:href="#path5_fill" transform="translate(23012.1 3849.44)" fill="#FFFFFF"/>
</g>
<g id="path4575">
<use xlink:href="#path6_fill" transform="translate(23034.2 3849.95)" fill="#FFFFFF"/>
</g>
<g id="path4577">
<use xlink:href="#path7_fill" transform="translate(23056 3849.47)" fill="#FFFFFF"/>
</g>
<g id="path4579">
<use xlink:href="#path8_fill" transform="translate(23076.5 3841.97)" fill="#FFFFFF"/>
</g>
<g id="path4581">
<use xlink:href="#path9_fill" transform="translate(23097.8 3849.54)" fill="#FFFFFF"/>
</g>
<g id="path4583">
<use xlink:href="#path10_fill" transform="translate(23117.6 3844.12)" fill="#FFFFFF"/>
</g>
<g id="path4585">
<use xlink:href="#path11_fill" transform="translate(23132.5 3843.02)" fill="#FFFFFF"/>
</g>
<g id="path4587">
<use xlink:href="#path12_fill" transform="translate(23139.6 3849.47)" fill="#FFFFFF"/>
</g>
<g id="path4589">
<use xlink:href="#path13_fill" transform="translate(23161.8 3849.47)" fill="#FFFFFF"/>
</g>
<g id="path30">
<use xlink:href="#path14_fill" transform="translate(22954 3797.28)" fill="#CF18FD"/>
</g>
</g>
</g>
<defs>
<path id="path0_fill" d="M 116.406 0C 58.1819 0 9.80208 42.1318 0.0838159 97.5686C 11.2758 97.5775 20.3464 106.652 20.3464 117.845C 20.3464 129.044 11.2676 138.122 0.0679418 138.122C 0.0450828 138.122 0.0228585 138.12 -4.84446e-07 138.12C 9.51126 193.806 58.0048 236.196 116.406 236.196C 181.634 236.196 234.511 183.322 234.511 118.098C 234.511 52.8742 181.634 0 116.406 0Z"/>
<path id="path1_fill" d="M 48.0871 53.452L 35.935 53.452L 13.904 19.8671C 12.6118 17.9039 11.7172 16.4258 11.22 15.4315L 11.0714 15.4315C 11.2701 17.4195 11.3692 20.3021 11.3692 24.0793L 11.3692 53.452L -5.42579e-07 53.452L -5.42579e-07 -7.75068e-08L 12.9725 -7.75068e-08L 34.1831 32.5411L 36.8665 36.9018L 37.0157 36.9018C 36.817 35.6097 36.7179 33.162 36.7179 29.5588L 36.7179 -7.75068e-08L 48.0871 -7.75068e-08L 48.0871 53.452Z"/>
<path id="path2_fill" d="M 32.0579 53.452L -8.52625e-07 53.452L -8.52625e-07 -7.75067e-08L 30.8279 -7.75067e-08L 30.8279 9.8034L 12.0404 9.8034L 12.0404 21.6938L 29.5231 21.6938L 29.5231 31.4598L 12.0404 31.4598L 12.0404 43.6861L 32.0579 43.6861L 32.0579 53.452Z"/>
<path id="path3_fill" d="M 42.4956 9.8034L 27.2492 9.8034L 27.2492 53.452L 15.1714 53.452L 15.1714 9.8034L 3.48801e-06 9.8034L 3.48801e-06 -7.75067e-08L 42.4956 -7.75067e-08L 42.4956 9.8034Z"/>
<path id="path4_fill" d="M 8.61023 0.010179C 5.66322 -0.135748 2.76417 2.22303 2.5383 5.26204C 2.38261 6.22685 2.3955 7.1681 2.40064 8.14405C 1.64365 8.41536 0.58052 7.76163 0.0207362 8.39703C 0.191112 9.06944 -0.431354 10.281 0.702836 10.3353C 1.29093 10.3902 2.37366 9.97507 2.45521 10.9541C 2.30699 15.7243 2.45077 20.5374 2.40064 25.3275C 2.64925 26.0065 1.87421 27.7254 2.83843 27.6658C 3.54116 27.5859 4.76557 28.2127 5.05587 27.3397C 5.05587 21.6525 5.05587 15.9654 5.05587 10.2783C 7.06497 10.2783 9.07406 10.2783 11.0832 10.2783C 10.9335 9.58995 11.5436 8.50425 10.8351 8.0994C 8.88975 8.26282 6.90938 8.12188 4.95046 8.16885C 4.85979 6.20051 4.929 3.47686 7.09597 2.62929C 8.77536 1.96558 10.6396 2.22406 12.3407 2.65779C 12.1817 1.88461 12.9007 0.661331 12.0294 0.234629C 10.889 0.0739839 9.75834 -0.0346698 8.61023 0.0101693L 8.61023 0.010179Z"/>
<path id="path5_fill" d="M 9.25954 0.0278768C 5.1851 -0.328398 1.11896 2.7738 0.444509 6.82202C -0.499225 10.7499 -0.0546228 15.4444 2.89121 18.4509C 6.5468 21.8008 13.0992 21.5297 16.0384 17.3373C 18.2788 14.2402 18.3931 10.1469 17.5337 6.57077C 16.7005 2.9544 13.3952 0.0684202 9.63159 0.041518C 9.74585 0.0613915 9.11736 0.00512677 9.25954 0.0278575L 9.25954 0.0278768ZM 9.26945 2.20303C 12.304 2.14626 14.8455 4.85691 15.0201 7.81217C 15.5322 11.0437 15.365 14.9581 12.7643 17.2927C 9.81132 19.7125 4.50555 18.4887 3.46461 14.6351C 2.42461 11.568 2.49773 8.02884 3.85637 5.07593C 4.9013 3.14482 7.10736 2.06849 9.26945 2.20303Z"/>
<path id="path6_fill" d="M 0.792841 0.0185386C -0.459961 -0.129497 0.186438 1.47106 0.0363302 2.17931C 0.106044 6.32693 -0.100368 10.5314 0.132299 14.6379C 0.400861 17.1989 2.14753 19.7001 4.83831 20.0674C 7.8034 20.6758 10.9032 19.3376 13.0892 17.3391C 13.9465 17.2982 13.5318 18.605 13.6064 19.1008C 13.5828 20.1175 14.976 19.5591 15.5857 19.5974C 16.7273 19.8426 16.1093 18.4233 16.2616 17.6913C 16.2616 11.8355 16.2616 5.97974 16.2616 0.123948C 15.3868 0.300085 14.2759 -0.369906 13.625 0.317405C 13.5786 5.2282 13.6185 10.1462 13.6052 15.0598C 11.1879 16.9928 7.76723 18.5682 4.7168 17.1878C 2.47396 15.8027 2.71897 12.7864 2.69159 10.5079C 2.69159 7.04657 2.69159 3.58525 2.69159 0.123948C 2.06141 0.189391 1.38013 0.0244372 0.79288 0.0185386L 0.792841 0.0185386Z"/>
<path id="path7_fill" d="M 9.51715 0.00873602C 6.95728 0.13432 4.69056 1.56943 2.80033 3.19705C 2.47192 2.32651 3.1694 1.19343 2.52749 0.51346C 1.70144 0.713395 0.45563 0.0865783 -1.19057e-06 1.04795C 0.22796 6.25824 0.0332059 11.5217 0.0979731 16.7524C 0.232568 17.7774 -0.166456 19.3794 0.287721 20.0588C 1.0927 19.9341 2.26045 20.6005 2.74824 19.8071C 2.7598 14.9168 2.75014 10.0259 2.75332 5.13534C 5.20599 3.18047 8.76148 1.53015 11.8042 3.13381C 13.8688 4.50361 13.5836 7.34289 13.6669 9.49903C 13.6669 13.0239 13.6669 16.5488 13.6669 20.0737C 14.5418 19.8975 15.6527 20.5675 16.3035 19.8802C 16.2356 14.8751 16.5512 9.83525 16.12 4.8526C 15.6787 2.19794 13.3057 -0.083332 10.4883 0.0112162C 10.1645 -0.00351427 9.84122 -0.00306842 9.51727 0.00867789L 9.51715 0.00873602Z"/>
<path id="path8_fill" d="M 15.2502 0.00961208C 13.9974 -0.138423 14.6438 1.46212 14.4937 2.17037C 14.4214 4.33474 14.6323 6.58065 14.3994 8.69905C 13.5298 9.14761 12.7323 7.96991 11.8379 7.9483C 8.03359 6.58694 3.23864 8.19054 1.45691 11.9457C -0.567653 15.8017 -0.374348 20.5474 1.37137 24.4622C 2.7639 27.1594 5.92749 28.6965 8.85188 28.0877C 10.9982 27.7674 12.8684 26.5153 14.4441 25.0834C 14.7803 25.903 14.0693 27.0494 14.7207 27.6777C 15.5586 27.4612 16.7823 28.0823 17.2469 27.1258C 17.0189 21.9155 17.2137 16.6521 17.1489 11.4213C 17.1489 7.65257 17.1489 3.88379 17.1489 0.115021C 16.5187 0.180464 15.8375 0.0155043 15.2502 0.00961208ZM 9.25517 9.86103C 11.0425 9.91881 13.1558 10.1376 14.4937 11.3343C 14.4433 15.2892 14.594 19.3433 14.4193 23.2368C 11.9824 25.2542 8.27792 26.6364 5.32876 24.8787C 2.71265 22.9371 2.7092 19.2704 2.86529 16.327C 3.053 13.379 5.03937 10.2066 8.21019 9.93265C 8.55552 9.88014 8.9064 9.86713 9.25517 9.86103Z"/>
<path id="path9_fill" d="M 6.87924 0.0320509C 5.19112 0.146269 3.46996 0.433753 1.86271 0.851762C 2.00648 1.72691 1.49419 2.76572 1.9768 3.49071C 5.25906 2.37749 9.13404 1.48381 12.3742 3.1673C 13.7008 4.07845 14.0524 5.84689 13.8788 7.35613C 9.7444 7.77441 5.04879 7.33022 1.65824 10.1852C -1.36537 13.1361 -0.0793322 19.0852 4.09797 20.2491C 7.3539 21.3342 10.8714 19.9522 13.4187 17.8536C 14.2798 17.844 13.7572 19.1385 13.8627 19.6295C 13.7981 20.3708 14.8399 19.7874 15.2753 20.061C 15.8787 20.2276 16.826 20.1251 16.5278 19.2815C 16.4219 14.3671 16.7606 9.42609 16.3331 4.52868C 15.7207 1.77795 12.9086 0.204807 10.2587 0.108938C 9.12578 -0.0148684 8.00551 -0.0219567 6.87924 0.0320509ZM 13.8912 9.56228C 13.7998 11.6061 14.0805 13.7399 13.7399 15.7244C 11.2122 17.8121 7.43207 19.0801 4.34679 17.4829C 1.84337 15.8592 2.47175 11.4407 5.35506 10.5928C 8.04804 9.43378 11.0428 9.6868 13.8912 9.35146L 13.8912 9.54194L 13.8912 9.56228Z"/>
<path id="path10_fill" d="M 3.13659 0.00961244C 1.88379 -0.138429 2.53018 1.46212 2.38008 2.17038C 2.26127 3.35189 2.60131 4.67979 2.24242 5.78604C 1.62691 6.33538 0.494769 5.44729 0.0448147 6.08738C 0.0093832 6.84195 -0.249961 8.42437 1.03684 8.10535C 1.66604 7.74279 2.61955 8.06561 2.43092 8.91979C 2.31684 11.7281 2.43829 14.5596 2.35279 17.3798C 2.46252 19.8615 2.09886 22.9076 4.29616 24.6555C 6.49105 26.4293 9.53092 25.8951 12.0597 25.3723C 11.9249 24.6334 12.3912 23.7299 12.0027 23.1066C 10.0469 23.7221 7.33612 24.1839 5.88485 22.3526C 4.47968 20.2342 5.25643 17.539 5.03532 15.1861C 5.03532 12.7984 5.03532 10.4108 5.03532 8.02319C 7.37802 8.02319 9.72073 8.02319 12.0634 8.02319C 11.9137 7.33484 12.5242 6.24898 11.8154 5.84432C 9.57174 6.00888 7.29258 5.86591 5.03532 5.91377C 5.03532 3.98085 5.03532 2.04794 5.03532 0.115022C 4.40515 0.180464 3.72387 0.0155046 3.13661 0.00961244L 3.13659 0.00961244Z"/>
<path id="path11_fill" d="M 0.548311 0.0136512C -0.48679 0.186862 0.309048 1.68337 0.0609197 2.383C 0.208932 3.40483 2.20566 2.57806 3.10878 2.84482C 2.98282 1.94541 3.54664 0.831239 2.93938 0.0694561C 2.13693 0.217383 1.33664 -0.0633698 0.548311 0.0136415L 0.548311 0.0136512ZM 1.0357 6.94462C -0.217163 6.79649 0.429344 8.39713 0.279192 9.10539C 0.279192 14.911 0.279192 20.7166 0.279192 26.5222C 1.15406 26.3461 2.26496 27.0161 2.91582 26.3287C 2.96217 19.9058 2.92241 13.4757 2.93562 7.05002C 2.30502 7.11546 1.62338 6.95039 1.03568 6.94462L 1.0357 6.94462Z"/>
<path id="path12_fill" d="M 8.49481 0.00902097C 4.33851 -0.0318054 0.695352 3.48833 0.286169 7.51939C -0.448272 11.3627 0.130741 15.913 3.20048 18.6888C 7.09122 21.9453 13.8678 21.2539 16.4593 16.6848C 18.3349 13.3941 18.4442 9.3301 17.3043 5.80864C 16.2573 2.45314 13.0071 -0.0330868 9.45157 0.0098348C 9.13267 -0.00845134 8.81385 0.00324635 8.49481 0.00921474L 8.49481 0.00902097ZM 9.26869 2.17177C 12.303 2.11532 14.8438 4.8259 15.0181 7.78091C 15.53 11.0123 15.3635 14.9269 12.7623 17.2614C 9.80955 19.6812 4.50335 18.4573 3.46274 14.6038C 2.4242 11.5364 2.49505 7.99756 3.85436 5.04467C 4.90035 3.11359 7.10603 2.03736 9.26869 2.17177Z"/>
<path id="path13_fill" d="M 9.51591 0.00873602C 6.95632 0.133914 4.69072 1.57003 2.80033 3.19705C 2.47192 2.32651 3.1694 1.19343 2.52749 0.51346C 1.70145 0.713395 0.455633 0.0865783 1.98429e-06 1.04795C 0.227964 6.25824 0.0332091 11.5217 0.0979763 16.7524C 0.232572 17.7774 -0.166453 19.3794 0.287724 20.0588C 1.0927 19.9341 2.26045 20.6005 2.74824 19.8071C 2.7598 14.9168 2.75015 10.0259 2.75332 5.13534C 5.20552 3.18047 8.76063 1.53015 11.8029 3.13381C 13.8677 4.50296 13.584 7.34271 13.6669 9.49903C 13.6669 13.0239 13.6669 16.5488 13.6669 20.0737C 14.5414 19.8975 15.6517 20.5675 16.3023 19.8802C 16.2336 14.8751 16.5515 9.83502 16.1175 4.8526C 15.6809 2.18889 13.2817 -0.0941323 10.4871 0.0112162C 10.1632 -0.00351427 9.83999 -0.00306842 9.51603 0.00867789L 9.51591 0.00873602Z"/>
<path id="path14_fill" d="M 29.8431 14.921C 29.8431 23.1618 23.1625 29.842 14.9212 29.842C 6.67991 29.842 -4.84446e-09 23.1618 -4.84446e-09 14.921C -4.84446e-09 6.68016 6.67991 4.72791e-06 14.9212 4.72791e-06C 23.1625 4.72791e-06 29.8431 6.68016 29.8431 14.921Z"/>
</defs>
</svg>
