<?xml version="1.0" encoding="UTF-8" standalone="no"?>
<svg
   xmlns:dc="http://purl.org/dc/elements/1.1/"
   xmlns:cc="http://creativecommons.org/ns#"
   xmlns:rdf="http://www.w3.org/1999/02/22-rdf-syntax-ns#"
   xmlns:svg="http://www.w3.org/2000/svg"
   xmlns="http://www.w3.org/2000/svg"
   version="1.1"
   id="svg2"
   viewBox="0 0 195.42046 199.86616"
   height="56.406673mm"
   width="55.151997mm">
  <defs
     id="defs4" />
  <metadata
     id="metadata7">
    <rdf:RDF>
      <cc:Work
         rdf:about="">
        <dc:format>image/svg+xml</dc:format>
        <dc:type
           rdf:resource="http://purl.org/dc/dcmitype/StillImage" />
        <dc:title></dc:title>
      </cc:Work>
    </rdf:RDF>
  </metadata>
  <g
     transform="translate(-480.8836,-251.08315)"
     id="layer1">
    <path
       id="path3439"
       d="m 580.86415,448.69998 c -22.4409,-3.96694 -28.89929,-6.03554 -41.1396,-13.17688 -13.88985,-8.10372 -22.04472,-16.44362 -37.03348,-37.87373 -14.01853,-20.04292 -18.82692,-33.78176 -18.82692,-53.79344 0,-18.27642 2.71176,-31.30242 9.1335,-43.87303 l 2.89474,-5.66647 -2.95131,-2.33353 c -4.42907,-3.50197 -9.73845,-10.95089 -10.97178,-15.39313 -1.19459,-4.30274 -1.47512,-17.34053 -0.48015,-22.3154 0.69802,-3.49011 3.40535,-4.1803 6.90249,-1.7597 1.08488,0.75092 3.04094,1.69899 4.34679,2.10683 3.75427,1.17253 13.76053,8.40802 18.02331,13.03259 l 3.89316,4.22359 4.35463,-2.63782 c 5.67397,-3.43701 13.54014,-6.43409 22.85462,-8.70781 10.48538,-2.55955 38.27938,-2.59971 49,-0.0708 8.91591,2.10319 23.71354,7.95156 30,11.8567 7.40153,4.59782 8.56381,4.90387 14.10806,3.71484 11.05797,-2.37151 20.47696,1.9714 27.36308,12.61659 2.86102,4.42283 2.73238,13.06313 -0.2537,17.03968 l -2.28256,3.03967 3.90425,8.46033 c 5.60414,12.14392 11.01246,29.84362 12.13342,39.70878 1.93181,17.00117 -2.18583,37.96258 -11.22717,57.15348 -7.39447,15.69531 -25.56599,28.79651 -48.19258,34.74561 -11.01539,2.89623 -18.73966,2.87517 -35.5528,-0.0969 z m 37,-13.97841 c 15.37228,-5.40927 26.83181,-15.0443 37.55073,-31.5722 5.87864,-9.06448 8.88413,-16.98299 10.53221,-27.74892 1.29214,-8.4408 0.30619,-18.25477 -3.69217,-36.75108 -2.2771,-10.53382 -7.36032,-18.20696 -13.86089,-20.92307 -6.57191,-2.74592 -16.83518,-1.34149 -17.8238,2.43902 -0.73635,2.81581 -8.17009,2.85408 -9.6709,0.0498 -2.11412,-3.95028 -1.13529,-6.34569 5.01387,-12.27007 5.75403,-5.54369 6.70623,-7.79567 3.29623,-7.79567 -0.84518,0 -2.84363,-0.77202 -4.44099,-1.71561 -2.22635,-1.31514 -2.90429,-2.44969 -2.90429,-4.86043 0,-7.00017 -1.28931,-12.50843 -3.16248,-13.51092 -1.65372,-0.88504 -2.22383,-0.23846 -4.74567,5.38223 -1.57638,3.51347 -3.95824,7.47186 -5.29302,8.79642 -5.48015,5.43822 -14.96415,7.4244 -22.47783,4.70742 -3.74836,-1.35542 -3.93463,-2.08625 -1.821,-7.14487 3.22172,-7.71065 1.15847,-20.94396 -3.74798,-24.03887 -2.33684,-1.47404 -8.65919,0.79104 -12.60753,4.51684 l -3.35552,3.16638 0.38583,10.60071 c 0.29662,8.14972 0.81003,11.23653 2.22053,13.3507 1.00908,1.5125 1.40351,2.75 0.87651,2.75 -0.86869,0 -11.10633,-6.82016 -18.84049,-12.55124 l -3.06864,-2.27389 0.94806,-7.00374 c 0.52143,-3.85206 0.65625,-8.16641 0.29959,-9.58744 -0.94635,-3.77057 -4.71998,-3.38289 -9.55046,0.98116 -7.35908,6.64848 -11.84035,17.02746 -14.1123,32.68515 -0.6983,4.8125 -1.58992,8.75 -1.98139,8.75 -0.39146,0 -0.96345,-2.1375 -1.27109,-4.75 -1.23076,-10.45193 -3.81691,-24.77179 -4.61852,-25.5734 -0.8039,-0.8039 -10.00115,10.02971 -12.94199,15.2446 -0.75096,1.33166 -2.42016,4.31047 -3.70933,6.61959 -1.28917,2.30912 -3.36743,7.96958 -4.61836,12.57881 -1.94594,7.17009 -2.27553,10.83556 -2.2821,25.3804 -0.008,18.49009 0.72971,21.93731 7.58562,35.42914 4.8043,9.45444 14.51956,23.41643 19.53273,28.07086 2.85769,2.65319 3.16073,1.8039 0.35683,-1 -4.7017,-4.7017 -9,-15.47706 -9,-22.562 0,-16.51444 14.9952,-35.42275 30.8543,-38.906 l 3.12454,-0.68626 -3.45415,-3.25769 c -3.60033,-3.39554 -7.52739,-11.18652 -7.52095,-14.92096 0.008,-4.48981 3.60367,-8.47302 9.13107,-10.11448 9.89373,-2.93813 18.81459,-1.1002 21.58654,4.44739 2.58288,5.1692 1.11851,13.64968 -3.41034,19.75 l -2.41279,3.25 4.39188,0 c 14.21293,0 40.64879,5.89145 56.2099,12.52685 8.17903,3.48761 20.41249,15.02572 24.63413,23.23395 3.38554,6.58256 3.36175,17.94209 -0.0515,24.57849 -3.28511,6.38729 -10.28378,12.68397 -18.63369,16.76467 l -6.94894,3.39604 -20.5,-0.076 c -15.91338,-0.059 -23.63233,-0.56794 -34.5,-2.27472 -19.55037,-3.07041 -29.52337,-5.15066 -32.86007,-6.85424 -5.29215,-2.70196 -1.73877,0.41835 5.09203,4.47143 19.06545,11.31256 34.49192,16.55762 54.76804,18.62136 7.63884,0.77749 23.01589,-0.23775 27.5,-1.81563 z m -25.56543,-92.449 c -8.12716,-4.95599 -12.80696,-16.57976 -10.45862,-25.97729 3.06601,-12.26947 18.7722,-19.38907 27.71901,-12.565 4.93782,3.76625 8.1485,9.20496 9.38603,15.89939 2.09998,11.35985 -1.02298,18.77146 -9.53962,22.64004 -5.31992,2.4165 -13.14662,2.41781 -17.1068,0.003 z m 14.37161,-16.3699 c 0.29023,-3.42465 -2.5661,-10.86886 -4.66907,-12.16856 -0.49031,-0.30303 -2.40924,0.46847 -4.26429,1.71445 -3.81574,2.5629 -4.75024,6.16831 -2.8118,10.84813 1.89421,4.57302 4.56563,6.00942 8.33217,4.48014 2.55868,-1.03886 3.16083,-1.89881 3.41299,-4.87416 z m 15.56519,85.81333 c 13.93964,-6.92237 19.93723,-19.16091 14.55759,-29.70588 -2.33546,-4.57789 -8.44999,-11.52132 -14.05563,-15.96107 -4.66281,-3.69302 -19.70811,-9.08307 -34.87333,-12.49355 -9.46868,-2.12939 -14.32618,-2.61447 -27.5,-2.74617 -15.88855,-0.15885 -16.03983,-0.13946 -21.7181,2.78279 -6.72264,3.45974 -9.63232,5.99431 -13.54175,11.79599 -8.25981,12.25774 -8.09983,22.81083 0.50845,33.54047 6.11381,7.62044 12.31552,9.52521 46.2514,14.20548 9.18318,1.26649 18.45635,1.80362 29,1.67974 14.93628,-0.17548 15.71354,-0.28815 21.37137,-3.0978 z m -17.15458,-12.12733 c -5.63923,-3.94988 -7.03449,-14.30004 -2.77311,-20.57123 3.30733,-4.86718 9.43127,-6.58406 14.54538,-4.07789 5.03446,2.46714 7.66171,9.68368 6.07285,16.68096 -1.63385,7.19546 -4.20842,9.52886 -10.51372,9.52886 -3.00591,0 -6.01891,-0.64141 -7.3314,-1.5607 z m -62.993,-15.23561 c -2.46337,-1.89588 -3.85995,-7.53288 -2.85666,-11.53032 0.80745,-3.21715 6.7918,-6.09158 10.95055,-5.25983 7.59452,1.5189 10.19721,9.44423 5.09343,15.50973 -2.13603,2.53852 -3.3168,3.07284 -6.75,3.05449 -2.40143,-0.0128 -5.12369,-0.76306 -6.43732,-1.77407 z m 10.59953,-56.53656 c 0.24528,-1.26468 -0.41859,-1.66713 -2.75,-1.66713 -3.5277,0 -3.67703,0.25344 -1.45725,2.47321 1.89875,1.89875 3.75152,1.54377 4.20725,-0.80608 z m 104.17668,-30.70065 c 0,-3.84797 -7.1167,-11.62155 -11.97098,-13.07593 -2.10985,-0.63213 -5.37167,-0.86125 -7.24848,-0.50916 l -3.41239,0.64017 8.81592,9.00253 c 4.84876,4.9514 8.81593,9.52498 8.81593,10.16354 0,0.63855 1.125,0.10412 2.5,-1.18763 1.46274,-1.37417 2.5,-3.4626 2.5,-5.03352 z M 504.24369,282.73107 c 1.99125,-2.43006 3.62046,-4.70645 3.62046,-5.05864 0,-2.85893 -14.67233,-15.52306 -17.98462,-15.52306 -1.48856,0 -1.24187,10.52442 0.33477,14.28212 1.25935,3.00147 8.27909,10.71788 9.75023,10.71788 0.36228,0 2.2879,-1.98823 4.27916,-4.4183 z"
       style="fill:#000000" />
  </g>
</svg>
