<?xml version="1.0" encoding="utf-8"?>
<!-- Generator: Adobe Illustrator 19.2.1, SVG Export Plug-In . SVG Version: 6.00 Build 0)  -->
<svg version="1.1" id="Layer_1" xmlns="http://www.w3.org/2000/svg" xmlns:xlink="http://www.w3.org/1999/xlink" x="0px" y="0px"
	 viewBox="0 0 900 217" style="enable-background:new 0 0 900 217;" xml:space="preserve">
<g transform="translate(0.000000,273.000000) scale(0.100000,-0.100000)">
	<path d="M756.6,2582c-189.8-49.5-332.5-169.1-417.7-349.8c-54.1-113.9-63.3-163.4-67.9-350.9c-5.8-176,11.5-299.1,50.6-373.9
		c8.1-16.1,15-35.7,15-42.6c0-55.2,157.6-225.5,241.6-262.3c21.9-10.4,49.5-23,59.8-29.9c61-32.2,394.6-32.2,455.6,0
		c10.4,5.8,44.9,23,77.1,38c64.4,29.9,185.2,146.1,215.2,206c70.2,143.8,87.4,222.1,52.9,243.9c-28.8,18.4-51.8-6.9-65.6-73.6
		c-38-177.2-172.6-315.3-346.3-359c-28.8-6.9-103.6-12.7-166.8-12.7c-257.7,0-411.9,115.1-489,365.9c-23,73.6-49.5,248.5-39.1,258.9
		c2.3,3.5,260,5.8,571.8,5.8l566.1,1.2l-1.2,97.8c0,104.7-18.4,210.6-44.9,261.2c-9.2,18.4-17.3,35.7-17.3,40.3
		c0,38-120.8,187.5-197.9,245.1c-38,28.8-78.2,51.8-92,51.8c-8.1,0-29.9,8.1-49.5,18.4C1032.8,2579.7,806.1,2594.7,756.6,2582z
		 M1061.5,2488.9c51.8-19.6,122-62.1,168-102.4c33.4-29.9,108.2-139.2,108.2-157.6c0-8.1,4.6-19.6,10.4-25.3
		c31.1-35.7,77.1-281.9,51.8-281.9c-719.1-1.2-1055.1,0-1060.8,5.8c-21.9,20.7,20.7,186.4,77.1,304.9
		c61,128.9,219.8,252,356.7,276.1C846.4,2522.2,999.4,2511.9,1061.5,2488.9z"/>
	<path d="M3345.4,2582c-186.4-48.3-344-186.4-390-340.6c-3.5-11.5-11.5-20.7-18.4-20.7c-8.1,0-11.5,52.9-10.4,159.9
		c0,88.6-2.3,166.8-6.9,172.6c-9.2,16.1-48.3,16.1-57.5,2.3c-4.6-8.1-9.2-1488.8-5.8-1838.6c0-9.2,15-15,34.5-15
		c19.6,0,34.5,5.8,34.5,15c1.2,6.9,1.2,185.2,0,395.8c-1.2,373.9,5.8,451,33.4,353.2c27.6-97.8,135.8-215.2,250.8-269.2
		c146.1-69,370.5-69,506.2,0c163.4,84,265.8,224.4,323.3,443c24.2,90.9,24.2,363.6,0,460.2c-54.1,223.2-159.9,359-348.6,448.7
		c-61,28.8-84,33.4-195.6,35.7C3425.9,2586.6,3358,2585.5,3345.4,2582z M3643.4,2490c18.4-9.2,38-16.1,42.6-16.1
		s33.4-16.1,62.1-35.7c95.5-64.4,179.5-194.4,222.1-342.9c24.2-88.6,24.2-362.4,0-451c-24.2-86.3-85.1-214-119.7-250.8
		c-15-16.1-27.6-32.2-27.6-36.8c0-10.4-103.6-82.8-143.8-101.2c-63.3-28.8-148.4-47.2-217.5-47.2c-135.8,0-299.1,72.5-380.8,169.1
		c-31.1,36.8-102.4,150.7-113.9,181.8c-40.3,111.6-51.8,340.6-24.2,482.1c49.5,247.4,218.6,432.6,425.7,467.1
		C3444.3,2521.1,3602,2510.7,3643.4,2490z"/>
	<path d="M4766.3,2580.9c-28.8-4.6-73.6-23-149.6-58.7c-62.1-29.9-151.9-126.6-193.3-209.4l-38-74.8l3.5,154.2
		c3.5,138.1,1.2,155.3-17.3,166.8c-47.2,28.8-48.3,11.5-42.6-707.6l5.8-683.4h28.8h28.8l5.8,483.2c6.9,523.5,2.3,484.4,72.5,624.8
		c71.3,140.4,242.8,242.8,406.1,243.9c50.6,0,80.5,21.9,69,51.8c-4.6,12.7-23,17.3-78.2,16.1
		C4827.3,2586.6,4782.4,2583.2,4766.3,2580.9z"/>
	<path d="M5473.9,2582c-166.8-43.7-327.9-171.4-399.2-317.6c-75.9-154.2-84-194.4-84-411.9c0-164.5,3.5-212.9,20.7-264.6
		c51.8-154.2,79.4-206,159.9-289.9c84-86.3,185.2-133.5,317.6-147.3c102.4-11.5,283,2.3,322.2,23c10.4,5.8,44.9,21.9,75.9,36.8
		c140.4,65.6,262.3,230.1,288.8,388.9c9.2,56.4-6.9,77.1-44.9,59.8c-23-10.4-29.9-21.9-29.9-48.3c0-32.2-19.6-88.6-61-171.4
		c-8.1-16.1-38-52.9-66.7-81.7c-186.4-187.5-544.2-200.2-736.4-26.5c-54.1,48.3-112.8,146.1-140.4,230.1
		c-17.3,52.9-43.7,199-47.2,261.2c-1.2,21.9,11.5,21.9,553.4,19.6c405-2.3,560.3,0,578.7,10.4c21.9,11.5,24.2,20.7,19.6,78.2
		c-5.8,78.2-28.8,206-42.6,238.2c-5.8,12.7-13.8,35.7-17.3,49.5c-26.5,94.3-168,257.7-261.2,302.6
		c-113.9,55.2-131.2,59.8-256.6,63.3C5554.5,2586.6,5486.6,2585.5,5473.9,2582z M5693.7,2509.6c97.8-15,191-62.1,262.3-133.5
		c63.3-64.4,130-185.2,147.3-264.6c20.7-96.6,29.9-172.6,21.9-180.6c-9.2-10.4-1055.1-13.8-1071.2-3.5c-6.9,4.6-6.9,17.3,0,35.7
		c6.9,16.1,11.5,41.4,11.5,55.2c0,39.1,39.1,153,75.9,224.4c44.9,85.1,148.4,186.4,229,225.5C5471.6,2515.3,5566,2528,5693.7,2509.6
		z"/>
	<path d="M6756.8,2582c-9.2-3.5-44.9-13.8-77.1-24.2c-84-26.5-171.4-100.1-211.7-176c-28.8-54.1-33.4-75.9-33.4-154.2
		c0-107,26.5-172.6,93.2-230.1c61-51.8,217.5-110.5,390-145c93.2-19.6,261.2-71.3,309.5-97.8c46-24.2,98.9-75.9,122-119.7
		c25.3-50.6,26.5-170.3,2.3-222.1c-23-47.2-104.7-126.6-157.6-151.9c-90.9-43.7-310.7-67.9-395.8-42.6
		c-157.6,46-197.9,65.6-256.6,126.6c-41.4,43.7-75.9,127.7-80.5,195.6c-8.1,111.6-10.4,118.5-52.9,113.9l-36.8-3.5l3.5-63.3
		c11.5-193.3,116.2-337.1,295.7-408.4c101.2-40.3,428-43.7,498.2-5.8c10.4,5.8,42.6,20.7,71.3,34.5c63.3,29.9,87.4,49.5,133.5,109.3
		c38,49.5,73.6,151.9,73.6,214c0,69-36.8,161.1-86.3,210.6c-47.2,47.2-61,56.4-155.3,96.6c-81.7,34.5-94.3,39.1-161.1,55.2
		c-34.5,8.1-94.3,23-132.3,33.4c-38,10.4-92,24.2-120.8,31.1c-28.8,5.8-56.4,16.1-62.1,21.9c-6.9,5.8-18.4,10.4-27.6,10.4
		c-32.2,0-116.2,47.2-148.4,84c-20.7,24.2-39.1,62.1-48.3,103.6c-12.7,57.5-11.5,73.6,4.6,124.3c25.3,74.8,96.6,148.4,178.3,182.9
		c56.4,24.2,81.7,27.6,218.6,27.6c154.2,1.2,157.6,0,232.4-36.8c119.7-58.7,193.3-165.7,193.3-280.7c0-50.6,13.8-69,47.2-64.4
		c36.8,4.6,40.3,36.8,16.1,134.6c-25.3,104.7-57.5,157.6-134.6,219.8c-95.5,77.1-158.8,95.5-337.1,100.1
		C6841.9,2586.6,6766,2585.5,6756.8,2582z"/>
	<path d="M8032.8,2578.6c-87.4-18.4-208.3-94.3-257.7-163.4c-62.1-85.1-71.3-234.7-20.7-332.5c62.1-120.8,157.6-162.2,596-265.8
		c32.2-6.9,63.3-17.3,69-21.9c6.9-4.6,26.5-11.5,46-16.1c47.2-11.5,138.1-80.5,166.8-128.9c38-61,35.7-192.1-5.8-262.3
		c-34.5-57.5-80.5-96.6-155.3-130c-147.3-65.6-393.5-61-528.1,8.1c-112.8,56.4-171.4,141.5-196.7,281.9
		c-19.6,109.3-19.6,109.3-43.7,109.3c-26.5,0-52.9-28.8-42.6-46c4.6-6.9,12.7-44.9,17.3-84c5.8-40.3,21.9-97.8,35.7-128.9
		c26.5-58.7,123.1-163.4,172.6-185.2c95.5-43.7,127.7-52.9,231.3-62.1c234.7-23,406.1,21.9,516.6,131.2
		c72.5,72.5,96.6,133.5,96.6,242.8c0,146.1-51.8,226.7-185.2,293.4c-80.5,39.1-113.9,51.8-211.7,74.8
		c-97.8,24.2-263.5,70.2-333.7,93.2c-88.6,28.8-125.4,50.6-165.7,101.2c-33.4,40.3-35.7,49.5-35.7,136.9c0,84,3.5,100.1,32.2,143.8
		c35.7,54.1,115.1,110.5,186.4,131.2c25.3,8.1,108.2,13.8,184.1,13.8c117.4,1.2,148.4-3.5,207.1-25.3
		c123.1-46,212.9-163.4,212.9-278.4c0-55.2,15-80.5,47.2-80.5c26.5,0,35.7,28.8,26.5,90.9c-21.9,165.7-108.2,275-268.1,338.3
		C8367.6,2582,8109.8,2594.7,8032.8,2578.6z"/>
	<path d="M1605.7,2569.4c-23-9.2-17.3-31.1,20.7-79.4c57.5-72.5,291.1-380.8,321-423.4c9.2-12.7,43.7-56.4,77.1-96.6
		c34.5-41.4,57.5-78.2,52.9-86.3c-8.1-13.8-165.7-217.5-197.9-255.4c-10.4-12.7-70.2-89.7-132.3-172.6
		c-63.3-81.7-134.6-172.6-158.8-200.2c-56.4-64.4-58.7-96.6-6.9-90.9c27.6,2.3,43.7,13.8,63.3,42.6c28.8,41.4,71.3,98.9,90.9,119.7
		c5.8,8.1,93.2,122,193.3,255.4s186.4,242.8,191,245.1c11.5,4.6,11.5,4.6,141.5-166.8c365.9-484.4,376.2-498.2,409.6-498.2
		c17.3,0,34.5,3.5,39.1,6.9c8.1,8.1-20.7,69-35.7,75.9c-5.8,1.2-61,70.2-124.3,151.9c-62.1,81.7-151.9,197.9-199,258.9
		c-47.2,61-108.2,135.8-135.8,168c-26.5,31.1-49.5,61-49.5,66.7c0,4.6,27.6,41.4,61,80.5c32.2,39.1,71.3,87.4,85.1,105.9
		c15,19.6,54.1,70.2,86.3,113.9c33.4,42.6,69,89.7,78.2,103.6c23,33.4,108.2,141.5,149.6,191c36.8,42.6,40.3,54.1,24.2,79.4
		c-20.7,32.2-61-5.8-204.8-195.6c-192.1-254.3-202.5-269.2-256.6-345.2c-57.5-82.8-72.5-88.6-102.4-38
		c-13.8,23-97.8,140.4-188.7,261.2c-89.7,122-176,240.5-192.1,263.5c-21.9,33.4-70.2,71.3-84,65.6
		C1620.7,2576.3,1612.6,2572.8,1605.7,2569.4z"/>
</g>
</svg>
