<?xml version="1.0" encoding="UTF-8" standalone="no"?>
<svg xmlns:rdf="http://www.w3.org/1999/02/22-rdf-syntax-ns#" xmlns="http://www.w3.org/2000/svg" version="1.0" xmlns:cc="http://creativecommons.org/ns#" xmlns:dc="http://purl.org/dc/elements/1.1/" viewBox="0 0 100 100">
 <metadata>
  <rdf:RDF>
   <cc:Work rdf:about="">
    <dc:format>image/svg+xml</dc:format>
    <dc:type rdf:resource="http://purl.org/dc/dcmitype/StillImage"/>
    <dc:title/>
   </cc:Work>
  </rdf:RDF>
 </metadata>
 <path fill="#000" d="M50,0c-27.602,0-49.98,22.37-50,49.969v38.687c0.014854,6.267,5.1047,11.344,11.375,11.344h38.656c27.606-0.011,49.969-22.393,49.969-50,0-27.615-22.385-50-50-50zm14.688,11.844c1.966,0,3.367,0.243,5.187,0.718,2.654,0.695,4.812,2.845,4.813,5.376,0,3.059-2.212,5.312-5.532,5.312-1.58,0-2.154-0.312-4.468-0.312-6.833,0-12.395,5.542-12.407,12.374v10.75c0,0.965,0.784,1.75,1.75,1.75h8.157c3.031,0,5.468,2.429,5.468,5.469,0.002,3.059-2.466,5.469-5.531,5.469h-9.844v12.438c0,12.959-10.509,23.468-23.469,23.468-1.966,0-3.336-0.243-5.156-0.718-2.654-0.695-4.843-2.876-4.844-5.407,0-3.059,2.244-5.281,5.563-5.281,1.58,0,2.123,0.312,4.437,0.312,6.833,0,12.395-5.542,12.407-12.374v-10.75c0-0.965-0.784-1.75-1.75-1.75h-8.157c-3.031,0-5.468-2.429-5.468-5.469-0.002-3.059,2.466-5.469,5.531-5.469h9.844v-12.438c0-12.959,10.509-23.468,23.469-23.468z"/>
</svg>
