<svg id="Layer_1" xmlns:rdf="http://www.w3.org/1999/02/22-rdf-syntax-ns#"
    xmlns="http://www.w3.org/2000/svg"
    enable-background="new 0 0 75.142 99.999"
    xml:space="preserve" viewBox="0 0 75.142 99.999"
    version="1.1" y="0px" x="0px" xmlns:cc="http://creativecommons.org/ns#"
    xmlns:dc="http://purl.org/dc/elements/1.1/">
  <metadata id="metadata11">
    <rdf:RDF>
      <cc:Work rdf:about="">
        <dc:format>image/svg+xml</dc:format>
        <dc:type rdf:resource="http://purl.org/dc/dcmitype/StillImage"/>
        <dc:title/>
      </cc:Work>
    </rdf:RDF>
  </metadata>
  <path id="path3" d="M56.572,55.698c0-1.52,6.527-21.734-6.182-27.847-14.642-7.043-18.689-12.661-18.568-21.663-0.009,0.365-8.855,14.62-3.094,21.663,8.942,10.902,5.166,19.343,0,18.566-8.68-1.301-7.632-12.617-6.191-15.472-4.536-0.478-9.782,2.343-12.378,6.188-7.808,11.598,9.114,22.696,3.097,30.944-4.579,6.285-12.404-6.09-12.378-6.188-9.29,48.494,58.182,49.726,61.889,9.284,1.104-12.128,12.024-18.725,12.375-18.569-11.627-5.361-18.57,3.482-18.57,3.094zm-21.654,34.045c-16.223,0.598-14.557-11.559-12.381-15.473,2.763-4.984,9.76-5.969,6.191-12.381,0.046,0.098,7.589,1.231,12.373,6.188,7.338,7.575,6.503,21.187-6.183,21.666z"/>
  <path id="path5" d="M44.197,15.472c-1.894-2.032-3.097-4.472-3.097-6.19,0-3.221,2.631-6.317,6.193-9.282,0.357,2.579-1.543,6.447,0,9.282,1.197,2.098,3.097,4.472,3.097,6.19,0,2.302-0.857,4.4-3.097,6.188-0.339-0.861-0.932-3.684-3.096-6.188z"/>
</svg>
