<?xml version="1.0" standalone="no"?>
<!DOCTYPE svg PUBLIC "-//W3C//DTD SVG 20010904//EN"
 "http://www.w3.org/TR/2001/REC-SVG-20010904/DTD/svg10.dtd">
<svg version="1.0" xmlns="http://www.w3.org/2000/svg"
 width="200.000000pt" height="200.000000pt" viewBox="0 0 200.000000 200.000000"
 preserveAspectRatio="xMidYMid meet">
<metadata>
Created by potrace 1.13, written by Peter Selinger 2001-2015
</metadata>
<g transform="translate(0.000000,200.000000) scale(0.100000,-0.100000)"
fill="#000000" stroke="none">
<path d="M336 1764 c-17 -16 -10 -39 21 -76 13 -14 11 -20 -21 -48 -28 -26
-33 -36 -26 -54 11 -30 -4 -53 -46 -71 -37 -15 -54 -42 -35 -55 9 -5 2 -14
-21 -28 -56 -35 -70 -81 -43 -146 9 -21 34 -103 56 -184 109 -403 345 -698
646 -805 202 -73 575 -88 778 -31 28 8 64 13 80 13 30 -1 134 23 154 36 13 7
15 41 3 49 -4 2 -77 7 -161 10 -84 3 -156 7 -158 10 -3 3 4 18 16 34 27 39 27
52 -4 52 -16 0 -41 -15 -67 -41 -40 -37 -46 -40 -83 -34 -136 21 -333 128
-420 229 -172 199 -221 340 -227 661 l-3 130 35 -2 c19 0 58 -4 85 -7 36 -5
44 -4 29 3 -29 13 -45 37 -18 28 51 -19 -32 30 -89 52 -90 34 -150 64 -174 88
-11 11 -39 24 -61 28 -43 7 -65 24 -60 46 2 10 -11 15 -42 17 -57 4 -71 16
-63 53 3 17 0 35 -7 44 -16 20 -54 19 -74 -1z m464 -287 c0 -47 -69 -78 -231
-102 -47 -7 -104 -22 -127 -34 -32 -16 -51 -19 -86 -15 -38 6 -46 4 -46 -10 0
-9 -8 -16 -18 -16 -26 0 -54 33 -46 55 6 15 4 16 -14 6 -14 -7 -22 -23 -24
-49 l-4 -37 -12 27 c-15 35 -7 55 29 73 37 19 69 19 69 0 0 -20 49 -40 64 -25
7 7 6 10 -3 10 -8 0 -11 6 -7 15 3 8 1 15 -4 15 -6 0 -10 4 -10 8 0 10 264 82
298 82 13 0 22 -6 22 -15 0 -8 7 -15 15 -15 18 0 19 12 3 28 -9 9 4 12 60 12
52 0 72 -4 72 -13z m-49 -104 c1 -7 9 -185 13 -273 0 -19 5 -38 11 -42 5 -4 2
-14 -8 -26 -21 -23 -23 -39 -2 -22 17 14 13 23 44 -98 15 -62 18 -88 11 -103
-8 -15 -7 -19 4 -19 9 0 20 -9 26 -21 7 -11 14 -18 17 -15 8 7 36 -23 63 -68
13 -22 37 -55 53 -72 15 -18 27 -36 25 -39 -8 -15 70 -77 120 -95 31 -12 71
-34 89 -51 23 -20 44 -29 68 -29 19 0 35 -4 35 -9 0 -5 17 -15 38 -21 54 -18
62 -30 19 -30 -21 0 -63 10 -95 22 -61 23 -168 32 -190 15 -9 -7 -19 -4 -33 9
-11 10 -26 19 -32 20 -7 0 -18 2 -24 2 -7 1 -13 13 -13 26 0 21 -6 25 -42 31
-24 4 -51 11 -60 17 -25 12 -23 38 2 31 10 -3 18 -10 17 -17 -1 -6 14 -12 36
-14 l39 -3 -34 36 c-21 24 -72 56 -146 92 -62 30 -111 57 -109 60 3 2 19 -3
36 -11 33 -17 71 -21 71 -7 0 15 -41 61 -55 61 -7 0 -23 8 -36 19 l-23 18 22
12 c28 15 28 24 -3 58 l-25 28 6 -30 6 -30 -21 33 c-23 35 -31 38 -49 20 -8
-8 -12 -8 -12 -1 0 6 -7 10 -17 9 -10 -1 -19 10 -25 30 -6 26 -38 68 -38 52 0
-16 25 -76 38 -91 8 -9 13 -20 10 -23 -7 -7 -110 44 -120 60 -14 21 -8 28 19
21 15 -3 32 -7 38 -8 13 -2 13 44 1 61 -7 10 -4 12 17 7 31 -8 36 8 11 40 -12
16 -18 18 -34 7 -27 -17 -30 -16 -30 13 0 14 -5 25 -11 25 -7 0 -9 -10 -7 -25
4 -18 1 -25 -10 -25 -11 0 -8 -8 12 -28 22 -24 25 -31 13 -41 -16 -13 -30 -1
-41 36 -4 11 -14 24 -22 27 -8 3 -12 11 -9 17 4 6 -2 21 -14 33 -21 22 -21 23
-2 40 23 21 44 12 36 -15 -7 -22 2 -59 16 -59 13 0 11 57 -2 83 -12 22 -12 22
9 3 20 -17 22 -17 28 -2 10 25 -9 40 -33 27 -21 -11 -64 -4 -75 12 -11 17 22
57 47 57 27 0 39 24 25 50 -18 34 -12 50 20 50 17 0 39 9 50 20 11 11 26 20
34 20 8 0 18 4 21 10 3 5 20 7 38 4 22 -4 28 -3 18 4 -10 7 -5 12 20 20 31 10
65 17 97 21 6 0 12 -2 13 -6z"/>
</g>
</svg>
