<?xml version="1.0" encoding="utf-8"?>
<!-- Generator: Adobe Illustrator 19.2.1, SVG Export Plug-In . SVG Version: 6.00 Build 0)  -->
<svg version="1.1"
	 id="svg2" xmlns:cc="http://creativecommons.org/ns#" xmlns:dc="http://purl.org/dc/elements/1.1/" xmlns:rdf="http://www.w3.org/1999/02/22-rdf-syntax-ns#" xmlns:svg="http://www.w3.org/2000/svg"
	 xmlns="http://www.w3.org/2000/svg" xmlns:xlink="http://www.w3.org/1999/xlink" x="0px" y="0px" viewBox="0 0 417.4 293"
	 style="enable-background:new 0 0 417.4 293;" xml:space="preserve">
<path id="path1" d="M73.8,286.3c-7-1.7-17.2-10.5-28.6-24.8c-23-28.9-35.4-61.3-39.1-101.7c-0.7-7.8-0.7-27.4,0-34.6
	c3.4-33.9,15.2-63.1,37-91.1c6.7-8.6,17.7-19.8,23-23.3c7.5-5.1,12.2-5.5,16.7-1.5c1.8,1.6,2.3,2.4,2.5,4.5c0.4,4-1.6,7-11,16.8
	C61.1,44.2,55.1,51.8,48.3,63C33,88.4,26.5,115.2,27.4,148.4c0.5,17.7,2.4,30.8,6.6,45.3c3.8,13.1,8.3,23.6,15,35.1
	c6.8,11.5,12.5,18.8,23.9,30.6c10,10.3,12.5,13.9,12.5,18s-2.9,7.8-7,8.9C76.3,286.9,76.2,286.9,73.8,286.3L73.8,286.3z M338,286.5
	c-2.1-0.5-5.9-4.5-6.4-6.9c-0.7-3.7,1.5-7,11.8-17.7c5.1-5.2,11.3-12.1,13.8-15.3c18.7-23.3,29-49.1,31.8-79.4
	c0.9-9.3,0.4-33.3-0.8-42.3c-2.5-18.9-7.1-34.3-15-50.5c-7.6-15.5-15.5-26.5-28.8-40.2c-8.9-9.2-11.6-12.6-12.5-15.9
	c-0.9-3.3-0.2-5.7,2.2-8.5c3.4-3.8,7.2-4.2,13.3-1.2c7.3,3.6,16.8,13.1,27.7,27.8c22.1,29.5,33.5,62,36.2,103.3
	c2.3,35.1-6.2,70.6-24,100c-12.3,20.3-31,41.1-41,45.5C343.9,286.4,340.1,286.9,338,286.5L338,286.5z M117.5,265.1
	c-6-1.8-9.4-7.8-8-13.8c0.9-3.7,4.6-7.5,8.2-8.4s192.5-0.9,196.1,0c3.7,0.9,7.4,4.8,8.2,8.6c1.1,5-1.2,10.1-5.5,12.6l-2.3,1.3
	l-97.6,0.1C162.9,265.5,118.3,265.3,117.5,265.1L117.5,265.1z M191.9,219.2c-18.1-6.6-33.2-19.4-40.9-34.9c-4.3-8.6-6.8-19-6.8-28.3
	c0-12.6,4.9-24.6,19.9-48.6c11.2-17.9,13.1-21.1,16.4-28c4.4-9.1,5.8-14.5,5.9-22.2c0.1-7.3-1-11.7-4.4-17.3
	c-2.4-4-7.8-10.1-10-11.2c-3.6-1.8-4.3-4.3-1.8-6c4-2.6,14.9-1,25,3.8c11.4,5.4,19.7,13.1,25.2,23.2c4.2,7.8,5.9,13.8,8.7,30.9
	c3.2,19,6.3,25,12.6,24.3c3.4-0.4,5.5-1.7,6.9-4.2c2.3-4,1.3-9.5-3.3-18.6c-3.7-7.4-3.5-9.7,0.9-8.5c2.3,0.6,9.6,6.6,14.7,12
	c12.7,13.5,19,25.8,22.1,42.9c1.6,8.9,1.7,23.8,0.3,31.5c-1.8,9.8-5.5,19-10.8,26.9c-5.9,8.8-18.1,19.9-27,24.6
	c-4,2.1-5.4,2.2-7.4,0.7c-2.4-1.9-1.9-3.3,3.5-9c8.1-8.6,12.3-14.8,14.7-21.7c3.7-10.7,1.9-25.7-4.4-35.2c-2.6-3.9-6.4-7.4-8.1-7.4
	c-0.9,0-0.8,1.2,1,7.6c0.6,2.2,1.1,4.9,1.1,6c0,5.8-8.2,10-15.4,7.9c-5.9-1.7-8.5-7-7.7-15.8c0.2-2.7,0.5-7.6,0.5-10.9
	c0-5.8,0-6.1-1.9-9.8c-3.6-7.1-11.9-14.4-16.4-14.4c-1.9,0-2.1,0.1-2.1,1.5c0,1,0.5,2,1.4,2.9c4.6,4.3,5.5,13.2,2.1,21
	c-2.1,4.8-4.5,7.6-12.7,14.5c-10.8,9.2-14.3,13.5-16.4,20.6c-1,3.3-1.1,4.6-0.8,10.6c0.5,10.1,2.5,16.7,7.3,23.8
	c3.7,5.4,8,8.9,13.9,11.1c2.8,1.1,3.1,1.3,3.1,2.7c0,1.6-1.2,2.7-3.1,2.7C197.2,221,194.6,220.2,191.9,219.2L191.9,219.2z"/>
</svg>
