<!-- Created with Inkscape (http://www.inkscape.org/) -->
<svg id="svg2" xmlns:rdf="http://www.w3.org/1999/02/22-rdf-syntax-ns#" style="enable-background:new;" xmlns="http://www.w3.org/2000/svg" viewBox="0 0 88.22 100" version="1.1" xmlns:cc="http://creativecommons.org/ns#" xmlns:xlink="http://www.w3.org/1999/xlink" xmlns:dc="http://purl.org/dc/elements/1.1/">
 <metadata id="metadata14147">
  <rdf:RDF>
   <cc:Work rdf:about="">
    <dc:format>image/svg+xml</dc:format>
    <dc:type rdf:resource="http://purl.org/dc/dcmitype/StillImage"/>
    <dc:title/>
   </cc:Work>
  </rdf:RDF>
 </metadata>
 <defs id="defs4"></defs>
 <path d="m44.073,1.9665c-23.242,0-42.087,18.788-42.087,41.947s18.845,41.93,42.087,41.93,42.087-18.77,42.087-41.93c0-7.5852-2.0393-14.703-5.5742-20.842-2.0138,3.5291-3.8885,6.3077-4.6101,7.0292-2.1658,2.1652-7.8445,0.0091-12.674-4.8205-4.829-4.829-6.987-10.507-4.821-12.673,0.732-0.732,3.57-2.6529,7.17-4.6981-6.31-3.7633-13.69-5.9424-21.578-5.9424z" fill="#000"/>
 <path d="M82.251,0.0032797c-1.705-0.039546-3.616,0.28107-5.627,0.82387-3.842,1.037-8.002,2.91-11.517,4.873-6.304-3.5407-13.376-4.873-21.017-4.873-7.7478,0-14.995,2.0924-21.28,5.6794-5.421-3.0698-12.33-6.4263-17.319-6.3982-1.5697,0.00888-3.0345,0.40516-4.0667,1.4374-1.1192,1.1193-1.4689,2.7239-1.4199,4.4349,0.049087,1.711,0.48352,3.6242,1.1394,5.6273,1.2508,3.819,3.3378,7.944,5.3113,11.428-3.448,6.195-5.4515,13.294-5.4515,20.878,0,23.771,19.314,43.086,43.086,43.086s43.086-19.315,43.086-43.086c0-7.5243-1.0085-13.88-4.4524-20.088,1.9751-3.5542,3.7759-7.895,4.7504-11.92,0.50969-2.105,0.80218-4.1048,0.73622-5.8722-0.065-1.768-0.467-3.3783-1.577-4.488-1.098-1.0979-2.678-1.503-4.382-1.5425zm-0.05256,2.2437c1.3748,0.031894,2.3225,0.37676,2.8397,0.89398,0.50998,0.50998,0.87474,1.5074,0.92904,2.9624s-0.18885,3.3052-0.6661,5.2762c-0.95451,3.9421-2.8343,8.4295-4.803,11.867l-0.31552,0.56093,0.33305,0.56093c3.469,5.9761,4.4173,11.982,4.4173,19.545-0.000006,22.558-18.285,40.843-40.843,40.843s-40.843-18.285-40.843-40.843c0-7.4084,1.9842-14.343,5.434-20.334l0.3169-0.561-0.3155-0.543c-2.0073-3.494-4.1695-7.816-5.399-11.57-0.6147-1.8767-0.995-3.6108-1.0342-4.9779s0.2623-2.2781,0.7713-2.7871c0.4768-0.4769,1.2807-0.782,2.4891-0.7888,4.0065-0.0227,11.38,3.3272,16.74,6.3981l0.56093,0.31552,0.56093-0.31552c6.08-3.592,13.149-5.6794,20.719-5.6794,7.6192,0,14.461,1.3006,20.474,4.838l0.56093,0.33305,0.56093-0.31552c3.46-1.9783,7.782-3.913,11.534-4.9258,1.876-0.5063,3.603-0.7856,4.978-0.7537z"/>
</svg>
