<?xml version="1.0" encoding="utf-8"?>
<!-- Generator: Adobe Illustrator 19.2.1, SVG Export Plug-In . SVG Version: 6.00 Build 0)  -->
<svg version="1.1"
	 id="svg2" xmlns:cc="http://creativecommons.org/ns#" xmlns:dc="http://purl.org/dc/elements/1.1/" xmlns:rdf="http://www.w3.org/1999/02/22-rdf-syntax-ns#" xmlns:svg="http://www.w3.org/2000/svg"
	 xmlns="http://www.w3.org/2000/svg" xmlns:xlink="http://www.w3.org/1999/xlink" x="0px" y="0px" viewBox="0 0 417.4 55"
	 style="enable-background:new 0 0 417.4 55;" xml:space="preserve">
<path d="M8.4,22.2H4.8c-1.3,0-1.9-0.5-1.9-1.6S3.5,19,4.8,19h3.6v-3.1c0-5.5,2.8-8.2,8.4-8.2c2.2,0,4.1,0.5,5.7,1.3
	c1.9,1.2,2.9,2.9,2.9,5c0,1.4-0.5,2.1-1.6,2.1c-0.7,0-1.3-0.5-1.7-1.3c-0.5-1.4-0.9-2.2-1.2-2.6c-0.6-0.8-2-1.3-4-1.3
	c-3.4,0-5,1.7-5,5V19h6.6c1.4,0,2.2,0.5,2.2,1.6s-0.7,1.6-2.2,1.6h-6.6v20.6c0,1.3-0.5,1.9-1.6,1.9s-1.6-0.6-1.6-1.9V22.2L8.4,22.2
	L8.4,22.2z M37.6,41V22.2h-4.9c-1.3,0-2-0.5-2-1.6s0.6-1.6,2-1.6h6.5c1.1,0,1.7,1,1.7,2.8c2-2.2,4.1-3.3,6.4-3.3
	c1.9,0,3.3,0.5,4.4,1.7c1.1,1.2,1.6,2.7,1.6,4.5c0,1.3-0.5,1.9-1.6,1.9c-0.6,0-1.1-0.5-1.3-1.3c-0.5-1.5-0.7-2.3-0.8-2.4
	c-0.5-0.8-1.3-1.3-2.5-1.3c-1.3,0-2.4,0.5-3.5,1.3c-0.6,0.5-1.5,1.4-2.7,2.9v15H47c1.3,0,2,0.5,2,1.5c0,1.1-0.6,1.7-2,1.7H32.6
	c-1.3,0-2-0.5-2-1.6s0.6-1.6,2-1.6h5V41L37.6,41z M62.1,32.2v3.6c0,3.9,2.7,5.8,8.2,5.8c2,0,3.6-0.2,4.9-0.6
	c0.6-0.2,1.8-0.8,3.3-1.9c1-0.9,1.7-1.3,2-1.3c0.9,0,1.3,0.5,1.3,1.4s-0.6,2-2,3.1c-2.2,1.7-5.4,2.6-9.7,2.6c-7.6,0-11.3-3-11.3-8.9
	v-9c0-2.1,0.8-3.9,2.3-5.3c2.1-2,5.1-2.9,9.3-2.9c7.4,0,11.1,3.7,11.1,11c0,1.8-0.7,2.7-2.1,2.7H62.1V32.2z M62.1,28.9h16.1
	c0-4.9-2.7-7.3-8.2-7.3c-2,0-3.8,0.5-5.4,1.3c-1.6,1.2-2.5,2.5-2.5,4V28.9z M90.4,32.2v3.6c0,3.9,2.7,5.8,8.2,5.8
	c2,0,3.6-0.2,4.9-0.6c0.6-0.2,1.8-0.8,3.3-1.9c1-0.9,1.7-1.3,2-1.3c0.9,0,1.3,0.5,1.3,1.4s-0.6,2-2,3.1c-2.2,1.7-5.4,2.6-9.7,2.6
	c-7.6,0-11.3-3-11.3-8.9v-9c0-2.1,0.8-3.9,2.3-5.3c2.1-2,5.1-2.9,9.3-2.9c7.4,0,11.1,3.7,11.1,11c0,1.8-0.7,2.7-2.1,2.7H90.4V32.2z
	 M90.4,28.9h16.1c0-4.9-2.7-7.3-8.2-7.3c-2,0-3.8,0.5-5.4,1.3c-1.7,1.2-2.5,2.5-2.5,4V28.9z M115.7,34.3v-14c0-7.4,3.9-11,11.7-11
	c3.1,0,5.7,0.7,7.6,2.1c2.2,1.7,3.3,4,3.3,6.9c0,1.3-0.5,2.1-1.7,2.1c-0.8,0-1.3-0.6-1.7-2c-0.2-1.1-0.6-2.2-1.3-3.1
	c-1-1.8-3.1-2.6-6.6-2.6c-2.9,0-5,0.7-6.2,2.2c-1.2,1.3-1.8,3.4-1.8,6.4V33c0,3.1,0.6,5.2,1.9,6.6s3.4,2.2,6.3,2.2
	c4.4,0,6.9-1.5,7.6-4.6c0.3-1.2,0.4-1.7,0.4-1.8c0.3-0.6,0.7-1,1.3-1c1.1,0,1.7,0.7,1.7,2.1c0,2.8-1.2,5-3.5,6.7
	c-1.9,1.3-4.3,1.9-7.4,1.9c-3.6,0-6.4-0.8-8.4-2.5C116.7,40.5,115.7,37.8,115.7,34.3L115.7,34.3z M143.5,36.2V27
	c0-5.7,3.8-8.4,11.3-8.4s11.3,2.8,11.3,8.4v9.3c0,5.7-3.7,8.4-11.2,8.4C147.3,44.7,143.5,41.9,143.5,36.2L143.5,36.2z M162.9,36.2
	V27c0-3.5-2.7-5.3-8.2-5.3c-5.2,0-7.9,1.8-7.9,5.3v9.3c0,3.5,2.7,5.3,8.1,5.2C160.3,41.4,162.9,39.7,162.9,36.2L162.9,36.2z
	 M190.9,41.6c-1.5,1.2-2.9,1.9-4,2.3c-1.3,0.5-2.8,0.7-4.6,0.7c-3.1,0-5.5-0.6-7.4-1.9c-2.2-1.4-3.2-3.6-3.2-6.6v-9.4
	c0-2.8,1.1-5,3.1-6.4c1.8-1.3,4.2-1.9,7.1-1.9c1.9,0,3.5,0.2,4.8,0.6c1.3,0.5,2.6,1.3,4,2.4V9.8c0-1.5,0.5-2.3,1.5-2.3
	c1.1,0,1.7,0.8,1.7,2.3v33c0,1.2-0.5,1.7-1.5,1.7c-0.6,0-1.1-0.4-1.3-1.1C191,43.1,190.9,42.4,190.9,41.6L190.9,41.6z M190.7,37.8
	V24.9c-1.6-1.2-2.9-2-3.9-2.3c-1.3-0.5-2.8-0.8-4.4-0.8c-2.1,0-3.8,0.4-5,1.2c-1.6,1-2.4,2.4-2.4,4.2v8.9c0,1.9,0.8,3.3,2.5,4.3
	c1.3,0.7,3.1,1.2,5.1,1.2c1.7,0,3.2-0.3,4.5-0.8C188.2,40,189.4,39.1,190.7,37.8z M203.2,32.2v3.6c0,3.9,2.7,5.8,8.2,5.8
	c2,0,3.6-0.2,4.9-0.6c0.6-0.2,1.8-0.8,3.3-1.9c1-0.9,1.7-1.3,2-1.3c0.9,0,1.3,0.5,1.3,1.4s-0.6,2-2,3.1c-2.2,1.7-5.4,2.6-9.7,2.6
	c-7.6,0-11.3-3-11.3-8.9v-9c0-2.1,0.8-3.9,2.3-5.3c2.1-2,5.1-2.9,9.3-2.9c7.4,0,11.1,3.7,11.1,11c0,1.8-0.7,2.7-2.1,2.7h-17.3V32.2z
	 M203.2,28.9h16.1c0-4.9-2.7-7.3-8.2-7.3c-2,0-3.8,0.5-5.4,1.3c-1.7,1.2-2.5,2.5-2.5,4L203.2,28.9L203.2,28.9z M228.4,34.3v-14
	c0-7.4,3.9-11,11.7-11c3.1,0,5.7,0.7,7.6,2.1c2.2,1.7,3.3,4,3.3,6.9c0,1.3-0.5,2.1-1.7,2.1c-0.8,0-1.3-0.6-1.7-2
	c-0.2-1.1-0.6-2.2-1.3-3.1c-1-1.8-3.1-2.6-6.6-2.6c-2.9,0-5,0.7-6.2,2.2c-1.2,1.3-1.8,3.4-1.8,6.4V33c0,3.1,0.6,5.2,1.9,6.6
	c1.3,1.4,3.4,2.2,6.3,2.2c4.4,0,6.9-1.5,7.6-4.6c0.3-1.2,0.4-1.7,0.4-1.8c0.3-0.6,0.7-1,1.3-1c1.1,0,1.7,0.7,1.7,2.1
	c0,2.8-1.2,5-3.5,6.7c-1.9,1.3-4.3,1.9-7.4,1.9c-3.6,0-6.4-0.8-8.4-2.5C229.6,40.5,228.4,37.8,228.4,34.3L228.4,34.3z M274.5,41.6
	c-1.6,1.2-2.9,2-3.8,2.3c-1.2,0.5-2.6,0.7-4.4,0.7c-2.7,0-5-0.5-6.7-1.7c-2-1.3-3.1-3.3-3.1-5.9s1.1-4.7,3.1-6.1
	c1.8-1.3,4.1-2,6.8-2c2.2,0,4.8,0.5,7.6,1.5v-4c0-1.9-0.9-3.2-2.7-4c-1.3-0.5-2.8-0.8-4.6-0.8c-4.2,0-6.5,1.2-6.9,3.5
	c-0.2,1.1-0.4,1.6-0.4,1.7c-0.3,0.5-0.7,0.8-1.3,0.8c-1.2,0-1.8-0.6-1.8-1.9c0-1.7,0.6-3.2,2-4.7c1.6-1.8,4.6-2.7,8.7-2.7
	c3.3,0,5.8,0.5,7.4,1.6c1.9,1.3,2.9,3.6,2.9,6.7v11.5c0,1.3,0.3,2.2,0.8,2.7c0.1,0.1,0.6,0.4,1.5,0.7c0.5,0.3,0.8,0.7,0.8,1.5
	c0,0.9-0.5,1.3-1.4,1.3c-0.3,0-0.7-0.1-1.4-0.4c-1.3-0.5-2.1-0.7-2.2-0.8C275,43.2,274.7,42.5,274.5,41.6L274.5,41.6z M274.3,38.2
	v-4.8c-2.5-0.8-5-1.3-7.1-1.3c-4.9,0-7.3,1.5-7.3,4.7c0,1.6,0.7,2.9,2.2,3.6c1.2,0.6,2.6,1,4.4,1c1.5,0,3-0.3,4.2-0.9
	C271.7,40.2,272.9,39.4,274.3,38.2z M287.1,21.2c0.8-1,1.5-1.7,2.1-2c0.7-0.5,1.6-0.7,2.8-0.7c1.8,0,3.3,0.9,4.7,2.8
	c0.9-1.1,1.7-1.8,2.4-2.2c0.8-0.5,1.9-0.6,3.1-0.6c3.9,0,5.8,1.9,5.8,5.7v18.3c0,1.5-0.5,2.2-1.7,2.2c-1.1,0-1.6-0.7-1.6-2.2V25.3
	c0-2.3-1-3.6-2.9-3.6c-1.4,0-2.9,0.9-4.1,2.6v18.2c0,1.5-0.5,2.2-1.6,2.2s-1.6-0.7-1.6-2.2V25.7c0-2.6-1.1-3.9-3.1-3.9
	c-1.3,0-2.6,0.9-4,2.6v18.1c0,1.5-0.5,2.2-1.7,2.2c-1.1,0-1.6-0.7-1.6-2.2V20.2c0-1.1,0.5-1.6,1.3-1.6c0.5,0,0.9,0.4,1.2,1
	C286.9,19.9,287.1,20.6,287.1,21.2L287.1,21.2z M316.3,21.2c2.5-1.8,5.5-2.7,8.7-2.7c6.8,0,10.2,2.9,10.2,8.5v9.4
	c0,2.7-1,4.8-2.9,6.3c-1.7,1.3-4,2.1-7,2.1c-3.5,0-6.5-0.9-9.1-2.8v10.6c0,1.6-0.5,2.4-1.6,2.4s-1.6-0.8-1.6-2.4V20.9
	c0-1.6,0.5-2.4,1.3-2.4c0.5,0,0.9,0.4,1.3,1C315.9,20,316.1,20.7,316.3,21.2L316.3,21.2z M316.3,38.3c2.3,2.1,5.2,3.1,8.5,3.1
	c2.1,0,3.7-0.4,5-1.2c1.5-0.9,2.2-2.2,2.2-4V27c0-2-0.8-3.3-2.4-4.2c-1.3-0.6-3-1-5-1c-1.9,0-3.4,0.3-4.6,0.8
	c-1.1,0.5-2.2,1.4-3.7,2.9V38.3L316.3,38.3z M346.4,29.4c0-7.1,2.4-13.4,7.4-19c1.8-2.1,3.2-3.1,4.2-3.1c0.4,0,0.7,0.1,1,0.4
	s0.5,0.5,0.5,0.9c0,0.5-0.6,1.3-1.9,2.6c-5.1,5-7.7,11.1-7.7,18.4c0,8.1,2.7,14.7,8,19.7c1.1,1,1.6,1.8,1.6,2.4c0,0.4-0.2,0.7-0.5,1
	s-0.6,0.5-1,0.5c-1.3,0-3-1.4-5.2-4.3C348.5,43.5,346.4,37,346.4,29.4z M414.5,31.2c0,7.1-2.4,13.4-7.4,19c-1.8,2.1-3.2,3.1-4.2,3.1
	c-0.4,0-0.7-0.1-1-0.4s-0.5-0.6-0.5-1c0-0.5,0.6-1.3,1.9-2.5c5.1-5,7.7-11.1,7.7-18.4c0-8.1-2.7-14.7-8-19.7c-1.1-1-1.6-1.8-1.6-2.4
	c0-0.4,0.2-0.7,0.5-1s0.6-0.5,1-0.5c1.2,0,3,1.4,5.2,4.3C412.3,17.2,414.5,23.6,414.5,31.2z M365.6,47h31.2 M396.7,48.9h-31.2
	c-1,0-1.9-0.8-1.9-1.9s0.8-1.9,1.9-1.9h31.2c1,0,1.9,0.8,1.9,1.9S397.8,48.9,396.7,48.9z M390.7,21.8c-0.5-1.7-1.3-3.3-2.5-4.5
	c-0.3-0.3-0.7-0.6-1-1c-0.3-0.3-0.9-0.6-1.1-1c0.7,1.7,1.4,3.4,0.9,5.3c-0.3,0.8-1.2,2.8-2.4,2.3c-1.1-0.5-1-2.9-1.1-3.8
	c-0.2-2.4-0.8-4.7-2-6.8c-0.7-1.1-1.6-2.1-2.7-2.8c-1.5-0.9-3-1.5-4.7-0.8c0.4-0.1,1.3,1,1.5,1.2c0.6,0.7,1.1,1.5,1.3,2.4
	c0.5,1.8,0.1,3.8-0.6,5.5c-1.3,3.5-3.5,6.7-4.5,10.4c-0.4,1.3-0.6,2.6-0.7,3.9c-0.2,4.2,1.9,8,5.4,10.3c0.8,0.5,2.1,1.2,3.1,0.8
	c-2.9-1.5-3.8-2.8-4.3-4.6c-1-4.2,2.9-6.8,4.6-10.2c0.5-0.9,0.8-1.8,0.7-2.9c0-0.4-0.5-2.2-1-2.1c1.7-0.3,2.8,0.9,3.4,2.3
	c0.6,1.6,1,3.2,0.7,4.8c-0.1,0.5-0.5,2.3,0.3,2.4c1.1,0.2,2.1-1.3,1.8-2.7c-0.1-0.7-0.2-1.7-0.2-1.7c1.2,1.4,1.7,2.9,1.9,4.5
	c0.3,2.8-0.9,6.6-3.2,8.9c1-1,2.2-1.6,3.1-2.7s1.7-2.3,2.2-3.6c1.3-2.9,2-6.2,1.8-9.4C391.4,24.9,391.2,23.3,390.7,21.8L390.7,21.8z
	"/>
</svg>
