<?xml version="1.0" encoding="UTF-8" standalone="no"?>
<!-- Created with Inkscape (http://www.inkscape.org/) -->

<svg
   xmlns:dc="http://purl.org/dc/elements/1.1/"
   xmlns:cc="http://creativecommons.org/ns#"
   xmlns:rdf="http://www.w3.org/1999/02/22-rdf-syntax-ns#"
   xmlns:svg="http://www.w3.org/2000/svg"
   xmlns="http://www.w3.org/2000/svg"
   xmlns:sodipodi="http://sodipodi.sourceforge.net/DTD/sodipodi-0.dtd"
   xmlns:inkscape="http://www.inkscape.org/namespaces/inkscape"
   version="1.1"
   width="108.7505"
   height="91.166321"
   viewBox="0 0 87.000389 72.933061"
   id="svg2"
   sodipodi:docname="freedesktop.svg"
   inkscape:version="0.92.4 (5da689c313, 2019-01-14)">
  <sodipodi:namedview
     pagecolor="#ffffff"
     bordercolor="#666666"
     borderopacity="1"
     objecttolerance="10"
     gridtolerance="10"
     guidetolerance="10"
     inkscape:pageopacity="0"
     inkscape:pageshadow="2"
     inkscape:window-width="3200"
     inkscape:window-height="1671"
     id="namedview29"
     showgrid="false"
     inkscape:zoom="10.171587"
     inkscape:cx="-17.342831"
     inkscape:cy="39.192817"
     inkscape:window-x="0"
     inkscape:window-y="55"
     inkscape:window-maximized="1"
     inkscape:current-layer="svg2"
     fit-margin-top="0"
     fit-margin-left="0"
     fit-margin-right="0"
     fit-margin-bottom="0" />
  <metadata
     id="metadata57">
    <rdf:RDF>
      <cc:Work
         rdf:about="">
        <dc:format>image/svg+xml</dc:format>
        <dc:type
           rdf:resource="http://purl.org/dc/dcmitype/StillImage" />
        <dc:title />
      </cc:Work>
    </rdf:RDF>
  </metadata>
  <defs
     id="defs55" />
  <g
     style="fill:#ffffff;fill-rule:nonzero;stroke:#000000;stroke-width:2.45919988;stroke-miterlimit:4;stroke-dasharray:none"
     id="g39"
     transform="translate(0.01402783,0.01402783)">
    <path
       inkscape:connector-curvature="0"
       style="stroke:#000000;stroke-width:2.45919988;stroke-miterlimit:4;stroke-dasharray:none"
       id="path41"
       d="M 85.277,40.796 C 87.335,48.68 82.61,56.738 74.726,58.795 L 27.143,71.21 C 19.259,73.267 11.2,68.543 9.143,60.658 L 1.695,32.108 C -0.362,24.224 4.362,16.166 12.246,14.109 L 59.83,1.695 c 7.884,-2.057 15.942,2.667 17.999,10.551 l 7.449,28.55 z" />
    <path
       inkscape:connector-curvature="0"
       style="fill:#000000;stroke:none;stroke-width:2.45919988;stroke-miterlimit:4;stroke-dasharray:none"
       id="path43"
       d="m 80.444,39.778 c 1.749,7.854 -1.816,13.621 -9.504,15.447 L 28.704,66.245 C 21.135,68.641 14.615,65.064 12.866,57.409 L 6.53,33.127 C 4.781,24.982 7.239,20.238 16.033,17.68 L 58.27,6.661 c 8.144,-1.826 14.089,1.363 15.838,8.835 z" />
  </g>
  <path
     inkscape:connector-curvature="0"
     style="opacity:1;fill:none;fill-rule:nonzero;stroke:#ffffff;stroke-width:2.45880008;stroke-miterlimit:4"
     id="path45"
     d="m 45.556028,51.807028 -21.438,-20.691 38.1,-4.393 z" />
  <path
     style="fill:#ffffff;fill-rule:nonzero;stroke:#000000;stroke-width:2.45880008;stroke-miterlimit:4;stroke-opacity:1"
     inkscape:connector-curvature="0"
     id="path47"
     d="m 72.339028,28.783028 c 0.405,1.55 -0.525,3.136 -2.075,3.541 l -12.331,3.217 c -1.551,0.404 -3.137,-0.525 -3.542,-2.076 l -2.295,-8.801 c -0.405,-1.551 0.524,-3.137 2.076,-3.542 l 12.33,-3.217 c 1.551,-0.405 3.137,0.525 3.542,2.076 l 2.295,8.801 z" />
  <path
     style="fill:#ffffff;fill-rule:nonzero;stroke:#000000;stroke-width:2.45880008;stroke-miterlimit:4;stroke-opacity:1"
     inkscape:connector-curvature="0"
     id="path49"
     d="m 36.524028,33.639028 c 0.496,1.9 -0.645,3.844 -2.545,4.34 l -15.112,3.943 c -1.901,0.496 -3.845,-0.644 -4.34,-2.544 l -2.814,-10.786 c -0.496,-1.901 0.644,-3.844 2.544,-4.34 l 15.113,-3.942 c 1.901,-0.496 3.845,0.643 4.34,2.544 l 2.814,10.786 z" />
  <path
     style="fill:#ffffff;fill-rule:nonzero;stroke:#000000;stroke-width:2.45880008;stroke-miterlimit:4;stroke-opacity:1"
     inkscape:connector-curvature="0"
     id="path51"
     d="m 52.507028,53.222028 c 0.278,1.065 -0.36,2.154 -1.425,2.432 l -8.468,2.208 c -1.064,0.277 -2.153,-0.36 -2.431,-1.426 l -1.577,-6.043 c -0.277,-1.064 0.36,-2.153 1.425,-2.432 l 8.468,-2.209 c 1.064,-0.277 2.154,0.361 2.431,1.426 l 1.577,6.043 z" />
</svg>
