<?xml version="1.0" encoding="UTF-8" standalone="no"?>
<!-- Generator: Adobe Illustrator 19.2.1, SVG Export Plug-In . SVG Version: 6.00 Build 0)  -->

<svg
   xmlns:dc="http://purl.org/dc/elements/1.1/"
   xmlns:cc="http://creativecommons.org/ns#"
   xmlns:rdf="http://www.w3.org/1999/02/22-rdf-syntax-ns#"
   xmlns:svg="http://www.w3.org/2000/svg"
   xmlns="http://www.w3.org/2000/svg"
   xmlns:sodipodi="http://sodipodi.sourceforge.net/DTD/sodipodi-0.dtd"
   xmlns:inkscape="http://www.inkscape.org/namespaces/inkscape"
   version="1.1"
   id="svg2"
   x="0px"
   y="0px"
   viewBox="0 0 417.4 417.4"
   xml:space="preserve"
   inkscape:version="0.48.4 r9939"
   width="100%"
   height="100%"
   sodipodi:docname="freecodecamp.svg"><metadata
     id="metadata8"><rdf:RDF><cc:Work
         rdf:about=""><dc:format>image/svg+xml</dc:format><dc:type
           rdf:resource="http://purl.org/dc/dcmitype/StillImage" /></cc:Work></rdf:RDF></metadata><defs
     id="defs6" /><sodipodi:namedview
     pagecolor="#ffffff"
     bordercolor="#666666"
     borderopacity="1"
     objecttolerance="10"
     gridtolerance="10"
     guidetolerance="10"
     inkscape:pageopacity="0"
     inkscape:pageshadow="2"
     inkscape:window-width="675"
     inkscape:window-height="606"
     id="namedview4"
     showgrid="false"
     inkscape:zoom="0.72352659"
     inkscape:cx="208.7"
     inkscape:cy="146.5"
     inkscape:window-x="827"
     inkscape:window-y="579"
     inkscape:window-maximized="0"
     inkscape:current-layer="svg2" /><path
     id="path1"
     d="m 73.8,355.41523 c -7,-1.7 -17.2,-10.5 -28.6,-24.8 -23,-28.9 -35.4,-61.3 -39.1,-101.7 -0.7,-7.8 -0.7,-27.4 0,-34.6 3.4,-33.9 15.2,-63.1 37,-91.1 6.7,-8.599999 17.7,-19.799999 23,-23.299999 7.5,-5.1 12.2,-5.5 16.7,-1.5 1.8,1.6 2.3,2.4 2.5,4.5 0.4,4 -1.6,7 -11,16.8 -13.2,13.599999 -19.2,21.199999 -26,32.399999 -15.3,25.4 -21.8,52.2 -20.9,85.4 0.5,17.7 2.4,30.8 6.6,45.3 3.8,13.1 8.3,23.6 15,35.1 6.8,11.5 12.5,18.8 23.9,30.6 10,10.3 12.5,13.9 12.5,18 0,4.1 -2.9,7.8 -7,8.9 -2.1,0.6 -2.2,0.6 -4.6,0 l 0,0 z m 264.2,0.2 c -2.1,-0.5 -5.9,-4.5 -6.4,-6.9 -0.7,-3.7 1.5,-7 11.8,-17.7 5.1,-5.2 11.3,-12.1 13.8,-15.3 18.7,-23.3 29,-49.1 31.8,-79.4 0.9,-9.3 0.4,-33.3 -0.8,-42.3 -2.5,-18.9 -7.1,-34.3 -15,-50.5 -7.6,-15.5 -15.5,-26.5 -28.8,-40.2 -8.9,-9.199999 -11.6,-12.599999 -12.5,-15.899999 -0.9,-3.3 -0.2,-5.7 2.2,-8.5 3.4,-3.8 7.2,-4.2 13.3,-1.2 7.3,3.6 16.8,13.1 27.7,27.799999 22.1,29.5 33.5,62 36.2,103.3 2.3,35.1 -6.2,70.6 -24,100 -12.3,20.3 -31,41.1 -41,45.5 -2.4,1.2 -6.2,1.7 -8.3,1.3 l 0,0 z m -220.5,-21.4 c -6,-1.8 -9.4,-7.8 -8,-13.8 0.9,-3.7 4.6,-7.5 8.2,-8.4 3.6,-0.9 192.5,-0.9 196.1,0 3.7,0.9 7.4,4.8 8.2,8.6 1.1,5 -1.2,10.1 -5.5,12.6 l -2.3,1.3 -97.6,0.1 c -53.7,0 -98.3,-0.2 -99.1,-0.4 l 0,0 z m 74.4,-45.9 c -18.1,-6.6 -33.2,-19.4 -40.9,-34.9 -4.3,-8.6 -6.8,-19 -6.8,-28.3 0,-12.6 4.9,-24.6 19.9,-48.6 11.2,-17.9 13.1,-21.1 16.4,-28 4.4,-9.1 5.8,-14.5 5.9,-22.2 0.1,-7.3 -1,-11.7 -4.4,-17.3 -2.4,-4 -7.8,-10.099999 -10,-11.199999 -3.6,-1.8 -4.3,-4.3 -1.8,-6 4,-2.6 14.9,-1 25,3.8 11.4,5.399999 19.7,13.099999 25.2,23.199999 4.2,7.8 5.9,13.8 8.7,30.9 3.2,19 6.3,25 12.6,24.3 3.4,-0.4 5.5,-1.7 6.9,-4.2 2.3,-4 1.3,-9.5 -3.3,-18.6 -3.7,-7.4 -3.5,-9.7 0.9,-8.5 2.3,0.6 9.6,6.6 14.7,12 12.7,13.5 19,25.8 22.1,42.9 1.6,8.9 1.7,23.8 0.3,31.5 -1.8,9.8 -5.5,19 -10.8,26.9 -5.9,8.8 -18.1,19.9 -27,24.6 -4,2.1 -5.4,2.2 -7.4,0.7 -2.4,-1.9 -1.9,-3.3 3.5,-9 8.1,-8.6 12.3,-14.8 14.7,-21.7 3.7,-10.7 1.9,-25.7 -4.4,-35.2 -2.6,-3.9 -6.4,-7.4 -8.1,-7.4 -0.9,0 -0.8,1.2 1,7.6 0.6,2.2 1.1,4.9 1.1,6 0,5.8 -8.2,10 -15.4,7.9 -5.9,-1.7 -8.5,-7 -7.7,-15.8 0.2,-2.7 0.5,-7.6 0.5,-10.9 0,-5.8 0,-6.1 -1.9,-9.8 -3.6,-7.1 -11.9,-14.4 -16.4,-14.4 -1.9,0 -2.1,0.1 -2.1,1.5 0,1 0.5,2 1.4,2.9 4.6,4.3 5.5,13.2 2.1,21 -2.1,4.8 -4.5,7.6 -12.7,14.5 -10.8,9.2 -14.3,13.5 -16.4,20.6 -1,3.3 -1.1,4.6 -0.8,10.6 0.5,10.1 2.5,16.7 7.3,23.8 3.7,5.4 8,8.9 13.9,11.1 2.8,1.1 3.1,1.3 3.1,2.7 0,1.6 -1.2,2.7 -3.1,2.7 -0.5,0.1 -3.1,-0.7 -5.8,-1.7 l 0,0 z"
     inkscape:connector-curvature="0" /></svg>