<?xml version="1.0" encoding="UTF-8" standalone="no"?>
<svg
   xmlns:dc="http://purl.org/dc/elements/1.1/"
   xmlns:cc="http://creativecommons.org/ns#"
   xmlns:rdf="http://www.w3.org/1999/02/22-rdf-syntax-ns#"
   xmlns:svg="http://www.w3.org/2000/svg"
   xmlns="http://www.w3.org/2000/svg"
   version="1.1"
   id="svg2"
   viewBox="0 0 218.68013 229.25809"
   height="64.701729mm"
   width="61.716393mm">
  <defs
     id="defs4" />
  <metadata
     id="metadata7">
    <rdf:RDF>
      <cc:Work
         rdf:about="">
        <dc:format>image/svg+xml</dc:format>
        <dc:type
           rdf:resource="http://purl.org/dc/dcmitype/StillImage" />
        <dc:title></dc:title>
      </cc:Work>
    </rdf:RDF>
  </metadata>
  <g
     transform="translate(-272.46031,-381.19515)"
     id="layer1">
    <path
       id="path4241"
       d="m 304.18667,608.77387 c -16.48075,-4.30291 -28.49947,-17.6792 -31.13881,-34.65606 -2.5,-16.08066 2.6958,-27.60945 21.0383,-46.6812 6.2417,-6.48986 15.82401,-15.69742 21.29401,-20.46124 l 9.94546,-8.6615 -11.29402,-5.97419 c -21.95795,-11.61507 -29.75483,-18.04432 -34.52889,-28.47223 -2.19535,-4.79528 -2.4497,-6.47986 -2.05647,-13.62001 0.36922,-6.70404 1.09647,-9.54004 4.10393,-16.00385 11.28097,-24.24576 35.56838,-43.90679 63.27188,-51.21957 9.22575,-2.43528 27.36249,-2.43903 36.41554,-0.008 28.55761,7.67011 79.22325,45.62558 100.22613,75.08304 6.66078,9.34204 8.83725,14.62092 9.48282,23 1.22192,15.85957 -2.96275,23.80715 -23.18206,44.02765 -26.61857,26.62013 -61.62482,51.88694 -94.94625,68.53029 -30.12505,15.04684 -51.15613,19.67902 -68.63157,15.1164 z M 398.7376,470.73103 c 13.3598,-5.96903 19.92854,-20.41764 14.4384,-31.75874 -2.51525,-5.19582 -12.81084,-15.0148 -20.0806,-19.151 -12.43676,-7.07604 -22.98959,-7.7088 -34.6686,-2.07877 -23.96688,11.55355 -15.26224,44.71097 14.3108,54.51221 6.11716,2.02738 19.85382,1.22236 26,-1.5237 z m -12.5,-14.98718 c -3.58454,-2.07842 -5.87752,-2.62439 -11.27131,-2.6838 -8.43582,-0.0929 -10.2713,-1.55195 -10.13145,-8.0536 0.14925,-6.93914 2.81586,-9.83217 9.41534,-10.21478 4.32731,-0.25087 6.49716,0.27655 11.72412,2.84977 10.06769,4.95631 13.04008,12.00583 7.5133,17.81908 l -2.75,2.89254 -4.5,-2.60921 z"
       style="fill:#000000" />
    <path
       id="path4243"
       d="m 365.20927,447.70603 c 0,0 1.06296,8.54257 11.84346,11.8131 10.8842,1.88303 13.62549,-1.53716 13.62549,-1.53716"
       style="fill:none;fill-rule:evenodd;stroke:#000000;stroke-width:0.60000002;stroke-linecap:butt;stroke-linejoin:round;stroke-miterlimit:4;stroke-dasharray:none;stroke-opacity:1" />
  </g>
</svg>
