<svg id="Layer_1" xmlns:rdf="http://www.w3.org/1999/02/22-rdf-syntax-ns#" xmlns="http://www.w3.org/2000/svg" enable-background="new 0 0 100 100" xml:space="preserve" height="100" viewBox="0 0 91.300003 100" width="91.3" version="1.1" y="0px" x="0px" xmlns:cc="http://creativecommons.org/ns#" xmlns:dc="http://purl.org/dc/elements/1.1/"><metadata id="metadata11"><rdf:RDF><cc:Work rdf:about=""><dc:format>image/svg+xml</dc:format><dc:type rdf:resource="http://purl.org/dc/dcmitype/StillImage"/><dc:title/></cc:Work></rdf:RDF></metadata>
<path id="path3" fill="#000" d="M88.172,69.623c-2.523-5.838-5.664-13.104-5.664-26.07,0-23.862-16.676-43.274-37.171-43.274s-37.17,19.413-37.17,43.274c0,16.334-3.563,25.502-5.921,31.568-1.254,3.229-2.246,5.781-2.246,8.16,0,0.604,0.177,1.022,0.54,1.283,0.359,0.258,0.926,0.389,1.685,0.389,1.905,0,4.729-0.815,7.46-1.604,2.784-0.806,5.663-1.638,7.684-1.638,0.226,0,0.441,0.011,0.641,0.029,4.319,0.443,5.987,3.385,7.46,5.979,1.026,1.808,1.995,3.517,3.728,4.366,0.531,0.262,1.157,0.39,1.913,0.39,2.435,0,5.67-1.349,8.8-2.651,3.13-1.304,6.086-2.535,8.364-2.535,3.259,0,6.33,1.912,9.298,3.764,2.434,1.518,4.733,2.947,6.693,2.947,0.454,0,0.869-0.074,1.268-0.229,3.508-1.359,4.442-3.081,5.436-4.904,0.783-1.438,1.592-2.925,3.68-4.131,1.914-1.105,4.825-1.197,7.404-1.197,0.419,0,0.838,0.004,1.253,0.006,0.409,0.002,0.815,0.006,1.217,0.006,4.392,0,6.772-0.438,6.772-2.739-0.003-3.974-1.45-7.316-3.124-11.189zm-38.149-27.686c-3.554,0-6.8-2.584-8.079-6.43-0.066-0.201-0.255-0.336-0.466-0.336s-0.399,0.136-0.465,0.336c-1.278,3.846-4.525,6.43-8.08,6.43-4.771,0-8.652-4.494-8.652-10.016s3.881-10.015,8.652-10.015c3.556,0,6.802,2.581,8.08,6.42,0.066,0.201,0.254,0.336,0.465,0.336s0.399-0.135,0.466-0.336c1.277-3.84,4.523-6.42,8.079-6.42,4.771,0,8.651,4.493,8.651,10.015s-3.881,10.016-8.651,10.016z"/>
<path id="path2389" fill="#000" d="m51.814,33.728c0,2.196-1.772,3.976-3.959,3.976-2.188,0-3.96-1.78-3.96-3.976,0-2.195,1.772-3.975,3.96-3.975,2.187,0,3.959,1.78,3.959,3.975z"/>
<path id="path2396" fill="#000" d="m39.25,33.728c0,2.196-1.772,3.976-3.96,3.976-2.186,0-3.959-1.78-3.959-3.976,0-2.195,1.773-3.975,3.959-3.975,2.187,0,3.96,1.78,3.96,3.975z"/>
</svg>
