<?xml version="1.0" encoding="UTF-8" standalone="no"?>
<!-- Created with Inkscape (http://www.inkscape.org/) -->

<svg
   xmlns:dc="http://purl.org/dc/elements/1.1/"
   xmlns:cc="http://creativecommons.org/ns#"
   xmlns:rdf="http://www.w3.org/1999/02/22-rdf-syntax-ns#"
   xmlns:svg="http://www.w3.org/2000/svg"
   xmlns="http://www.w3.org/2000/svg"
   version="1.1"
   width="497.19171"
   height="497.1969"
   id="svg2">
  <defs
     id="defs4" />
  <metadata
     id="metadata7">
    <rdf:RDF>
      <cc:Work
         rdf:about="">
        <dc:format>image/svg+xml</dc:format>
        <dc:type
           rdf:resource="http://purl.org/dc/dcmitype/StillImage" />
        <dc:title></dc:title>
      </cc:Work>
    </rdf:RDF>
  </metadata>
  <g
     transform="translate(-911.58384,234.65935)"
     id="layer1">
    <g
       transform="translate(265.71429,-402.85714)"
       id="g3050">
      <path
         d="m 357.17268,884.52021 c 0.35583,-0.0927 0.84955,-0.0866 1.09715,0.0135 0.2476,0.10017 -0.0435,0.17602 -0.64696,0.16859 -0.60343,-0.007 -0.80602,-0.0894 -0.45019,-0.18216 z m 6.21713,0 c 0.35584,-0.0927 0.84956,-0.0866 1.09715,0.0135 0.24762,0.10017 -0.0435,0.17602 -0.64695,0.16859 -0.60343,-0.007 -0.806,-0.0894 -0.4502,-0.18216 z m 26.23306,-10.49037 c 0,-0.0759 0.288,-0.36392 0.64,-0.64 0.58006,-0.45488 0.59297,-0.44197 0.13809,0.13809 -0.47777,0.60917 -0.77809,0.80293 -0.77809,0.50191 z M 356.61715,738.61143 c 0.25143,-0.10145 0.66286,-0.10145 0.91429,0 0.25143,0.10145 0.0457,0.18447 -0.45715,0.18447 -0.50285,0 -0.70857,-0.083 -0.45714,-0.18447 z m 8.96695,-0.0113 c 0.35584,-0.0927 0.84955,-0.0866 1.09714,0.0135 0.24763,0.10017 -0.0435,0.17602 -0.64695,0.1686 -0.60342,-0.007 -0.80599,-0.0894 -0.45019,-0.18216 z m -38.54503,-12.45502 c -0.4549,-0.58006 -0.44196,-0.59297 0.13808,-0.13809 0.60919,0.47777 0.80292,0.77809 0.50192,0.77809 -0.0759,0 -0.36394,-0.288 -0.64,-0.64 z m 69.89808,-1.00571 c 0.4724,-0.50286 0.94121,-0.91429 1.04178,-0.91429 0.10057,0 -0.20367,0.41143 -0.67606,0.91429 -0.4724,0.50285 -0.94121,0.91428 -1.04178,0.91428 -0.10057,0 0.20367,-0.41143 0.67606,-0.91428 z m 3.47429,-3.47429 c 0.36407,-0.40228 0.74423,-0.73143 0.8448,-0.73143 0.10057,0 -0.11502,0.32915 -0.47909,0.73143 -0.36407,0.40229 -0.74423,0.73143 -0.8448,0.73143 -0.10057,0 0.11502,-0.32914 0.47909,-0.73143 z m -79.2238,-1.37143 c -0.4549,-0.58006 -0.44196,-0.59297 0.13808,-0.13809 0.60919,0.47777 0.80292,0.77809 0.50192,0.77809 -0.0759,0 -0.36394,-0.288 -0.64,-0.64 z m 92.60123,-27.00189 c 0.0176,-0.42606 0.10422,-0.5127 0.22096,-0.22097 0.10565,0.26401 0.0927,0.57944 -0.0289,0.70097 -0.12153,0.12153 -0.20798,-0.0945 -0.19211,-0.48 z m -104.95999,-1.82857 c 0.0176,-0.42606 0.10421,-0.5127 0.22095,-0.22097 0.10564,0.26401 0.0926,0.57944 -0.0288,0.70097 -0.12153,0.12152 -0.20796,-0.0945 -0.19208,-0.48 z m 105.35459,-1.61525 c 0,-0.50286 0.083,-0.70857 0.18447,-0.45715 0.10145,0.25143 0.10145,0.66286 0,0.91429 -0.10145,0.25143 -0.18447,0.0457 -0.18447,-0.45714 z m 0.0135,-7.86286 c 0.007,-0.60343 0.0894,-0.806 0.18216,-0.45019 0.0927,0.35584 0.0866,0.84955 -0.0135,1.09714 -0.10017,0.24762 -0.17601,-0.0435 -0.16859,-0.64695 z m -105.36812,-1.49332 c 0.0176,-0.42606 0.10421,-0.5127 0.22095,-0.22097 0.10564,0.26401 0.0926,0.57944 -0.0288,0.70097 -0.12153,0.12153 -0.20796,-0.0945 -0.19208,-0.48 z m 11.67399,-28.08477 c 0,-0.0759 0.288,-0.36393 0.64,-0.64 0.58004,-0.45488 0.59298,-0.44197 0.13807,0.13809 -0.47775,0.60917 -0.77807,0.80293 -0.77807,0.50191 z m 80.41047,-1.59905 c -0.45487,-0.58006 -0.44196,-0.59297 0.1381,-0.1381 0.60917,0.47777 0.80292,0.7781 0.50191,0.7781 -0.0759,0 -0.36393,-0.288 -0.64001,-0.64 z m -4.5595,-4.57143 -0.69669,-0.82286 0.82286,0.69669 c 0.77327,0.6547 0.98933,0.94902 0.69669,0.94902 -0.0694,0 -0.4397,-0.37028 -0.82286,-0.82285 z m -69.26812,-0.41238 c 0,-0.0759 0.288,-0.36392 0.64,-0.64 0.58005,-0.45488 0.59298,-0.44197 0.13808,0.13809 -0.47776,0.60917 -0.77808,0.80293 -0.77808,0.50191 z m 177.09715,-51.33071 c 0.95543,-0.0753 2.51886,-0.0753 3.47429,0 0.95542,0.0753 0.17371,0.13696 -1.73715,0.13696 -1.91085,0 -2.69257,-0.0616 -1.73714,-0.13696 z m -5.28,-0.34673 c 0.26401,-0.10566 0.57944,-0.0927 0.70096,0.0289 0.12153,0.12153 -0.0945,0.20798 -0.48,0.19211 -0.42605,-0.0176 -0.51269,-0.10423 -0.22096,-0.22097 z m 13.16571,0 c 0.26401,-0.10566 0.57944,-0.0927 0.70097,0.0289 0.12153,0.12153 -0.0945,0.20798 -0.48,0.19211 -0.42606,-0.0176 -0.5127,-0.10423 -0.22097,-0.22097 z m 29.32572,-13.46447 c 0.47239,-0.50286 0.9412,-0.91429 1.04177,-0.91429 0.10057,0 -0.20366,0.41143 -0.67606,0.91429 -0.47239,0.50286 -0.9412,0.91429 -1.04177,0.91429 -0.10057,0 0.20367,-0.41143 0.67606,-0.91429 z m -73.36046,-1.73714 -0.69669,-0.82286 0.82286,0.69669 c 0.77327,0.6547 0.98933,0.94902 0.69669,0.94902 -0.0694,0 -0.4397,-0.37028 -0.82286,-0.82285 z m 76.65189,-1.55429 c 0.47239,-0.50286 0.9412,-0.91428 1.04177,-0.91428 0.10057,0 -0.20366,0.41142 -0.67606,0.91428 -0.47239,0.50286 -0.9412,0.91429 -1.04177,0.91429 -0.10057,0 0.20366,-0.41143 0.67606,-0.91429 z m -79.77238,-1.92 c -0.45488,-0.58006 -0.44197,-0.59297 0.13809,-0.13809 0.352,0.27608 0.64,0.56408 0.64,0.64 0,0.30102 -0.30032,0.10726 -0.77809,-0.50191 z M 694.9943,568.6584 c 0,-0.0759 0.288,-0.36392 0.64,-0.64 0.58006,-0.45487 0.59297,-0.44196 0.1381,0.1381 -0.47777,0.60917 -0.7781,0.80292 -0.7781,0.5019 z M 23.496209,565.96221 c -0.454901,-0.58006 -0.441966,-0.59297 0.138077,-0.13809 0.609188,0.47777 0.802918,0.77809 0.501923,0.77809 -0.07594,0 -0.363943,-0.288 -0.64,-0.64 z M 558.24601,547.37175 c 0.0176,-0.42606 0.10423,-0.5127 0.22097,-0.22097 0.10565,0.26401 0.0927,0.57944 -0.0289,0.70097 -0.12152,0.12152 -0.20798,-0.0945 -0.1921,-0.48 z m -105.28329,-1.79811 c 0.007,-0.60343 0.0894,-0.806 0.18216,-0.4502 0.0927,0.35584 0.0866,0.84956 -0.0135,1.09715 -0.10017,0.24762 -0.17602,-0.0435 -0.1686,-0.64695 z m 105.705,-3.84 c 0,-0.704 0.0753,-0.992 0.16724,-0.64 0.092,0.352 0.092,0.928 0,1.28 -0.092,0.352 -0.16724,0.064 -0.16724,-0.64 z m 147.735,0.18286 c 0.007,-0.60343 0.0894,-0.806 0.18217,-0.4502 0.0927,0.35584 0.0866,0.84956 -0.0135,1.09714 -0.10017,0.24763 -0.17602,-0.0435 -0.1686,-0.64694 z M 13.374153,540.81935 c 0.0075,-0.60343 0.08942,-0.806 0.182141,-0.45019 0.09272,0.35584 0.08663,0.84955 -0.01355,1.09714 -0.100177,0.24763 -0.176043,-0.0435 -0.168589,-0.64695 z M 452.94919,538.0765 c 0,-0.50286 0.083,-0.70858 0.18446,-0.45715 0.10145,0.25143 0.10145,0.66286 0,0.91429 -0.10145,0.25143 -0.18446,0.0457 -0.18446,-0.45714 z m 105.29682,-2.04191 c 0.0176,-0.42604 0.10423,-0.51269 0.22097,-0.22095 0.10565,0.264 0.0927,0.57943 -0.0289,0.70095 -0.12152,0.12152 -0.20798,-0.0945 -0.1921,-0.48 z m 148.15671,-0.33524 c 0.007,-0.60343 0.0894,-0.80601 0.18217,-0.45018 0.0927,0.35583 0.0866,0.84954 -0.0135,1.09714 -0.10017,0.2476 -0.17602,-0.0435 -0.1686,-0.64696 z M 13.360602,534.05364 c 0,-0.50286 0.08301,-0.70857 0.184461,-0.45715 0.101454,0.25143 0.101454,0.66286 0,0.91429 -0.101454,0.25143 -0.184461,0.0457 -0.184461,-0.45714 z M 456.57744,521.77173 c 0.0175,-0.42603 0.10423,-0.51269 0.22096,-0.22095 0.10566,0.264 0.0927,0.57943 -0.0289,0.70095 -0.12153,0.12153 -0.20798,-0.0945 -0.19211,-0.48 z m 239.10163,-12.12952 c -0.45488,-0.58005 -0.44197,-0.59298 0.13809,-0.13808 0.352,0.27606 0.64,0.56406 0.64,0.64 0,0.301 -0.30032,0.10727 -0.77809,-0.50192 z M 23.542858,508.68127 c 0,-0.0759 0.288,-0.36394 0.64,-0.64 0.580043,-0.4549 0.592978,-0.44196 0.138077,0.13808 -0.477758,0.60919 -0.778077,0.80292 -0.778077,0.50192 z m 521.115182,-2.6962 -0.8866,-1.00572 1.00572,0.88661 c 0.93999,0.82866 1.17343,1.12482 0.8866,1.12482 -0.0655,0 -0.51807,-0.45257 -1.00572,-1.00571 z m -3.65714,-3.65715 -0.8866,-1.00571 1.00571,0.8866 c 0.55315,0.48764 1.00572,0.94021 1.00572,1.00572 0,0.28682 -0.29616,0.0534 -1.12483,-0.88661 z m -71.47081,-29.44 -18.65008,-18.74286 18.74286,18.65009 c 17.42179,17.33556 18.9071,18.83563 18.65007,18.83563 -0.051,0 -8.4853,-8.43429 -18.74285,-18.74286 z m 29.73849,16.29875 c 0.26401,-0.10564 0.57944,-0.0926 0.70097,0.0289 0.12153,0.12152 -0.0945,0.20796 -0.48,0.19208 -0.42606,-0.0176 -0.5127,-0.10421 -0.22097,-0.22095 z m 12.8,0 c 0.26401,-0.10564 0.57944,-0.0926 0.70097,0.0289 0.12153,0.12152 -0.0945,0.20796 -0.48,0.19208 -0.42606,-0.0176 -0.5127,-0.10421 -0.22097,-0.22095 z m -7.52,-0.3823 c 0.75429,-0.0789 1.98858,-0.0789 2.74286,0 0.75429,0.0789 0.13714,0.14345 -1.37143,0.14345 -1.50857,0 -2.12571,-0.0645 -1.37143,-0.14345 z M 320.82193,431.37935 c -0.4549,-0.58005 -0.44197,-0.59298 0.13808,-0.13808 0.60919,0.47776 0.80292,0.77808 0.50192,0.77808 -0.0759,0 -0.36394,-0.288 -0.64,-0.64 z m 90.88068,-16.35365 c -0.11322,-0.29508 -0.13531,-0.74765 -0.049,-1.00571 0.0863,-0.25807 0.24353,-0.0166 0.34951,0.5365 0.20689,1.08004 0.0362,1.34658 -0.30047,0.46921 z m 2.08626,-10.64825 c 0.0176,-0.42604 0.10422,-0.5127 0.22096,-0.22096 0.10565,0.264 0.0927,0.57943 -0.0289,0.70096 -0.12153,0.12152 -0.20798,-0.0945 -0.19211,-0.48 z m -104.95999,-1.46286 c 0.0176,-0.42604 0.10421,-0.5127 0.22095,-0.22096 0.10564,0.264 0.0926,0.57943 -0.0288,0.70096 -0.12153,0.12152 -0.20796,-0.0945 -0.19208,-0.48 z m 105.38169,-2.34667 c 0,-0.704 0.0753,-0.992 0.16724,-0.64 0.092,0.352 0.092,0.928 0,1.28 -0.092,0.352 -0.16724,0.064 -0.16724,-0.64 z m -0.0135,-6.4 c 0.007,-0.60343 0.0894,-0.80601 0.18216,-0.45018 0.0927,0.35583 0.0866,0.84954 -0.0135,1.09714 -0.10017,0.2476 -0.17602,-0.0435 -0.16859,-0.64696 z m -105.33929,-2.01143 c 0,-0.50286 0.083,-0.70857 0.18446,-0.45714 0.10146,0.25143 0.10146,0.66286 0,0.91428 -0.10145,0.25143 -0.18446,0.0457 -0.18446,-0.45714 z m 91.70886,-30.26286 -0.8866,-1.00571 1.00571,0.8866 c 0.55315,0.48764 1.00572,0.94021 1.00572,1.00572 0,0.28682 -0.29616,0.0534 -1.12483,-0.88661 z m -3.84706,-3.84 -0.69668,-0.82285 0.82285,0.69668 c 0.77327,0.65471 0.98933,0.94903 0.69669,0.94903 -0.0694,0 -0.4397,-0.37029 -0.82286,-0.82286 z m -92.12589,-50.46857 -39.49651,-39.58857 39.58857,39.49651 c 21.77372,21.72308 39.58857,39.53793 39.58857,39.58857 0,0.0506 -0.0414,0.0921 -0.0921,0.0921 -0.0506,0 -17.86549,-17.81485 -39.58857,-39.58857 z m 52.38921,37.15208 c 0.25142,-0.10145 0.66285,-0.10145 0.91428,0 0.25143,0.10145 0.0457,0.18446 -0.45714,0.18446 -0.50286,0 -0.70857,-0.083 -0.45714,-0.18446 z m 8.41142,0 c 0.25143,-0.10145 0.66286,-0.10145 0.91429,0 0.25143,0.10145 0.0457,0.18446 -0.45714,0.18446 -0.50286,0 -0.70857,-0.083 -0.45715,-0.18446 z M 329.28001,202.94412 c 0,-0.0759 0.288,-0.36394 0.64,-0.64 0.58004,-0.4549 0.59298,-0.44196 0.13808,0.13808 -0.47776,0.60919 -0.77808,0.80292 -0.77808,0.50192 z m 58.83333,-0.86763 c -0.45487,-0.58005 -0.44196,-0.59298 0.1381,-0.13808 0.60917,0.47776 0.80292,0.77808 0.5019,0.77808 -0.0759,0 -0.36392,-0.288 -0.64,-0.64 z m -32.40351,-10.58487 c 0.35582,-0.0927 0.84954,-0.0866 1.09714,0.0135 0.2476,0.10018 -0.0435,0.17604 -0.64696,0.16859 -0.60343,-0.007 -0.80601,-0.0894 -0.45018,-0.18214 z m 6.21713,0 c 0.35584,-0.0927 0.84955,-0.0866 1.09714,0.0135 0.24763,0.10018 -0.0435,0.17604 -0.64695,0.16859 -0.60343,-0.007 -0.806,-0.0894 -0.45019,-0.18214 z"
         id="path3062"
         style="fill:#d2d2d2" />
      <path
         d="m 889.10544,665.00815 c -4.02149,-0.72657 -8.17012,-2.4388 -12.01134,-4.95731 -1.59564,-1.04619 -23.105,-22.41317 -112.42211,-111.67778 -60.74692,-60.71123 -111.14714,-111.24434 -112.00048,-112.29577 -3.1083,-3.82988 -5.284,-8.47658 -6.31119,-13.47893 -0.48934,-2.38304 -0.55101,-3.37662 -0.44907,-7.2349 0.10006,-3.78647 0.22685,-4.87604 0.82662,-7.10337 0.83956,-3.11775 2.74166,-7.22748 4.65664,-10.06119 1.0899,-1.6128 17.19174,-17.86362 76.77089,-77.48123 41.46546,-41.49221 75.51123,-75.44038 75.65728,-75.44038 0.14604,0 12.79785,12.53275 28.11514,27.85055 l 27.84962,27.85054 -0.70521,2.04314 c -2.76174,8.00152 -2.79998,16.89464 -0.10743,24.99067 1.0595,3.18571 3.56958,7.96814 5.60682,10.68261 3.44518,4.59045 8.72555,9.01394 13.76215,11.52889 l 2.17046,1.0838 0,68.12019 0,68.1202 -2.85404,1.48291 c -3.73731,1.94178 -6.68357,4.18314 -9.93179,7.55555 -11.15994,11.58664 -13.93037,28.52473 -7.04695,43.08417 2.13834,4.5229 4.60309,7.92091 8.32575,11.47817 5.31323,5.07721 11.73055,8.43557 19.13658,10.01467 3.2057,0.68354 11.82297,0.67366 14.99603,-0.0171 15.6212,-3.40099 26.9405,-14.73561 30.37777,-30.41882 0.68054,-3.10507 0.82679,-9.80189 0.28891,-13.2236 -1.85334,-11.78898 -8.71055,-21.85643 -18.89352,-27.73867 l -2.03894,-1.1778 0,-66.93278 c 0,-36.81308 0.089,-66.93283 0.19783,-66.93283 0.10877,0 11.49699,11.29961 25.30701,25.11024 l 25.10927,25.11024 -0.71623,2.05733 c -1.93165,5.54923 -2.525,12.85285 -1.52083,18.72199 4.41863,25.82516 32.17677,39.91202 55.54252,28.187 10.6926,-5.36557 18.1869,-15.36495 20.5623,-27.43549 0.7428,-3.77452 0.7952,-9.85601 0.1173,-13.60894 -2.906,-16.08743 -15.1091,-28.34718 -31.3346,-31.48013 -3.2632,-0.63008 -10.17049,-0.62826 -13.41749,0.004 -1.30231,0.25338 -3.11162,0.68075 -4.02084,0.94971 l -1.65302,0.489 -27.40257,-27.29834 -27.40249,-27.29834 0.69873,-2.86802 c 1.05455,-4.32863 1.33503,-7.09847 1.1562,-11.41837 -0.27186,-6.56464 -1.99269,-12.43086 -5.27537,-17.98332 -5.92747,-10.02593 -16.29475,-16.92425 -27.9182,-18.57671 -4.54118,-0.64559 -11.90161,-0.10648 -16.04271,1.17506 l -1.30977,0.40533 -28.41913,-28.4211 -28.41912,-28.4211 23.41479,-23.37852 c 16.46757,-16.44205 24.00025,-23.78619 25.38797,-24.75249 4.03153,-2.80728 9.16108,-4.89247 13.64282,-5.5459 3.48316,-0.50783 9.57387,-0.2025 12.72163,0.63775 4.36959,1.16639 8.01814,2.9949 11.65173,5.83935 1.16777,0.91416 51.243,50.81627 112.48874,112.09979 87.321,87.37486 110.6435,110.84893 111.6259,112.35111 2.6188,4.00439 4.3005,8.14008 5.0444,12.4055 0.4944,2.83536 0.4935,8.29051 0,11.11483 -0.7589,4.32677 -2.7197,8.98973 -5.4078,12.85999 -1.9689,2.83477 -221.0463,221.91213 -223.88101,223.88102 -3.87027,2.6881 -8.53329,4.64895 -12.86003,5.40777 -2.76031,0.48411 -8.6659,0.46688 -11.43477,-0.0333 z"
         id="path3052"
         style="fill:#7b7b7b" />
    </g>
  </g>
</svg>
