<?xml version="1.0" encoding="UTF-8" standalone="no"?>
<!-- Created with Inkscape (http://www.inkscape.org/) -->

<svg
   xmlns:dc="http://purl.org/dc/elements/1.1/"
   xmlns:cc="http://creativecommons.org/ns#"
   xmlns:rdf="http://www.w3.org/1999/02/22-rdf-syntax-ns#"
   xmlns:svg="http://www.w3.org/2000/svg"
   xmlns="http://www.w3.org/2000/svg"
   version="1.1"
   width="497.19171"
   height="497.1969"
   id="svg2">
  <defs
     id="defs4" />
  <metadata
     id="metadata7">
    <rdf:RDF>
      <cc:Work
         rdf:about="">
        <dc:format>image/svg+xml</dc:format>
        <dc:type
           rdf:resource="http://purl.org/dc/dcmitype/StillImage" />
        <dc:title></dc:title>
      </cc:Work>
    </rdf:RDF>
  </metadata>
  <g
     transform="translate(-911.58384,234.65935)"
     id="layer1">
    <g
       transform="translate(265.71429,-402.85714)"
       id="g3050">
      <path
         d="m 889.10544,665.00815 c -4.02149,-0.72657 -8.17012,-2.4388 -12.01134,-4.95731 -1.59564,-1.04619 -23.105,-22.41317 -112.42211,-111.67778 -60.74692,-60.71123 -111.14714,-111.24434 -112.00048,-112.29577 -3.1083,-3.82988 -5.284,-8.47658 -6.31119,-13.47893 -0.48934,-2.38304 -0.55101,-3.37662 -0.44907,-7.2349 0.10006,-3.78647 0.22685,-4.87604 0.82662,-7.10337 0.83956,-3.11775 2.74166,-7.22748 4.65664,-10.06119 1.0899,-1.6128 17.19174,-17.86362 76.77089,-77.48123 41.46546,-41.49221 75.51123,-75.44038 75.65728,-75.44038 0.14604,0 12.79785,12.53275 28.11514,27.85055 l 27.84962,27.85054 -0.70521,2.04314 c -2.76174,8.00152 -2.79998,16.89464 -0.10743,24.99067 1.0595,3.18571 3.56958,7.96814 5.60682,10.68261 3.44518,4.59045 8.72555,9.01394 13.76215,11.52889 l 2.17046,1.0838 0,68.12019 0,68.1202 -2.85404,1.48291 c -3.73731,1.94178 -6.68357,4.18314 -9.93179,7.55555 -11.15994,11.58664 -13.93037,28.52473 -7.04695,43.08417 2.13834,4.5229 4.60309,7.92091 8.32575,11.47817 5.31323,5.07721 11.73055,8.43557 19.13658,10.01467 3.2057,0.68354 11.82297,0.67366 14.99603,-0.0171 15.6212,-3.40099 26.9405,-14.73561 30.37777,-30.41882 0.68054,-3.10507 0.82679,-9.80189 0.28891,-13.2236 -1.85334,-11.78898 -8.71055,-21.85643 -18.89352,-27.73867 l -2.03894,-1.1778 0,-66.93278 c 0,-36.81308 0.089,-66.93283 0.19783,-66.93283 0.10877,0 11.49699,11.29961 25.30701,25.11024 l 25.10927,25.11024 -0.71623,2.05733 c -1.93165,5.54923 -2.525,12.85285 -1.52083,18.72199 4.41863,25.82516 32.17677,39.91202 55.54252,28.187 10.6926,-5.36557 18.1869,-15.36495 20.5623,-27.43549 0.7428,-3.77452 0.7952,-9.85601 0.1173,-13.60894 -2.906,-16.08743 -15.1091,-28.34718 -31.3346,-31.48013 -3.2632,-0.63008 -10.17049,-0.62826 -13.41749,0.004 -1.30231,0.25338 -3.11162,0.68075 -4.02084,0.94971 l -1.65302,0.489 -27.40257,-27.29834 -27.40249,-27.29834 0.69873,-2.86802 c 1.05455,-4.32863 1.33503,-7.09847 1.1562,-11.41837 -0.27186,-6.56464 -1.99269,-12.43086 -5.27537,-17.98332 -5.92747,-10.02593 -16.29475,-16.92425 -27.9182,-18.57671 -4.54118,-0.64559 -11.90161,-0.10648 -16.04271,1.17506 l -1.30977,0.40533 -28.41913,-28.4211 -28.41912,-28.4211 23.41479,-23.37852 c 16.46757,-16.44205 24.00025,-23.78619 25.38797,-24.75249 4.03153,-2.80728 9.16108,-4.89247 13.64282,-5.5459 3.48316,-0.50783 9.57387,-0.2025 12.72163,0.63775 4.36959,1.16639 8.01814,2.9949 11.65173,5.83935 1.16777,0.91416 51.243,50.81627 112.48874,112.09979 87.321,87.37486 110.6435,110.84893 111.6259,112.35111 2.6188,4.00439 4.3005,8.14008 5.0444,12.4055 0.4944,2.83536 0.4935,8.29051 0,11.11483 -0.7589,4.32677 -2.7197,8.98973 -5.4078,12.85999 -1.9689,2.83477 -221.0463,221.91213 -223.88101,223.88102 -3.87027,2.6881 -8.53329,4.64895 -12.86003,5.40777 -2.76031,0.48411 -8.6659,0.46688 -11.43477,-0.0333 z"
         id="path3052"
         style="fill:#7b7b7b" />
    </g>
  </g>
</svg>
