<?xml version="1.0" encoding="UTF-8" standalone="no"?>
<!-- Generator: Adobe Illustrator 18.1.0, SVG Export Plug-In . SVG Version: 6.00 Build 0)  -->

<svg
   xmlns:dc="http://purl.org/dc/elements/1.1/"
   xmlns:cc="http://creativecommons.org/ns#"
   xmlns:rdf="http://www.w3.org/1999/02/22-rdf-syntax-ns#"
   xmlns:svg="http://www.w3.org/2000/svg"
   xmlns="http://www.w3.org/2000/svg"
   xmlns:sodipodi="http://sodipodi.sourceforge.net/DTD/sodipodi-0.dtd"
   xmlns:inkscape="http://www.inkscape.org/namespaces/inkscape"
   version="1.1"
   id="レイヤー_1"
   x="0px"
   y="0px"
   viewBox="0 0 397.00132 536.75916"
   enable-background="new 0 0 397.8 535.6"
   xml:space="preserve"
   inkscape:version="0.48.4 r9939"
   width="100%"
   height="100%"
   sodipodi:docname="go-alt.svg"><metadata
     id="metadata4273"><rdf:RDF><cc:Work
         rdf:about=""><dc:format>image/svg+xml</dc:format><dc:type
           rdf:resource="http://purl.org/dc/dcmitype/StillImage" /></cc:Work></rdf:RDF></metadata><defs
     id="defs4271" /><sodipodi:namedview
     pagecolor="#ffffff"
     bordercolor="#666666"
     borderopacity="1"
     objecttolerance="10"
     gridtolerance="10"
     guidetolerance="10"
     inkscape:pageopacity="0"
     inkscape:pageshadow="2"
     inkscape:window-width="1184"
     inkscape:window-height="1087"
     id="namedview4269"
     showgrid="false"
     fit-margin-top="0"
     fit-margin-left="0"
     fit-margin-right="0"
     fit-margin-bottom="0"
     inkscape:zoom="1.2462823"
     inkscape:cx="210.66957"
     inkscape:cy="247.03596"
     inkscape:window-x="450"
     inkscape:window-y="122"
     inkscape:window-maximized="0"
     inkscape:current-layer="レイヤー_1" /><path
     style="font-size:medium;font-style:normal;font-variant:normal;font-weight:normal;font-stretch:normal;text-indent:0;text-align:start;text-decoration:none;line-height:normal;letter-spacing:normal;word-spacing:normal;text-transform:none;direction:ltr;block-progression:tb;writing-mode:lr-tb;text-anchor:start;baseline-shift:baseline;color:#000000;fill:#040000;fill-opacity:1;stroke:none;stroke-width:8.91699982;marker:none;visibility:visible;display:inline;overflow:visible;enable-background:accumulate;font-family:Sans;-inkscape-font-specification:Sans"
     d="M 133.65625,16.40625 133.5,16.4375 c -33.504379,3.492589 -64.361303,31.56565 -64.9375,66.65625 -2.98e-4,0.01035 2.95e-4,0.0209 0,0.03125 -0.437594,15.366384 2.539199,31.44935 10.59375,45 l 0.3125,0.5 0.40625,0.40625 c 13.341869,13.01777 33.10213,10.89429 47.90625,8.78125 l 0.0625,0 0.0312,-0.0312 c 28.61283,-4.88489 57.87905,-22.14475 68.03125,-51.375 0.008,-0.02214 0.0236,-0.04035 0.0312,-0.0625 0.003,-0.0092 -0.003,-0.02203 0,-0.03125 6.11553,-16.633758 5.14946,-38.29641 -10.0625,-50.90625 -0.0815,-0.06755 -0.13643,-0.151717 -0.21875,-0.21875 l -0.0312,0.03125 C 171.73332,22.378019 152.60722,15.603358 133.78125,16.40625 l -0.125,0 z m 0.75,8.90625 c 0.0104,-4e-4 0.0209,3.94e-4 0.0312,0 16.42689,-0.624123 33.38471,5.435274 45.34375,16.59375 l 0.125,0.125 L 180,42.125 c 11.59975,9.446114 12.73286,27.114766 7.53125,41.1875 l 0,0.0625 -0.0312,0.03125 c -8.70744,25.1943 -34.86049,41.06338 -61,45.5625 C 112.27829,130.99866 96.325118,132.06303 86.5625,123 79.834446,111.38767 77.071171,97.158357 77.46875,83.34375 l 0,-0.03125 0,-0.03125 c 0.474583,-29.844637 27.83584,-54.919494 56.9375,-57.96875 z"
     id="path4241"
     inkscape:connector-curvature="0" /><path
     style="font-size:medium;font-style:normal;font-variant:normal;font-weight:normal;font-stretch:normal;text-indent:0;text-align:start;text-decoration:none;line-height:normal;letter-spacing:normal;word-spacing:normal;text-transform:none;direction:ltr;block-progression:tb;writing-mode:lr-tb;text-anchor:start;baseline-shift:baseline;color:#000000;fill:#040000;fill-opacity:1;stroke:none;stroke-width:8.91699982;marker:none;visibility:visible;display:inline;overflow:visible;enable-background:accumulate;font-family:Sans;-inkscape-font-specification:Sans"
     d="m 269.15625,259.09375 -0.28125,0.0312 -0.3125,0.0312 c -7.78706,1.48164 -13.36793,6.66587 -17,12.5625 -3.58896,5.82663 -5.55411,12.45343 -6.75,18.3125 -0.0144,0.0704 -0.0484,0.1486 -0.0625,0.21875 l 0.0312,0 c -1.08982,4.36093 -1.2184,9.31551 0.3125,14 1.52476,4.66571 5.20308,9.14232 10.84375,10.65625 l 0.1875,0.65625 c 1.69793,6.43565 6.9448,10.5381 12.4375,12.34375 5.4927,1.80565 11.45943,1.74847 16.625,0.0312 l 0.34375,-0.125 0.3125,-0.15625 c 5.32045,-2.77879 8.30332,-7.59596 10.1875,-12.21875 1.88418,-4.62279 2.92264,-9.29995 4.1875,-12.875 l 0.0312,-0.15625 0.0625,-0.1875 c 1.84243,-6.90379 2.06783,-14.65188 0,-21.84375 -2.04861,-7.12501 -6.60672,-13.77511 -14,-17.4375 l 0,-0.0312 c -0.041,-0.022 -0.0839,-0.0406 -0.125,-0.0625 -0.0206,-0.0109 -0.0419,-0.0204 -0.0625,-0.0312 -5.18712,-2.74242 -11.09642,-4.03625 -16.96875,-3.71875 z m 0.8125,8.9375 c 4.19505,-0.16934 8.46051,0.75041 12.125,2.71875 l 0.0625,0.0625 0.0937,0.0312 c 4.98245,2.41238 7.9333,6.65975 9.46875,12 1.53545,5.34025 1.41406,11.67804 -0.0312,17.09375 -1.46518,4.22822 -2.46168,8.61204 -3.90625,12.15625 -1.42127,3.48705 -3.09665,5.93216 -5.71875,7.4375 -3.0935,0.94853 -7.33801,1.01762 -10.71875,-0.0937 -3.1064,-1.02119 -5.21178,-2.72513 -6.21875,-5.25 0.11585,-0.66427 0.18342,-1.35441 0.0625,-2.125 -0.25251,-1.60912 -1.36956,-3.11888 -2.375,-3.875 -2.01089,-1.51223 -3.39265,-1.50049 -4.25,-1.75 l -0.0937,-0.0312 -0.0937,-0.0312 c -2.68306,-0.65314 -3.93445,-2.18819 -4.8125,-4.875 -0.87805,-2.68681 -0.86253,-6.39354 -0.125,-9.25 l 0.0312,-0.0937 0.0312,-0.125 c 1.06486,-5.28192 2.88542,-11.12659 5.65625,-15.625 2.71377,-4.40577 6.06598,-7.37611 10.8125,-8.375 z"
     id="path4243"
     inkscape:connector-curvature="0" /><path
     style="font-size:medium;font-style:normal;font-variant:normal;font-weight:normal;font-stretch:normal;text-indent:0;text-align:start;text-decoration:none;line-height:normal;letter-spacing:normal;word-spacing:normal;text-transform:none;direction:ltr;block-progression:tb;writing-mode:lr-tb;text-anchor:start;baseline-shift:baseline;color:#000000;fill:#040000;fill-opacity:1;stroke:none;stroke-width:8.91699982;marker:none;visibility:visible;display:inline;overflow:visible;enable-background:accumulate;font-family:Sans;-inkscape-font-specification:Sans"
     d="m 55.90625,462.53125 a 4.4589458,4.4589458 0 0 0 -0.4375,0.0312 c -7.675898,0.70047 -13.826004,6.07193 -16.9375,12.59375 -3.111496,6.52182 -2.9333,15.23581 3.34375,20.9375 a 4.4589458,4.4589458 0 0 0 0.90625,0.625 c 15.193761,8.11829 32.926173,5.77492 47.65625,1.9375 l 0,-0.0312 c 3.590263,-0.88828 6.513669,-3.00231 8.5,-6.28125 1.002211,-1.6544 1.7596,-3.86465 1.1875,-6.34375 -0.565573,-2.45083 -2.500717,-4.47027 -4.75,-5.59375 -0.02595,-0.013 -0.03647,-0.0498 -0.0625,-0.0625 l 0,0.0312 C 84.665738,474.89275 73.84595,471.26255 64.59375,465.4375 a 4.4589458,4.4589458 0 0 0 -0.75,-0.375 c -1.328241,-0.5162 -3.829939,-2.51776 -7.9375,-2.53125 z m 0.125,8.96875 c 0.466214,0.0525 1.870551,0.82566 4.46875,1.84375 0.05299,0.0208 0.03982,0.0103 0.09375,0.0312 10.09078,6.20573 20.746185,9.8772 30.25,14.71875 -0.714305,0.74032 -2.059623,1.78539 -2.5625,1.90625 a 4.4589458,4.4589458 0 0 0 -0.09375,0.0312 c -13.617372,3.54754 -28.751183,5.12635 -40.59375,-0.875 -2.807907,-2.81499 -2.827633,-6.32546 -1,-10.15625 1.857987,-3.89442 5.793962,-7.04425 9.4375,-7.5 z"
     id="path4245"
     inkscape:connector-curvature="0" /><path
     style="font-size:medium;font-style:normal;font-variant:normal;font-weight:normal;font-stretch:normal;text-indent:0;text-align:start;text-decoration:none;line-height:normal;letter-spacing:normal;word-spacing:normal;text-transform:none;direction:ltr;block-progression:tb;writing-mode:lr-tb;text-anchor:start;baseline-shift:baseline;color:#000000;fill:#000000;fill-opacity:1;stroke:none;stroke-width:8.91699981999999913;marker:none;visibility:visible;display:inline;overflow:visible;enable-background:accumulate;font-family:Sans;-inkscape-font-specification:Sans"
     d="M 176.09375,0.03125 C 134.72548,0.77305328 91.299049,17.272817 65.78125,51.40625 39.791897,48.414549 12.453454,64.33819 5.1875,90.25 c -0.026929,0.09603 -0.067375,0.184949 -0.09375,0.28125 -5.84018663,16.92626 -9.2627164,39.46701 4.5625,55.375 a 4.4589458,4.4589458 0 0 0 0.28125,0.28125 c 3.015792,2.9085 6.519981,5.00043 10.09375,6.75 -4.531352,30.45729 -1.868628,60.98131 -0.375,90.75 -0.983447,54.30389 -18.1409026,109.81477 -7.21875,166.375 a 4.4589458,4.4589458 0 0 0 0,0.0625 c 5.966691,28.59585 21.134974,57.67106 47.8125,73.03125 a 4.4589458,4.4589458 0 0 0 0.1875,0.125 c 39.365127,19.96763 82.44824,30.95636 125.34375,38.59375 25.60099,4.60357 51.34099,2.84906 76.21875,3.8125 a 4.4589458,4.4589458 0 0 0 0.25,0 c 24.94606,-0.55344 52.66033,-2.54856 74.4375,-19.03125 l 0.0312,0.0312 c 16.65286,-12.26427 26.56959,-30.443 33.875,-48.46875 4.38081,-0.42567 9.18459,-1.15713 13.78125,-3.125 5.5636,-2.38182 10.89557,-6.84593 12.5,-13.84375 a 4.4589458,4.4589458 0 0 0 0.125,-1 c 0.036,-6.32141 -3.95643,-11.0836 -8.28125,-13.84375 -2.93965,-1.87612 -6.019,-2.98543 -8.96875,-3.84375 7.71516,-49.99483 -5.28379,-100.65402 -26.03125,-145.40625 -0.015,-0.0399 -0.0162,-0.0851 -0.0312,-0.125 -0.0293,-0.063 -0.0645,-0.12447 -0.0937,-0.1875 -12.73178,-33.94209 -18.89351,-70.84278 -15.40625,-106.90625 0.0114,-0.0724 0.0199,-0.14632 0.0312,-0.21875 0.001,-0.0103 -0.001,-0.0209 0,-0.0312 4.625,-29.62439 3.76329,-61.41897 -8.8125,-89.65625 4.67384,-4.424194 9.55693,-9.438956 13.28125,-15.4375 4.32072,-6.959131 7.0327,-15.318328 5.15625,-24.34375 A 4.4589458,4.4589458 0 0 0 347.75,39.84375 c -2.76007,-9.138143 -9.86943,-15.39429 -17.96875,-18.5625 -7.87778,-3.081547 -16.80336,-3.426312 -24.8125,-1 -0.0203,0.0032 -0.0422,-0.0032 -0.0625,0 -0.20566,0.06269 -0.42061,0.08984 -0.625,0.15625 C 295.80106,21.880649 287.87272,24.886626 281,26.15625 249.50235,7.0827398 212.3114,-0.43676342 176.125,0.03125 a 4.4589458,4.4589458 0 0 0 -0.0312,0 z M 176.25,8.9375 c 0.0104,-1.346e-4 0.0208,1.332e-4 0.0312,0 35.46376,-0.4540003 71.64657,7.051269 101.65625,25.71875 a 4.4589458,4.4589458 0 0 0 3,0.625 c 8.97873,-1.348737 17.60295,-4.95171 25.40625,-6.1875 a 4.4589458,4.4589458 0 0 0 0.6875,-0.1875 c 6.03919,-1.96227 13.40669,-1.727267 19.5,0.65625 6.03897,2.362263 10.68436,6.596345 12.59375,12.71875 1.22862,6.241463 -0.51907,11.936895 -4.03125,17.59375 -3.55411,5.724394 -8.87882,11.136397 -13.96875,15.8125 a 4.4589458,4.4589458 0 0 0 -1.03125,5.1875 c 12.84309,26.7827 13.93157,58.10459 9.28125,87.6875 a 4.4589458,4.4589458 0 0 0 -0.0312,0.25 c -3.70681,37.84443 2.77407,76.25678 16.03125,111.46875 a 4.4589458,4.4589458 0 0 0 0.125,0.3125 c 20.88795,44.95265 33.52388,95.5302 24.875,144.4375 a 4.4589458,4.4589458 0 0 0 3.4375,5.125 c 3.27272,0.70365 7.32394,1.96233 10.125,3.75 2.63155,1.67948 3.92101,3.30933 4.0625,5.84375 -0.97727,3.46486 -3.34969,5.54001 -7.125,7.15625 -3.96952,1.69938 -9.17654,2.45364 -13.65625,2.75 a 4.4589458,4.4589458 0 0 0 -3.875,2.84375 c -7.12693,18.15199 -16.64919,35.74068 -31.9375,47 a 4.4589458,4.4589458 0 0 0 -0.0312,0.0312 c -19.11781,14.49858 -44.70122,16.67274 -69.3125,17.21875 l 0,0.0312 c -25.41835,-0.96498 -50.61146,0.64185 -74.6875,-3.6875 a 4.4589458,4.4589458 0 0 0 -0.0312,0 C 144.8899,505.535 102.69982,494.68903 64.5,475.3125 40.943167,461.64725 26.775386,435.08691 21.1875,408.375 10.809446,354.63237 27.579149,299.86794 28.59375,243.84375 a 4.4589458,4.4589458 0 0 0 0,-0.28125 c -1.555466,-31.17844 -4.328252,-62.27455 0.6875,-92.4375 a 4.4589458,4.4589458 0 0 0 -2.71875,-4.84375 c -3.878981,-1.59087 -7.427582,-3.70348 -10.25,-6.375 C 5.8811922,127.73731 8.1814792,108.7481 13.59375,93.1875 a 4.4589458,4.4589458 0 0 0 0.09375,-0.28125 c 6.031499,-22.022123 31.137899,-36.269967 53.40625,-32.5 a 4.4589458,4.4589458 0 0 0 4.375,-1.8125 C 94.654983,25.995759 136.36618,9.6607488 176.25,8.9375 z"
     id="path4247"
     inkscape:connector-curvature="0" /><path
     style="font-size:medium;font-style:normal;font-variant:normal;font-weight:normal;font-stretch:normal;text-indent:0;text-align:start;text-decoration:none;line-height:normal;letter-spacing:normal;word-spacing:normal;text-transform:none;direction:ltr;block-progression:tb;writing-mode:lr-tb;text-anchor:start;baseline-shift:baseline;color:#000000;fill:#040000;fill-opacity:1;stroke:none;stroke-width:8.91699982;marker:none;visibility:visible;display:inline;overflow:visible;enable-background:accumulate;font-family:Sans;-inkscape-font-specification:Sans"
     d="m 238.875,490.71875 c -7.40398,0.29285 -15.632,1.75758 -22.96875,5.21875 -7.35674,3.4706 -13.9298,9.15688 -16.96875,17.625 l -0.0625,0.125 -0.0312,0.125 c -1.61229,5.38008 0.12115,10.77674 3.3125,14.5 3.04418,3.55155 7.4036,5.85958 12.21875,6.28125 0.23279,0.0204 0.45267,0.0826 0.6875,0.0937 17.54537,3.49364 35.55793,2.05607 52.4375,-0.65625 l 0.90625,-0.15625 0.8125,-0.53125 c 5.11103,-3.31768 6.36366,-9.35254 5.6875,-14.03125 -0.66217,-4.58193 -2.5674,-8.65238 -3.9375,-11.625 -0.0287,-0.0724 -0.0645,-0.14648 -0.0937,-0.21875 l -0.0312,0 c -1.76435,-4.3554 -4.52393,-8.51638 -8.34375,-11.65625 -3.70303,-3.04386 -8.54145,-4.9919 -13.90625,-4.78125 l 0,-0.0312 c -3.14111,-0.31591 -6.31639,-0.42233 -9.5,-0.28125 -0.0523,0.002 -0.10393,-0.002 -0.15625,0 -0.0209,9.8e-4 -0.0416,-10e-4 -0.0625,0 z m 0.375,7.8125 0.0625,1.09375 c 2.78493,-0.13336 5.60186,-0.032 8.40625,0.25 l 0.40625,0.0312 0.40625,-0.0312 c 3.17971,-0.25691 5.84185,0.78164 8.3125,2.8125 2.47065,2.03086 4.58093,5.09472 5.84375,8.28125 l 0.0312,0.125 0.0625,0.0937 c 1.35765,2.95008 2.90537,6.58907 3.3125,9.40625 0.35398,2.44936 0.22548,3.64871 -1.125,4.78125 -16.27347,2.55172 -33.04685,3.75237 -48.78125,0.5 l -0.34375,-0.0625 -0.34375,-0.0312 c -2.39486,-0.11394 -5.0055,-1.42829 -6.59375,-3.28125 -1.58055,-1.84398 -2.16484,-3.83598 -1.5,-6.09375 0.003,-0.011 -0.003,-0.0202 0,-0.0312 2.1329,-5.72672 6.52227,-9.64341 12.3125,-12.375 5.86722,-2.76791 13.07966,-4.12396 19.5625,-4.375 l -0.0312,-1.09375 z"
     id="path4249"
     inkscape:connector-curvature="0" /><path
     style="fill:none;stroke:#03324b;stroke-width:5.48740005;stroke-miterlimit:10"
     d="m 69.626095,153.83292 c -7.356933,1.37395 -16.751253,1.92908 -21.53125,8.25 -2.074604,2.77241 -2.486942,9.8472 2.6875,8.6875 9.522106,-2.30393 19.249496,-3.97251 28.84375,-6.0625 -0.354822,-5.40012 -3.652054,-11.77036 -10,-10.875 z"
     id="path4253"
     inkscape:connector-curvature="0" /><path
     style="fill:#040000"
     d="m 307.8761,32.20792 c -9.17508,1.724486 -21.35984,6.389572 -21.5625,17.40625 -0.0544,5.635667 8.56928,10.548267 11.78125,4.53125 0.81637,-3.60485 7.91527,-3.133545 7.1875,0.96875 0.55943,4.761802 6.71938,6.589608 9.8125,2.75 5.76061,-3.434409 13.3582,-10.453365 9,-17.78125 -3.33594,-5.335808 -10.1163,-7.992333 -16.21875,-7.875 z"
     id="path4255"
     inkscape:connector-curvature="0" /><path
     style="font-size:medium;font-style:normal;font-variant:normal;font-weight:normal;font-stretch:normal;text-indent:0;text-align:start;text-decoration:none;line-height:normal;letter-spacing:normal;word-spacing:normal;text-transform:none;direction:ltr;block-progression:tb;writing-mode:lr-tb;text-anchor:start;baseline-shift:baseline;color:#000000;fill:none;fill-opacity:1;stroke:none;stroke-width:8.23099994999999929;marker:none;visibility:visible;display:inline;overflow:visible;enable-background:accumulate;font-family:Sans;-inkscape-font-specification:Sans"
     d="M 136.125,16.59375 C 101.56536,19.508386 69.759494,48.500875 69.5625,84.625 c -1.62e-4,0.01033 1.59e-4,0.02092 0,0.03125 -0.232509,15.093491 2.797376,30.93129 10.65625,44.1875 l 0.25,0.4375 0.34375,0.34375 c 12.592648,12.73079 31.67017,11.03928 46.0625,9.25 l 0.0625,0 0.0625,0 c 28.95975,-4.42241 58.75231,-21.06643 69.90625,-50.28125 l 0.0312,0 c 0.007,-0.01811 -0.007,-0.04438 0,-0.0625 6.32579,-16.241391 6.65478,-37.607638 -7.5625,-50.9375 -0.05,-0.04693 -0.0746,-0.109521 -0.125,-0.15625 l -0.0312,0.03125 c -13.74357,-13.982987 -33.44,-21.317789 -52.84375,-20.875 l -0.125,0 -0.125,0 z m 0.65625,8.21875 c 0.0104,-2.02e-4 0.0208,1.97e-4 0.0312,0 17.17244,-0.324185 34.77015,6.33058 46.6875,18.53125 l 0.0625,0.0625 0.0937,0.0625 c 11.02082,10.215216 11.10036,28.026634 5.59375,42.125 l 0,0.03125 c -9.74803,25.61311 -36.74205,41.00757 -63.5,45.09375 -13.8492,1.71494 -29.406282,2.44505 -38.71875,-6.59375 -6.653979,-11.48368 -9.465265,-25.664189 -9.25,-39.375 l 0,-0.03125 0,-0.03125 c 0.15444,-31.242122 28.61924,-57.296738 59,-59.875 z"
     id="path4257"
     inkscape:connector-curvature="0" /><path
     style="font-size:medium;font-style:normal;font-variant:normal;font-weight:normal;font-stretch:normal;text-indent:0;text-align:start;text-decoration:none;line-height:normal;letter-spacing:normal;word-spacing:normal;text-transform:none;direction:ltr;block-progression:tb;writing-mode:lr-tb;text-anchor:start;baseline-shift:baseline;color:#000000;fill:#040000;fill-opacity:1;stroke:none;stroke-width:8.23099995;marker:none;visibility:visible;display:inline;overflow:visible;enable-background:accumulate;font-family:Sans;-inkscape-font-specification:Sans"
     d="m 68.09375,112.8125 -0.46875,0.0937 c -2.172339,0.34574 -4.125464,1.49761 -5.34375,2.875 -1.218286,1.37739 -1.808017,2.78424 -2.28125,3.9375 -0.946465,2.30651 -1.433601,3.27579 -1.8125,3.5 l -0.5625,0.34375 -0.4375,0.5 c -4.692084,5.38129 -8.987172,10.74744 -14,12 -8.063928,-2.29958 -16.042957,5.29347 -14.65625,13.59375 -0.261088,6.09121 1.736584,12.15375 5.46875,16.90625 3.586052,4.56644 9.033521,7.84084 15.375,8.09375 0.383194,0.0153 0.735161,0.13301 1.125,0.125 l 0,-0.0625 c 1.467505,0.14399 2.99788,-0.0201 4.1875,-0.71875 1.495193,-0.87815 2.294777,-2.06535 2.84375,-3.03125 0.770052,-1.35488 0.826183,-1.67823 0.9375,-2.0625 2.369802,-0.58521 4.484506,-1.45499 6.1875,-2.0625 1.328955,-0.47408 2.213196,-0.64225 2.9375,-0.6875 0.565028,0.92736 1.288078,1.76134 2.15625,2.34375 1.698887,1.1397 3.587677,1.36766 5.1875,1.28125 2.824019,-0.15254 5.088719,-1.19467 7.03125,-2.53125 14.589578,-6.50366 22.55246,-24.80637 15.59375,-39.71875 l 0,-0.0312 c -2.78979,-5.88226 -7.866825,-9.49777 -13.15625,-11.5625 -5.289425,-2.06473 -10.927223,-2.77798 -15.875,-3.09375 l -0.4375,-0.0312 z m 0.59375,8.3125 c 4.347166,0.31272 8.947436,0.98442 12.75,2.46875 3.98272,1.55465 6.956611,3.77514 8.6875,7.40625 0.0042,0.009 -0.0042,0.0222 0,0.0312 4.723323,10.17002 -1.343897,24.14624 -11.53125,28.6875 l -0.4375,0.21875 -0.375,0.28125 c -0.725002,0.55923 -2.523432,1.29255 -3.28125,1.34375 l -0.375,-1.96875 -1.96875,-0.875 c -3.817784,-1.69145 -7.494533,-0.6191 -10.28125,0.375 -2.786717,0.9941 -5.181605,2.01595 -6.53125,2.15625 L 53.75,161.40625 52.6875,162.625 c -1.708588,1.96497 -1.924437,3.23608 -2.1875,3.9375 l -0.1875,0 c -3.987992,0.082 -7.317076,-1.84506 -9.84375,-5.0625 -2.526674,-3.21744 -3.948721,-7.69214 -3.71875,-11.71875 l 0.03125,-0.625 -0.15625,-0.59375 c -0.678264,-2.70454 2.204463,-5.79817 4.84375,-4.5 l 1.1875,0.59375 1.34375,-0.25 c 9.51498,-1.66199 14.850835,-9.70384 19.28125,-14.8125 2.779352,-2.143 3.647079,-5.12838 4.3125,-6.75 0.369712,-0.90098 0.690605,-1.42061 0.84375,-1.59375 0.07833,-0.0886 0.204819,-0.10133 0.25,-0.125 z"
     id="path4259"
     inkscape:connector-curvature="0" /><path
     style="font-size:medium;font-style:normal;font-variant:normal;font-weight:normal;font-stretch:normal;text-indent:0;text-align:start;text-decoration:none;line-height:normal;letter-spacing:normal;word-spacing:normal;text-transform:none;direction:ltr;block-progression:tb;writing-mode:lr-tb;text-anchor:start;baseline-shift:baseline;color:#000000;fill:#040000;fill-opacity:1;stroke:none;stroke-width:8.23099995;marker:none;visibility:visible;display:inline;overflow:visible;enable-background:accumulate;font-family:Sans;-inkscape-font-specification:Sans"
     d="m 80.625,152.25 -3.59375,0.65625 -1,0.1875 -0.84375,0.15625 -0.03125,0 -0.03125,0.0312 c -9.56567,1.96162 -19.159077,3.94152 -28.71875,6 l -2.71875,0.59375 -0.46875,2.75 c -0.839441,5.01896 -1.151393,11.05447 0.34375,16.78125 1.484674,5.68669 5.218249,11.28555 11.78125,13.59375 l 0,0.0312 c 0.04144,0.0157 0.08353,0.0158 0.125,0.0312 11.616,4.32121 24.383986,-3.63097 26.5625,-15.59375 l 0.03125,0 c 0.04553,-0.15418 0.05047,-0.31417 0.09375,-0.46875 0.0089,-0.0318 0.02245,-0.062 0.03125,-0.0937 1.940105,-7.00798 1.62803,-14.38953 -0.46875,-21.15625 l -1.09375,-3.5 z m -5.9375,9.53125 c 0.835857,4.47699 0.760035,9.07647 -0.5,13.34375 l -0.09375,0.28125 -0.03125,0.28125 c -1.07364,7.09226 -9.135411,12.18054 -15.78125,9.65625 l -0.0625,-0.0312 -0.0625,-0.0312 c -3.790553,-1.29808 -5.578476,-3.96029 -6.625,-7.96875 -0.835816,-3.20139 -0.769313,-7.03359 -0.40625,-10.625 7.848544,-1.67806 15.693169,-3.28925 23.5625,-4.90625 z"
     id="path4261"
     inkscape:connector-curvature="0" /><path
     style="fill:#040000"
     d="m 25.751095,79.02042 c -8.708456,1.339737 -11.743583,11.055269 -14.34375,18.125 0.792687,2.49922 -1.6944574,3.11027 -1.4687498,6 -1.4317414,6.99539 -3.8262866,17.39508 3.4999998,21.90625 8.079486,4.20033 17.707533,-3.05314 18.612213,-11.47626 2.934933,-9.961 7.375313,-22.44091 0.825287,-31.83624 -1.832589,-1.887929 -4.482626,-2.965146 -7.125,-2.71875 z"
     id="path4263"
     inkscape:connector-curvature="0" /><path
     style="fill:#040000"
     d="m 109.53235,43.77042 c -20.373884,1.395556 -32.817119,27.330421 -23.843755,44.84375 7.118842,10.17883 24.068735,7.4958 29.906255,-2.8125 8.05815,-10.388145 12.79907,-26.904823 3.375,-37.875 -2.33606,-2.627013 -5.8625,-4.425918 -9.4375,-4.15625 z"
     id="path4265"
     inkscape:connector-curvature="0" /><path
     style="fill:#040000"
     d="m 51.782345,111.42667 c -14.721951,-0.27401 -23.440758,16.61039 -20.8125,29.78125 -0.04836,7.52815 8.425458,14.8041 15.59375,10.4375 12.548421,-5.69886 22.074747,-16.8814 28.59375,-28.71875 1.041479,-7.57588 -8.136756,-10.27286 -14.016601,-10.88929 -3.082217,-0.51097 -6.222443,-0.73759 -9.358399,-0.61071 z"
     id="path4267"
     inkscape:connector-curvature="0" /></svg>