<?xml version="1.0" encoding="UTF-8" standalone="no"?>
<!-- Generator: Adobe Illustrator 15.0.0, SVG Export Plug-In . SVG Version: 6.00 Build 0)  -->

<svg
   xmlns:dc="http://purl.org/dc/elements/1.1/"
   xmlns:cc="http://creativecommons.org/ns#"
   xmlns:rdf="http://www.w3.org/1999/02/22-rdf-syntax-ns#"
   xmlns:svg="http://www.w3.org/2000/svg"
   xmlns="http://www.w3.org/2000/svg"
   xmlns:sodipodi="http://sodipodi.sourceforge.net/DTD/sodipodi-0.dtd"
   xmlns:inkscape="http://www.inkscape.org/namespaces/inkscape"
   version="1.1"
   id="レイヤー_1"
   x="0px"
   y="0px"
   width="396.2395"
   height="537.6983"
   viewBox="0 0 396.23949 537.69832"
   enable-background="new 0 0 401.98 559.472"
   xml:space="preserve"
   inkscape:version="0.48.4 r9939"
   sodipodi:docname="go2.svg"><metadata
     id="metadata3166"><rdf:RDF><cc:Work
         rdf:about=""><dc:format>image/svg+xml</dc:format><dc:type
           rdf:resource="http://purl.org/dc/dcmitype/StillImage" /><dc:title></dc:title></cc:Work></rdf:RDF></metadata><defs
     id="defs3164" /><sodipodi:namedview
     pagecolor="#ffffff"
     bordercolor="#666666"
     borderopacity="1"
     objecttolerance="10"
     gridtolerance="10"
     guidetolerance="10"
     inkscape:pageopacity="0"
     inkscape:pageshadow="2"
     inkscape:window-width="1235"
     inkscape:window-height="1050"
     id="namedview3162"
     showgrid="false"
     fit-margin-top="0"
     fit-margin-left="0"
     fit-margin-right="0"
     fit-margin-bottom="0"
     inkscape:zoom="1.193105"
     inkscape:cx="232.04552"
     inkscape:cy="284.5314"
     inkscape:window-x="450"
     inkscape:window-y="280"
     inkscape:window-maximized="0"
     inkscape:current-layer="レイヤー_1" /><path
     style="font-size:medium;font-style:normal;font-variant:normal;font-weight:normal;font-stretch:normal;text-indent:0;text-align:start;text-decoration:none;line-height:normal;letter-spacing:normal;word-spacing:normal;text-transform:none;direction:ltr;block-progression:tb;writing-mode:lr-tb;text-anchor:start;baseline-shift:baseline;color:#000000;fill:#000000;fill-opacity:1;stroke:none;stroke-width:3;marker:none;visibility:visible;display:inline;overflow:visible;enable-background:accumulate;font-family:Sans;-inkscape-font-specification:Sans"
     d="m 34.96875,260.5 c -15.077493,0.47264 -32.9153624,7.55213 -36.875,23.5625 -0.8726921,4.23522 2.2345965,7.7695 4.15625,10.9375 1.3115331,9.32369 12.631529,13.48077 20.625,9.625 6.898853,-2.67157 13.316056,-6.80912 19.65625,-10.34375 5.432686,-7.208 2.780065,-16.89181 4.0625,-25.25 0.79036,-4.16144 -1.113688,-9.49229 -6.25,-8.46875 -1.787773,-0.12868 -3.584501,-0.11802 -5.375,-0.0625 z m 0.75,11.03125 c -1.076011,4.93828 -0.382562,10.00921 -1.3125,14.96875 -6.915896,1.94266 -13.165694,10.18185 -20.78125,7.6875 -1.0375,-3.13367 -1.081141,-7.33165 -4.34375,-9 2.728792,-8.4026 12.90931,-11.57938 20.859271,-13.20791 1.829633,-0.28861 3.741527,-0.45368 5.578229,-0.44834 z"
     id="path3108"
     inkscape:connector-curvature="0" /><path
     style="fill:#c6b198;fill-rule:evenodd;stroke:#000000;stroke-width:3;stroke-linecap:round"
     d="m 17.65625,281.40625 c -5.648728,2.41649 -13.6165505,4.50326 -15.96875,10.8125 0.9549671,4.82992 7.6556364,2.49268 10.6875,1 5.274717,-2.73151 7.628102,-8.55933 10,-13.65625 -1.572917,0.61458 -3.145833,1.22917 -4.71875,1.84375 z"
     id="path3110"
     inkscape:connector-curvature="0" /><path
     style="font-size:medium;font-style:normal;font-variant:normal;font-weight:normal;font-stretch:normal;text-indent:0;text-align:start;text-decoration:none;line-height:normal;letter-spacing:normal;word-spacing:normal;text-transform:none;direction:ltr;block-progression:tb;writing-mode:lr-tb;text-anchor:start;baseline-shift:baseline;color:#000000;fill:#000000;fill-opacity:1;stroke:none;stroke-width:3;marker:none;visibility:visible;display:inline;overflow:visible;enable-background:accumulate;font-family:Sans;-inkscape-font-specification:Sans"
     d="M 51.21875,28.09375 C 24.650674,28.525597 1.7804461,58.005582 11.3125,83.65625 16.797732,98.269306 31.834756,106.5535 46.4375,109.625 58.911961,86.181009 71.353199,62.718696 83.78125,39.25 74.42245,32.315049 63.06615,27.508311 51.21875,28.09375 z m 1.3125,10.9375 c 5.81004,-0.09448 11.568788,1.56723 16.65625,4.1875 C 59.760417,61 50.333333,78.78125 40.90625,96.5625 27.939562,92.752366 16.639529,79.316769 20.8125,65.28125 24.078131,50.838509 37.557975,39.254217 52.53125,39.03125 z"
     id="path3112"
     inkscape:connector-curvature="0" /><path
     style="font-size:medium;font-style:normal;font-variant:normal;font-weight:normal;font-stretch:normal;text-indent:0;text-align:start;text-decoration:none;line-height:normal;letter-spacing:normal;word-spacing:normal;text-transform:none;direction:ltr;block-progression:tb;writing-mode:lr-tb;text-anchor:start;baseline-shift:baseline;color:#000000;fill:#000000;fill-opacity:1;stroke:none;stroke-width:3;marker:none;visibility:visible;display:inline;overflow:visible;enable-background:accumulate;font-family:Sans;-inkscape-font-specification:Sans"
     d="m 334.8125,21.40625 c -11.31596,0.247604 -21.85986,5.459917 -30.53125,12.40625 13.34817,23.080521 26.80223,46.100824 40.03125,69.25 17.95503,-4.006533 35.0699,-19.442266 34.1875,-39 -0.20556,-22.795274 -20.60183,-43.697294 -43.6875,-42.65625 z m 1.09375,10.9375 c 22.46479,-0.726718 40.54724,28.204751 26.75,47.125 -3.45515,4.491657 -8.21112,7.848331 -13.375,10.09375 -10.11458,-17.447917 -20.22917,-34.895833 -30.34375,-52.34375 5.18639,-2.969731 10.97045,-4.831763 16.96875,-4.875 z"
     id="path3114"
     inkscape:connector-curvature="0" /><path
     style="font-size:medium;font-style:normal;font-variant:normal;font-weight:normal;font-stretch:normal;text-indent:0;text-align:start;text-decoration:none;line-height:normal;letter-spacing:normal;word-spacing:normal;text-transform:none;direction:ltr;block-progression:tb;writing-mode:lr-tb;text-anchor:start;baseline-shift:baseline;color:#000000;fill:#000000;fill-opacity:1;stroke:none;stroke-width:3;marker:none;visibility:visible;display:inline;overflow:visible;enable-background:accumulate;font-family:Sans;-inkscape-font-specification:Sans"
     d="m 321.40625,479.1875 c -15.82185,2.15473 -26.8701,15.26126 -35.34375,27.6875 15.39256,1.01409 20.90714,17.75347 32.375,25.28125 7.29713,5.73142 17.75161,3.55359 24.03125,-2.71875 7.68658,-5.23675 9.80614,-15.69431 5.78125,-23.875 -5.19368,-10.74735 -13.93778,-19.79051 -24.1875,-25.65625 -0.85013,-0.27215 -1.75263,-0.93224 -2.65625,-0.71875 z m 0.0937,12.03125 c 8.00492,6.37982 17.81834,14.26904 17.53125,25.4375 -2.03467,4.14468 -7.03341,8.09022 -11.625,7.65625 -8.12279,-3.07765 -11.78126,-12.06609 -18.125,-17.46875 -1.70704,-2.7021 -7.87294,-4.58669 -3.21992,-7.35273 4.02017,-4.09741 8.92076,-7.5743 14.56367,-8.92852 l 0.8,0.6 0.075,0.0562 z"
     id="path3116"
     inkscape:connector-curvature="0" /><path
     style="fill:none;stroke:#000000;stroke-width:3;stroke-linecap:round"
     d="m 325.9375,504 c -3.76368,3.61999 1.66254,8.8314 2.875,12.65625 2.64447,6.7051 6.27295,13.38405 12.875,16.90625 0.58088,-11.13244 -3.73124,-23.86467 -13.71875,-29.625 -0.61884,-0.19354 -1.45953,-0.30374 -2.03125,0.0625 z"
     id="path3118"
     inkscape:connector-curvature="0" /><path
     style="font-size:medium;font-style:normal;font-variant:normal;font-weight:normal;font-stretch:normal;text-indent:0;text-align:start;text-decoration:none;line-height:normal;letter-spacing:normal;word-spacing:normal;text-transform:none;direction:ltr;block-progression:tb;writing-mode:lr-tb;text-anchor:start;baseline-shift:baseline;color:#000000;fill:#000000;fill-opacity:1;stroke:none;stroke-width:3;marker:none;visibility:visible;display:inline;overflow:visible;enable-background:accumulate;font-family:Sans;-inkscape-font-specification:Sans"
     d="m 75.46875,483.625 c -9.155695,0.22589 -14.961361,8.44043 -22.09375,13.0625 -8.431252,6.82668 -14.841059,19.20615 -9.15625,29.78125 1.866973,4.89355 7.356919,5.95551 10.03125,10.03125 7.828018,6.25766 18.666893,2.34247 25.34375,-3.65625 9.601318,-7.10694 18.678544,-17.97365 31.59375,-17.8125 4.17774,-4.69884 -3.3243,-9.25665 -5.4375,-12.8125 C 98.788257,492.49921 88.290461,482.89864 75.46875,483.625 z M 77,494.5625 c 8.15045,0.34194 14.313381,6.96842 18.875,12.875 -12.44707,4.83155 -19.936941,18.71572 -33.15625,21.375 -3.077185,-1.96344 -4.546931,-6.35695 -8.5,-7.03125 -3.972652,-7.77804 3.847705,-15.19817 9.570109,-19.27771 3.895146,-2.94156 8.084395,-7.3839 13.211141,-7.94104 z"
     id="path3120"
     inkscape:connector-curvature="0" /><path
     style="fill:none;stroke:#000000;stroke-width:3;stroke-linecap:round"
     d="m 62.96875,507.8125 c -6.544365,4.37484 -10.682512,12.19955 -12.375,19.84375 -0.687504,3.81531 0.564761,7.54607 1.4375,11.21875 5.715749,-9.02679 13.15562,-18.23499 13.875,-29.25 -0.254682,-1.3266 -1.596172,-2.25928 -2.9375,-1.8125 z"
     id="path3122"
     inkscape:connector-curvature="0" /><path
     style="fill-rule:evenodd"
     d="M 46.53125,52.40625 C 32.650286,52.537915 25.789572,73.612057 37.794358,81.2637 40.831213,83.90028 47.805841,89.325143 50.154223,82.982264 54.576835,74.600065 59.040793,66.239511 63.4375,57.84375 58.240805,54.920877 52.668679,52.079975 46.53125,52.40625 z"
     id="path3124"
     inkscape:connector-curvature="0" /><path
     style="fill-rule:evenodd"
     d="m 331.8125,44.40625 c -5.34718,0.363529 -10.16528,2.909778 -14.8125,5.375 5.17001,9.830456 10.35185,19.63408 15.59375,29.40625 9.16299,-3.03832 19.46956,-12.091859 15.6875,-22.75 -2.01643,-7.025712 -8.80847,-12.947566 -16.46875,-12.03125 z"
     id="path3126"
     inkscape:connector-curvature="0" /><path
     style="font-size:medium;font-style:normal;font-variant:normal;font-weight:normal;font-stretch:normal;text-indent:0;text-align:start;text-decoration:none;line-height:normal;letter-spacing:normal;word-spacing:normal;text-transform:none;direction:ltr;block-progression:tb;writing-mode:lr-tb;text-anchor:start;baseline-shift:baseline;color:#000000;fill:#000000;fill-opacity:1;stroke:none;stroke-width:3;marker:none;visibility:visible;display:inline;overflow:visible;enable-background:accumulate;font-family:Sans;-inkscape-font-specification:Sans"
     d="m 354.8125,258.4375 c -6.17332,0.54153 -5.34918,8.00948 -4.8125,12.40625 0.6373,7.42146 -1.03598,16.98771 5,22.375 4.52919,2.59033 9.43029,4.35096 13.59375,7.40625 7.36603,4.25261 19.67283,5.43426 23.96875,-3.53125 0.84774,-3.57206 2.70218,-6.59094 4.875,-9.34375 3.41629,-10.43448 -6.19636,-19.73882 -14.71875,-23.90625 -8.58364,-4.52822 -18.30835,-5.70547 -27.90625,-5.40625 z M 361,269.53125 c 9.79175,0.43651 22.83616,3.93601 26.09375,14.125 -3.67903,1.37991 -3.46691,5.00051 -3.90625,7.9375 -2.66003,3.50841 -7.80684,-0.37948 -10.90625,-1.5625 -3.23079,-2.4459 -8.26337,-3.77657 -10.48132,-6.67799 -0.5452,-4.56983 -0.79148,-9.32395 -0.79993,-13.82201 z"
     id="path3128"
     inkscape:connector-curvature="0" /><path
     style="fill:#c6b198;fill-rule:evenodd;stroke:#000000;stroke-width:3;stroke-linecap:round"
     d="m 376.03125,281.875 c 2.61115,7.30203 9.85375,11.93549 17.53125,11 5.85334,1.2546 1.82363,-3.0502 -0.1875,-5.25 -5.69879,-5.72128 -13.95233,-7.6784 -20.90625,-11.5 1.1875,1.91667 2.375,3.83333 3.5625,5.75 z"
     id="path3130"
     inkscape:connector-curvature="0" /><path
     style="font-size:medium;font-style:normal;font-variant:normal;font-weight:normal;font-stretch:normal;text-indent:0;text-align:start;text-decoration:none;line-height:normal;letter-spacing:normal;word-spacing:normal;text-transform:none;direction:ltr;block-progression:tb;writing-mode:lr-tb;text-anchor:start;baseline-shift:baseline;color:#000000;fill:#000000;fill-opacity:1;stroke:none;stroke-width:3;marker:none;visibility:visible;display:inline;overflow:visible;enable-background:accumulate;font-family:Sans;-inkscape-font-specification:Sans"
     d="m 187.71875,-1.6875 c -41.21755,3.5357256 -85.18117,11.4425696 -116.8125,40 -26.966237,24.47101 -38.453942,61.493267 -41.268899,97.05482 -4.727551,58.51284 10.644397,116.79822 3.767369,175.2827 -3.573664,47.12387 -9.649673,96.71867 7.78278,141.84998 12.937699,32.46857 42.279802,55.64759 74.96875,66.3125 45.17065,15.82745 95.20819,15.67151 141.59375,5.21875 36.9257,-8.9422 73.3512,-30.36906 90.375,-65.46875 21.9829,-43.58781 22.30767,-94.29267 19.625,-142.09375 -2.60212,-39.51237 -4.44961,-79.08088 -3.98598,-118.6871 C 363.15458,152.271 360.64128,105.32963 341.40625,63.5 325.10693,32.662866 293.87831,11.046015 259.77625,4.2411206 236.24812,-1.1294798 211.7954,-2.5116507 187.71875,-1.6875 z M 192.375,8.96875 c 38.5572,0.1541917 80.0575,2.944792 111.84375,27.15625 20.37911,15.539274 33.26154,39.06069 38.39612,63.87658 15.91677,62.83038 6.89061,128.40979 12.69101,192.42656 3.31259,51.59339 6.99217,105.88008 -13.64963,154.47811 -12.83509,30.67768 -41.47809,52.87826 -72.96875,62.34375 -41.06614,13.32121 -85.85956,14.13792 -127.96875,5.3125 C 106.79113,507.03736 72.027042,489.29314 55.679967,457.15196 37.21255,420.93179 39.815507,378.50675 42.365891,338.84917 45.384384,301.85385 48.156363,264.59804 43.858585,227.57605 39.976061,180.79156 34.368454,131.54217 51.3125,86.75 62.352328,56.329541 88.327981,32.816866 118.81133,22.836377 142.39799,14.216541 167.50799,11.05794 192.375,8.96875 z"
     id="path3134"
     inkscape:connector-curvature="0" /><path
     style="font-size:medium;font-style:normal;font-variant:normal;font-weight:normal;font-stretch:normal;text-indent:0;text-align:start;text-decoration:none;line-height:normal;letter-spacing:normal;word-spacing:normal;text-transform:none;direction:ltr;block-progression:tb;writing-mode:lr-tb;text-anchor:start;baseline-shift:baseline;color:#000000;fill:#000000;fill-opacity:1;fill-rule:evenodd;stroke:none;stroke-width:2.90809989;marker:none;visibility:visible;display:inline;overflow:visible;enable-background:accumulate;font-family:Sans;-inkscape-font-specification:Sans"
     d="m 253.59375,26.34375 c -26.47641,0.455829 -52.86883,20.278049 -55.9375,47.46875 -3.70018,25.5878 16.42675,50.60873 41.5625,54.59375 25.71441,5.40286 56.45504,-6.28147 66.40625,-31.8125 10.22126,-26.659024 -5.10196,-61.101835 -33.53125,-68.0625 -6.00397,-1.750479 -12.23979,-2.377931 -18.5,-2.1875 z m 3.1875,10.8125 c 18.90193,-0.421053 36.95554,13.534164 40.03125,32.3125 4.26402,16.582426 -3.66879,35.46743 -19.40625,42.96875 -20.10954,11.12006 -49.17984,7.87823 -62.6875,-11.75 -12.20407,-16.956905 -6.17481,-42.520275 10.8125,-53.75 8.99405,-6.577778 20.0854,-9.764571 31.25,-9.78125 z"
     id="path3136"
     inkscape:connector-curvature="0" /><path
     style="font-size:medium;font-style:normal;font-variant:normal;font-weight:normal;font-stretch:normal;text-indent:0;text-align:start;text-decoration:none;line-height:normal;letter-spacing:normal;word-spacing:normal;text-transform:none;direction:ltr;block-progression:tb;writing-mode:lr-tb;text-anchor:start;baseline-shift:baseline;color:#000000;fill:#000000;fill-opacity:1;fill-rule:evenodd;stroke:none;stroke-width:2.82139993;marker:none;visibility:visible;display:inline;overflow:visible;enable-background:accumulate;font-family:Sans;-inkscape-font-specification:Sans"
     d="m 128.4375,31.71875 c -24.2101,0.130412 -49.471859,16.183923 -54.15625,40.96875 -5.926103,24.834457 9.568031,53.00419 34.5625,59.5625 27.45779,8.70174 62.14267,-4.16257 72.1875,-32.25 8.9837,-24.90129 -3.8498,-56.387827 -29.71875,-64.65625 -7.28084,-2.698331 -15.08492,-3.841966 -22.875,-3.625 z m 2.34375,10.75 c 19.35413,-0.616895 38.94118,12.91525 41.5625,32.75 3.6008,17.513916 -5.74075,36.35465 -22.20693,43.44721 -19.87451,10.15023 -48.47067,6.36563 -60.57432,-13.97846 -11.52333,-18.666142 -4.878705,-46.409592 15.5,-55.9375 7.8941,-4.325571 16.73253,-6.22395 25.71875,-6.28125 z"
     id="path3138"
     inkscape:connector-curvature="0" /><path
     style="font-size:medium;font-style:normal;font-variant:normal;font-weight:normal;font-stretch:normal;text-indent:0;text-align:start;text-decoration:none;line-height:normal;letter-spacing:normal;word-spacing:normal;text-transform:none;direction:ltr;block-progression:tb;writing-mode:lr-tb;text-anchor:start;baseline-shift:baseline;color:#000000;fill:#000000;fill-opacity:1;fill-rule:evenodd;stroke:none;stroke-width:3;marker:none;visibility:visible;display:inline;overflow:visible;enable-background:accumulate;font-family:Sans;-inkscape-font-specification:Sans"
     d="m 190.28125,149.375 c 0.57342,12.89462 -4.30998,26.65738 0.84375,38.96875 4.26154,7.65938 14.67321,11.92345 22.40625,6.8125 7.09247,-2.75016 8.9376,-10.92943 8.125,-17.75 -0.0846,-7.14477 -1.16828,-14.25111 -0.9375,-21.40625 -10.16221,-2.91625 -20.19829,-6.24369 -30.34375,-9.21875 -0.0312,0.86458 -0.0625,1.72917 -0.0937,2.59375 z m 10.65625,12.0625 c 3.13269,0.25244 5.93518,2.11463 8.90625,2.8125 -0.0797,6.75311 2.42527,14.41598 -0.40625,20.59375 -4.11503,3.62875 -9.4749,-0.42863 -9.5,-5.1875 -0.30318,-6.02096 0.6883,-12.29636 0.40625,-18.125 0.12764,-0.0691 0.41413,-0.092 0.59375,-0.0937 z"
     id="path3140"
     inkscape:connector-curvature="0" /><path
     style="fill:#000000;fill-opacity:1;fill-rule:evenodd"
     d="M 103,65.71875 C 87.88739,66.107072 79.907284,86.267894 88.8125,97.78125 95.733149,109.0461 114.64246,108.00934 120.25,95.9375 127.6345,83.408998 118.32895,64.594749 103,65.71875 z"
     id="ellipse3144"
     inkscape:connector-curvature="0" /><path
     style="fill:#000000;fill-opacity:1;fill-rule:evenodd"
     d="M 227.25,61.71875 C 211.55198,62.274316 204.15723,83.772434 214.15625,95 c 7.56789,10.40887 25.60065,8.16341 30.5,-3.75 C 251.21636,78.814945 242.22969,60.636432 227.25,61.71875 z"
     id="ellipse3150"
     inkscape:connector-curvature="0" /><path
     style="font-size:medium;font-style:normal;font-variant:normal;font-weight:normal;font-stretch:normal;text-indent:0;text-align:start;text-decoration:none;line-height:normal;letter-spacing:normal;word-spacing:normal;text-transform:none;direction:ltr;block-progression:tb;writing-mode:lr-tb;text-anchor:start;baseline-shift:baseline;color:#000000;fill:#000000;fill-opacity:1;fill-rule:evenodd;stroke:none;stroke-width:3;marker:none;visibility:visible;display:inline;overflow:visible;enable-background:accumulate;font-family:Sans;-inkscape-font-specification:Sans"
     d="m 197.9375,147.125 c -9.71781,2.48283 -19.43266,4.97732 -29.15625,7.4375 -5.79423,13.04784 -4.9827,31.30455 7.03125,40.53125 8.85715,5.09225 20.23505,-2.33932 23.34375,-11 0.80593,-6.25806 -0.97782,-12.58934 0.40625,-18.875 0.52657,-6.23761 0.86433,-12.48994 0.9375,-18.75 -0.85417,0.21875 -1.70833,0.4375 -2.5625,0.65625 z m -9.15625,13.75 c -1.02877,7.0415 0.0366,14.8865 -1.15625,21.46875 -1.88162,2.78274 -7.17788,5.43236 -8.40625,0.53125 -3.08809,-5.75733 -3.35667,-12.81101 -1.9375,-19.0625 3.87238,-0.81431 7.58575,-2.32198 11.5,-2.9375 z"
     id="path3154"
     inkscape:connector-curvature="0" /><path
     style="font-size:medium;font-style:normal;font-variant:normal;font-weight:normal;font-stretch:normal;text-indent:0;text-align:start;text-decoration:none;line-height:normal;letter-spacing:normal;word-spacing:normal;text-transform:none;direction:ltr;block-progression:tb;writing-mode:lr-tb;text-anchor:start;baseline-shift:baseline;color:#000000;fill:#231f20;fill-opacity:1;stroke:none;stroke-width:3;marker:none;visibility:visible;display:inline;overflow:visible;enable-background:accumulate;font-family:Sans;-inkscape-font-specification:Sans"
     d="M 174.90625,123.53125 C 157.80227,124.14686 145.24297,146.42624 156,160.625 c 6.70328,9.75997 20.55822,7.63449 29.8125,3.15625 7.61559,-3.20986 16.46957,-3.17221 23.65625,1.21875 8.39203,4.17146 19.88949,5.588 26.75,-2.21875 7.85117,-7.14116 7.62588,-20.7119 -0.4375,-27.5 -6.38057,-6.3735 -14.52404,-12.57625 -23.77959,-13.26228 -12.36514,0.50409 -24.73027,1.00819 -37.09541,1.51228 z m 34.8125,9.71875 c 7.41747,0.13513 14.29686,5.21178 19.0625,10.625 5.38169,5.32457 0.0268,14.28497 -6.96875,13.71875 -9.16305,-3.00235 -18.25941,-8.22566 -28.375,-7.125 -9.1318,0.26501 -17.2803,8.05916 -26.46875,5.40625 -7.37118,-4.80293 -3.39518,-16.11011 3.3125,-19.6875 6.81661,-3.58412 15.08439,-0.95013 22.42981,-2.36616 5.66557,-0.2836 11.33404,-0.54571 17.00769,-0.57134 z"
     id="path3158"
     inkscape:connector-curvature="0" /><path
     style="fill-rule:evenodd"
     d="m 195.09375,106.84375 c -12.21744,-0.20706 -26.78794,8.69019 -25.5,22.28125 2.46335,11.21775 16.13214,13.5426 25.905,12.76256 10.13971,-0.38654 23.54946,-4.16076 25.845,-15.51256 1.2205,-11.73632 -11.39499,-19.45084 -21.9375,-19.46875 -1.43447,-0.10606 -2.8755,-0.12387 -4.3125,-0.0625 z"
     id="path3160"
     inkscape:connector-curvature="0" /></svg>