<?xml version="1.0" encoding="UTF-8" standalone="no"?>
<svg xmlns:rdf="http://www.w3.org/1999/02/22-rdf-syntax-ns#" xmlns="http://www.w3.org/2000/svg" xml:space="preserve" version="1.1" y="0px" x="0px" xmlns:cc="http://creativecommons.org/ns#" xmlns:dc="http://purl.org/dc/elements/1.1/" viewBox="0 0 81 100"><metadata><rdf:RDF><cc:Work rdf:about=""><dc:format>image/svg+xml</dc:format><dc:type rdf:resource="http://purl.org/dc/dcmitype/StillImage"/><dc:title/></cc:Work></rdf:RDF></metadata>
	<path fill-rule="evenodd" d="m40.457,0.054202c-1.8391,0.049918-3.2084,1.651-3.2084,1.651s-34.954,38.944-36.543,40.799c-0.82514,0.96307-0.7915,1.926-0.57019,2.6297v4.6381c0,0.54245,0.43624,0.97869,0.97869,0.97869h4.2211,0.43403v39.25c63.108-0.02269,16.52,0,69.325,0v-39.25h4.9275c0.542-0.001,0.978-0.437,0.978-0.979v-5.2083c0-0.2141-0.063-0.4179-0.17872-0.5787-0.14596-0.87072-0.67232-1.4808-0.67232-1.4808s-6.2164-6.9225-11.046-12.297v-13.029c0-2.6082-1.4279-4.7232-3.1829-4.7232h-6.3487c-1.5148,0-2.7792,1.5765-3.0978,3.685-6.162-6.8771-11.7-13.073-12.867-14.435-1.093-1.275-2.186-1.6771-3.149-1.651zm-12.272,36.927h1.4297v3.5488h-1.5659c-2.166,0.000036-3.5776,0.36985-4.2382,1.0978-0.66058,0.72805-0.99573,2.2541-0.99571,4.5871v6.153c-0.000016,2.5977-0.34866,4.4846-1.0553,5.6594-0.6913,1.1748-1.8846,1.9693-3.5743,2.3829,1.7052,0.44675,2.9086,1.2592,3.5999,2.434,0.69127,1.1748,1.0297,3.0527,1.0298,5.6338v6.153c-0.000016,2.333,0.33513,3.8676,0.99571,4.5956,0.66054,0.72801,2.0721,1.0893,4.2382,1.0893h1.5659v3.5743h-1.4297c-3.8251-0.000008-6.3876-0.61385-7.6933-1.8382-1.2904-1.2244-1.9319-3.6623-1.9318-7.3189v-5.9317c-0.000014-2.4984-0.42149-4.2316-1.251-5.1913-0.82955-0.95964-2.3291-1.4382-4.5105-1.4382h-1.4127v-3.5488h1.4127c2.1967,0.000016,3.6963-0.46959,4.5105-1.4127,0.82953-0.95964,1.251-2.6749,1.251-5.1402v-5.9572c-0.000014-3.6566,0.64144-6.0855,1.9318-7.2934,1.3057-1.2244,3.8682-1.8382,7.6933-1.8382zm23.369,0,1.4468,0c3.8251,0.000038,6.3757,0.61388,7.6508,1.8382,1.2904,1.2079,1.9403,3.6368,1.9404,7.2934v5.9572c-0.000016,2.4654,0.41295,4.1806,1.2425,5.1402,0.82952,0.94313,2.3376,1.4127,4.519,1.4127h1.4212v3.5488h-1.4212c-2.1814,0.000013-3.6895,0.4786-4.519,1.4382-0.82956,0.95967-1.2425,2.6929-1.2425,5.1913v5.9317c-0.000016,3.6566-0.64998,6.0945-1.9404,7.3189-1.275,1.2244-3.8257,1.8382-7.6508,1.8382h-1.4468v-3.5743h1.6085c2.1507-0.000005,3.5504-0.35232,4.1956-1.0638,0.66055-0.71147,0.9957-2.2551,0.99571-4.6211v-6.153c-0.000013-2.5811,0.33846-4.4591,1.0298-5.6338,0.69127-1.1747,1.8947-1.9872,3.5999-2.434-1.7052-0.41363-2.9086-1.2081-3.5999-2.3829-0.6913-1.1747-1.0298-3.0617-1.0298-5.6594v-6.153c-0.000013-2.3495-0.33516-3.8756-0.99571-4.5871-0.64521-0.72798-2.0449-1.0978-4.1956-1.0978h-1.6085v-3.5488zm-21.318,8.9784,11.778,0c3.5025,0.00003,6.1913,0.83803,8.0593,2.5191,1.8803,1.6678,2.8169,4.0513,2.8169,7.1487-0.000027,3.1106-0.93666,5.5102-2.8169,7.1912-1.868,1.6678-4.5568,2.5021-8.0593,2.502h-4.6807v10.28h-7.0976v-29.642zm7.0976,5.5402,0,8.2806,3.9233,0c1.3764,0.000017,2.4417-0.35751,3.1914-1.0723,0.74964-0.728,1.1233-1.7571,1.1234-3.0807-0.000019-1.3236-0.37372-2.3404-1.1234-3.0552-0.74968-0.71476-1.815-1.0723-3.1914-1.0723h-3.9233z"/>
</svg>
