<!-- Created with Inkscape (http://www.inkscape.org/) -->
<svg id="svg2805" xmlns:rdf="http://www.w3.org/1999/02/22-rdf-syntax-ns#" xmlns="http://www.w3.org/2000/svg" viewBox="0 0 81.75 100" version="1.1" xmlns:cc="http://creativecommons.org/ns#" xmlns:xlink="http://www.w3.org/1999/xlink" xmlns:dc="http://purl.org/dc/elements/1.1/">
 <defs id="defs2807"></defs>
 <metadata id="metadata2810">
  <rdf:RDF>
   <cc:Work rdf:about="">
    <dc:format>image/svg+xml</dc:format>
    <dc:type rdf:resource="http://purl.org/dc/dcmitype/StillImage"/>
    <dc:title/>
   </cc:Work>
  </rdf:RDF>
 </metadata>
 <g id="layer1" transform="translate(0,-952.36218)">
  <path id="path7590" fill="#23233a" d="M45.469,0.34375c-5.112,0.07137-10.227,0.79855-15.094,2.1874-3.582,1.1673-6.955,2.8601-10.063,4.9376-9.18,5.7442-16.099,14.975-18.656,25.5-2.6571,10.193-1.1139,21.208,2.8126,30.875,2.855,6.243,6.5722,12.745,13,15.937,12.569,7.313,27.96,8.382,41.969,5.219,5.645-1.128,11.155-2.759,16.718-4.219v-0.375c0.354-0.094,0.709-0.188,1.063-0.281v-20.469c1.397-1.385,2.79-2.77,4.187-4.156-7.826,0.056-15.642,0.132-23.468,0.188-2.852,1.607-5.712,3.205-8.563,4.812h0.156c-0.406,0.229-0.813,0.459-1.219,0.688l16.126-0.688c0.054,6.103,0.101,12.21,0.156,18.312-12.011,4.089-26.426,2.929-36.188-5.656-8.399-6.659-14.177-16.64-14.812-27.375-1.912-9.459-0.968-19.898,4.812-27.937,2.499-3.429,5.311-6.901,8.844-9.3128,0.07-0.0475,0.149-0.0783,0.219-0.125,1.382-0.7977,2.883-1.44,4.5-1.8437,6.103-1.6618,12.741-2.2538,18.937-0.7813,5.891,1.8238,10.557,6.1268,14.844,10.344-0.894,1.552-1.762,3.105-2.656,4.656,1.563-0.546,3.48-0.474,4.687-1.625,0.604-0.255,1.138-0.633,1.531-1.25,2.579-2.652,5.172-5.285,7.75-7.9372-9.05-6.6735-20.348-9.7821-31.593-9.625z" transform="translate(0,952.36218)"/>
 </g>
</svg>
