<?xml version="1.0" encoding="UTF-8" standalone="no"?>
<svg xmlns:rdf="http://www.w3.org/1999/02/22-rdf-syntax-ns#" xmlns="http://www.w3.org/2000/svg" height="100" width="90" version="1.1" xmlns:cc="http://creativecommons.org/ns#" xmlns:dc="http://purl.org/dc/elements/1.1/" viewBox="0 0 72 80">
 <path fill="#000" d="m31.332,8.5226c-0.08617,0.00112-0.16698,0.00495-0.25636,0.018989-4.0019-0.015276-8.0086,0.02313-12.011,0.028484-2.2054-0.02842-4.103,1.5292-5.0417,3.4371l-5.4969,9.21-7.4534,12.039c-1.2109,1.53-1.4442,3.7039-0.45574,5.4215,4.4818,7.3376,9.011,14.644,13.511,21.971,0.88895,1.7847,2.5762,3.2003,4.6334,3.3136,3.7947,0.05803,7.5881,0.01948,11.384,0.03798,1.8298,0.0074,3.6945-0.83691,2.2882-2.7724-4.717-7.714-9.431-15.442-14.146-23.159-0.174-0.257-0.342-0.519-0.513-0.779,0.01208-0.10887,0.02498-0.22192,0.03798-0.33231,0.03111-0.07295,0.04879-0.19337,0.05697-0.3608,0.22859-1.33,0.73873-2.5466,1.3387-3.7314,4.4609-7.2869,8.9242-14.583,13.387-21.866,0.92226-1.1196,0.02974-2.4952-1.2628-2.4781z"/>
 <path d="m41.492,8.5606c-0.80514,0.0684-1.9559-0.11394-2.3547,0.79755-0.29246,0.77477,0.17471,1.5249,0.55068,2.1743l14.403,23.252c0.01557,0.49563,0.02366,1.0065-0.0094,1.5097-0.0092,0.10397-0.01493,0.20998-0.0284,0.31331-0.0003,0.003,0.000301,0.006,0,0.01-0.09154,0.69826-0.28442,1.3756-0.59818,2.0034-0.01264,0.0226-0.02467,0.0441-0.03797,0.0665-0.03445,0.0668-0.06694,0.13385-0.10444,0.19939-0.0048,0.009-0.01399,0.0196-0.01899,0.0283-0.09598,0.16498-0.19766,0.32853-0.31331,0.48423-4.5051,7.3686-9.0474,14.723-13.53,22.104-0.80259,1.2146,0.1124,2.4249,1.4432,2.3832l12.286,0.0665c2.1368-0.0769,4.0053-1.54,4.8992-3.437,1.5029-2.6206,3.086-5.1964,4.6429-7.7856l0.68359-1.1299c2.6889-4.1359,5.1613-8.4142,7.7856-12.599,1.0862-1.6103,1.071-3.8358,0-5.4499l-13.722-22.348c-0.938-1.572-2.71-2.6184-4.548-2.6108l-11.431-0.0285z" fill="#000"/>
 <metadata>
  <rdf:RDF>
   <cc:Work rdf:about="">
    <dc:title/>
   </cc:Work>
  </rdf:RDF>
 </metadata>
</svg>
