<!-- Generator: Adobe Illustrator 15.0.0, SVG Export Plug-In . SVG Version: 6.00 Build 0)  -->
<svg id="Layer_1" xmlns:rdf="http://www.w3.org/1999/02/22-rdf-syntax-ns#" xmlns="http://www.w3.org/2000/svg" enable-background="new 0 0 512 512" xml:space="preserve" viewBox="0 0 100 100" version="1.1" y="0px" x="0px" xmlns:cc="http://creativecommons.org/ns#" xmlns:dc="http://purl.org/dc/elements/1.1/"><metadata id="metadata13"><rdf:RDF><cc:Work rdf:about=""><dc:format>image/svg+xml</dc:format><dc:type rdf:resource="http://purl.org/dc/dcmitype/StillImage"/><dc:title/></cc:Work></rdf:RDF></metadata>
<path id="path3" d="m68.623,67.451c-0.0034-0.20078-0.01342-0.31475-0.01342-0.31475l-0.000332,0.00082c-0.06279-1.0658-0.23606-2.1093-0.52828-3.0752-0.38714-1.2737-0.97737-2.3984-1.6602-3.3872-0.09989-0.14081-0.20177-0.2783-0.3053-0.41431h0.000991s-0.01077-0.01358-0.02766-0.03363c-0.24865-0.32452-0.5079-0.6343-0.78786-0.91774-0.39625-0.42176-0.80824-0.81553-1.228-1.1891-0.73585-0.65434-1.4858-1.2587-2.2451-1.8252-0.01226-0.0101-0.0227-0.01889-0.03495-0.02916-3.3514-2.7355-5.0661-2.794-5.0661-5.8318,0-1.2282,1.1006-3.1728,4.0942-5.4758,2.9939-2.3028,5.3003-5.271,5.2955-8.9173-0.0047-3.6025-1.3953-6.4691-1.3953-6.4691l-0.002,0.0036c-0.78008-1.847-1.9934-3.4411-3.5157-4.7218l0.000991-0.0023s-0.20475-0.59355,0.12805-1.0029c0.33264-0.4095,2.6609-3.6078,2.6609-3.6078s0.4095-0.58858,0.25577-0.89554c-0.1534-0.30713-2.0725-1.8678-2.0725-1.8678s-0.40934-0.12789-0.86986,0.23026c-0.46053,0.35832-5.3225,3.3347-6.4994,3.4457-1.1768,0.11099-4.0937,0.17493-4.0937,0.17493v0.0071c-1.4747,0.0288-2.9846,0.24001-4.4931,0.65813-8.4656,2.3463-13.677,10.208-11.639,17.559,1.7472,6.3057,8.2603,10.184,15.42,9.6803-0.3873,0.62105-0.77246,1.5954-0.77246,3.0184,0,2.4746,1.9622,4.7848,2.4986,5.3701-0.11348-0.0049-0.22579-0.0098-0.34937-0.0098-1.3435,0-4.6826,0.03827-7.6172,0.50376-0.02452,0.0034-0.04722,0.0085-0.07139,0.01243-1.1092,0.13501-2.1564,0.38018-3.1758,0.71994-1.0768,0.36693-2.1244,0.81636-3.1882,1.3284-0.53689,0.25064-1.0504,0.55346-1.5855,0.85843-0.53027,0.3116-1.0532,0.66163-1.5621,1.059-0.50856,0.39691-1.0054,0.83955-1.4639,1.344-0.23208,0.24931-0.4534,0.51635-0.67008,0.79184-0.2069,0.28261-0.40768,0.57532-0.59288,0.88295-0.47179,0.78852-0.83524,1.6753-1.0638,2.6008-0.36395,1.2963-0.71862,3.1856-0.42806,5.0333,0.5147,3.2752,2.7769,5.568,5.3047,7.3517,0.94143,0.71332,1.9678,1.2388,2.9919,1.6584,1.0832,0.45406,1.8052,0.60796,1.8052,0.60796l-0.0032-0.0053c0.79366,0.21684,1.5838,0.37306,2.3676,0.48024l-0.00082,0.0038s9.453,1.6355,16.886-2.139c1.3466-0.6835,2.4941-1.4275,3.4808-2.2011,0.32784-0.24468,0.65086-0.49747,0.9628-0.76699,1.6743-1.5042,3.1085-3.3118,4.1053-5.5338,0.1196-0.27632,0.23639-0.58858,0.33032-0.87301,0.05799-0.20094,0.10403-0.36643,0.14329-0.53673,0.04241-0.17129,0.07289-0.3444,0.10685-0.51834,0.1206-0.69609,0.19365-1.4097,0.19581-2.1171,0.0016-0.23606-0.0041-0.47129-0.01326-0.70586zm-27.095-29.455c-2.0149-6.207,0.09906-12.455,4.7219-13.955,4.6226-1.5007,10.004,2.3146,12.018,8.5212,2.0149,6.2072-0.09923,12.455-4.7219,13.955-4.6223,1.5005-10.004-2.3149-12.018-8.5214zm-2.2314,37.504c-0.52298-0.54402-0.93579-1.1409-1.2789-1.7571-0.33695-0.62287-0.56555-1.2898-0.74247-1.9879-0.04274-0.17427-0.0767-0.35517-0.10801-0.53292l-0.03711-0.25263-0.02419-0.18587-0.0057-0.04341c0.002,0.01442,0.0073,0.04987,0.0032,0.01921l-0.0014-0.0159-0.0053-0.06262c-0.02601-0.33363-0.04341-0.65749-0.03031-0.97522,0.0069-0.63844,0.09409-1.259,0.24517-1.9402,0.04142-0.16864,0.09277-0.33827,0.15025-0.5094,0.05368-0.17444,0.11049-0.35185,0.18222-0.52762,0.13998-0.35218,0.31061-0.71116,0.51387-1.0663,0.4042-0.71116,0.93911-1.4111,1.5852-2.0203,0.64755-0.60614,1.39-1.1442,2.1913-1.5655,0.79664-0.42723,1.6393-0.78538,2.4751-1.006,0.46997-0.11927,0.94689-0.22976,1.4265-0.3343,0.4809-0.0984,0.96661-0.18057,1.4533-0.26356,0.97406-0.15986,1.9544-0.31475,2.9407-0.43137,0.8364-0.08664,1.6796-0.17974,2.5158-0.23556h1.747s0.02584,0.01988,0.06841,0.05268c0.01972,0.01573,0.03843,0.03296,0.05881,0.04821,0.06013,0.04853,0.12176,0.09393,0.18206,0.14147,1.4068,1.1162,7.182,5.8598,8.0908,9.1921,1.033,3.7881-2.3217,9.1106-8.617,10.051-0.41133,0.05665-0.8248,0.10304-1.2408,0.13286-0.23656,0.01573-0.47245,0.03098-0.69874,0.03876-0.21403,0.0093-0.51155,0.01988-0.71961,0.02087-0.96114,0.01126-1.9166-0.01525-2.8587-0.09327-0.94176-0.08697-1.8698-0.23126-2.7693-0.42839-1.7956-0.40967-3.4821-1.066-4.8675-1.9637-0.6946-0.44363-1.3007-0.95932-1.825-1.4984z"/>
<g id="g5" transform="matrix(0.16565657,0,0,0.16565657,7.5090908,8.509088)">
	<path id="path7" d="m429,29c14.608,0,28.397,5.744,38.826,16.173,10.43,10.43,16.17,24.219,16.17,38.827v345c0,14.608-5.744,28.397-16.174,38.826-10.43,10.43-24.22,16.17-38.83,16.17h-345c-14.608,0-28.397-5.74-38.827-16.17-10.429-10.43-16.173-24.22-16.173-38.83v-345c0-14.608,5.744-28.397,16.173-38.827s24.219-16.173,38.827-16.173h345m0-20h-345c-41.25,0-75,33.75-75,75v345c0,41.25,33.75,75,75,75h345c41.25,0,75-33.75,75-75v-345c0-41.25-33.75-75-75-75z"/>
</g>
</svg>
