<?xml version="1.0" encoding="UTF-8" standalone="no"?>
<!-- Created with Inkscape (http://www.inkscape.org/) -->
<svg xmlns:rdf="http://www.w3.org/1999/02/22-rdf-syntax-ns#" xmlns="http://www.w3.org/2000/svg" version="1.1" xmlns:cc="http://creativecommons.org/ns#" xmlns:dc="http://purl.org/dc/elements/1.1/" viewBox="0 0 100 100">
 <defs></defs>
 <metadata>
  <rdf:RDF>
   <cc:Work rdf:about="">
    <dc:format>image/svg+xml</dc:format>
    <dc:type rdf:resource="http://purl.org/dc/dcmitype/StillImage"/>
    <dc:title/>
   </cc:Work>
  </rdf:RDF>
 </metadata>
 <path d="m52.994,86.826c4.4935-0.47684,7.9986-1.7091,8.9597-3.1496,0.43206-0.64749,0.38463-0.99593-0.29301-2.152-0.32872-0.56072-0.69839-1.2615-0.82151-1.5571-0.12312-0.29571-0.49296-1.079-0.82188-1.7407-1.8813-3.7845-3.9064-9.576-4.2756-12.228-0.05086-0.36561-0.08942-1.9444-0.08564-3.5085,0.0054-2.3003,0.05693-3.0726,0.26842-4.039,0.2913-1.3307,1.2027-3.5552,1.6713-4.0791,0.16762-0.18751,0.52646-0.67347,0.79743-1.08,1.0079-1.5121,3.324-3.7228,4.147-3.9583,1.6525-0.47289,4.6822-1.8625,6.9266-3.1767,4.7815-2.7998,9.6007-7.4261,12.306-11.813,1.4357-2.3284,1.9918-3.3757,2.3389-4.4052,0.18143-0.53823,0.53837-1.4957,0.7932-2.1278,0.84441-2.0946,1.7388-6.3781,1.65-7.902l-0.03984-0.68311-36.74-0.03388c-24.838-0.0228-36.793,0.01058-36.905,0.10333-0.18382,0.15257-0.16076,0.58771,0.15301,2.887,0.48285,3.5383,1.2796,6.0603,2.9928,9.474,2.0038,3.9928,4.3114,6.9695,7.8738,10.157,1.8758,1.6784,3.16,2.6503,5.1764,3.9173,2.0572,1.2927,5.1006,2.7563,7.4339,3.5752,0.8347,0.29297,1.0548,0.42305,2.2161,1.3091,2.0662,1.5767,4.1526,4.9356,4.7513,7.6494,0.59669,2.7045,0.44209,7.006-0.36016,10.02-1.3551,5.0918-1.7697,6.1831-4.1052,10.806-0.95618,1.8925-1.7385,3.5907-1.7385,3.7738,0,0.47882,0.57518,1.2567,1.2954,1.7522,1.2278,0.84488,4.5628,1.8159,7.3051,2.1269,0.70216,0.08054,1.4581,0.16609,1.6798,0.19177,1.0388,0.12156,3.8036,0.06534,5.4507-0.10789z" fill="#000"/>
 <path d="m24.971,75.399c1.7166-0.2138,3.096-0.55814,4.0139-1.0026,0.68336-0.33081,1.4246-1.0284,1.4246-1.3407,0-0.1246-0.5624-1.3425-1.2498-2.7054-1.3602-2.6969-1.8108-3.9105-2.3076-6.214-0.50645-2.3483-0.62544-3.5962-0.47204-4.9505,0.15339-1.3539,0.8435-3.4301,1.4589-4.3891,0.76278-1.1886,1.1591-1.4617,2.7769-1.9136,1.3303-0.37153,3.422-1.3574,3.422-1.613,0-0.05166-0.74079-0.35178-1.6462-0.66952-2.5817-0.90536-5.7114-2.6644-8.6872-4.8822-1.8606-1.3868-5.1481-4.6444-6.2799-6.2229-0.52129-0.72711-1.3541-1.8844-1.8507-2.572-0.49656-0.68745-1.0181-1.519-1.1591-1.8478l-0.25622-0.59765h-7.0793-7.0793l0.077997,0.9742c0.20531,2.565,0.98284,5.0313,2.3209,7.3619,1.5358,2.675,2.2083,3.4555,5.1459,5.9711,2.2073,1.8903,4.729,3.3754,6.7466,3.9731,2.3443,0.69444,2.7637,1.0289,3.8724,3.0885,0.7339,1.3635,0.97541,2.4895,0.97804,4.5605,0.0039,3.0866-0.75697,5.7841-2.7604,9.7869-0.71037,1.4191-1.2916,2.726-1.2916,2.9037,0,0.39342,0.74813,1.0859,1.5316,1.4175,0.97664,0.41332,2.385,0.7025,4.8516,0.99562,0.92818,0.11093,1.9828,0.0775,3.498-0.11245z" fill="#000"/>
 <path d="m80.602,75.261c1.5698-0.27292,2.34-0.50571,3.175-0.96022,0.74251-0.40405,1.1925-0.88318,1.1925-1.2696,0-0.13676-0.5085-1.2391-1.13-2.4509-2.698-5.2601-3.6491-11.074-2.2958-14.035,0.46966-1.0274,1.7459-2.9393,2.0823-3.1194,0.15832-0.08509,0.90333-0.3381,1.6556-0.563,3.2258-0.96477,6.2352-2.9528,9.4063-6.2138,1.2767-1.3131,1.859-2.128,3.2297-4.52,0.73974-1.291,0.94886-1.8051,1.3082-3.2165,0.65146-2.5587,0.81144-3.3695,0.76763-3.8906l-0.04012-0.47684h-7.3209-7.3209l-0.47875,0.87345c-1.3713,2.5021-2.9094,4.4317-5.8133,7.2935-2.9038,2.8615-4.3054,3.9225-7.9327,6.0047-1.69,0.97009-2.5507,1.3655-4.1225,1.894-0.62704,0.21076-1.1589,0.43976-1.182,0.5089-0.05852,0.17566,1.6692,1.1502,2.5409,1.4333,1.8009,0.58519,2.904,1.0708,3.3177,1.4608,0.61761,0.58215,1.6996,2.7994,1.979,4.0553,0.17712,0.7961,0.2145,1.4147,0.16103,2.6652-0.13093,3.0622-0.93636,5.7748-2.8116,9.4687-0.72577,1.4298-1.3196,2.6801-1.3196,2.7782,0,0.34114,0.71197,1.0219,1.4626,1.3985,2.1584,1.0824,6.1811,1.4559,9.4897,0.88105z" fill="#000"/>
</svg>
