<?xml version="1.0" encoding="UTF-8" standalone="no"?>
<!-- Created with Inkscape (http://www.inkscape.org/) -->

<svg
   xmlns:dc="http://purl.org/dc/elements/1.1/"
   xmlns:cc="http://creativecommons.org/ns#"
   xmlns:rdf="http://www.w3.org/1999/02/22-rdf-syntax-ns#"
   xmlns:svg="http://www.w3.org/2000/svg"
   xmlns="http://www.w3.org/2000/svg"
   version="1.1"
   width="417.3689"
   height="559.35919"
   id="svg2">
  <defs
     id="defs4" />
  <metadata
     id="metadata7">
    <rdf:RDF>
      <cc:Work
         rdf:about="">
        <dc:format>image/svg+xml</dc:format>
        <dc:type
           rdf:resource="http://purl.org/dc/dcmitype/StillImage" />
        <dc:title></dc:title>
      </cc:Work>
    </rdf:RDF>
  </metadata>
  <g
     transform="translate(-939.66065,233.96792)"
     id="layer1">
    <g
       transform="translate(265.71429,-402.85714)"
       id="g3050">
      <path
         d="m 841.42925,724.03312 c -7.39357,-2.67724 -16.35538,-6.77617 -19.91523,-9.10866 -3.55981,-2.33249 -13.17473,-6.2319 -21.36649,-8.66541 -22.05619,-6.55218 -42.17195,-20.63523 -53.1315,-37.19738 -6.05159,-9.14514 -15.12372,-17.70039 -24.0618,-22.69068 -7.89117,-4.40583 -17.83479,-12.58252 -22.09692,-18.17044 -10.4871,-13.74926 -18.14363,-44.55132 -15.52258,-62.44681 2.3744,-16.21148 11.98068,-39.69106 16.23893,-39.69106 1.6099,0 5.80719,5.94944 9.32727,13.22101 3.52011,7.27156 9.0393,15.60936 12.26488,18.52849 9.8095,8.87748 14.06548,3.98763 16.19956,-18.61247 4.59748,-48.68661 0.45625,-66.35076 -18.32289,-78.15493 -5.34978,-3.36274 -15.97331,-10.01045 -23.60783,-14.7726 -17.44737,-10.88313 -23.48829,-20.02272 -23.48829,-35.53649 0,-9.97204 2.02939,-14.29367 11.05055,-23.53218 17.5665,-17.98971 21.40189,-38.93296 10.89982,-59.51907 -17.69875,-34.69319 -12.09122,-52.60979 18.77972,-60.00341 9.51156,-2.27801 12.88952,-10.50362 10.20031,-24.83838 -2.0909,-11.14542 -14.72432,-22.62855 -30.43007,-27.6593 -13.42841,-4.30127 -11.11177,-10.43978 7.56722,-20.0511 14.61626,-7.52084 19.11455,-8.40319 36.86031,-7.23035 24.84567,1.64213 40.91524,9.4349 62.03021,30.08088 9.42334,9.21405 17.38433,14.63812 20.00725,13.63161 2.39599,-0.91941 5.89982,-7.80129 7.78626,-15.29302 3.32077,-13.18789 16.28016,-32.29768 21.90283,-32.29768 1.51682,0 2.75786,2.61281 2.75786,5.80623 0,17.73185 9.4816,20.31734 16.93181,4.61706 5.08691,-10.72018 21.34287,-25.55776 28.00063,-25.55776 2.05068,0 3.49796,4.90659 3.49796,11.86002 0,22.91113 4.36292,25.80095 22.65769,15.00681 5.99294,-3.536 11.67292,-5.65268 12.62186,-4.70374 0.94894,0.9489 0.0665,8.63824 -1.96005,17.0874 -2.90526,12.11053 -2.89897,16.30947 0.037,19.83819 6.14058,7.39886 12.20419,5.21237 28.63179,-10.32412 20.08279,-18.99354 37.68168,-27.8555 59.19108,-29.80592 19.8275,-1.79792 36.1893,2.58452 51.0116,13.66329 10.2449,7.65753 10.2449,7.65753 -8.0961,15.98324 -18.3828,8.3443 -27.8783,19.34491 -27.8783,32.29715 0,9.47843 8.4766,18.19807 19.7455,20.31214 21.3433,4.00404 27.6088,28.05301 13.5838,52.14054 -5.6685,9.73608 -6.9819,17.59239 -6.4078,38.33338 0.2553,9.23393 2.7249,13.96835 12.1539,23.30363 14.2086,14.06738 17.4157,25.57781 11.2431,40.35138 -4.3963,10.52122 -12.3645,17.22741 -42.1668,35.4887 -21.2267,13.0067 -24.3543,22.48002 -21.66,65.60505 1.5887,25.42214 3.2827,34.94426 6.4318,36.15274 5.795,2.2237 14.0504,-5.78845 22.6323,-21.96557 3.9248,-7.39796 8.1319,-13.45085 9.3495,-13.45085 1.2176,0 5.2918,5.78892 9.054,12.86429 5.4734,10.29427 6.8387,17.73358 6.8323,37.23715 0,30.47237 -8.6277,49.62576 -28.5308,63.4071 -7.2127,4.99435 -18.0299,14.34607 -24.0384,20.78157 -31.31613,33.54274 -36.34196,37.64824 -52.23651,42.66834 -8.90933,2.81382 -24.95477,9.4259 -35.6569,14.69347 -17.59484,8.66019 -22.52269,9.65442 -51.45708,10.38184 -23.47494,0.59015 -35.57957,-0.49225 -45.44152,-4.06332 z m 75.90319,-12.46911 c 28.29216,-9.04754 58.16629,-45.7414 62.32275,-76.54987 1.11246,-8.2474 -0.0554,-11.9556 -5.23936,-16.64791 -6.3359,-5.73406 -10.99812,-6.03706 -92.88682,-6.03706 -86.21626,0 -86.21626,0 -92.22506,7.42052 -7.24739,8.95019 -5.73601,21.27712 5.27234,43.00104 13.36606,26.37662 32.70777,43.2155 58.78234,51.17572 13.75017,4.19787 47.33829,2.95753 63.97381,-2.36244 z M 812.09622,654.49016 c -18.82258,-19.95778 -12.64098,-26.5987 23.19439,-24.91802 17.39058,0.81563 19.68524,1.64679 20.50931,7.42864 0.56353,3.95369 -2.82836,10.78838 -8.6375,17.40462 -12.52176,14.26148 -21.67495,14.28365 -35.0662,0.0847 z m 108.76007,3.99913 c -8.88862,-9.75862 -13.74764,-20.20671 -11.78094,-25.3316 1.34073,-3.4941 6.97073,-4.24158 26.71835,-3.54707 23.4224,0.82375 25.08203,1.31985 25.99731,7.77192 1.28488,9.05419 -17.22152,27.91729 -27.38947,27.91729 -4.03807,0 -10.1335,-3.06474 -13.54525,-6.81054 z M 781.523,671.79664 c -7.2189,-9.70628 -20.06377,-12.89188 -18.46282,-4.57891 1.34062,6.96131 21.61628,21.00147 23.25011,16.09985 0.64366,-1.93085 -1.51064,-7.11529 -4.78729,-11.52094 z m 210.03039,6.97016 c 11.34141,-8.65054 13.25521,-16.49391 4.0248,-16.49391 -3.63193,0 -8.52424,3.97879 -12.09658,9.83744 -10.09907,16.56424 -7.60997,18.61725 8.07178,6.65647 z M 771.63246,633.92561 c 0,-8.62953 2.09997,-15.88247 6.05379,-20.90895 10.56015,-13.42502 5.93363,-20.19146 -13.8943,-20.321 -12.90575,-0.0845 -42.59816,-17.87921 -50.98847,-30.55787 -4.45863,-6.7374 -9.73182,-11.71344 -11.71823,-11.0579 -5.86148,1.9343 -6.21345,37.8515 -0.5171,52.76714 8.7491,22.90914 36.22402,42.197 61.22693,42.98238 9.64336,0.30301 9.83738,0.0485 9.83738,-12.9038 z m 250.89974,8.78976 c 31.2791,-11.03596 45.7357,-32.36754 45.7357,-67.48599 0,-23.92581 -4.2172,-30.58645 -11.8136,-18.6577 -13.2048,20.73662 -32.9125,32.16846 -64.61531,37.48157 -13.04808,2.18675 -14.47533,7.29535 -5.29701,18.96341 3.5752,4.54525 6.05355,12.27942 6.05355,18.89101 0,6.15723 0.90826,12.103 2.01813,13.21284 3.28748,3.28755 14.52864,2.31916 27.91854,-2.40514 z m -65.25727,-51.57446 c -0.28116,-3.32957 -3.82979,-16.95062 -7.88602,-30.26897 -4.0562,-13.31832 -8.28373,-29.66353 -9.39434,-36.32272 -1.85274,-11.10665 -1.64742,-11.63346 2.48611,-6.37269 2.47837,3.15418 9.61374,18.64069 15.85677,34.41448 11.35143,28.67957 11.35143,28.67957 30.05616,27.17818 10.28735,-0.82582 20.19639,-2.42346 22.01949,-3.55031 2.3049,-1.42436 2.7236,-15.71947 1.3737,-46.90666 -1.8169,-41.97642 -1.5217,-45.72558 4.5981,-58.36741 5.145,-10.62849 10.657,-15.9174 25.8453,-24.79987 26.8345,-15.69332 32.7257,-22.58804 31.5381,-36.90963 -0.7757,-9.35627 -2.3576,-11.90319 -8.247,-13.27984 -9.8683,-2.30663 -16.0894,-20.01828 -16.5585,-47.14023 -0.3331,-19.16866 0.4853,-22.37857 7.9544,-31.2579 10.5753,-12.57175 11.4194,-28.74964 1.7699,-33.91396 -9.1583,-4.90127 -39.6729,-1.80263 -60.66502,6.16044 -9.50124,3.60421 -27.54926,13.25999 -40.10636,21.45735 -12.55712,8.19737 -22.83085,13.53924 -22.83085,11.87086 0,-5.21637 24.21486,-29.58491 38.14081,-38.38247 7.31772,-4.62307 13.30771,-9.40786 13.31066,-10.63281 0,-4.02412 -22.35578,-17.12749 -40.86143,-23.93946 -15.50752,-5.70838 -24.56299,-6.70979 -62.04749,-6.86146 -38.38094,-0.15535 -46.35936,0.69729 -63.56465,6.79267 -10.82116,3.83364 -25.08816,10.50483 -31.70445,14.82485 -12.02967,7.85458 -12.02967,7.85458 -1.74945,15.68637 19.34017,14.73391 42.5346,37.46206 42.5346,41.67945 0,2.69311 -6.6339,-0.29079 -18.38044,-8.26781 -30.14417,-20.47052 -55.16907,-30.77661 -78.84391,-32.47054 -17.28895,-1.23703 -21.99968,-0.55136 -26.94225,3.92162 -8.65739,7.83487 -7.64789,21.28846 2.3341,31.10543 7.75608,7.62791 8.30798,9.83829 8.08986,32.40151 -0.27154,28.07524 -6.67103,46.91687 -15.93552,46.91687 -10.12065,0 -13.0735,17.85044 -4.88644,29.53911 2.56987,3.66906 14.15199,12.20729 25.73796,18.97388 31.9084,18.63547 34.46713,25.25683 32.33495,83.67459 -1.67861,45.99136 -1.67861,45.99136 7.5893,49.22216 5.0973,1.77696 15.04422,3.23077 22.10423,3.23077 12.83639,0 12.83639,0 25.6244,-31.8185 7.0334,-17.50014 14.1426,-32.65566 15.7982,-33.67892 4.39639,-2.71709 0.13457,19.31373 -9.97252,51.55141 -6.43679,20.53104 -7.67372,27.97093 -4.94256,29.72951 2.00346,1.29009 36.33315,2.01236 76.28809,1.60505 70.57391,-0.71951 72.63086,-0.91324 72.13401,-6.7944 z M 826.07019,439.41012 c -0.075,-14.09559 -3.12171,-16.58085 -15.62265,-12.74421 -21.81793,6.69614 -46.48696,-4.14478 -57.19519,-25.13467 -3.5842,-7.02565 -9.04744,-14.91116 -12.14056,-17.52339 -4.49828,-3.79894 -5.25899,-7.32417 -3.80094,-17.61385 1.82285,-12.86427 1.82285,-12.86427 15.80209,-12.83471 19.15467,0.0407 41.40609,11.05242 63.6443,31.49666 15.93734,14.65166 20.00421,16.90408 30.52126,16.90408 15.50068,0 16.27315,6.84262 1.74062,15.41702 -6.62191,3.90703 -11.08593,9.28583 -12.30214,14.82322 -1.04985,4.78012 -3.86446,10.31409 -6.25466,12.29773 -3.60382,2.99093 -4.35369,2.12231 -4.39213,-5.08788 z M 809.27158,417.1694 c 11.22519,-4.26779 9.65531,-9.92347 -6.87452,-24.76628 -25.48136,-22.88078 -39.84528,-26.52739 -39.84528,-10.11568 0,26.36383 23.32314,43.77736 46.7198,34.88196 z m 121.22655,18.87972 c -3.41509,-8.13725 -9.18237,-15.06893 -15.77242,-18.95713 -13.03879,-7.69318 -11.47571,-13.13217 4.39473,-15.29301 9.39175,-1.27872 16.48792,-5.50626 30.02245,-17.88606 21.65622,-19.80812 43.10939,-30.31375 61.98381,-30.35363 13.9416,-0.0296 13.9977,0.0113 15.8886,11.83747 2.1077,13.18074 0.063,21.42881 -5.3096,21.42881 -1.946,0 -6.2271,5.7889 -9.5135,12.86429 -10.2393,22.0432 -36.98166,34.29264 -58.15329,26.63696 -12.19492,-4.40975 -13.17827,-3.72335 -15.99957,11.16578 -2.15722,11.38431 -2.15722,11.38431 -7.54121,-1.44348 z m 51.39971,-20.22962 c 11.61852,-4.85456 19.77836,-18.04251 19.77836,-31.96551 0,-18.06004 -11.98331,-15.57601 -39.0402,8.09264 -16.91891,14.80016 -19.01437,20.8809 -8.63334,25.05356 9.83533,3.95329 16.25817,3.68145 27.89518,-1.18069 z M 872.22569,367.01753 c -14.838,-6.23893 -11.84456,-8.94747 9.88823,-8.94747 20.7761,0 23.8549,3.28704 8.82349,9.42055 -7.12575,2.90756 -10.89821,2.81219 -18.71172,-0.47308 z M 760.04328,263.76725 c 3.04448,-2.75522 5.53539,-8.05956 5.53539,-11.78745 0,-8.89201 -15.75928,-25.5796 -24.15664,-25.5796 -5.69774,0 -6.35503,1.23344 -4.83937,9.0807 0.96471,4.99434 2.54147,13.15888 3.50395,18.14333 0.96252,4.98444 4.02722,10.39146 6.81051,12.01552 6.70889,3.91471 6.75928,3.90753 13.14616,-1.8725 z m 260.87592,-1.80103 c 2.3362,-3.74579 5.0658,-13.28049 6.0655,-21.18827 1.5948,-12.61279 1.1324,-14.37775 -3.7651,-14.37775 -7.1187,0 -21.1158,13.89 -23.47681,23.29779 -1.18056,4.70428 0.0554,9.27933 3.55741,13.14691 7.0282,7.76604 12.394,7.49845 17.619,-0.87868 z M 792.53964,240.35989 c 7.16292,-8.63072 -23.94525,-34.74825 -47.13872,-39.57626 -12.89186,-2.68365 -31.27943,1.00723 -31.27943,6.27862 0,2.91694 3.93738,4.22383 12.86429,4.26997 16.54532,0.0856 34.34401,8.42676 47.51062,22.26559 11.63472,12.22874 13.06231,12.76377 18.04324,6.76208 z m 197.19206,-6.76208 c 13.1668,-13.83883 30.9655,-22.18008 47.5107,-22.26559 9.0296,-0.0467 12.8643,-1.34058 12.8643,-4.34079 0,-6.00727 -20.8894,-8.96214 -35.5153,-5.0238 -22.29773,6.00412 -46.07086,27.67816 -41.99874,38.29013 2.51646,6.55719 5.7651,5.29482 17.13904,-6.65995 z"
         id="path3335"
         style="fill:#535353" />
    </g>
  </g>
</svg>
