<?xml version="1.0" encoding="UTF-8" standalone="no"?>
<!-- Generator: Adobe Illustrator 19.2.1, SVG Export Plug-In . SVG Version: 6.00 Build 0)  -->

<svg
   xmlns:dc="http://purl.org/dc/elements/1.1/"
   xmlns:cc="http://creativecommons.org/ns#"
   xmlns:rdf="http://www.w3.org/1999/02/22-rdf-syntax-ns#"
   xmlns:svg="http://www.w3.org/2000/svg"
   xmlns="http://www.w3.org/2000/svg"
   xmlns:sodipodi="http://sodipodi.sourceforge.net/DTD/sodipodi-0.dtd"
   xmlns:inkscape="http://www.inkscape.org/namespaces/inkscape"
   version="1.1"
   id="svg2"
   x="0px"
   y="0px"
   viewBox="0 0 417.4 559.4"
   xml:space="preserve"
   inkscape:version="0.48.4 r9939"
   width="100%"
   height="100%"
   sodipodi:docname="gulp-alt.svg"
   style="enable-background:new 0 0 417.4 559.4;"><metadata
     id="metadata15"><rdf:RDF><cc:Work
         rdf:about=""><dc:format>image/svg+xml</dc:format><dc:type
           rdf:resource="http://purl.org/dc/dcmitype/StillImage" /></cc:Work></rdf:RDF></metadata><defs
     id="defs13" /><sodipodi:namedview
     pagecolor="#ffffff"
     bordercolor="#666666"
     borderopacity="1"
     objecttolerance="10"
     gridtolerance="10"
     guidetolerance="10"
     inkscape:pageopacity="0"
     inkscape:pageshadow="2"
     inkscape:window-width="1449"
     inkscape:window-height="738"
     id="namedview11"
     showgrid="false"
     inkscape:zoom="0.59662925"
     inkscape:cx="373.39067"
     inkscape:cy="219.52756"
     inkscape:window-x="535"
     inkscape:window-y="485"
     inkscape:window-maximized="0"
     inkscape:current-layer="svg2" /><path
     d="m 304.125,-1.09375 c -5.49463,2.4344427 -8.00617,8.9927186 -12.75695,12.625796 -18.21382,19.567176 -37.2294,38.193047 -54.68055,58.186704 -3.51583,8.544851 -4.90004,18.101704 -7.65455,26.998925 -2.49899,9.529415 -5.02847,19.135655 -7.09545,28.813575 -31.64076,0.0113 -63.60187,0.57435 -94.90625,3.6875 -7.93274,1.0392 -15.86287,1.56756 -23.6589,3.29995 -6.585366,1.89827 -15.970226,1.67807 -19.8411,8.26255 -0.970275,5.60536 6.570573,7.27349 10.492319,8.74506 31.264171,9.31967 64.335311,11.56595 96.882451,13.18261 35.17076,1.11372 70.54703,-1.09104 105.21898,-6.61517 12.06039,-2.70722 25.13768,-3.99599 35.8125,-10.4375 3.71156,-2.35079 1.90154,-7.75609 -1.96875,-8.84375 -9.20451,-3.45963 -19.10246,-5.39318 -28.875,-6.1875 -8.72827,-1.81046 -17.59841,-1.65875 -26.40456,-2.87054 -8.38724,-0.8628 -17.46454,0.10123 -25.50169,-1.41071 3.75071,-8.82203 5.41633,-18.32828 8.53125,-27.3125 0.80806,-5.097888 3.14068,-10.006775 4.03125,-15.28125 3.92942,-9.354724 13.08607,-15.097895 18.875,-23.28125 13.84608,-15.374429 28.17369,-30.64677 41.78125,-46.125 0.67377,-4.5803381 -6.09947,-5.533229 -8.41435,-8.5201906 -3.73347,-1.6256327 -5.83317,-6.53916567 -9.8669,-6.9173094 z m 1.8125,14.1875 c 2.39493,2.84888 -1.73932,6.636573 -3.71875,8.5625 -11.84485,13.169855 -24.06086,26.574867 -35.75,39.46875 -3.41398,2.383111 -4.84313,6.362759 -7.90625,9.09375 -4.79471,6.505885 -7.72904,14.511864 -9.15625,22.1875 -3.5576,10.22411 -6.58616,20.88616 -8.25,31.5625 -0.40222,8.09047 8.04364,12.92776 15.3125,12.625 10.83751,0.81079 22.04533,0.63279 32.59375,2.90625 7.07689,1.24153 14.94365,0.38669 21.6875,2.6875 0.58329,2.67281 -5.01482,2.25902 -7.15625,3.15625 -12.34005,1.72236 -24.54278,4.85246 -37.0625,5.28125 -3.84772,1.54855 -7.79977,-0.56501 -11.6875,1.15625 -1.71253,-0.21719 -8.24956,2.3197 -5.65625,-1.46875 2.94547,-4.78931 -0.5063,-11.55524 -6.375,-11.09375 -6.52351,1.03919 -13.14066,2.19112 -19.75,0.8125 -3.66966,-0.73225 -8.33569,-1.66781 -10.5,1.90625 -3.88963,3.89855 1.27666,8.41675 2.375,12.0625 -35.01759,-0.0518 -70.54186,-1.9693 -104.65625,-9.375 -1.82115,-0.7769 -6.57806,-2.10141 -2.34375,-2.75 33.0268,-5.15592 66.66602,-6.0434 100.09329,-6.1055 7.74388,0.0648 17.33107,0.50227 21.75046,-7.2695 6.57695,-11.7458 6.84776,-25.65816 11.21875,-38.28125 2.05805,-7.647507 3.29795,-15.92719 9.75,-21.4375 4.60023,-4.953849 9.76645,-9.844601 14.21875,-14.5 C 276.1446,40.953057 289.45056,28.836135 301.28125,16 c 1.46085,-1.041912 2.6825,-3.185933 4.65625,-2.90625 z M 244.34375,144.5625 c 1.57497,2.78017 -4.28328,2.79134 -5.96875,3.6875 -6.94782,1.78449 -15.41433,1.34573 -21.40625,-2.3125 -0.49693,-3.11585 3.3702,0.98259 4.65625,1.28125 6.02348,2.41464 13.40759,1.80736 19.4375,-0.3125 1.40848,-0.38577 1.86493,-2.36487 3.28125,-2.34375 z"
     id="path5"
     inkscape:connector-curvature="0" /><path
     d="m 330.6875,147.1875 c -3.72541,1.85046 -7.39768,4.28297 -11.71875,5.21875 -24.51766,7.12052 -50.1584,9.3443 -75.52976,11.52336 -34.29238,2.18814 -68.87645,0.80031 -102.90774,-3.24211 -18.34451,-2.74395 -37.32508,-5.02253 -54.0625,-13.3125 -5.213174,0.69353 -2.110269,7.1075 -1.875,10.28125 1.993894,20.52901 3.917688,41.09683 5.78125,61.625 1.889282,21.00763 4.667187,42.22801 5.1875,63.4375 -0.446496,3.15422 3.578338,6.16647 5.40625,2.625 4.18476,-10.93647 7.58885,-22.42295 14.5625,-32.15625 8.13496,-11.96876 18.66076,-24.57938 33.4375,-27.6875 9.84258,-1.14521 19.33618,6.39763 22.4375,15.09375 1.09665,2.61793 -0.99059,7.6305 -4.125,6.875 -4.65273,-4.44761 -5.78012,-13.29104 -13.40625,-14.09375 -10.87155,-1.86786 -18.51454,8.19165 -24.56195,15.58631 -7.39043,10.3655 -13.6747,21.90021 -17.93805,33.91369 -0.3878,3.09797 -2.61239,5.75029 -2.4375,9.03125 -2.04401,7.49216 -2.92392,16.51143 0.53125,23.75 3.91493,4.75613 10.88725,2.37071 15.125,-0.4375 9.69967,-7.65968 19.19901,-16.97348 24.46875,-28.375 1.55609,-6.19842 3.2437,-12.60881 6.71875,-18.03125 2.68165,-3.2858 6.85881,1.7497 5.25,4.78125 -2.08673,12.5335 -8.7088,23.62904 -11.36077,35.92323 -3.11948,9.40296 -5.45405,18.81557 -8.35798,28.20177 -1.13579,1.77305 -2.46323,6.28019 -5.0625,5.8125 -3.51415,-2.36052 -0.36021,-7.5882 -0.40625,-10.84375 2.15916,-6.0493 4.09464,-12.45602 6.78125,-18 2.78599,-2.83983 -0.12161,-9.06185 -4.0625,-5.875 -7.86401,7.95227 -16.20543,18.68117 -28.375,18.84375 -3.07017,-0.56765 -7.18788,-4.47927 -9.46875,-0.21875 -0.69286,5.31403 1.60743,10.97903 1.60391,16.49459 1.35465,13.51766 2.5935,26.90257 3.86484,40.31791 2.17814,11.09371 0.0975,23.44867 5.0625,33.84375 2.57787,4.96921 8.22462,6.58629 12.90625,8.34375 2.56021,1.29018 5.70216,0.98428 8.21875,2.59375 4.33564,-0.20576 7.82302,2.74462 12.125,2.5 12.70454,2.9191 25.73967,3.91659 38.8125,4.75 22.79778,2.68815 46.0168,0.18882 68.84375,-1.375 9.07928,-1.99796 18.60275,-2.55532 27.4375,-5.40625 4.95995,-0.16721 8.97355,-3.29511 14.0625,-3.4375 5.38944,-3.02241 8.79467,-9.18405 10.15625,-15.09375 0.60807,-8.74254 2.07323,-17.33127 2.90625,-26.03125 1.37518,-8.00195 1.4497,-15.98807 2.90625,-23.9375 1.38301,-16.3986 3.63466,-32.86413 6.15625,-49.0625 0.1391,-3.73802 -4.65006,-3.61455 -6.21875,-0.96875 -7.95186,7.42681 -17.50428,17.54762 -29.5625,15.5 -6.59867,-0.84733 -4.9369,-9.6856 -1.25,-13.03125 5.02859,-8.71355 14.09662,-14.85708 17.65625,-24.3125 0.14379,-5.86635 -7.67718,-5.61894 -11.09375,-2.8125 -9.66119,5.78626 -16.54241,15.5652 -21.46875,25.46875 -0.39067,1.79519 -2.44305,3.08415 -2.375,5.25 -1.25095,3.59515 -3.87528,6.21429 -4.28125,10 -2.99986,6.76289 -6.2372,13.51106 -8.09375,20.59375 -1.25887,2.61489 -1.74336,5.28385 -3,7.875 -1.10475,3.37193 -6.92341,9.21663 -9.25,4.28125 0.0407,-7.57791 4.41854,-14.30693 7.375,-21.0625 3.01478,-7.56133 8.18532,-14.48889 10.625,-22.21875 -0.14308,-4.74748 -6.02462,-2.39395 -7.71875,0.0937 -5.15382,4.95151 -12.05258,10.98467 -19.65625,9.90625 -4.52653,-0.4537 -3.17125,-8.84971 -8.28125,-6.78125 -4.84216,3.07236 -9.60877,7.87702 -15.84375,6.8125 -4.30556,-1.49526 -2.37563,-7.53236 -1.8125,-10.90625 1.15124,-3.50084 -3.27518,-6.49646 -5.25,-2.78125 -5.14172,8.65093 -16.02412,17.1401 -26.375,12.4375 -4.20151,-3.14525 -2.83993,-9.68417 -1.8125,-13.96875 3.58625,-10.72676 7.31474,-21.82074 12.6875,-31.78125 1.11434,-3.44135 7.33748,-4.72428 7.65625,-0.25 -4.15321,11.15167 -12.63555,21.44847 -12.875,33.875 -0.10473,6.26203 8.71994,5.53931 12.0625,2.40625 7.49962,-5.19298 12.87295,-13.40194 16.59375,-21.375 3.12948,-5.2644 3.7432,-12.08323 7.53125,-17.15625 1.77576,-3.28041 5.85596,0.94513 4.375,3.46875 -2.70676,11.38561 -10.77178,21.66283 -11,33.84375 -0.2523,4.17283 4.32701,6.96033 7.75,4.28125 5.85859,-2.08321 11.65578,-5.9529 12.40625,-12.625 3.18432,-9.74762 7.79305,-19.00414 11.03125,-28.6875 3.05869,-5.86546 4.16955,-12.23978 7.375,-18.03125 2.87403,-8.20672 5.96652,-16.34649 10,-24.03125 1.81746,-3.87182 8.60741,-0.56426 6.25,3.125 -2.98058,8.13532 -7.49513,15.84739 -10.1875,23.9375 -4.46043,11.4539 -9.61473,22.87288 -14,34.375 -1.53204,6.40141 -7.13691,12.61863 -5.46875,19.46875 2.73947,4.31329 8.4196,0.96547 11.53125,-1.125 6.72929,-5.3756 14.18703,-10.46778 19.53125,-17.25 3.42876,-5.87582 3.29506,-14.59357 8.78125,-18.78125 3.9501,-0.95131 2.60832,3.93503 1.65625,5.90625 -1.59769,3.45119 3.2061,6.10005 5.46875,3.0625 3.43063,-3.93603 7.41966,-7.31804 11.90625,-9.875 5.09173,-3.54327 16.48401,-1.01168 15.03125,6.625 -2.62258,11.84087 -12.78452,19.88812 -19.6875,29.125 -2.22119,3.66189 1.87953,7.69561 5.53125,5.75 9.6859,-4.68669 17.03464,-13.35976 25.28125,-20 3.67777,-5.36956 1.92511,-12.87996 3.40788,-19.05445 0.997,-9.02218 2.17204,-17.99542 3.18587,-27.07055 0.61336,-9.38013 2.73318,-18.38346 3.10806,-27.86914 3.02946,-21.87204 4.70394,-44.22898 7.79819,-66.13086 -0.0717,-3.0548 3.964,-11.54604 -2.125,-12.28125 z m -11.59375,14.59375 c 1.88918,0.48574 3.46325,0.62537 2.65625,3.25 -1.53002,18.53209 -4.55099,36.88386 -5.9375,55.5 -2.45378,17.11225 -3.0469,35.2345 -6.875,51.71875 -5.23596,-3.97134 -11.94239,-6.74916 -18.5,-4.3125 -5.52845,0.90874 -9.86855,6.10143 -15.71875,3.71875 -6.91482,-2.43862 -13.88578,2.10817 -16.53125,8.40625 -3.15427,5.99566 -6.3648,14.0398 -11.59375,17.5625 5.41203,-17.70159 13.8945,-34.17416 20.375,-51.3125 0.71061,-3.82125 3.42067,-7.19849 1.5625,-11.28125 -1.92842,-4.71007 -6.53613,-9.56583 -11.78125,-10 -8.09443,1.44639 -14.27553,8.10166 -16.1875,15.90625 -3.04081,4.68973 -3.51789,10.3454 -6.53125,15.125 -2.83905,7.15835 -5.09923,15.11829 -9,21.53125 -2.23507,-5.48999 -8.34533,-11.30066 -15.03125,-8.8125 -5.5847,1.49768 -7.9258,7.95168 -11.625,11.71875 -1.03481,2.12188 0.17472,4.61925 -2.125,6.25 -1.2717,1.70229 -2.54191,6.5242 -3.25,6.6875 2.19567,-5.49644 6.40077,-12.1488 2.75,-17.96875 -2.88256,-5.71621 -10.75042,-10.68038 -16.53125,-5.6875 -3.32235,2.04438 -6.56237,5.06303 -8.875,7.78125 0.47869,-6.30778 -1.48228,-13.10347 -7.34375,-16.28125 -8.24004,-4.74218 -16.9145,3.66361 -19.46875,11.09375 -2.58762,6.19002 -4.26055,13.21517 -8.94719,18.48491 -3.89522,5.50264 -8.34858,10.35377 -13.89656,13.98384 -1.4914,1.05096 -3.68339,-0.0614 -2.75,-2.28125 -0.40308,-6.83761 2.54627,-13.05489 4.0625,-19.46875 5.97064,-13.60714 12.66158,-28.25999 24.9375,-37.34375 2.65208,-1.42144 5.82857,-2.05934 7.59375,1.15625 4.47374,4.73194 10.96623,11.72842 18.03125,7.59375 5.80215,-3.01478 9.0529,-9.59669 7.31929,-16.08674 -1.63099,-9.56717 -9.9771,-16.87715 -18.44429,-20.56951 -14.21263,-4.82703 -29.58195,1.70314 -39.44522,12.1872 -3.92852,4.20554 -8.9269,8.19675 -11.89853,13.1878 -2.23412,2.12276 -3.59451,7.04657 -6.15625,8 -1.52097,-11.13741 -2.32388,-22.49864 -3.62991,-33.74773 -1.485218,-16.7448 -3.45812,-33.4159 -4.71384,-50.22102 -0.367636,-2.79196 0.456025,-6.24131 4.09375,-5.125 13.90803,3.67446 27.93563,5.90074 42.1875,7.8125 27.05749,3.72485 54.82497,4.65382 82.25,4.0625 17.04519,-1.41416 34.32067,-1.12452 51.14951,-4.05338 14.58821,-2.00775 29.49385,-4.5592 43.81924,-8.16537 z m -161.71875,158.75 c 2.06275,10.51153 13.37941,18.72367 24,14.9375 4.60545,-0.42371 8.51116,-4.33105 13.03125,-4.09375 5.09569,2.76375 10.70757,6.76405 16.65625,3.75 3.98923,-1.31759 8.7582,-3.56011 12.28125,-0.25 2.87091,2.09471 7.39044,0.40027 9.78125,2.84375 -2.87116,2.60939 -1.9292,7.04601 -3.84375,10.3125 -2.50369,6.52686 -2.2105,14.72728 3.96875,19.09375 5.91605,6.1788 16.30328,1.24328 19.78125,-5.40625 6.97329,-9.86784 7.78746,-23.4182 15,-32.78125 5.0639,4.47391 11.28898,8.83008 18.46875,7.125 5.5271,-0.19374 10.62414,-4.06155 15.65625,-4.75 -0.54082,23.02701 -5.12496,45.64035 -7.03125,68.5 -0.16104,3.2269 -1.94414,6.00089 -1.8125,9.125 -1.54247,3.18041 -1.74486,6.98795 -5.40625,8.875 -11.41612,7.75836 -26.13519,7.32363 -39.24103,10.00862 -29.83626,3.08911 -60.24426,2.74161 -89.97772,-0.97737 -9.2629,-1.93892 -18.95203,-2.59846 -27.85276,-6.47892 -8.09531,-2.18202 -13.04904,-10.06874 -13.04379,-18.22903 -1.2875,-11.82487 -2.18491,-23.69598 -3.3847,-35.3858 -0.56957,-9.37303 -2.7194,-19.03142 -1.46875,-28.28125 3.81858,-1.63185 8.61063,-3.75537 12.34375,-3.9375 -0.6287,5.23315 0.79392,10.47438 5.125,13.65625 3.77128,4.71651 10.72354,3.69763 14.4375,-0.53125 4.07557,-2.87912 6.27957,-7.2659 7.3125,-11.96875 2.13494,-4.88397 2.70335,-10.47804 5.21875,-15.15625 z"
     id="path7"
     inkscape:connector-curvature="0" /><path
     d="m 116.59375,422.875 c -4.83693,2.31594 1.49362,7.45776 2.78125,10.40625 3.63135,6.7312 8.92385,12.42127 11.90625,19.46875 1.4916,27.62189 3.93502,55.24152 5.9375,82.8125 -0.44941,3.37309 2.59795,4.61105 5,5.4375 12.72873,7.53836 26.5263,13.04312 40.96875,16.1875 13.65649,2.84751 28.20112,4.60325 42.1875,1.8125 15.03358,-2.0486 29.47274,-6.99009 42.40625,-14.71875 3.87171,-2.75835 10.41289,-4.27709 9.84571,-10.24541 1.32055,-17.94553 1.97817,-35.93025 3.13774,-53.87369 1.42727,-9.8494 0.49368,-20.14569 1.6227,-29.78271 4.34901,-7.87017 10.99601,-14.77163 14.08135,-23.19194 -0.16651,-3.98407 -5.10838,-3.25143 -6.75,-0.90625 -8.15807,3.83272 -16.97828,6.34717 -25.84375,7.125 -14.86183,3.483 -30.65248,3.235 -45.96845,4.64938 -16.58328,0.85687 -32.99786,-1.05835 -49.4378,-1.99313 -8.93012,-0.91729 -17.43868,-2.7505 -26.1875,-4 -5.9075,-2.15597 -12.48817,-2.75673 -18,-6.09375 -2.55519,-0.98793 -4.82281,-3.47331 -7.6875,-3.09375 z m 20.90625,15.5 c 15.68896,2.52974 31.39082,6.05521 47.43351,6.12633 30.79847,2.08192 62.28476,-0.25237 92.22274,-5.84508 -7.37311,16.04645 -4.27212,34.34175 -7.09375,51.3125 -1.2218,13.68098 -0.1986,28.16014 -3.375,41.28125 -4.20991,6.21587 -12.42026,8.2632 -18.71875,11.71875 -5.44319,1.04381 -10.41076,4.64672 -16.21875,4.5625 -11.46027,3.52435 -24.07586,1.64292 -36,1.46875 -16.44853,-1.76509 -32.7524,-6.94385 -46.46875,-16.40625 -5.20626,-4.41068 -2.35843,-12.46787 -3.75,-18.4375 -1.28142,-18.76416 -2.95554,-37.41801 -4.24482,-56.21155 -0.26107,-7.02744 -3.72784,-13.16711 -5.66143,-19.7572 l 0.99504,0.0995 0.87996,0.088 z"
     id="path9"
     inkscape:connector-curvature="0" /></svg>