<?xml version="1.0" encoding="utf-8"?>
<!-- Generator: Adobe Illustrator 19.2.1, SVG Export Plug-In . SVG Version: 6.00 Build 0)  -->
<svg version="1.1"
	 id="svg2" xmlns:cc="http://creativecommons.org/ns#" xmlns:dc="http://purl.org/dc/elements/1.1/" xmlns:rdf="http://www.w3.org/1999/02/22-rdf-syntax-ns#" xmlns:svg="http://www.w3.org/2000/svg"
	 xmlns="http://www.w3.org/2000/svg" xmlns:xlink="http://www.w3.org/1999/xlink" x="0px" y="0px" viewBox="0 0 417.4 559.4"
	 style="enable-background:new 0 0 417.4 559.4;" xml:space="preserve">
<g transform="translate(0.000000,900.000000) scale(0.100000,-0.100000)">
	<path d="M3027.6,8979.8c-6.7-6.7-22.1-24.1-34.1-38.1c-12-14.7-50.1-55.5-84.3-90.3c-33.4-34.8-115-120.4-181.2-190.6
		c-66.2-69.5-127.7-135.1-137.1-144.4c-157.8-163.8-211.3-223.3-215.3-238.7c-14-54.2-20.7-81.6-29.4-113
		c-5.3-19.4-14-51.5-19.4-70.2c-4.7-19.4-14-54.8-20.1-78.9c-6-24.1-13.4-52.8-17.4-64.2c-3.3-10.7-8.7-33.4-12-50.1
		c-4-16-11.4-47.5-17.4-69.5c-6-22.1-14-55.5-17.4-73.6l-6.7-33.4l-232-2c-127.7-0.7-252.8-2.7-278.8-4.7
		c-25.4-2-112.3-6.7-193.2-10c-80.2-4-161.1-10-179.9-13.4c-18.1-4-50.8-6.7-71.5-6.7c-21.4,0-62.9-4.7-91.6-10
		c-28.8-5.3-64.2-10-78.9-10c-14.7,0-37.4-3.3-50.1-7.4c-12.7-3.3-38.1-9.4-56.8-12.7c-107-18.7-164.5-49.5-146.4-78.2
		c8-12.7,47.5-34.1,79.6-42.8c11.4-3.3,36.8-10.7,56.8-16.7c142.4-42.1,367.1-78.2,595.1-96.3c46.1-3.3,125.7-10,177.2-14.7
		c120.4-10.7,520.2-11.4,641.9-0.7c51.5,4.7,133.1,11.4,180.5,15.4c112.3,8.7,342.4,36.1,367.8,44.1c7.4,2,36.1,8,63.5,12.7
		c89.6,16,217.3,50.8,260.8,71.5c50.1,24.1,54.2,50.8,11.4,71.5c-16,8-32.8,14-37.4,14s-22.7,4-40.1,9.4
		c-54.8,17.4-123.7,30.8-154.5,30.8c-16.7,0.7-48.1,4.7-70.2,10c-22.1,5.3-62.9,10-90.3,10s-62.2,3.3-76.9,7.4
		c-14.7,4-99,9.4-187.2,12c-182.5,4.7-175.2,1.3-151.8,62.9c22.7,60.2,29.4,80.9,34.8,108.3c8.7,40.1,24.7,94.3,32.8,109.7
		c4,7.4,7.4,21.4,7.4,30.8c0,9.4,3.3,24.1,8,32.1c4,8,10,25.4,12.7,38.1c24.7,111.7,28.8,119,116.3,210
		c10.7,11.4,38.8,43.5,62.9,70.9c23.4,27.4,48.1,54.8,53.5,60.8c12.7,12.7,35.4,37.4,127.7,139.8
		c137.7,153.1,191.2,211.3,229.4,250.1c20.7,22.1,38.1,42.1,38.1,45.5c0,2.7-8,10-18.1,16.7c-31.4,19.4-119,86.3-128.4,98.3
		C3048.4,8995.2,3041.7,8994.5,3027.6,8979.8z M3073.1,8884.8c9.4-5.3,12.7-14,12.7-35.4c0-25.4-4.7-32.8-48.8-79.6
		c-26.1-28.1-60.2-65.5-74.9-82.9c-14.7-16.7-34.1-38.8-43.5-48.8c-10-9.4-44.1-47.5-76.9-84.3c-32.8-36.8-80.2-88.3-105-114.3
		c-24.7-26.7-45.5-50.8-45.5-54.2c0-4-7.4-10-16.7-14c-8.7-4-21.4-17.4-27.4-29.4s-16.7-26.1-22.7-30.1
		c-24.1-16.7-77.6-112.3-92.3-163.8c-8-28.8-14.7-57.5-14.7-64.2c0-6.7-2.7-14.7-6.7-18.7c-3.3-3.3-12.7-32.1-20.7-62.9
		c-7.4-31.4-16-62.9-19.4-70.2c-3.3-7.4-7.4-20.7-8.7-30.1c-2-9.4-10-41.5-17.4-72.2c-18.1-72.2-17.4-92.9,2.7-123
		c27.4-40.8,62.9-52.2,173.9-55.5c40.8-1.3,87.6-4,104.3-6.7c16.7-2,58.8-5.3,93.6-7.4c34.8-2,68.9-7.4,76.2-12
		c7.4-4.7,24.1-7.4,37.4-5.3c22.1,2,84.3-4,166.5-17.4c23.4-4,29.4-7.4,28.1-16.7c-2-12.7,9.4-15.4,14-2.7c2.7,6,4.7,6,12-0.7
		c7.4-6.7,7.4-10-0.7-17.4c-16-15.4-92.9-38.1-143.8-42.1c-25.4-2-48.1-6-50.1-8.7c-2-2-39.5-9.4-83.6-16
		c-44.1-6-90.9-13.4-103.6-15.4c-12.7-2-42.8-4.7-66.9-5.3c-24.1-1.3-50.8-4.7-60.2-8.7c-10-4-22.7-4-32.8,0
		c-10,3.3-23.4,3.3-33.4-0.7c-10-3.3-38.1-8-62.9-10c-52.2-4-60.2,2.7-44.8,38.8c16,39.5,16,56.8-0.7,74.9
		c-17.4,18.7-46.8,20.7-93.6,8c-35.4-10.7-78.2-9.4-184.6,5.3c-24.7,2.7-35.4,2-35.4-3.3c0-4,6-7.4,12.7-7.4
		c7.4,0,26.7-8.7,42.8-20.1c28.1-18.7,34.1-20.1,94.3-20.1c65.5,0,100.3,9.4,113,30.8c2.7,5.3,14,9.4,24.1,9.4
		c15.4,0,20.1-3.3,22.7-18.1c2-10,2-21.4,0.7-24.7c-8.7-22.1-137.1-52.2-184.6-43.5c-16,2.7-40.8,6.7-55.5,9.4
		c-14.7,2.7-38.1,9.4-51.5,15.4c-21.4,10-25.4,14.7-25.4,33.4c0,24.7-11.4,28.8-17.4,5.3c-2.7-11.4,2.7-24.7,18.7-48.1
		c26.7-39.5,26.7-62.2,0-63.5c-67.5-3.3-212,0.7-402.5,11.4c-87.6,4.7-225.3,16-280.8,22.7c-173.9,22.1-228,30.1-267.5,40.1
		c-16.7,4-43.5,8.7-60.2,10.7c-16.7,1.3-42.1,8.7-57.5,16c-14.7,7.4-32.1,13.4-38.1,13.4c-14.7,0-14.7,14.7,0.7,32.1
		c9.4,11.4,26.7,16,91.6,24.1c207.3,26.1,213.3,26.7,454.7,40.1c26.1,1.3,74.2,4.7,107,6.7c33.4,2,117.7,4,187.2,3.3
		c70.2-0.7,133.1,0,140.4,0c7.4,0.7,50.8,2,97,2.7c94.3,2,109.7,7.4,149.1,50.8c24.7,27.4,48.1,90.9,65.5,174.5
		c12,59.5,17.4,81.6,29.4,123.7c6,22.1,14,50.8,16.7,63.5c2.7,12.7,10.7,40.1,16.7,60.2c6,20.1,14,50.8,17.4,68.9
		c8.7,40.8,36.8,82.9,96.3,142.4c25.4,26.1,59.5,61.5,75.6,78.2c16,17.4,31.4,31.4,35.4,31.4c3.3,0,6,4,6,9.4s42.8,53.5,95.6,106.3
		c52.2,53.5,120.4,123.7,151.8,156.5c31.4,32.8,77.6,80.9,102.3,107c25.4,26.7,52.2,49.5,60.2,50.8c8,1.3,15.4,3.3,16.7,4
		C3059.1,8890.9,3065.7,8888.2,3073.1,8884.8z"/>
	<path d="M855.1,7497.4c-2-5.3-0.7-19.4,3.3-31.4c4.7-12,10.7-59.5,14-105.6c2.7-46.1,8.7-109,12.7-140.4
		c10-77.6,20.7-193.2,27.4-300.9c3.3-49.5,8-96.3,10-103.6s6.7-48.1,10-90.3c6.7-88.9,17.4-198.6,28.1-284.2
		c4-32.8,8.7-112.3,10-175.2c4-146.4,13.4-151.8,51.5-28.8c15.4,49.5,28.8,82.9,50.8,127c95,187.2,214,319,344.4,380.5
		c92.9,44.1,191.2,20.7,265.5-62.9c43.5-48.8,52.2-65.5,52.2-104.3c0-30.1-2.7-36.8-22.1-56.2c-33.4-33.4-57.5-22.1-92.9,42.1
		c-8,16-18.7,34.8-22.7,41.5c-26.7,47.5-101,58.8-155.8,24.1c-97-62.2-193.2-197.3-280.2-391.8c-5.3-12.7-14-31.4-19.4-41.5
		c-4.7-9.4-8.7-24.7-8.7-33.4c0-8-4.7-21.4-10-28.1c-5.3-7.4-10-21.4-10-31.4c0-9.4-4.7-30.8-10-46.1c-6.7-18.1-10-53.5-10-97.6
		c0-105,18.7-131.1,86.9-119.7c14,2.7,29.4,8.7,34.1,14c4,5.3,11.4,9.4,15.4,9.4c4,0,22.1,12.7,40.1,28.8
		c103,88.9,204.6,218,204.6,260.1c0,6,4,21.4,9.4,33.4c5.3,12,14.7,40.1,21.4,62.2c25.4,82.9,59.5,113,99,86.9
		c28.8-18.7,33.4-42.8,20.7-101.6c-6.7-28.8-15.4-63.5-20.7-76.9c-15.4-41.5-30.8-80.9-39.5-102.3c-13.4-31.4-24.1-64.9-30.1-90.3
		c-2.7-12.7-8.7-32.1-12-43.5c-4-10.7-12-38.1-18.7-60.2c-6-22.1-15.4-50.1-20.1-62.2c-5.3-12-9.4-28.1-9.4-35.4
		c0-7.4-3.3-19.4-6.7-26.7c-4-6.7-10-25.4-13.4-40.8c-13.4-61.5-24.1-90.3-46.1-120.4c-26.1-36.1-42.8-40.1-66.9-17.4
		c-14.7,13.4-15.4,18.1-12,62.9c2.7,26.7,8.7,58.2,14,70.9c4.7,12,16,44.1,24.1,70.9s17.4,49.5,20.1,51.5c2.7,2,7.4,14,9.4,26.7
		c2.7,12.7,7.4,23.4,10,23.4c3.3,0,7.4,8,9.4,17.4c4.7,26.1-12.7,27.4-33.4,1.3c-10-12-36.8-40.8-60.2-63.5
		c-98.3-97.6-201.9-137.7-259.4-102.3c-19.4,12-25.4,13.4-33.4,6.7c-5.3-4.7-8-10.7-6-14c4.7-8,22.1-158.5,30.1-260.1
		c3.3-46.1,9.4-99.6,12.7-119.7c4-20.1,6.7-54.8,6.7-76.9c0-22.7,3.3-58.8,6.7-80.9c4-22.1,10-78.9,13.4-127
		c12-157.1,16.7-185.2,40.1-220c22.1-32.1,54.2-52.2,99-60.8c11.4-2.7,21.4-7.4,21.4-10.7s10-6,22.1-6c12,0,28.1-4.7,35.4-10
		c6.7-5.3,24.7-10,40.1-10c14.7,0,32.8-4.7,40.1-10c6.7-5.3,23.4-10,36.8-10s38.8-4.7,56.8-10c18.1-5.3,44.1-10,58.2-10
		c14,0,45.5-4,70.2-9.4c24.7-5.3,84.3-11.4,131.7-13.4c48.1-2,105-6.7,127-10.7c60.8-10,341-8,441.3,3.3c48.1,5.3,111.7,10,141.8,10
		c30.1,0,62.9,3.3,73.6,7.4c10,4,42.8,9.4,72.2,12.7c61.5,6.7,114.3,16.7,157.1,30.8c16.7,5.3,39.5,9.4,50.8,9.4
		c10.7,0,22.7,2.7,26.7,6.7c6,6,30.1,12,90.9,24.7c19.4,4,38.8,26.1,71.5,81.6c16.7,28.1,20.7,42.1,20.7,72.9
		c0,20.7,3.3,48.8,6.7,61.5c4,12.7,8.7,50.8,10.7,83.6c2,33.4,8,81.6,13.4,108.3c5.3,26.7,9.4,67.5,9.4,90.3
		c0,23.4,3.3,52.8,7.4,65.5s9.4,59.5,12.7,103.6s8.7,99.6,12.7,123.7c6,38.8,11.4,82.9,27.4,220.7c2.7,24.1,8.7,57.5,13.4,74.2
		c5.3,16.7,6.7,36.1,4,42.8c-4,10.7-11.4,5.3-52.8-34.1c-85.6-83.6-147.1-123-214-135.7c-36.1-7.4-51.5-7.4-74.9-0.7
		c-43.5,12-60.2,33.4-59.5,75.6c0,30.8,4.7,40.8,35.4,85.6c18.7,28.8,54.8,74.9,79.6,103.6c88.9,103.6,103.6,128.4,88.3,146.4
		c-20.7,24.7-80.2,0.7-143.8-58.2c-43.5-40.1-137.1-171.8-137.1-193.2c0-6-4.7-14.7-10-19.4s-10-12-10-16.7
		c0-12-26.1-68.9-33.4-73.6c-4-2-6.7-10-6.7-16.7s-4-20.7-9.4-31.4c-12-24.1-26.7-58.2-40.8-95.6c-6.7-16.7-15.4-38.1-20.7-48.1
		c-5.3-9.4-9.4-24.7-9.4-33.4c0-8-4.7-21.4-10-28.1c-5.3-7.4-10-20.1-10-28.1c0-8.7-2.7-16.7-6-19.4c-3.3-2-8.7-12.7-10.7-24.1
		c-2.7-12-18.1-34.1-34.1-50.1c-32.8-32.8-55.5-37.4-82.9-16c-14,10.7-16.7,17.4-15.4,46.1c0,18.7,6.7,46.8,14.7,62.9
		s14,31.4,14,34.8c0,6.7,36.1,84.9,47.5,103.6c3.3,5.3,8,14.7,10,20.1c9.4,22.7,47.5,99.6,66.9,133.7c11.4,20.1,23.4,43.5,25.4,52.2
		c8.7,27.4-17.4,16.7-56.2-22.1c-46.1-46.1-99-78.2-149.1-89.6c-34.1-7.4-40.8-7.4-63.5,4s-35.4,27.4-44.1,57.5
		c-3.3,10-6,10.7-18.7,4c-8-4-22.1-14.7-31.4-23.4c-9.4-8.7-20.1-16-23.4-16s-11.4-4-16.7-8.7c-6-4.7-26.1-12.7-44.8-17.4
		c-28.8-6.7-38.1-6.7-58.2,1.3c-19.4,8.7-24.1,14.7-30.8,42.8c-6,23.4-6,38.1-1.3,51.5c8.7,22.7,9.4,57.5,1.3,57.5
		c-3.3,0-16.7-16-29.4-34.8c-57.5-86.9-157.8-136.4-238.7-117.7c-26.1,6-38.1,13.4-52.2,31.4c-16.7,22.1-18.1,28.8-17.4,78.9
		c0.7,30.8,4,59.5,8,64.2s10,20.7,14,34.8c10.7,44.1,44.8,134.4,81.6,216c10.7,22.7,19.4,42.8,19.4,44.8c0,12.7,37.4,58.8,52.2,64.2
		c47.5,18.1,88.9-16.7,73.6-62.2c-4-12-10.7-26.7-15.4-32.1c-8-10-65.5-127.7-80.2-163.8c-18.7-44.8-30.1-90.3-30.1-116.3
		c0-22.7,2.7-28.8,14.7-33.4c50.8-18.7,133.7,48.1,204.6,165.2c12,19.4,21.4,38.8,21.4,44.1c0,4.7,4.7,12.7,10,17.4
		c5.3,4.7,10,12.7,10,18.1c0,5.3,4,18.1,9.4,27.4c4.7,10,14.7,34.8,20.7,54.8c14,42.8,27.4,65.5,46.1,81.6c19.4,16,31.4,14.7,53.5-6
		c17.4-16,18.7-20.1,15.4-52.8c-2-20.1-8.7-42.8-14-50.8c-6-8-10.7-18.7-10.7-23.4c0-5.3-9.4-29.4-20.7-54.2
		c-40.8-86.9-56.8-133.7-63.5-182.5c-4.7-33.4,4.7-59.5,21.4-59.5c12.7,0,88.9,37.4,106.3,52.2c13.4,11.4,28.8,44.1,34.8,74.9
		c1.3,9.4,7.4,26.1,12,36.8c4.7,11.4,18.7,44.1,30.1,73.6c11.4,29.4,25.4,62.2,30.8,72.2c5.3,10.7,9.4,22.7,9.4,28.1
		c0,8.7,34.8,93.6,50.8,125c5.3,9.4,9.4,22.7,9.4,28.8s4,19.4,9.4,28.8c16,31.4,50.8,116.3,50.8,125c0,5.3,4,17.4,9.4,28.1
		c12,24.1,26.7,58.2,40.8,95.6c26.1,68.9,46.8,92.9,80.2,93.6c25.4,0,56.8-27.4,56.8-50.8c0-9.4-9.4-36.8-20.7-61.5
		c-30.8-66.9-42.8-94.3-59.5-135.1c-8-20.1-17.4-39.5-20.7-42.8c-3.3-4-6-12-6-18.1c0-6.7-4-20.1-9.4-30.8
		c-12-24.1-26.1-57.5-40.8-95.6c-6.7-16.7-15.4-38.8-20.1-50.1c-5.3-10.7-18.7-44.1-30.1-73.6c-12-29.4-25.4-61.5-30.8-71.5
		c-5.3-9.4-9.4-22.1-9.4-27.4c0-6-4-18.7-9.4-29.4c-26.7-52.8-51.5-122.4-49.5-139.8c1.3-16,5.3-20.1,21.4-21.4
		c12-1.3,26.7,2.7,38.1,11.4c10.7,8,20.7,14,23.4,14c6,0,88.3,65.5,126.4,101c18.7,17.4,41.5,38.1,51.5,46.1
		c12,9.4,22.7,28.8,31.4,55.5c42.8,133.7,60.8,165.2,99,165.2c15.4,0,24.7-4.7,32.1-16c10-14.7,10-19.4,0.7-50.8
		c-8.7-29.4-8.7-34.8-0.7-37.4c8-3.3,31.4,18.1,56.8,50.1c8,10,59.5,47.5,65.5,47.5c3.3,0,10,4,14,9.4c4.7,5.3,23.4,12.7,41.5,16.7
		c48.1,10.7,91.6-0.7,120.4-30.1c20.1-20.7,22.7-27.4,22.7-58.2c-0.7-59.5-63.5-161.8-163.2-264.8c-32.1-33.4-40.8-46.8-39.5-60.2
		c2-14.7,5.3-17.4,23.4-16.7c24.7,1.3,76.2,38.1,162.5,116.3c12.7,12,38.1,33.4,56.8,48.1c18.1,14.7,37.4,32.8,42.1,39.5
		c4.7,6.7,11.4,48.8,14.7,94.3c4,45.5,9.4,97.6,13.4,115.7c3.3,18.7,6,48.8,6,66.9c0.7,18.7,5.3,54.8,10.7,80.2
		c5.3,26.1,10,68.2,10,95c0,26.1,3.3,56.2,6.7,66.2c4,10,10,51.5,13.4,92.3s8.7,98.3,12.7,127.7s12,95.6,17.4,147.1
		c6,51.5,15.4,128.4,20.7,170.5c5.3,42.1,10.7,93.6,12,113.7c4.7,69.5,18.1,177.2,28.1,224c12,60.2,12,90.3,0,90.3
		c-5.3,0-12-3.3-14-6.7c-9.4-15.4-90.3-44.8-180.5-66.2c-32.8-8-66.2-16-73.6-18.1c-48.8-12-223.3-38.8-331-49.5
		c-38.8-4-89.6-10-113.7-14c-99.6-14-444-28.1-598.5-23.4c-195.9,6-530.9,29.4-585.1,40.8c-9.4,2-48.1,8-86.9,13.4
		c-124.4,17.4-178.5,28.1-293.5,56.8c-51.5,12.7-110.3,34.1-140.4,50.8C859.2,7510.1,859.8,7510.1,855.1,7497.4z M3222.2,7397.7
		c21.4,8,20.7-60.2-3.3-228c-12.7-91.6-19.4-148.4-25.4-224c-6.7-78.9-22.7-224.7-34.8-314.3c-3.3-27.4-9.4-82.9-12.7-123.7
		c-4-40.1-11.4-99-16.7-130.4c-5.3-31.4-12-71.5-15.4-90.3c-4.7-30.8-6-33.4-21.4-30.8c-9.4,0.7-30.8,12-47.5,24.7
		c-45.5,33.4-92.3,36.8-159.8,12.7c-27.4-10-56.8-22.7-64.9-28.1c-10.7-7.4-24.1-8.7-43.5-6c-97,13.4-95.6,13.4-127.7-8.7
		c-26.7-18.1-36.1-32.1-72.2-105.6c-38.1-76.2-61.5-109.7-101-141.1c-12.7-10-32.1-4-32.1,11.4c0.7,18.7,67.5,200.6,103,277.5
		c13.4,28.8,24.1,54.8,24.1,58.2c0,3.3,11.4,30.8,26.1,60.8c36.8,78.9,52.2,118.4,57.5,147.8c2.7,13.4,7.4,26.7,10.7,28.8
		c9.4,5.3,6.7,48.1-4,68.9c-12,23.4-60.8,66.9-81.6,71.5c-21.4,6-82.9-25.4-111-56.8c-13.4-14.7-27.4-39.5-31.4-55.5
		c-4-16-14.7-40.1-24.1-53.5c-8.7-14-16-30.8-16-38.1c0-7.4-4.7-21.4-10-32.1c-17.4-34.1-43.5-95-43.5-101.6
		c0-10-66.2-168.5-74.2-179.2c-4-4.7-14.7-8.7-22.7-8.7c-11.4,0-16,4.7-18.7,18.7c-4.7,21.4-47.5,66.9-69.5,72.2
		c-8.7,2.7-28.8,2-45.5,0c-25.4-4-33.4-9.4-54.8-38.1c-14-18.7-34.1-42.8-44.1-54.2c-14-14.7-18.1-24.7-15.4-35.4
		c2.7-10.7-1.3-21.4-12-34.8c-8.7-10-20.1-32.1-24.7-48.1c-4.7-16.7-16-34.8-26.7-42.1c-10-7.4-20.1-19.4-21.4-26.1
		c-4-14-24.7-17.4-24.7-4c0,12.7,16,55.5,24.7,65.5c4,5.3,12.7,26.1,18.7,46.1c6,20.1,14,44.1,17.4,52.8
		c18.1,44.8-48.1,127.7-103,127.7c-32.8,0-124.4-73.6-139.1-111.7c-12.7-33.4-22.7-12.7-26.1,52.8c-2.7,56.2-5.3,66.2-21.4,87.6
		c-41.5,53.5-88.3,63.5-139.1,28.1c-25.4-18.1-66.9-74.9-66.9-92.3c0-4.7-4-14-9.4-21.4c-4.7-7.4-11.4-23.4-14-36.1
		c-10-46.1-42.8-102.3-103-173.9c-33.4-40.8-64.9-74.2-70.2-74.2c-4.7,0-16.7-7.4-26.7-16.7c-18.7-17.4-24.1-19.4-47.5-16.7
		c-22.1,2-24.7,10-24.1,61.5c0.7,42.8,8,78.2,28.1,131.1c3.3,8.7,6,22.1,6,30.8c0,8,4.7,20.7,10,28.1c5.3,6.7,10,16.7,10,20.7
		c0,13.4,68.2,149.1,97,192.6c50.1,77.6,112.3,146.4,150.4,166.5c9.4,4.7,27.4,10.7,40.8,13.4c23.4,4,26.1,2,72.2-43.5
		c58.8-58.8,85.6-73.6,117.7-66.2c26.1,6,38.1,13.4,65.5,43.5c23.4,25.4,27.4,41.5,22.7,95.6c-4,38.8-8.7,50.1-36.1,90.3
		c-17.4,25.4-39.5,50.1-48.8,54.8c-10,5.3-21.4,14-26.7,20.1c-4.7,6-25.4,18.1-46.1,28.1c-73.6,34.1-185.2,25.4-271.5-20.7
		c-44.1-24.1-127.7-95-171.8-146.4c-19.4-22.7-40.8-45.5-46.8-50.1c-6.7-4.7-12-13.4-12-18.7c0-5.3-4.7-11.4-10-13.4
		c-5.3-2.7-10-9.4-10-15.4c0-10.7-64.2-86.9-68.2-80.9c-12,17.4-20.7,66.2-25.4,147.1c-4,53.5-9.4,110.3-13.4,127
		c-3.3,16.7-8,56.8-9.4,88.9c-2,32.1-4.7,60.8-6.7,63.5c-1.3,2.7-4.7,36.1-6.7,74.9c-2,38.8-6.7,92.9-10.7,120.4
		c-3.3,27.4-11.4,98.3-16.7,157.1c-13.4,133.7-8.7,161.1,28.8,167.8c14,2.7,37.4,1.3,54.8-4c39.5-10.7,74.2-19.4,127-30.1
		c24.1-4.7,43.5-9.4,43.5-10c0-0.7,7.4-2,16.7-3.3c63.5-7.4,100.3-12.7,173.9-24.7c46.1-7.4,92.9-14,103.6-15.4
		c11.4-0.7,21.4-2,23.4-2.7c2-1.3,22.7-3.3,46.8-4.7s80.9-5.3,127-9.4c185.2-14.7,502.8-21.4,578.4-10.7
		c26.1,3.3,92.3,6.7,147.1,7.4c55.5,1.3,107.7,3.3,117,6c9.4,2,44.1,5.3,76.9,7.4c33.4,2,76.9,6.7,97,10c20.1,4,52.2,8,70.2,10
		c18.7,1.3,56.2,7.4,83.6,12.7c27.4,5.3,69.5,12.7,93.6,16.7c24.1,3.3,56.8,9.4,73.6,13.4c16.7,3.3,48.1,9.4,70.2,13.4
		c22.1,4,52.2,11.4,66.9,16.7c17.4,6,30.8,7.4,38.1,3.3C3206.8,7396.4,3216.2,7395.7,3222.2,7397.7z M1590.7,5813.7
		c12.7-78.9,69.5-142.4,139.8-155.1c34.1-6.7,99,6.7,149.1,30.8c22.7,10.7,48.1,19.4,56.2,19.4c8,0,32.1-10,52.8-22.7
		c54.8-33.4,66.2-34.8,126.4-14.7c62.2,20.7,89.6,23.4,105,10.7c16.7-14,56.2-26.7,83.6-26.7c40.1-0.7,62.2-32.1,36.8-53.5
		c-5.3-4.7-9.4-12-9.4-16c2-10-6.7-44.8-14-58.2c-3.3-6-9.4-28.8-14-50.8c-12-58.2-4.7-85.6,33.4-123.7
		c29.4-29.4,34.8-32.1,63.5-32.1c39.5,0,74.2,19.4,101.6,56.2c18.7,24.1,26.1,36.8,50.8,86.9c4,7.4,12.7,31.4,20.1,53.5
		c29.4,92.3,72.9,190.6,92.3,208c11.4,10,13.4,10,30.8-1.3c10.7-6.7,26.7-19.4,36.1-28.1c58.8-54.8,135.1-52.8,263.5,6.7
		c8,4,22.7,6,31.4,4.7c15.4-2,16-4,14.7-52.2c-0.7-27.4-2.7-68.2-4.7-90.3c-11.4-111-18.1-173.2-27.4-237.4
		c-11.4-77.6-12-84.3-22.7-193.9c-10.7-113-20.7-182.5-28.8-191.9c-4-4.7-4.7-13.4-2.7-19.4c2-5.3-0.7-16.7-6-24.7
		c-5.3-8-10-21.4-10-30.1c0-10.7-11.4-27.4-31.4-47.5c-40.1-39.5-101-64.9-195.9-82.2c-143.8-26.1-238.7-40.1-284.2-42.1
		c-25.4-1.3-87.6-6-137.1-10c-85.6-7.4-439.3-5.3-462,2.7c-5.3,2-40.8,5.3-79.6,6.7c-78.2,3.3-165.2,14-200.6,24.1
		c-12.7,4-32.8,6.7-44.8,6.7c-36.1,0-148.4,29.4-220.7,58.8c-43.5,17.4-76.2,46.8-101,90.3c-15.4,26.1-30.1,128.4-38.8,258.8
		c-4,68.2-6.7,91.6-11.4,113.7c-2.7,9.4-6,46.8-7.4,83.6c-2,36.8-5.3,72.9-7.4,80.2c-8.7,31.4-14.7,207.3-7.4,214.6
		c16,15.4,147.8,58.8,158.5,52.8c3.3-2.7,6-24.7,6-50.1c0-40.1,2-48.8,18.7-68.2c58.2-70.2,88.9-72.9,154.5-11.4
		c30.8,29.4,40.8,44.1,44.1,63.5c2.7,14.7,8.7,32.1,12.7,39.5c4.7,7.4,12,31.4,17.4,53.5c5.3,22.1,17.4,59.5,28.1,82.2
		c10,23.4,18.7,46.8,18.7,52.2C1567.9,5860.5,1586.7,5839.8,1590.7,5813.7z"/>
	<path d="M1166.7,4747.8c0-2,19.4-33.4,43.5-69.5c24.1-35.4,43.5-66.9,43.5-69.5s9.4-16,20.1-30.1c11.4-14,20.1-26.7,20.1-28.8
		c0-2,9.4-17.4,20.1-33.4c16.7-24.7,20.1-36.8,20.1-68.9c0-22.1,4.7-98.3,10-169.8c23.4-291.5,30.1-381.1,33.4-444.7
		c8.7-142.4,14-201.3,19.4-209.3c2.7-4,10.7-8,17.4-8s14.7-2.7,16.7-6.7c2-3.3,28.8-18.7,58.8-33.4c30.1-15.4,59.5-30.1,64.9-33.4
		c5.3-2.7,23.4-10.7,40.1-16.7c16.7-6,35.4-14,41.5-17.4c31.4-16,75.6-29.4,157.1-48.8c22.7-4.7,44.1-11.4,48.8-14
		c4-2.7,32.1-7.4,62.2-10.7c30.1-3.3,71.5-8.7,91.6-12c110.3-18.7,258.1-2,458,52.2c40.1,10.7,186.6,80.9,237.4,113.7
		c20.1,13.4,42.8,26.7,50.1,30.8c12,6,14,16,18.1,97c2,49.5,7.4,127.7,11.4,173.9c4,46.1,7.4,118.4,7.4,160.5
		c0,42.1,4.7,113,10,157.1c5.3,43.5,10,126.4,10,183.2v103l38.8,59.5c20.7,32.8,55.5,85.6,76.2,117.7c32.1,49.5,36.1,58.8,27.4,64.2
		c-7.4,4-13.4,2.7-18.7-5.3c-4.7-6-10.7-10.7-14-10.7s-16.7-5.3-29.4-12c-12.7-6.7-41.5-17.4-63.5-24.1s-53.5-16-70.2-21.4
		c-16.7-5.3-42.8-9.4-58.2-9.4c-15.4,0-36.1-3.3-46.8-7.4c-10-4-42.8-10-72.2-13.4c-29.4-3.3-71.5-8.7-93.6-12s-66.9-6.7-100.3-6.7
		c-32.8-0.7-80.9-4-107-8c-60.8-9.4-321.6-9.4-377.8,0c-24.1,4-72.2,7.4-107,8c-34.8,0-80.2,3.3-100.3,6.7
		c-20.1,2.7-62.2,8.7-93.6,12c-31.4,3.3-65.5,9.4-75.6,13.4c-10.7,4-32.8,7.4-50.1,7.4s-40.1,4.7-50.8,10c-10,5.3-25.4,10-33.4,10
		c-30.1,0-129.7,38.1-174.5,66.2C1182.8,4751.8,1166.7,4755.8,1166.7,4747.8z M1503.7,4615.4c117-23.4,159.8-29.4,234.7-33.4
		c36.8-2,89.6-5.3,117-7.4c102.3-7.4,353.1-8.7,417.9-2.7c36.8,3.3,107.7,10,157.1,13.4c90.9,7.4,210,24.7,317.6,45.5
		c54.8,11.4,56.8,4,20.7-82.9c-14.7-35.4-25.4-103-29.4-193.2c-0.7-7.4-2.7-54.2-4.7-103.6s-5.3-95-7.4-100.3
		c-4.7-10.7-8.7-69.5-12.7-173.9c-4-121.7-16-264.8-23.4-283.5c-14.7-38.8-34.1-56.2-98.3-89.6c-36.1-18.1-74.2-38.1-85.6-44.1
		c-10.7-6-26.1-10.7-33.4-10.7c-8,0-16.7-2.7-20.1-6c-12-10.7-92.9-35.4-120.4-36.8c-14.7-0.7-34.1-6-43.5-10.7
		c-26.7-15.4-317.6-14-397.9,2c-97.6,18.7-167.2,38.1-222,62.2c-11.4,5.3-23.4,9.4-26.7,9.4c-3.3,0-24.1,9.4-46.1,20.7
		c-21.4,12-54.2,28.8-72.9,38.1c-18.1,9.4-43.5,28.1-56.2,42.8c-24.7,28.8-23.4,16.7-37.4,269.5c-2,33.4-6,84.3-10,113.7
		c-6,48.1-10.7,108.3-17.4,237.4c-8.7,151.8-18.1,204.6-49.5,270.8c-7.4,14.7-14.7,38.8-17.4,52.8l-4.7,26.1l45.5-4.7
		C1402.1,4633.5,1458.9,4624.1,1503.7,4615.4z"/>
</g>
</svg>
