<svg id="Layer_1" xmlns:rdf="http://www.w3.org/1999/02/22-rdf-syntax-ns#" xmlns="http://www.w3.org/2000/svg" enable-background="new 0 0 100 100" xml:space="preserve" viewBox="0 0 80 100" version="1.1" y="0px" x="0px" xmlns:cc="http://creativecommons.org/ns#" xmlns:dc="http://purl.org/dc/elements/1.1/"><metadata id="metadata9"><rdf:RDF><cc:Work rdf:about=""><dc:format>image/svg+xml</dc:format><dc:type rdf:resource="http://purl.org/dc/dcmitype/StillImage"/><dc:title/></cc:Work></rdf:RDF></metadata>
<path id="path3" d="M73.8,0.2h-67.4c-3.4,0-6.4,2.8-6.4,6.1v0.1c0,0.2,0.3,0.5,0.3,0.7l6.8,61c0.1,0.9,0.4,1.699,0.9,2.4,0.6,1.199,1.6,2.1,2.8,2.699l26.9,13.201c0.9,0.398,1.8,0.6,2.7,0.6s1.8-0.201,2.7-0.6l26.8-13.2c2.199-1.1,3.5-3.4,3.399-5.799l6.601-60.501c0-0.2,0.1-0.5,0.1-0.7v-0.1c0-3.1-2.8-5.9-6.2-5.9zm-50,41.6,10.2,10.2c2,2,2,5.299,0,7.299s-5.3,2-7.3,0l-14.9-14.898-0.2-0.101c-0.8-0.8-1.6-1.7-1.6-2.7,0-0.3,0.1-0.6,0.1-1,0-1.3,0.6-2.7,1.6-3.7l0.1-0.1,4.8-4.8,10.2-10.2c2-2,5.3-2,7.3,0s2,5.3,0,7.3l-11.4,11.6,1.1,1.1zm46.2,2.5l-4.8,4.8-10.2,10.199c-2,2-5.3,2-7.3,0s-2-5.299,0-7.299l11.3-11.3-1.2-1.2-10.2-10.2c-2-2-2-5.3,0-7.3s5.301-2,7.301,0l14.899,14.9,0.101,0.1c0.8,0.8,1.199,1.7,1.399,2.7,0,0.2,0,0.4,0.101,0.5v0.4c0.099,1.4-0.401,2.7-1.401,3.7z"/>
</svg>
