<?xml version="1.0" encoding="utf-8"?>
<!-- Generator: Adobe Illustrator 19.2.1, SVG Export Plug-In . SVG Version: 6.00 Build 0)  -->
<svg version="1.1" id="Layer_1" xmlns="http://www.w3.org/2000/svg" xmlns:xlink="http://www.w3.org/1999/xlink" x="0px" y="0px"
	 viewBox="0 0 256 256" style="enable-background:new 0 0 256 256;" xml:space="preserve">
<g>
	<path d="M232.8,0H23.2C10.4,0,0,10.4,0,23.2v209.6C0,245.6,10.4,256,23.2,256h209.6c12.8,0,23.2-10.4,23.2-23.2V23.2
		C256,10.4,245.6,0,232.8,0z M85.6,49.7c8.5,0,15.6,6.7,15.6,15.4c0,8.7-7.1,15.4-15.6,15.4s-15.6-6.7-15.6-15.4
		C69.9,56.4,77,49.7,85.6,49.7z M190.2,197.1c-15.9,0-23.5-9.4-23.5-22.3c0-3.7,0.5-7.6,1.6-11.5l7.6-27.1c0.9-3,1.2-5.8,1.2-8.3
		c0-8.7-5.3-14-13.8-14c-10.8,0-17.9,7.8-21.6,22.7l-14.7,59h-25.8l4.6-18.6c-7.6,12.4-18.1,20.1-31,20.1c-15.6,0-23-9-23-22.6
		c0-3.4,0.5-7.7,1.4-11.6l11.7-47.9H46.7l5.5-20.4h43.7l-17.2,68.4c-1.2,4.4-1.6,8-1.6,10.5c0,4.4,2.2,5.7,5.5,6.4
		c2,0.5,18.4,0.1,27.3-19.6l11.3-45.4h-18.4l5.5-20.4h39.3l-5,23.1c6.9-12.9,20.7-25.1,34.3-25.1c14.5,0,26.4,10.3,26.4,30.1
		c0,5-0.7,10.6-2.5,16.8l-7.4,26.4c-0.7,2.8-1.2,5.1-1.2,7.1c0,4.6,1.8,6.9,5.3,6.9c3.5,0,7.8-2.5,12.9-16.5l10.1,3.9
		C214.6,188.4,203.8,197.1,190.2,197.1z"/>
</g>
</svg>
