<svg id="svg2" xmlns:rdf="http://www.w3.org/1999/02/22-rdf-syntax-ns#" xmlns="http://www.w3.org/2000/svg" height="100" width="63.53" version="1.1" xmlns:cc="http://creativecommons.org/ns#" xmlns:dc="http://purl.org/dc/elements/1.1/" viewBox="0 0 158.825 250">
 <metadata id="metadata34">
  <rdf:RDF>
   <cc:Work rdf:about="">
    <dc:format>image/svg+xml</dc:format>
    <dc:type rdf:resource="http://purl.org/dc/dcmitype/StillImage"/>
    <dc:title/>
   </cc:Work>
  </rdf:RDF>
 </metadata>
 <path id="path6-6" fill="#5382a1" d="m51.15,168.2s-8.2293,4.8334,5.8565,6.469c17.064,1.9661,25.786,1.6842,44.591-1.9106,0,0,4.944,3.131,11.849,5.8429-42.156,18.249-95.41-1.061-62.297-10.405"/>
 <path id="path8-8" fill="#5382a1" d="m45.999,144.39s-9.2299,6.9004,4.8663,8.373c18.229,1.8994,32.624,2.0547,57.535-2.7899,0,0,3.4454,3.5279,8.8631,5.4572-50.973,15.06-107.74,1.1901-71.264-11.039"/>
 <path id="path10-8" fill="#e76f00" d="m89.423,104c10.387,12.079-2.7291,22.948-2.7291,22.948s26.375-13.752,14.262-30.972c-11.313-16.059-19.989-24.038,26.978-51.549,0,0.000611-73.72,18.597-38.511,59.572"/>
 <path id="path12-1" fill="#5382a1" d="m145.18,185.82s6.0898,5.0679-6.7068,8.9887c-24.333,7.445-101.28,9.6932-122.65,0.29661-7.6836-3.3761,6.7254-8.0612,11.258-9.0443,4.727-1.0353,7.4283-0.84244,7.4283-0.84244-8.545-6.0798-55.231,11.938-23.714,17.098,85.955,14.075,156.69-6.3371,134.39-16.496"/>
 <path id="path14-9" fill="#5382a1" d="m55.108,119.72s-39.139,9.389-13.86,12.798c10.673,1.4433,31.951,1.1168,51.77-0.56038,16.197-1.38,32.461-4.3141,32.461-4.3141s-5.7113,2.4703-9.8434,5.32c-39.745,10.557-116.53,5.6459-94.418-5.1529,18.691-9.1217,33.891-8.0841,33.891-8.0841"/>
 <path id="path16-1" fill="#5382a1" d="m125.32,159.35c40.402-21.204,21.722-41.582,8.6831-38.836-3.1958,0.67182-4.6207,1.2539-4.6207,1.2539s1.1864-1.877,3.4523-2.6896c25.795-9.1592,45.632,27.014-8.3267,41.341,0,0.009,0.62686-0.56276,0.81259-1.0669"/>
 <path id="path18-4" fill="#e76f00" d="m100.96-0.0000037079s22.375,22.607-21.222,57.369c-34.959,27.886-7.97,43.781-0.013,61.951-20.407-18.59-35.383-34.965-25.336-50.201,14.737-22.364,55.591-33.207,46.571-69.116"/>
 <path id="path20-1" fill="#5382a1" d="m59.078,216.82c38.781,2.5072,98.335-1.3911,99.746-19.925,0,0-2.7112,7.0259-32.05,12.606-33.1,6.2914-73.923,5.5568-98.138,1.5247-0.0017,0,4.9545,4.1447,30.443,5.7978"/>
</svg>
