<?xml version="1.0" encoding="UTF-8" standalone="no"?>
<!-- Created with Inkscape (http://www.inkscape.org/) -->
<svg xmlns:rdf="http://www.w3.org/1999/02/22-rdf-syntax-ns#" xmlns="http://www.w3.org/2000/svg" version="1.0" xmlns:cc="http://creativecommons.org/ns#" xmlns:dc="http://purl.org/dc/elements/1.1/" viewBox="0 0 100 100">
 <metadata>
  <rdf:RDF>
   <cc:Work rdf:about="">
    <dc:format>image/svg+xml</dc:format>
    <dc:type rdf:resource="http://purl.org/dc/dcmitype/StillImage"/>
    <dc:title/>
   </cc:Work>
  </rdf:RDF>
 </metadata>
 <path d="m12.107,26.772c-1.1458-0.00065-2.2349,0.86505-2.4928,1.9815l-3.6678,15.867c-0.34465,1.4934,0.96022,3.1328,2.4928,3.132h21.413c1.1458,0.00065,2.2349-0.86506,2.4928-1.9815l3.659-15.868c0.34406-1.4908-0.95489-3.128-2.4848-3.132z"/>
 <path d="M6.226,52.243c-1.1458,0-2.2349,0.865-2.4928,1.982l-3.6673,15.876c-0.34465,1.4933,0.96022,3.1328,2.4928,3.132h21.413c1.1458,0.00065,2.2349-0.86505,2.4928-1.9815l3.6593-15.876c0.34405-1.4908-0.95489-3.128-2.4848-3.132z"/>
 <path d="m62.841,11.631c-0.96719,0.00046-1.909,0.60125-2.317,1.4781l-29.499,63.248c-0.728,1.551,0.604,3.645,2.317,3.643h10.786c0.96718-0.00045,1.909-0.60123,2.317-1.4781l29.491-63.255c0.72092-1.55-0.60762-3.6344-2.317-3.6354z"/>
 <path d="m86.714,11.631c-0.96719,0.00046-1.909,0.60125-2.317,1.4781l-29.498,63.248c-0.728,1.551,0.603,3.645,2.317,3.643h10.786c0.96718-0.00045,1.909-0.60123,2.317-1.4781l29.491-63.255c0.72091-1.55-0.60762-3.6344-2.317-3.6354z"/>
</svg>
