<?xml version="1.0" encoding="utf-8"?>
<!-- Generator: Adobe Illustrator 17.0.0, SVG Export Plug-In . SVG Version: 6.00 Build 0)  -->
<!DOCTYPE svg PUBLIC "-//W3C//DTD SVG 1.1 Basic//EN" "http://www.w3.org/Graphics/SVG/1.1/DTD/svg11-basic.dtd">
<svg version="1.1" baseProfile="basic"
	 id="Your_Icon" xmlns:svg="http://www.w3.org/2000/svg" xmlns:dc="http://purl.org/dc/elements/1.1/" xmlns:rdf="http://www.w3.org/1999/02/22-rdf-syntax-ns#" xmlns:cc="http://creativecommons.org/ns#"
	 xmlns="http://www.w3.org/2000/svg" xmlns:xlink="http://www.w3.org/1999/xlink" x="0px" y="0px" width="100px" height="100px"
	 viewBox="0 0 100 100" xml:space="preserve">
<g>
	<g>
		<g>
			<path d="M62.624,79.668c0.758,1.094,1.22,1.01,1.81,0.758c0.589-0.253,30.893-10.48,31.819-10.817
				c0.926-0.337,0.631-0.631,0.337-1.094S86.194,54.33,85.689,53.531c-0.505-0.8-0.758-0.631-1.557-0.379l-32.124,8.359
				C52.007,61.511,61.867,78.574,62.624,79.668z"/>
			<path d="M98.821,65.696V49.635c-3.614,0.963-8.185,2.18-9.99,2.66C91.553,55.938,95.809,61.639,98.821,65.696z"/>
			<path d="M88.8,32.515c-0.495,0.112-11.458,2.093-12.133,2.183c-0.675,0.09-0.45,0.473-0.18,0.855l9.647,13.236
				c0,0,11.795-2.926,12.516-3.084c0.058-0.013,0.115-0.027,0.171-0.04v-1.753c-2.144-2.719-7.985-10.121-8.49-10.812
				C89.723,32.268,89.295,32.403,88.8,32.515z"/>
			<path d="M19.824,11.724c2.374-0.108,2.59,0.432,3.633,1.979L49.66,57.508l32.945-7.892C80.78,47.028,72.493,35.28,71.692,34.159
				c-0.9-1.261,0.022-1.846,1.486-2.093c1.463-0.247,14.069-2.363,15.149-2.521c1.081-0.158,1.936-0.54,3.692,1.576
				c0.898,1.083,3.944,4.875,6.802,8.43V19.06c0-5.008-1.778-9.291-5.335-12.848s-7.839-5.335-12.848-5.335H20.031
				c-5.008,0-9.291,1.778-12.848,5.335c-2.04,2.04-3.492,4.32-4.362,6.838C8.76,12.562,18.163,11.8,19.824,11.724z"/>
			<path d="M65.596,85.563c-2.778,0.842-4.024,1.259-5.833-1.266c-1.355-1.891-8.685-15.093-12.278-21.6
				c-6.801,1.781-19.248,5.03-22.838,5.892c-3.503,0.842-4.999-1.259-5.575-2.553c-0.404-0.908-10.674-23.051-17.223-37.26v50.891
				c0,5.009,1.778,9.291,5.335,12.848c3.556,3.556,7.839,5.335,12.848,5.335h60.608c5.008,0,9.291-1.778,12.848-5.335
				c3.556-3.557,5.335-7.839,5.335-12.848V73.69C91.381,76.411,67.467,84.996,65.596,85.563z"/>
			<path d="M24.732,63.489c0.985-0.225,19.437-4.642,19.831-4.726c0.394-0.084,0.647-0.31,0.225-1.041
				c-0.422-0.731-24.597-42.459-24.597-42.459c-0.223-0.383-0.16-0.511-0.766-0.479c-0.541,0.029-14.219,1.249-17.386,1.514
				c-0.093,0.659-0.15,1.332-0.174,2.019c3.215,6.581,21.667,44.636,21.77,44.946C23.748,63.601,23.748,63.714,24.732,63.489z"/>
		</g>
	</g>
</g>
</svg>
