<?xml version="1.0" encoding="utf-8"?>
<!-- Generator: Adobe Illustrator 19.2.1, SVG Export Plug-In . SVG Version: 6.00 Build 0)  -->
<svg version="1.1"
	 id="svg2" xmlns:cc="http://creativecommons.org/ns#" xmlns:dc="http://purl.org/dc/elements/1.1/" xmlns:rdf="http://www.w3.org/1999/02/22-rdf-syntax-ns#" xmlns:svg="http://www.w3.org/2000/svg"
	 xmlns="http://www.w3.org/2000/svg" xmlns:xlink="http://www.w3.org/1999/xlink" x="0px" y="0px" viewBox="0 0 417.4 198.6"
	 style="enable-background:new 0 0 417.4 198.6;" xml:space="preserve">
<g transform="translate(0.000000,168.000000) scale(0.100000,-0.100000)">
	<path d="M503.2,1668.2c-155.4-17.8-263.4-93.2-294.5-207.2c-8.9-31.1-16.3-152.4-16.3-270.8c0-118.4-7.4-239.8-16.3-272.3
		c-20.7-75.5-74-127.3-131.7-127.3H0V686.9V583.3h42.9c54.8,0,114-56.2,133.2-127.3c8.9-32.6,16.3-153.9,16.3-272.3
		s7.4-239.8,16.3-270.8c34-124.3,136.2-189.4,331.5-210.2l88.8-8.9l-3,100.6l-1.5,100.6l-68.1,7.4c-42.9,5.9-81.4,20.7-102.1,41.4
		c-31.1,31.1-32.6,48.8-40,303.4c-7.4,291.6-22.2,349.3-100.6,410l-37,29.6l41.4,32.6c74,57.7,87.3,112.5,96.2,408.5l7.4,272.3
		l41.4,35.5c34,29.6,57.7,35.5,130.2,35.5h87.3V871.9c0-657.1,0-663.1,87.3-737.1c48.8-40,109.5-60.7,219-74l60.7-7.4l17.8,97.7
		c17.8,100.6,10.4,119.9-44.4,121.4c-34,1.5-71,35.5-88.8,79.9c-8.9,25.2-14.8,273.8-14.8,683.8v642.3l-180.6-3
		C636.4,1675.6,531.3,1671.1,503.2,1668.2z M888,997.7c0-448.4,4.4-645.3,17.8-671.9c8.9-20.7,41.4-50.3,72.5-63.6
		c48.8-22.2,57.7-34,57.7-74c0-65.1-35.5-97.7-94.7-85.8c-74,14.8-133.2,40-161.3,69.6c-26.6,28.1-71,119.9-68.1,140.6
		c8.9,56.2-4.4,1155.9-14.8,1172.2c-8.9,13.3-47.4,20.7-118.4,22.2c-57.7,1.5-102.1,0-97.7-3c3-3-13.3-22.2-37-42.9
		c-51.8-42.9-56.2-66.6-63.6-349.3c-3-119.9-10.4-222-16.3-227.9c-4.4-4.4-8.9-23.7-8.9-41.4s-23.7-59.2-53.3-94.7l-54.8-62.2
		l38.5-40c74-79.9,84.4-121.4,93.2-370c10.4-309.3,11.8-319.7,72.5-368.5c28.1-23.7,57.7-42.9,66.6-42.9c7.4-1.5,26.6-3,42.9-4.4
		c22.2-1.5,28.1-13.3,26.6-60.7c-1.5-57.7-3-59.2-50.3-59.2c-125.8,0-241.2,59.2-285.6,148c-13.3,23.7-22.2,116.9-25.2,266.4
		c-5.9,313.8-10.4,340.4-69.6,404c-28.1,31.1-63.6,54.8-81.4,54.8c-26.6,0-31.1,8.9-31.1,65.1c0,57.7,4.4,66.6,42.9,82.9
		c111,44.4,131.7,111,140.6,436.6c5.9,242.7,13.3,303.4,38.5,303.4c5.9,0,14.8,13.3,19.2,28.1c7.4,31.1,78.4,74,151,91.8
		c25.2,5.9,136.2,10.4,248.6,11.8l202.8,1.5V997.7z"/>
	<path d="M3552.1,1591.2c0-50.3-1.5-94.7-3-100.6c-3-7.4,26.6-14.8,66.6-19.2c44.4-5.9,81.4-20.7,103.6-41.4
		c31.1-31.1,32.6-48.8,40-303.4c8.9-294.5,22.2-349.3,96.2-407l41.4-32.6l-37-29.6c-78.4-60.7-93.2-118.4-100.6-410
		c-7.4-254.6-8.9-272.3-40-303.4c-22.2-20.7-59.2-35.5-103.6-41.4c-40-4.4-69.6-11.8-66.6-17.8c1.5-7.4,3-51.8,3-102.1v-88.8
		l85.8,8.9c192.4,22.2,293,87.3,327.1,210.2c8.9,31.1,16.3,152.4,16.3,270.8s7.4,239.8,16.3,272.3c19.2,71,78.4,127.3,133.2,127.3
		h42.9v103.6v103.6h-44.4c-57.7,0-111,51.8-131.7,127.3c-8.9,32.6-16.3,153.9-16.3,272.3c0,118.4-7.4,239.8-16.3,270.8
		c-34,122.8-134.7,188-327.1,210.2l-85.8,8.9V1591.2z M3824.4,1583.8c105.1-60.7,118.4-105.1,127.3-415.9
		c8.9-310.8,22.2-356.7,119.9-399.6c54.8-25.2,57.7-31.1,57.7-91.8c0-48.8-5.9-63.6-23.7-63.6c-42.9,0-105.1-57.7-130.2-118.4
		c-17.8-45.9-23.7-112.5-23.7-290.1c0-133.2-5.9-226.4-13.3-222c-7.4,5.9-10.4-3-5.9-19.2c3-14.8-7.4-54.8-23.7-87.3
		c-37-74-125.8-121.4-241.2-133.2l-85.8-7.4l3,60.7c1.5,57.7,4.4,60.7,63.6,75.5c32.6,8.9,77,32.6,96.2,53.3
		c35.5,38.5,37,48.8,45.9,307.8c5.9,148,16.3,287.1,25.2,307.8c8.9,22.2,37,63.6,62.2,93.2c45.9,51.8,45.9,53.3,19.2,88.8
		c-14.8,20.7-32.6,38.5-38.5,38.5c-5.9,0-22.2,25.2-35.5,56.2c-16.3,40-25.2,118.4-28.1,284.2c-3,125.8-8.9,250.1-13.3,276.8
		c-10.4,57.7-78.4,118.4-148,131.7c-48.8,8.9-51.8,11.8-51.8,69.6v59.2l88.8-8.9C3728.2,1625.2,3783,1609,3824.4,1583.8z"/>
	<path d="M1457.8,1154.6c-254.6-63.6-389.2-275.3-374.4-589.1c10.4-233.8,99.2-378.9,285.6-466.2c81.4-38.5,103.6-41.4,259-41.4
		c214.6,0,347.8,34,336,85.8c-4.4,17.8-13.3,65.1-19.2,103.6c-5.9,50.3-14.8,69.6-29.6,63.6c-114-44.4-313.8-56.2-407-25.2
		c-90.3,29.6-176.1,143.6-176.1,235.3c0,14.8,74,17.8,350.8,17.8l350.8-1.5l5.9,44.4c7.4,72.5-23.7,263.4-57.7,340.4
		C1903.3,1107.2,1672.4,1209.3,1457.8,1154.6z M1718.3,1113.1c32.6-8.9,57.7-22.2,57.7-29.6s5.9-10.4,13.3-4.4
		c8.9,4.4,19.2,0,26.6-11.8c5.9-10.4,29.6-29.6,51.8-42.9c20.7-14.8,57.7-63.6,79.9-111c32.6-71,40-106.6,41.4-211.6l1.5-125.8
		l-336-4.4l-337.4-3l-8.9-37c-22.2-88.8,47.4-210.2,149.5-259c72.5-35.5,210.2-45.9,365.6-26.6l84.4,10.4l8.9-44.4
		c5.9-25.2,3-53.3-7.4-65.1c-41.4-48.8-272.3-71-435.1-38.5c-91.8,16.3-216.1,84.4-216.1,116.9c0,10.4-5.9,16.3-13.3,11.8
		c-14.8-10.4-71,75.5-102.1,153.9c-11.8,31.1-20.7,115.4-20.7,214.6c-1.5,146.5,1.5,171.7,38.5,251.6
		c50.3,114,155.4,216.1,256,253.1C1486,1133.9,1642.8,1136.8,1718.3,1113.1z"/>
	<path d="M1451.9,965.1c-35.5-16.3-75.5-50.3-88.8-74c-14.8-22.2-29.6-38.5-32.6-34c-4.4,3-7.4-5.9-8.9-19.2
		c0-13.3-4.4-44.4-10.4-69.6c-17.8-78.4-4.4-82.9,236.8-82.9c121.4,0,232.4,4.4,247.2,8.9c51.8,20.7,19.2,176.1-51.8,236.8
		C1657.6,1005.1,1555.5,1016.9,1451.9,965.1z M1669.5,938.5c48.8-22.2,69.6-42.9,91.8-91.8c16.3-35.5,29.6-78.4,29.6-96.2
		c0-34-1.5-34-229.4-34c-148,0-229.4,5.9-229.4,14.8c0,31.1,45.9,125.8,78.4,161.3C1481.5,968.1,1568.8,984.4,1669.5,938.5z"/>
	<path d="M2368.1,1156.1c-173.2-38.5-266.4-143.6-266.4-297.5c0-167.2,54.8-227.9,294.5-334.5c91.8-40,176.1-84.4,188-99.2
		c32.6-42.9,19.2-125.8-23.7-148c-71-35.5-294.5-19.2-417.4,32.6c-19.2,7.4-28.1-7.4-47.4-91.8c-26.6-116.9-31.1-112.5,122.8-146.5
		c208.7-47.4,458.8-8.9,559.5,85.8c87.3,82.9,102.1,269.4,29.6,380.4c-38.5,57.7-88.8,87.3-353.7,205.7
		c-82.9,37-122.8,90.3-109.5,145c19.2,74,179.1,103.6,328.6,57.7c40-11.8,77-22.2,81.4-22.2c7.4,0,47.4,168.7,45.9,192.4
		c-1.5,13.3-140.6,42.9-245.7,50.3C2493.9,1170.9,2415.4,1166.4,2368.1,1156.1z M2692.2,1113.1c47.4-11.8,53.3-19.2,57.7-65.1
		c4.4-65.1-10.4-71-149.5-54.8C2374,1019.9,2257,932.6,2331,792c22.2-44.4,44.4-56.2,235.3-134.7c74-31.1,140.6-71,180.6-111
		c65.1-60.7,65.1-62.2,65.1-167.2c0-127.3-13.3-161.3-88.8-214.6c-108-77-381.8-97.7-555-40c-47.4,14.8-48.8,19.2-41.4,71
		c4.4,29.6,10.4,57.7,13.3,60.7c3,4.4,40-1.5,81.4-10.4c90.3-22.2,293-23.7,344.8-3c22.2,7.4,50.3,37,63.6,66.6
		c23.7,48.8,23.7,54.8,0,103.6c-19.2,40-45.9,63.6-114,94.7c-48.8,23.7-82.9,47.4-77,53.3c5.9,7.4,3,7.4-7.4,1.5
		c-16.3-8.9-177.6,60.7-222,96.2c-38.5,32.6-78.4,128.8-78.4,190.9c0,115.4,72.5,216.1,188,259
		C2382.9,1132.4,2606.3,1135.3,2692.2,1113.1z"/>
	<path d="M3167.3,1154.6c-106.6-23.7-167.2-56.2-213.1-116.9c-37-47.4-74-182-62.2-220.5c4.4-10.4,10.4-37,14.8-59.2
		c20.7-91.8,131.7-176.1,327.1-250.1c108-40,170.2-93.2,170.2-143.6c0-22.2-5.9-47.4-11.8-56.2c-44.4-68.1-244.2-68.1-455.8,0
		c-28.1,8.9-32.6,3-40-57.7c-5.9-37-13.3-82.9-19.2-102.1c-7.4-31.1,0-37,63.6-59.2c99.2-35.5,306.4-47.4,421.8-25.2
		c174.6,34,264.9,115.4,285.6,254.6c28.1,189.4-82.9,309.3-383.3,414.4c-81.4,29.6-127.3,77-127.3,131.7
		c0,93.2,164.3,133.2,334.5,81.4c40-11.8,77-22.2,81.4-22.2c8.9,0,47.4,192.4,40,201.3c-10.4,8.9-266.4,50.3-306.4,48.8
		C3266.4,1173.8,3211.7,1164.9,3167.3,1154.6z M3519.5,1102.8c3-8.9,13.3-11.8,20.7-7.4c19.2,11.8,5.9-94.7-14.8-115.4
		c-5.9-5.9-34-4.4-62.2,3c-28.1,8.9-96.2,14.8-149.5,14.8c-134.7,0-196.8-40-202.8-130.2c-4.4-54.8,1.5-69.6,40-105.1
		c23.7-22.2,93.2-59.2,153.9-81.4c133.2-48.8,253.1-127.3,284.2-186.5c28.1-54.8,29.6-195.4,1.5-248.6c-40-77-102.1-115.4-236.8-145
		c-45.9-10.4-285.6-8.9-324.1,1.5c-108,31.1-116.9,38.5-106.6,94.7c13.3,72.5,17.8,77,60.7,60.7c143.6-54.8,350.8-47.4,418.8,16.3
		c44.4,41.4,42.9,134.7-1.5,176.1c-35.5,32.6-137.6,91.8-171.7,97.7c-31.1,5.9-158.4,69.6-168.7,85.8c-5.9,8.9-11.8,10.4-11.8,3
		c0-22.2-88.8,78.4-103.6,118.4c-22.2,54.8-17.8,164.3,5.9,211.6c26.6,50.3,111,119.9,176.1,145
		C3186.5,1135.3,3510.6,1127.9,3519.5,1102.8z"/>
</g>
</svg>
