<?xml version="1.0" encoding="utf-8"?>
<!-- Generator: Adobe Illustrator 19.2.1, SVG Export Plug-In . SVG Version: 6.00 Build 0)  -->
<svg version="1.1"
	 id="svg2" xmlns:cc="http://creativecommons.org/ns#" xmlns:dc="http://purl.org/dc/elements/1.1/" xmlns:rdf="http://www.w3.org/1999/02/22-rdf-syntax-ns#" xmlns:svg="http://www.w3.org/2000/svg"
	 xmlns="http://www.w3.org/2000/svg" xmlns:xlink="http://www.w3.org/1999/xlink" x="0px" y="0px" viewBox="0 0 417.4 198.6"
	 style="enable-background:new 0 0 417.4 198.6;" xml:space="preserve">
<g transform="translate(0.000000,168.000000) scale(0.100000,-0.100000)">
	<path d="M360.7,1639.4c-87.9-34.3-140.1-92.4-165.5-184.8c-8.9-32.8-16.4-164-16.4-290.7c0-272.8-13.4-317.5-114.8-365.2
		C1.5,768.9,1.5,768.9,0,686.9v-83.5l64.1-28.3c101.4-47.7,114.8-90.9,114.8-362.2c0-263.8,14.9-342.8,80.5-412.9
		c53.7-56.6,169.9-96.9,280.2-96.9h71.5v87.9v86.5L553-112.1c-32.8,4.5-79,25.3-101.4,44.7l-41.7,35.8L401,242.7
		c-8.9,293.6-17.9,333.9-99.9,409.9l-38.8,35.8l38.8,32.8c79,67.1,90.9,114.8,99.9,408.4c10.4,322,14.9,330.9,161,348.8
		c47.7,4.5,90.9,6,98.4,3c6-3,10.4-275.8,10.4-605.2c0-593.3,0-600.7,34.3-666.3c41.7-85,126.7-134.2,247.4-144.6l86.5-8.9l10.4,73
		c6,40.2,13.4,83.5,17.9,95.4c4.5,16.4-13.4,29.8-56.6,44.7c-38.8,13.4-70.1,37.3-82,59.6c-14.9,28.3-19.4,195.3-19.4,690.1v651.4
		l-234-1.5C475.5,1669.2,427.8,1664.7,360.7,1639.4z"/>
	<path d="M3562.5,1582.8v-86.5l58.1-10.4c32.8-4.5,79-25.3,101.4-44.7l41.7-35.8l8.9-274.3c8.9-295.1,20.9-342.8,99.9-409.9
		l38.8-32.8l-38.8-35.8c-82-76-90.9-116.3-99.9-409.9l-8.9-274.3l-40.2-34.3c-22.4-19.4-67.1-38.8-99.9-44.7l-61.1-10.4V-209v-87.9
		h71.5c110.3,0,226.6,40.2,280.2,96.9c65.6,70.1,80.5,149.1,80.5,412.9c0,271.3,13.4,314.5,116.3,362.2l62.6,28.3v83.5
		c-1.5,82-1.5,82-64.1,111.8c-101.4,47.7-114.8,92.4-114.8,365.2c0,248.9-13.4,323.5-68.6,398c-44.7,59.6-171.4,108.8-281.7,108.8
		h-82V1582.8z"/>
	<path d="M1414.6,1143c-138.6-49.2-244.5-153.5-299.6-290.7c-47.7-122.2-47.7-374.1,1.5-499.4c89.4-226.6,323.5-335.4,627.5-292.2
		c61.1,8.9,134.2,22.4,162.5,31.3l50.7,16.4l-10.4,90.9c-4.5,49.2-11.9,92.4-16.4,96.9c-3,4.5-38.8-1.5-77.5-13.4
		c-38.8-10.4-128.2-20.9-198.3-20.9c-111.8,0-135.6,4.5-196.8,40.2c-71.5,43.2-131.2,135.6-131.2,202.7c0,32.8,0,32.8,350.3,32.8
		h350.3v108.8c0,260.9-108.8,444.2-299.6,500.8C1654.6,1169.9,1480.2,1166.9,1414.6,1143z M1660.5,949.2
		c62.6-25.3,114.8-98.4,123.7-172.9l8.9-59.6h-235.5h-234l8.9,47.7C1363.9,922.4,1518.9,1008.9,1660.5,949.2z"/>
	<path d="M2338.8,1150.5c-150.6-46.2-237-155-237-298.1c1.5-153.5,79-237,305.6-326.4c138.6-55.2,196.8-98.4,210.2-155
		c13.4-56.6-47.7-114.8-123.7-119.2c-101.4-4.5-202.7,6-272.8,26.8c-37.3,11.9-74.5,20.9-85,20.9c-14.9,0-49.2-117.8-49.2-171.4
		c0-37.3,156.5-71.5,327.9-73c216.1,0,327.9,41.7,402.5,150.6c26.8,38.8,34.3,71.5,34.3,150.6c1.5,171.4-64.1,245.9-296.6,338.4
		c-76,29.8-156.5,71.5-177.4,90.9c-46.2,43.2-49.2,110.3-6,149.1c41.7,37.3,207.2,46.2,311.5,16.4c56.6-16.4,77.5-17.9,82-6
		c20.9,56.6,37.3,165.5,26.8,175.9C2751.7,1156.4,2431.2,1177.3,2338.8,1150.5z"/>
	<path d="M3130.3,1144.5c-141.6-47.7-211.7-131.2-220.6-263.8c-13.4-175.9,55.2-257.9,290.7-353.3
		c177.4-71.5,216.1-104.3,210.2-180.4c-3-44.7-13.4-59.6-47.7-76c-58.1-26.8-229.6-23.8-342.8,6c-89.4,23.8-110.3,17.9-113.3-29.8
		c-1.5-7.5-7.5-43.2-13.4-77.5l-11.9-62.6l83.5-25.3c99.9-29.8,365.2-34.3,457.6-8.9c82,23.8,153.5,74.5,196.8,137.1
		c31.3,46.2,34.3,65.6,29.8,166.9c-7.5,169.9-62.6,228.1-307.1,325c-68.6,26.8-140.1,62.6-161,77.5c-46.2,37.3-49.2,114.8-4.5,155
		c41.7,37.3,207.2,46.2,310,16.4l76-22.4l13.4,55.2c8.9,29.8,16.4,73,19.4,96.9c4.5,41.7,0,44.7-77.5,62.6
		C3416.5,1166.9,3200.3,1168.4,3130.3,1144.5z"/>
</g>
</svg>
