<svg id="Layer_1" xmlns:rdf="http://www.w3.org/1999/02/22-rdf-syntax-ns#" xmlns="http://www.w3.org/2000/svg" enable-background="new 0 0 87.422 99.575" xml:space="preserve" viewBox="0 0 87.422 99.575" height="100%" width="100%" version="1.0" y="0px" x="0px" xmlns:cc="http://creativecommons.org/ns#" xmlns:dc="http://purl.org/dc/elements/1.1/"><metadata id="metadata11"><rdf:RDF><cc:Work rdf:about=""><dc:format>image/svg+xml</dc:format><dc:type rdf:resource="http://purl.org/dc/dcmitype/StillImage"/><dc:title/></cc:Work></rdf:RDF></metadata>
    <path id="path4870" d="m0,5.953h37.01v3.588h-3.59v3.952l-33.42,2.906v-10.446z"/>
    <path id="path4872" d="m52.543,16.646c4.713,0,8.522-3.798,8.522-8.525,0-4.711-3.81-8.547-8.522-8.547-4.728,0-8.549,3.836-8.549,8.547,0.001,4.727,3.821,8.525,8.549,8.525"/>
    <path id="path4874" d="m58.999,16.167c2.441-2.415,6.38-2.415,8.821,0l18.466,18.441c0.711,0.709,1.136,1.691,1.136,2.75v55.332c0,3.812-3.072,6.885-6.882,6.885s-6.937-3.073-6.937-6.885v-45.646l-17.212-17.227-6.882,6.883c-0.775,0.931-1.937,1.539-3.281,1.539-1.228,0-2.336-0.529-3.125-1.384l-11.855-11.88c-1.51-1.794-1.382-4.518,0.402-6.03,1.793-1.51,4.466-1.253,5.978,0.53l9.014,9.051,12.357-12.359z"/>
    <path id="path4876" d="m23.102,18.789c-0.168-0.827-0.902-1.433-1.757-1.433-0.891,0-1.614,0.632-1.768,1.485l-2.88,16.478v63.83h24.366v-9.051h-14.954l-0.103-54.779-2.904-16.53z"/>
    </svg>
