<?xml version="1.0" encoding="utf-8"?>
<!-- Generator: Adobe Illustrator 19.2.1, SVG Export Plug-In . SVG Version: 6.00 Build 0)  -->
<svg version="1.1" id="Layer_1" xmlns="http://www.w3.org/2000/svg" xmlns:xlink="http://www.w3.org/1999/xlink" x="0px" y="0px"
	 viewBox="0 0 900 213" style="enable-background:new 0 0 900 213;" xml:space="preserve">
<g transform="translate(0.000000,213.000000) scale(0.100000,-0.100000)">
	<path d="M5850,1887.3c0-9,44-56,269-290c218-227,271-285,271-295c0-5,7-9,15-9s15-4,15-9c0-8,147-165,298-318c17-18,32-36,32-39
		c0-4,27-33,60-66c33-32,60-60,60-62s47-52,104-111c219-225,252-261,258-277c14-34,112-24,123,13c10,32-3,54-63,107
		c-32,27-113,105-181,171c-67,67-124,121-127,121c-2,0-31,27-64,60s-62,60-64,60c-6,0-89,78-250,235c-70,69-130,125-132,125
		s-31,27-64,60c-34,34-65,58-70,55c-6-4-10-2-10,4c0,8-108,117-281,282c-31,30-88,85-128,123C5882,1864.3,5850,1891.3,5850,1887.3z"
		/>
	<path d="M6372,1755.3c31-37,87-97,183-196c159-165,195-204,195-210c0-4,20-26,45-50c25-25,45-47,45-50s43-48,95-102
		c52-53,115-120,140-148c71-81,78-87,93-81c10,4,12,0,8-12c-5-11,3-26,24-44c16-15,30-30,30-33s42-49,94-102c81-83,98-96,119-90
		c29,7,52,55,42,88c-4,13-40,52-79,88s-109,101-156,145c-119,113-200,188-303,278c-36,32-102,94-147,138c-44,43-82,79-85,79
		c-2,0-26,21-52,48c-27,26-63,59-81,73s-75,67-127,118C6363,1781.3,6325,1810.3,6372,1755.3z"/>
	<path d="M17,1555.3c-15-17-17-76-17-648c0-491,3-634,13-647c11-15,29-17,142-15l130,3l3,410c1,225,6,413,11,418c4,4,42-43,83-105
		s121-184,178-270c57-87,106-155,110-153s27,35,52,72c24,37,72,110,106,161s62,97,62,102s3,10,8,12c11,5,52,66,52,78c0,5,3,10,8,10
		c4,0,20,23,35,50c16,28,33,48,38,45c5-4,9-167,9-398c0-216,3-402,6-415c6-21,10-22,144-22s138,1,144,23c11,40,7,1267-4,1288
		c-10,17-23,19-160,19h-148l-45-67c-24-38-57-90-73-116c-16-27-37-61-46-75c-10-15-22-36-28-47c-5-11-33-54-60-95s-54-84-59-95
		s-18-28-28-38c-20-17-21-17-39,10c-24,35-40,63-54,88c-5,11-33,54-60,95s-55,84-60,95c-6,11-18,32-28,47c-9,15-37,60-61,100
		c-25,40-52,78-60,85c-11,8-61,12-152,13C50,1573.3,31,1571.3,17,1555.3z"/>
	<path d="M1705,1561.3c-3-7-4-305-3-663l3-650l497-3l497-2l6,32c3,18,5,76,3,128l-3,95l-355,5l-355,5l-3,133c-1,72-1,133,0,134
		c2,1,140,5,308,8l305,5l5,118c3,79,1,122-6,128c-6,5-145,10-310,11l-299,3v130v130l350,5l350,5l3,108c1,62-2,115-8,127
		c-10,20-21,20-496,20C1816,1573.3,1708,1570.3,1705,1561.3z"/>
	<path d="M3082,1561.3c-8-8-12-51-12-130c0-65,1-119,3-120c1-1,90-4,197-7l195-6l5-525l5-525h140h140l5,525c3,289,6,526,8,527
		c1,2,89,4,195,5l192,3v130v130l-530,3C3220,1573.3,3091,1570.3,3082,1561.3z"/>
	<path d="M4546,1557.3c-14-14-16-86-16-642c0-345,3-637,6-650l6-22l497,2l496,3v125v125l-355,5l-355,5v135v135l310,5l310,5v125v125
		l-313,3l-313,2l3,133l3,132l350,5l350,5l3,119c2,89-1,121-10,128c-7,4-225,8-485,8C4618,1573.3,4560,1571.3,4546,1557.3z"/>
	<path d="M7860,1554.3c-11-21-15-1248-4-1288c6-22,10-23,145-23c77,0,140,1,141,3c1,1,4,96,7,212l6,210l102,3c101,3,103,2,133-26
		c16-16,30-32,30-36c0-9,43-70,53-74c4-2,7-8,7-13c0-11,42-72,53-77c4-2,7-8,7-13c0-11,42-72,53-77c4-2,7-8,7-14s16-31,36-54l35-44
		h165h164v26c0,14-4,23-8,20c-10-6-24,4-37,26c-5,9-34,52-64,95c-220,317-216,308-145,338c41,17,129,98,158,145c46,75,58,131,54,257
		c-3,106-6,124-32,178c-38,77-115,154-189,189c-100,47-187,56-544,56C7885,1573.3,7870,1572.3,7860,1554.3z M8535,1294.3
		c133-41,177-188,90-296c-51-63-99-75-304-75h-171v188c0,104,3,192,7,195c3,4,76,7,162,7C8443,1313.3,8487,1309.3,8535,1294.3z"/>
	<path d="M6950,1518.3c34-40,118-132,158-172c17-19,32-35,32-37c0-3,42-47,93-100c50-52,110-116,132-142c100-116,125-139,142-128
		c42,26,39,40-20,98c-31,31-59,56-62,56c-6,0-68,57-177,163c-44,42-84,77-89,77s-9,7-9,15s-4,15-9,15s-37,27-71,60
		c-35,34-81,75-104,92l-41,32L6950,1518.3z"/>
	<path d="M5950,1368.3c37-45,92-104,218-234c63-64,126-132,140-151s46-54,69-77c24-24,43-45,43-47c0-3,42-47,93-99
		c124-128,177-185,177-192c0-3,20-25,45-49c25-25,45-47,45-50s49-55,109-116c115-117,139-129,181-93c36,31,26,64-36,118
		c-113,99-153,137-248,230c-54,52-99,95-101,95c-3,0-26,21-53,48c-27,26-70,65-96,86c-26,22-91,82-143,133s-96,93-99,93
		s-24,20-48,45c-25,25-47,45-51,45s-26,19-50,43c-65,64-167,160-195,182l-24,20L5950,1368.3z"/>
	<path d="M7396,1344.3c27-28,51-45,52-40c4,10-77,88-92,89C7351,1393.3,7369,1371.3,7396,1344.3z"/>
	<path d="M6120,880.3c0-4,8-15,18-25c9-10,49-53,87-96c39-43,113-122,165-176c137-142,180-189,180-197c0-3,20-26,45-50
		c25-23,45-47,45-53c0-5,7-10,15-10s15-7,15-15c0-21,34-19,54,4c22,24,15,38-47,88c-29,24-96,86-150,138s-100,95-101,95
		c-4,0-136,122-243,224C6157,851.3,6120,883.3,6120,880.3z"/>
	<path d="M6329,415.3c69-78,79-87,89-77c3,3-21,32-54,63C6269,490.3,6260,494.3,6329,415.3z"/>
</g>
</svg>
