<!-- Created with Inkscape (http://www.inkscape.org/) -->
<svg id="svg2" xmlns:rdf="http://www.w3.org/1999/02/22-rdf-syntax-ns#" xmlns="http://www.w3.org/2000/svg" viewBox="0 0 92.07 100" version="1.0" xmlns:cc="http://creativecommons.org/ns#" xmlns:dc="http://purl.org/dc/elements/1.1/">
 <metadata id="metadata7">
  <rdf:RDF>
   <cc:Work rdf:about="">
    <dc:format>image/svg+xml</dc:format>
    <dc:type rdf:resource="http://purl.org/dc/dcmitype/StillImage"/>
    <dc:title/>
   </cc:Work>
  </rdf:RDF>
 </metadata>
 <path id="rect2987" fill="#00a1f1" d="M0,0v33h0.03125c-0.02682,0.562-0.03125,1.118-0.03125,1.688v17.593c0,19.22,15.467,34.688,34.688,34.688h22.687c1.397,0,2.772-0.06,4.125-0.219v0.25h30.531v-32.906c0.002-0.031-0.001-0.063,0-0.094,0.027-0.563,0.031-1.149,0.031-1.719v-17.593c0-19.221-15.467-34.688-34.687-34.688h-22.687c-1.409-3.4706E-16-2.793,0.088495-4.157,0.25v-0.25h-30.531zm41.312,34.031c2.911,0,5.293,0.371,7.126,1.125,1.886,0.755,3.447,1.729,4.687,2.969,0.593-0.431,1.334-0.89,2.25-1.375s1.931-0.904,3.063-1.281c1.131-0.431,2.322-0.793,3.562-1.063,1.293-0.269,2.581-0.375,3.875-0.375,3.288,0,5.992,0.468,8.094,1.438,2.156,0.916,3.814,2.244,5,3.969,1.239,1.67,2.1,3.699,2.531,6.124,0.485,2.372,0.719,4.988,0.719,7.844v23.782h-9.781v-22.219c-0.001-4.42-0.548-7.622-1.626-9.563-1.077-1.994-3.146-2.968-6.218-2.968-1.563,0-3.037,0.242-4.438,0.781-1.401,0.485-2.455,0.983-3.156,1.469,0.431,1.347,0.713,2.772,0.875,4.281s0.25,3.119,0.25,4.843v23.376h-9.781v-22.219c0-4.42-0.556-7.622-1.688-9.563-1.078-1.994-3.138-2.968-6.156-2.968-1.078,0-2.269,0.057-3.562,0.218-1.294,0.162-2.26,0.299-2.907,0.406v34.126h-9.781v-40.907c1.886-0.539,4.357-1.046,7.375-1.531,3.072-0.485,6.292-0.719,9.687-0.719z"/>
</svg>
