<!-- Generator: Adobe Illustrator 14.0.0, SVG Export Plug-In . SVG Version: 6.00 Build 43363)  -->
<svg id="Layer_1" xmlns:rdf="http://www.w3.org/1999/02/22-rdf-syntax-ns#" xmlns="http://www.w3.org/2000/svg" enable-background="new 0 0 98.867 100" xml:space="preserve" height="100" viewBox="0 0 55.790003 100" width="55.79" version="1.0" y="0px" x="0px" xmlns:cc="http://creativecommons.org/ns#" xmlns:dc="http://purl.org/dc/elements/1.1/"><metadata id="metadata13"><rdf:RDF><cc:Work rdf:about=""><dc:format>image/svg+xml</dc:format><dc:type rdf:resource="http://purl.org/dc/dcmitype/StillImage"/><dc:title/></cc:Work></rdf:RDF></metadata>
<rect id="rect3" transform="matrix(0.86597575,0.500086,-0.500086,0.86597575,0,0)" height="4.2779" width="24.94" y="46.441" x="29.289"/>
<path id="path5" d="M43.637,78.138c6.239-5.891,10.189-14.167,10.189-23.404,0-11.38-5.9752-21.646-15.271-27.412l10.414-18.025-1.636-0.9422,2.568-4.4666-6.733-3.888-2.575,4.4605-1.722-0.9953-25.6,44.348,2.2359,1.2911-3.1746,5.4906,5.6254,3.2503,3.1746-5.4958,2.2316,1.2902,10.765-18.642c6.6007,4.2073,10.838,11.581,10.838,19.739,0,12.904-10.508,23.404-23.413,23.404h-18.863v8.861h53.099v-8.8618h-12.152z"/>
</svg>
