<svg id="Layer_1" xmlns:rdf="http://www.w3.org/1999/02/22-rdf-syntax-ns#" xmlns="http://www.w3.org/2000/svg" version="1.1" xml:space="preserve" viewBox="0 0 100 100" height="100%" width="100%" enable-background="new 0 0 100 100" y="0px" x="0px" xmlns:cc="http://creativecommons.org/ns#" xmlns:dc="http://purl.org/dc/elements/1.1/"><metadata id="metadata15"><rdf:RDF><cc:Work rdf:about=""><dc:format>image/svg+xml</dc:format><dc:type rdf:resource="http://purl.org/dc/dcmitype/StillImage"/><dc:title/></cc:Work></rdf:RDF></metadata>
<g id="XMLID_49_" transform="matrix(1.7621582,0,0,1.7621582,-73.240348,-34.945837)">
	<g id="g4">
		<g id="XMLID_90_">
			<g id="g7">
				<path id="path9" d="m60.576,59.954h3.093c0.188,0,0.357-0.17,0.357-0.359v-3.07c0-0.211-0.17-0.361-0.357-0.361h-3.093c-0.188,0-0.357,0.15-0.357,0.361v3.07c0,0.189,0.17,0.359,0.357,0.359zm-8.598,0c0.21,0,0.36-0.17,0.36-0.359v-3.07c0-0.211-0.15-0.361-0.36-0.361h-3.071c-0.189,0-0.358,0.15-0.358,0.361v3.07c0,0.189,0.169,0.359,0.358,0.359h3.071zm2.772-5.563h3.073c0.189,0,0.359-0.152,0.359-0.357v-3.074c0-0.188-0.17-0.357-0.359-0.357h-3.073c-0.188,0-0.357,0.17-0.357,0.357v3.074c0,0.205,0.169,0.357,0.357,0.357zm-2.772,16.647c0.21,0,0.36-0.15,0.36-0.357v-3.074c0-0.186-0.15-0.357-0.36-0.357h-3.071c-0.189,0-0.358,0.172-0.358,0.357v3.074c0,0.207,0.169,0.357,0.358,0.357h3.071zm0.36-20.079c0-0.188-0.15-0.357-0.36-0.357h-3.071c-0.189,0-0.358,0.17-0.358,0.357v3.074c0,0.205,0.169,0.357,0.358,0.357h3.071c0.21,0,0.36-0.152,0.36-0.357v-3.074zm11.331,14.538c0.188,0,0.357-0.17,0.357-0.359v-3.072c0-0.188-0.17-0.357-0.357-0.357h-3.093c-0.188,0-0.357,0.17-0.357,0.357v3.072c0,0.189,0.17,0.359,0.357,0.359h3.093zm-3.45-14.538v3.074c0,0.205,0.17,0.357,0.357,0.357h3.093c0.188,0,0.357-0.152,0.357-0.357v-3.074c0-0.188-0.17-0.357-0.357-0.357h-3.093c-0.187,0-0.357,0.17-0.357,0.357zm4.768-14.177c0-1.771-1.356-3.186-3.016-3.186h-12.52c-1.657,0-3.017,1.414-3.017,3.186v6.768c0,1.754,1.359,3.168,3.017,3.168h12.52c1.659,0,3.016-1.414,3.016-3.168v-6.768zm-16.081,24.926c-0.189,0-0.358,0.17-0.358,0.357v3.072c0,0.189,0.169,0.359,0.358,0.359h3.071c0.21,0,0.36-0.17,0.36-0.359v-3.072c0-0.188-0.15-0.357-0.36-0.357h-3.071zm9.277-5.184c0-0.211-0.17-0.361-0.359-0.361h-3.074c-0.188,0-0.357,0.15-0.357,0.361v3.07c0,0.189,0.17,0.359,0.357,0.359h3.073c0.189,0,0.359-0.17,0.359-0.359v-3.07zm-3.79,5.541v3.072c0,0.189,0.17,0.359,0.357,0.359h3.073c0.189,0,0.359-0.17,0.359-0.359v-3.072c0-0.188-0.17-0.357-0.359-0.357h-3.073c-0.188,0-0.357,0.169-0.357,0.357zm0,8.615c0,0.207,0.17,0.357,0.357,0.357h3.073c0.189,0,0.359-0.15,0.359-0.357v-3.074c0-0.186-0.17-0.357-0.359-0.357h-3.073c-0.188,0-0.357,0.172-0.357,0.357v3.074zm9.633-3.074c0-0.186-0.17-0.357-0.357-0.357h-3.093c-0.188,0-0.357,0.172-0.357,0.357v3.074c0,0.207,0.17,0.357,0.357,0.357h3.093c0.188,0,0.357-0.15,0.357-0.357v-3.074zm4.828-34.049v38.293c0,1.922-1.565,3.467-3.528,3.467h-18.474c-1.924,0-3.507-1.545-3.507-3.467v-38.293c0-1.904,1.583-3.449,3.507-3.449h0.037v-8.334c0-0.51,0.828-0.941,1.867-0.941,0.508,0,0.979,0.111,1.299,0.281,0.34,0.168,0.548,0.398,0.548,0.66v8.334h14.724c1.962,0,3.527,1.545,3.527,3.449z"/>
			</g>
		</g>
	</g>
</g>
</svg>
