<svg id="Layer_1" xmlns:rdf="http://www.w3.org/1999/02/22-rdf-syntax-ns#" xmlns="http://www.w3.org/2000/svg" enable-background="new 0 0 60 56" xml:space="preserve" height="100" viewBox="0 0 96.290001 100" width="96.29" version="1.1" y="0px" x="0px" xmlns:cc="http://creativecommons.org/ns#" xmlns:dc="http://purl.org/dc/elements/1.1/"><metadata id="metadata13"><rdf:RDF><cc:Work rdf:about=""><dc:format>image/svg+xml</dc:format><dc:type rdf:resource="http://purl.org/dc/dcmitype/StillImage"/><dc:title/></cc:Work></rdf:RDF></metadata>
<path id="path7" d="M95.068-2.2699E-7h-61.375c-0.673,0-1.22,0.55741-1.22,1.2473v27.294c-1.0271-0.34064-1.4314-0.47655-1.4314-0.47655s-0.91181-0.29935-3.5974-1.1871c-5.585-1.848-10.858-2.982-12.805,2.904-1.771,5.349-13.266,40.092-14.232,43.01-1.7909,5.4158,2.646,8.633,6.7509,9.9904,4.0997,1.3574,5.2059,1.7238,5.2059,1.7238s1.1045,0.36472,5.2094,1.7221c4.1032,1.3574,9.5826,1.4228,11.375-3.9948,0.30967-0.93762,1.7101-5.1698,3.5234-10.649v13.978c0,0.68472,0.54709,1.2456,1.2215,1.2456h61.375c0.67268,0,1.2198-0.55569,1.2198-1.2456v-84.315c0.001-0.68988-0.548-1.2473-1.221-1.2473zm-29.928,3.3152c0.89633,0,1.6258,0.74321,1.6258,1.6585,0,0.91525-0.73117,1.6585-1.6258,1.6585-0.89633,0-1.6206-0.74321-1.6206-1.6585,0-0.91697,0.72601-1.6585,1.6206-1.6585zm-39.12,25.629,8.4575,2.7974c0.19785,0.06537,0.30967,0.28215,0.2443,0.48171-0.06709,0.20301-0.28731,0.31139-0.41978,0.26666l-8.4592-2.7991c-0.2615-0.08602-0.37333-0.30451-0.30623-0.5058,0.06537-0.19957,0.28559-0.30795,0.48343-0.24086zm-9.323,53.3c-0.07742,0.2357-0.52128,1.2198-1.5294,0.88945-0.93934-0.31139-2.1144-0.70192-2.1144-0.70192s-1.175-0.38881-2.1127-0.69848c-1.0116-0.33376-0.78106-1.3884-0.70192-1.6258,0.13075-0.39397,0.55569-0.35612,1.3712-0.08602,0.81031,0.26838,2.0198,0.66924,2.0198,0.66924s1.2094,0.40085,2.0215,0.67096c0.81203,0.26838,1.175,0.48859,1.046,0.88257zm10.419-0.332-25.044-8.284,14.687-44.385,25.044,8.286-14.687,44.383zm37.264,1.6826c-1.0305,0-1.8666-0.8516-1.8666-1.9028,0-1.0494,0.83267-1.9028,1.8666-1.9028,1.034,0,1.8666,0.85332,1.8666,1.9028,0,1.0512-0.8344,1.9028-1.8666,1.9028zm28.201-8.3629c0,0.68816-0.54365,1.2456-1.2198,1.2456h-53.959c-0.6744,0-1.2198-0.55397-1.2198-1.2456v-14.861c3.0795-9.3074,6.1504-18.587,6.9969-21.147,1.7634-5.3332-2.1006-7.6661-6.9969-9.433v-19.976c0-0.68816,0.54537-1.2456,1.2198-1.2456h53.957c0.6744,0,1.2198,0.55741,1.2198,1.2456v65.417z"/>
</svg>
