<svg xmlns="http://www.w3.org/2000/svg" xmlns:xlink="http://www.w3.org/1999/xlink" version="1.1" id="Layer_1" x="0px" y="0px" width="63.64px" height="99.997px" viewBox="0 0 63.64 99.997" enable-background="new 0 0 63.64 99.997" xml:space="preserve">
<path d="M32.995,45.957V35.609c0.813-0.563,1.348-1.494,1.348-2.559c0-1.712-1.406-3.119-3.119-3.119  c-1.725,0-3.119,1.406-3.119,3.119c0,1.058,0.527,1.989,1.322,2.552v10.273H9.473c-1.582,0-2.884,1.289-2.884,2.875v48.369  c0,1.596,1.302,2.878,2.884,2.878h22.865c1.588,0,2.884-1.282,2.884-2.878V48.75C35.222,47.393,34.271,46.26,32.995,45.957z   M30.808,71.813c0,1.582-1.296,2.884-2.878,2.884H13.418c-1.595,0-2.884-1.302-2.884-2.884v-17.07c0-1.595,1.289-2.884,2.884-2.884  H27.93c1.582,0,2.878,1.289,2.878,2.884V71.813z"/>
<path d="M60.117,31.826C60.078,16.191,47.448,3.558,31.81,3.525l0,0C16.185,3.558,3.542,16.191,3.503,31.826l0,0  c0,0.97-0.775,1.768-1.758,1.768l0,0C0.781,33.594,0,32.796,0,31.826l0,0C0,14.261,14.245,0,31.81,0l0,0  c17.579,0,31.83,14.261,31.83,31.826l0,0c0,0.97-0.794,1.768-1.765,1.768l0,0C60.905,33.594,60.117,32.796,60.117,31.826  L60.117,31.826z"/>
<path d="M50.983,31.826c-0.032-10.599-8.574-19.147-19.173-19.157l0,0c-10.586,0.01-19.16,8.558-19.18,19.157l0,0  c0,0.97-0.775,1.768-1.751,1.768l0,0c-0.97,0-1.758-0.797-1.758-1.768l0,0c0-12.523,10.156-22.669,22.689-22.705l0,0  c12.54,0.036,22.689,10.182,22.689,22.705l0,0c0,0.97-0.788,1.768-1.758,1.768l0,0C51.771,33.594,50.983,32.796,50.983,31.826  L50.983,31.826z"/>
<path d="M43.021,31.826c-0.014-6.191-5.02-11.195-11.211-11.211l0,0c-6.178,0.016-11.205,5.02-11.217,11.211l0,0  c0,0.97-0.788,1.768-1.758,1.768l0,0c-0.97,0-1.758-0.797-1.758-1.768l0,0c0-8.145,6.602-14.723,14.733-14.736l0,0  c8.131,0.013,14.713,6.592,14.733,14.736l0,0c0,0.97-0.781,1.768-1.758,1.768l0,0C43.809,33.594,43.021,32.796,43.021,31.826  L43.021,31.826z"/>
</svg>