<svg id="svg2" xmlns:rdf="http://www.w3.org/1999/02/22-rdf-syntax-ns#" xmlns="http://www.w3.org/2000/svg" height="100" width="94.94" version="1.1" xmlns:cc="http://creativecommons.org/ns#" xmlns:dc="http://purl.org/dc/elements/1.1/" viewBox="0 0 75.952002 80">
 <metadata id="metadata40">
  <rdf:RDF>
   <cc:Work rdf:about="">
    <dc:format>image/svg+xml</dc:format>
    <dc:type rdf:resource="http://purl.org/dc/dcmitype/StillImage"/>
    <dc:title/>
   </cc:Work>
  </rdf:RDF>
 </metadata>
 <g id="g24" fill-rule="nonzero" fill="#00618a" transform="matrix(0.52475184,0,0,0.56358007,-1.0568241,-2.9174468)">
  <path id="path2986" d="M5.6562-0.03125c-2.2604-0.040566-4.2242,0.84432-5.25,3.5312-1.7271,4.5227,2.5842,8.9584,4.125,11.25,1.0816,1.6078,2.4773,3.4108,3.25,5.2188,0.50835,1.1882,0.59636,2.3674,1.0312,3.625,1.0705,3.0972,1.9903,6.4811,3.375,9.3438,0.69989,1.4482,1.4589,2.9546,2.3438,4.25,0.54246,0.79465,1.4781,1.1477,1.625,2.375-0.90913,1.3663-0.95777,3.4878-1.4688,5.2188-2.301,7.7926-1.441,17.483,1.9062,23.25,1.0272,1.7703,3.455,5.5499,6.7812,4.0938,2.9097-1.273,2.2614-5.2075,3.0938-8.6875,0.18826-0.78915,0.06887-1.3779,0.4375-1.9062v0.15625c0.88355,1.8974,1.7727,3.8217,2.6562,5.7188,1.9613,3.3928,5.4252,6.9201,8.375,9.3125,1.5297,1.2406,2.8167,2.8699,4.7188,4.125,3.3623,2.1207,1.4958,3.0023,25.219,11.562,0.28926,0.22807,9.3731,3.2313,14.188,4.7812,6.5889,2.1212,12.35,2.5817,12.875,2.7812v-0.15625c-0.474-0.648-0.628-1.543-1.063-2.219l-1.875-2.063c-1.8714-2.6678-4.2559-4.991-6.7812-6.9375-2.0137-1.5527-6.5347-3.6704-7.375-6.1875-0.04919-0.05284-0.1064-0.10341-0.15625-0.15625,1.428-0.1726,3.1197-0.71474,4.4375-1.0938,2.2138-0.63755,4.1828-0.49097,6.4688-1.125,1.0305-0.31631,2.0626-0.6219,3.0938-0.9375v-0.625c-1.1558-1.2737-1.9899-2.9725-3.25-4.125-3.2968-3.0152-6.8883-6.0194-10.594-8.5312-2.0551-1.3932-4.5723-2.2882-6.75-3.4688-0.73268-0.39697-2.0159-0.61946-2.5-1.2812-1.144-1.5665-1.774-3.5505-2.6562-5.375-1.8484-3.8223-3.6753-7.9789-5.3125-12-1.1171-2.7422-1.8574-5.4461-3.25-7.9062-6.686-11.805-13.885-18.935-25.032-25.938-2.372-1.4895-5.201-2.0754-8.219-2.8438-1.619-0.1052-3.255-0.2073-4.875-0.3125-0.989-0.4437-2.01-1.7456-2.938-2.375-2.308-1.566-6.8883-4.2761-10.656-4.3438zm16.406,10.938c1.063-0.02341,1.7268,0.87615,2.5938,1.5312,2.7951,2.5767,1.3661,7.1096-1.6875,8.8438-1.085-2.494-1.948-5.121-3.843-7.032-2.1223-1.3906,0.22283-3.6901,2.4375-3.2812,0.16994-0.0451,0.34815-0.05916,0.5-0.0625z" transform="matrix(1.5245301,0,0,1.4194966,2.0139503,5.1766323)"/>
 </g>
</svg>
