<?xml version="1.0" encoding="UTF-8" standalone="no"?>
<!-- Created with Inkscape (http://www.inkscape.org/) -->

<svg
   xmlns:dc="http://purl.org/dc/elements/1.1/"
   xmlns:cc="http://creativecommons.org/ns#"
   xmlns:rdf="http://www.w3.org/1999/02/22-rdf-syntax-ns#"
   xmlns:svg="http://www.w3.org/2000/svg"
   xmlns="http://www.w3.org/2000/svg"
   xmlns:sodipodi="http://sodipodi.sourceforge.net/DTD/sodipodi-0.dtd"
   xmlns:inkscape="http://www.inkscape.org/namespaces/inkscape"
   version="1.1"
   width="500"
   height="500"
   viewBox="0 0 500 500"
   id="svg2"
   inkscape:version="0.48.4 r9939"
   sodipodi:docname="npm.svg">
  <defs
     id="defs8" />
  <sodipodi:namedview
     pagecolor="#ffffff"
     bordercolor="#666666"
     borderopacity="1"
     objecttolerance="10"
     gridtolerance="10"
     guidetolerance="10"
     inkscape:pageopacity="0"
     inkscape:pageshadow="2"
     inkscape:window-width="1244"
     inkscape:window-height="982"
     id="namedview6"
     showgrid="false"
     inkscape:zoom="0.703"
     inkscape:cx="-22.458174"
     inkscape:cy="110.42344"
     inkscape:window-x="374"
     inkscape:window-y="421"
     inkscape:window-maximized="0"
     inkscape:current-layer="svg2" />
  <metadata
     id="metadata10">
    <rdf:RDF>
      <cc:Work
         rdf:about="">
        <dc:format>image/svg+xml</dc:format>
        <dc:type
           rdf:resource="http://purl.org/dc/dcmitype/StillImage" />
        <dc:title />
      </cc:Work>
    </rdf:RDF>
  </metadata>
  <path
     d="m 0,164.17496 500,0 0,168 -250,0 0,27 -111,0 0,-27 -139,0 z m 28.304251,139.49316 55.231987,3.3e-4 10e-7,-83.9342 27.768011,0 0,83.9342 27.51823,0 0,-111.00055 -110.518229,0 z m 138.029079,-111.49316 0.33334,140 55,0 0,-27.93269 55.67917,0 0,-112.06731 z m 54.66667,27 29,0 0,57 -29,0 z m 84.33333,-27 0,111 55.33132,0 0,-83.33399 27.66668,0 0,83.33454 27.63656,0 0,-83.00055 27.69677,0 0,83 27.67404,0 0,-111 z m 0,0"
     id="path4"
     inkscape:connector-curvature="0" />
</svg>
