<?xml version="1.0" encoding="utf-8"?>
<!-- Generator: Adobe Illustrator 19.2.1, SVG Export Plug-In . SVG Version: 6.00 Build 0)  -->
<svg version="1.1"
	 id="Layer_1" inkscape:version="0.91 r13725" sodipodi:docname="OpenShift-LogoType.svg" xmlns:cc="http://creativecommons.org/ns#" xmlns:dc="http://purl.org/dc/elements/1.1/" xmlns:inkscape="http://www.inkscape.org/namespaces/inkscape" xmlns:rdf="http://www.w3.org/1999/02/22-rdf-syntax-ns#" xmlns:sodipodi="http://sodipodi.sourceforge.net/DTD/sodipodi-0.dtd" xmlns:svg="http://www.w3.org/2000/svg"
	 xmlns="http://www.w3.org/2000/svg" xmlns:xlink="http://www.w3.org/1999/xlink" x="0px" y="0px" viewBox="0 0 162 173.6"
	 style="enable-background:new 0 0 162 173.6;" xml:space="preserve">
<sodipodi:namedview  bordercolor="#666666" borderopacity="1" fit-margin-bottom="0" fit-margin-left="0" fit-margin-right="0" fit-margin-top="0" gridtolerance="10" guidetolerance="10" id="namedview41" inkscape:current-layer="Layer_1" inkscape:cx="-88.12674" inkscape:cy="84.805" inkscape:pageopacity="0" inkscape:pageshadow="2" inkscape:window-height="480" inkscape:window-maximized="0" inkscape:window-width="664" inkscape:window-x="0" inkscape:window-y="69" inkscape:zoom="1.0925926" objecttolerance="10" pagecolor="#ffffff" showgrid="false">
	</sodipodi:namedview>
<g>
	<path d="M148.9,60.8l-23,8.4h0c-0.4,5-1.6,10-3.9,14.8c-10,21.4-35.5,30.7-56.9,20.7c-4.8-2.2-9-5.3-12.5-8.8l-10.9,4
		C36,93.7,32,86,30.5,77.8l20.4-7.4c-0.7-3.7-1-7.5-0.7-11.3l-9.6,3.5c0.4-5,1.6-10,3.8-14.8c10-21.4,35.5-30.7,56.9-20.7
		c4.8,2.2,8.9,5.3,12.4,8.9l9.6-3.5c2.7,2.7,4.9,5.8,6.8,9.1L109.7,49c4.1,7.3,6,15.7,5.4,24.1l23-8.4c-0.7-8.2-2.9-16.3-6.5-23.7
		c2.5-0.9,20.4-7.4,20.4-7.4c-1.6-3.3-3.5-6.5-5.6-9.5l-9.6,3.5c-6.4-8.9-15.1-16.4-25.7-21.4C78.2-9.2,38.9,5.1,23.6,38
		c-5,10.6-6.8,22-5.9,32.9l9.6-3.5c0.3,3.7,0.9,7.3,1.8,10.9L8.6,85.8c2,8,5.5,15.6,10.3,22.3l15.8-5.7l-4.9,1.8
		c6.4,8.9,15,16.4,25.7,21.4c32.9,15.3,72.2,1.1,87.5-31.9C147.9,83,149.8,71.7,148.9,60.8z"/>
	<path d="M9.1,152.5c-5.3,0-9.1,4-9.1,10.6s3.7,10.5,9,10.5c5.3,0,9-4,9-10.6C18,156.4,14.4,152.5,9.1,152.5z M9.1,169.6
		c-2.9,0-4.8-2.4-4.8-6.5c0-4.1,1.9-6.5,4.8-6.5c2.9,0,4.8,2.4,4.8,6.5C13.8,167.3,11.9,169.6,9.1,169.6z"/>
	<path d="M31.4,152.9h-8.9v20.4h4.1v-7.2h4.5c4.2,0,7.4-2,7.4-6.7C38.5,155,35.3,152.9,31.4,152.9z M31.3,162.1h-4.8v-5.3h4.7
		c1.8,0,3,0.8,3,2.6C34.3,161.2,33.2,162.1,31.3,162.1z"/>
	<polygon points="46.8,164.4 52.6,164.4 52.6,160.4 46.8,160.4 46.8,156.9 56.9,156.9 56.9,152.9 42.7,152.9 42.7,173.3 57.3,173.3 
		57.3,169.3 46.8,169.3 	"/>
	<path d="M74.5,161.5c0,1.1,0.1,3.7,0.1,4.5c-0.3-0.5-0.9-1.5-1.4-2.3l-7.2-10.8H62v20.4h4v-9c0-1.1-0.1-3.7-0.1-4.5
		c0.3,0.5,0.9,1.5,1.4,2.3l7.5,11.2v0h3.7v-20.4h-4V161.5z"/>
	<path d="M91.9,161.7c-4.1-1.5-4.8-2.4-4.8-4.1c0-1.6,1.2-3,4-3c2,0,3.4,0.7,4.9,1.9l1.5-1.8c-1.7-1.4-3.5-2.2-6.2-2.2
		c-3.8,0-6.4,2-6.4,5.2c0,3,1.5,4.4,5.9,6c3.7,1.3,4.9,2.4,4.9,4.3c0,2.2-1.7,3.5-4.4,3.5c-2.1,0-3.9-1-5.4-2.5l-1.5,1.7
		c1.6,1.6,4.1,2.8,6.9,2.8c4.3,0,6.8-2.5,6.8-5.7C97.8,164.9,96.4,163.4,91.9,161.7z"/>
	<polygon points="115.3,161.6 105.1,161.6 105.1,152.9 102.9,152.9 102.9,173.3 105.1,173.3 105.1,163.7 115.3,163.7 115.3,173.3 
		117.6,173.3 117.6,152.9 115.3,152.9 	"/>
	<rect x="123.5" y="152.9" width="2.3" height="20.4"/>
	<polygon points="131.6,173.3 133.9,173.3 133.9,163.8 139.5,163.8 139.5,161.7 133.9,161.7 133.9,154.9 143.6,154.9 143.6,152.9 
		131.6,152.9 	"/>
	<polygon points="147.7,152.9 147.7,154.9 153.7,154.9 153.7,173.3 156,173.3 156,154.9 162,154.9 162,152.9 	"/>
</g>
</svg>
