<?xml version="1.0" encoding="UTF-8" standalone="no"?>
<!-- Generator: Adobe Illustrator 19.2.1, SVG Export Plug-In . SVG Version: 6.00 Build 0)  -->

<svg
   xmlns:dc="http://purl.org/dc/elements/1.1/"
   xmlns:cc="http://creativecommons.org/ns#"
   xmlns:rdf="http://www.w3.org/1999/02/22-rdf-syntax-ns#"
   xmlns:svg="http://www.w3.org/2000/svg"
   xmlns="http://www.w3.org/2000/svg"
   xmlns:sodipodi="http://sodipodi.sourceforge.net/DTD/sodipodi-0.dtd"
   xmlns:inkscape="http://www.inkscape.org/namespaces/inkscape"
   version="1.1"
   id="Layer_1"
   inkscape:version="0.48.4 r9939"
   sodipodi:docname="openshift.svg"
   x="0px"
   y="0px"
   viewBox="0 0 143.39999 131.7505"
   xml:space="preserve"
   width="100%"
   height="100%"><metadata
     id="metadata4706"><rdf:RDF><cc:Work
         rdf:about=""><dc:format>image/svg+xml</dc:format><dc:type
           rdf:resource="http://purl.org/dc/dcmitype/StillImage" /></cc:Work></rdf:RDF></metadata><defs
     id="defs4704" /><sodipodi:namedview
     bordercolor="#666666"
     borderopacity="1"
     fit-margin-bottom="0"
     fit-margin-left="0"
     fit-margin-right="0"
     fit-margin-top="0"
     gridtolerance="10"
     guidetolerance="10"
     id="namedview12"
     inkscape:current-layer="Layer_1"
     inkscape:cx="34.021"
     inkscape:cy="42.395759"
     inkscape:pageopacity="0"
     inkscape:pageshadow="2"
     inkscape:window-height="457"
     inkscape:window-maximized="0"
     inkscape:window-width="439"
     inkscape:window-x="109"
     inkscape:window-y="106"
     inkscape:zoom="1.0925926"
     objecttolerance="10"
     pagecolor="#ffffff"
     showgrid="false" /><g
     id="g3"
     transform="translate(-37,-19.202087)"><path
       id="path5"
       inkscape:connector-curvature="0"
       d="m 78.6,78.2 -23,8.4 c 0.3,3.7 0.9,7.3 1.8,10.9 l 21.9,-8 c -0.7,-3.6 -1,-7.4 -0.7,-11.3" /><path
       id="path7"
       inkscape:connector-curvature="0"
       d="m 180.4,52.8 c -1.6,-3.3 -3.5,-6.5 -5.6,-9.5 l -23,8.4 c 2.7,2.7 4.9,5.8 6.8,9.1 -0.1,-0.1 21.8,-8 21.8,-8 z" /><path
       id="path9"
       inkscape:connector-curvature="0"
       d="m 129.7,46.3 c 4.8,2.2 8.9,5.3 12.4,8.9 l 23,-8.4 C 158.7,37.9 150,30.4 139.4,25.4 106.6,10 67.3,24.3 52,57.2 c -5,10.6 -6.8,22 -5.9,32.9 l 23,-8.4 c 0.4,-5 1.6,-10 3.8,-14.8 9.9,-21.3 35.4,-30.6 56.8,-20.6" /><path
       id="path11"
       inkscape:connector-curvature="0"
       d="M 58.9,97 37,105 c 2,8 5.5,15.6 10.3,22.3 l 23,-8.4 c -6,-6 -9.9,-13.7 -11.4,-21.9" /><path
       id="path13"
       inkscape:connector-curvature="0"
       d="m 154.3,88.3 c -0.4,5 -1.6,10 -3.9,14.8 -10,21.4 -35.5,30.7 -56.9,20.7 -4.8,-2.2 -9,-5.3 -12.5,-8.8 l -23,8.4 c 6.4,8.9 15,16.4 25.7,21.4 32.9,15.3 72.2,1.1 87.5,-31.9 5,-10.6 6.8,-22 5.9,-32.9 l -22.8,8.3 0,0 z" /><path
       id="path15"
       inkscape:connector-curvature="0"
       d="m 159.9,60.2 -21.9,8 c 4.1,7.3 6,15.7 5.4,24.1 l 23,-8.4 c -0.7,-8.2 -2.9,-16.3 -6.5,-23.7" /></g></svg>