<?xml version="1.0" encoding="utf-8"?>
<!-- Generator: Adobe Illustrator 19.2.1, SVG Export Plug-In . SVG Version: 6.00 Build 0)  -->
<svg version="1.1"
	 id="Layer_1" inkscape:version="0.91 r13725" sodipodi:docname="OpenShift-LogoWithoutText.svg" xmlns:cc="http://creativecommons.org/ns#" xmlns:dc="http://purl.org/dc/elements/1.1/" xmlns:inkscape="http://www.inkscape.org/namespaces/inkscape" xmlns:rdf="http://www.w3.org/1999/02/22-rdf-syntax-ns#" xmlns:sodipodi="http://sodipodi.sourceforge.net/DTD/sodipodi-0.dtd" xmlns:svg="http://www.w3.org/2000/svg"
	 xmlns="http://www.w3.org/2000/svg" xmlns:xlink="http://www.w3.org/1999/xlink" x="0px" y="0px" viewBox="0 0 143.4 131.7"
	 style="enable-background:new 0 0 143.4 131.7;" xml:space="preserve">
<sodipodi:namedview  bordercolor="#666666" borderopacity="1" fit-margin-bottom="0" fit-margin-left="0" fit-margin-right="0" fit-margin-top="0" gridtolerance="10" guidetolerance="10" id="namedview12" inkscape:current-layer="Layer_1" inkscape:cx="34.042" inkscape:cy="42.328758" inkscape:pageopacity="0" inkscape:pageshadow="2" inkscape:window-height="721" inkscape:window-maximized="1" inkscape:window-width="1280" inkscape:window-x="0" inkscape:window-y="1" inkscape:zoom="1.0925926" objecttolerance="10" pagecolor="#ffffff" showgrid="false">
	</sodipodi:namedview>
<g id="g3" transform="translate(-36.979,-19.185587)">
	<path id="path5" inkscape:connector-curvature="0" d="M78.6,78.2l-23,8.4c0.3,3.7,0.9,7.3,1.8,10.9l21.9-8
		C78.6,85.9,78.3,82.1,78.6,78.2"/>
	<path id="path7" inkscape:connector-curvature="0" d="M180.4,52.8c-1.6-3.3-3.5-6.5-5.6-9.5l-23,8.4c2.7,2.7,4.9,5.8,6.8,9.1
		C158.5,60.7,180.4,52.8,180.4,52.8z"/>
	<path id="path9" inkscape:connector-curvature="0" d="M129.7,46.3c4.8,2.2,8.9,5.3,12.4,8.9l23-8.4c-6.4-8.9-15.1-16.4-25.7-21.4
		C106.6,10,67.3,24.3,52,57.2c-5,10.6-6.8,22-5.9,32.9l23-8.4c0.4-5,1.6-10,3.8-14.8C82.8,45.6,108.3,36.3,129.7,46.3"/>
	<path id="path11" inkscape:connector-curvature="0" d="M58.9,97L37,105c2,8,5.5,15.6,10.3,22.3l23-8.4
		C64.3,112.9,60.4,105.2,58.9,97"/>
	<path id="path13" inkscape:connector-curvature="0" d="M154.3,88.3c-0.4,5-1.6,10-3.9,14.8c-10,21.4-35.5,30.7-56.9,20.7
		c-4.8-2.2-9-5.3-12.5-8.8l-23,8.4c6.4,8.9,15,16.4,25.7,21.4c32.9,15.3,72.2,1.1,87.5-31.9c5-10.6,6.8-22,5.9-32.9L154.3,88.3
		L154.3,88.3z"/>
	<path id="path15" inkscape:connector-curvature="0" d="M159.9,60.2l-21.9,8c4.1,7.3,6,15.7,5.4,24.1l23-8.4
		C165.7,75.7,163.5,67.6,159.9,60.2"/>
</g>
</svg>
