<!-- Created with Inkscape (http://www.inkscape.org/) -->
<svg id="svg2" xmlns:rdf="http://www.w3.org/1999/02/22-rdf-syntax-ns#" xmlns="http://www.w3.org/2000/svg" viewBox="0 0 66.61 100" version="1.0" xmlns:cc="http://creativecommons.org/ns#" xmlns:xlink="http://www.w3.org/1999/xlink" xmlns:dc="http://purl.org/dc/elements/1.1/">
 <metadata id="metadata30">
  <rdf:RDF>
   <cc:Work rdf:about="">
    <dc:format>image/svg+xml</dc:format>
    <dc:type rdf:resource="http://purl.org/dc/dcmitype/StillImage"/>
    <dc:title/>
   </cc:Work>
  </rdf:RDF>
 </metadata>
 <defs id="defs4"></defs>
 <path id="path3762" fill-rule="evenodd" fill="#000" d="M0.0029531,0c-0.01489,0.20058,0.026155,0.40283,0.1316,0.58122l23.259,39.271-22.887,38.646c-0.1794,0.30785-0.17629,0.68831,0,0.99794,0.17629,0.309,0.49909,0.501,0.85539,0.504h17.535c0.35216-0.0023,0.67713-0.18976,0.85538-0.49349l13.554-22.887,13.554,22.887c0.17825,0.30373,0.50322,0.49121,0.85538,0.49349h17.546c0.3563-0.0029,0.67909-0.19482,0.85538-0.50446,0.1763-0.30963,0.1794-0.6901,0-0.99794l-22.884-38.646,23.248-39.271c0.105-0.17958,0.137-0.38081,0.121-0.58122h-19.619l-13.675,23.095-13.675-23.095h-19.63z"/>
</svg>
