<?xml version="1.0" encoding="utf-8"?>
<!-- Generator: Adobe Illustrator 17.0.0, SVG Export Plug-In . SVG Version: 6.00 Build 0)  -->
<!DOCTYPE svg PUBLIC "-//W3C//DTD SVG 1.1 Basic//EN" "http://www.w3.org/Graphics/SVG/1.1/DTD/svg11-basic.dtd">
<svg version="1.1" baseProfile="basic"
	 id="Your_Icon" xmlns:svg="http://www.w3.org/2000/svg" xmlns:dc="http://purl.org/dc/elements/1.1/" xmlns:rdf="http://www.w3.org/1999/02/22-rdf-syntax-ns#" xmlns:cc="http://creativecommons.org/ns#"
	 xmlns="http://www.w3.org/2000/svg" xmlns:xlink="http://www.w3.org/1999/xlink" x="0px" y="0px" width="100px" height="100px"
	 viewBox="0 0 100 100" xml:space="preserve">
<path fill="#020202" d="M97.171,71.134c-1.213-17.91-2.92-44.237-3.308-50.924c-0.383-6.625-0.614-7.821-1.956-9.803
	c-0.956-1.41-3.026-2.945-4.541-3.401c-0.62-0.185-4.47-0.83-8.549-1.421C59.473,2.782,54.075,2.008,51.685,2.115
	c-0.798,0.035-1.266,0.186-1.792,0.373c-3.311,1.172-4.753,3.723-4.752,8.406c0,1.325,0.385,14.576,0.862,29.432
	c0.475,14.855,1.022,32.064,1.21,38.233c0.245,8.122,0.434,11.643,0.674,12.784c0.594,2.808,2.435,4.89,5.053,5.728
	c0.685,0.222,1.908,0.416,2.725,0.423c1.616,0.013,34.978-5.618,36.842-6.221c1.56-0.501,3.396-2.321,4.239-4.165
	C98.058,84.249,98.063,84.307,97.171,71.134z M92.14,70.157c-0.591,2.032-2.587,3.796-5.03,4.444
	c-0.478,0.128-6.61,0.815-13.626,1.542c-7.014,0.722-13.259,1.306-13.855,1.301c-1.962-0.016-3.842-0.956-4.866-2.445
	c-1.198-1.737-1.373-2.641-1.583-8.544c-0.105-2.997-0.491-13.686-0.86-23.774c-0.623-16.897-0.638-18.425-0.328-19.49
	c0.444-1.507,1.464-2.736,2.84-3.376c0.581-0.273,1.146-0.425,2.402-0.465c2.086-0.068,6.095,0.202,15.392,0.909
	c11.296,0.858,12.659,1.001,13.485,1.422c1.382,0.703,2.549,1.9,3.188,3.213c0.565,1.151,0.594,1.384,1.094,10.037
	c0.284,4.883,0.878,14.558,1.304,21.492C92.412,68.076,92.444,69.106,92.14,70.157z"/>
<path d="M41.298,71.81c-4.507,0.454-5.638,0.39-7.01-0.323c-1.248-0.654-2.255-2.135-2.63-3.868
	c-0.114-0.518-0.396-9.488-0.606-19.929c-0.43-21.414-0.482-20.177,1.234-21.727c1.344-1.214,2.074-1.309,6.847-1.001
	c2.279,0.146,4.373,0.308,4.658,0.373l0.537,0.139L44.19,20.7c-0.074-2.623-0.19-5.555-0.256-6.518l-0.14-1.77l-6.031-0.606
	c-3.642-0.373-5.092-0.521-6.009-0.491c-0.552,0.019-0.915,0.103-1.421,0.234c-1.841,0.475-2.767,1.068-3.539,2.282
	c-1.322,2.08-1.256-1.021-0.607,34.555c0.588,32.156,0.641,34.121,1.258,35.513c0.89,2,2.426,3.218,4.658,3.7
	c0.756,0.166,1.569,0.294,1.817,0.304c0.615,0.026,12.131-1.465,12.251-1.581c0.093-0.096-0.368-14.8-0.466-14.905
	C45.672,71.387,43.69,71.571,41.298,71.81z M67.919,21.165l-5.217-0.419c-2.313-0.179-3.902-0.272-5.029-0.257
	c-1.878,0.025-2.508,0.36-3.356,1.164c-0.9,0.859-1.321,1.965-1.329,3.471c0,1.057-0.267,0.955,4.589,1.371
	c3.077,0.263,4.314,0.766,5.475,2.166c1.207,1.46,1.219,1.724,2.003,19.724c0.795,18.248,0.825,17.807-0.373,19.373
	c-0.321,0.419-1.173,1.033-1.956,1.421c-1.21,0.593-1.822,0.727-4.75,1.023c-1.845,0.187-3.38,0.381-3.427,0.42
	c-0.043,0.039,0.039,0.577,0.187,1.211c0.555,2.401,1.921,3.903,3.939,4.309c0.526,0.105,1.302,0.165,1.72,0.116
	c0.42-0.049,2.782-0.313,5.243-0.561c2.456-0.248,4.533-0.499,4.611-0.58c0.076-0.083-0.419-12.261-1.095-27.058L67.919,21.165z"/>
<path d="M25.206,64.662c-0.02-0.029-1.441,0.053-3.143,0.184c-3.814,0.295-4.802,0.169-5.844-0.745
	c-1.455-1.275-1.407-0.829-1.749-15.974l-0.324-13.76l0.465-0.909c0.35-0.684,0.72-1.021,1.468-1.351
	c0.925-0.41,1.261-0.426,4.821-0.279l3.82,0.163L24.58,27.57c-0.081-2.435-0.257-4.493-0.373-4.565
	c-0.312-0.191-7.278-0.766-9.061-0.744c-2.479,0.029-4.193,1.276-4.588,3.329c-0.084,0.434-0.032,7.453,0.116,15.603
	c0.442,24.3,0.628,30.746,0.932,31.762c0.367,1.228,1.649,2.461,2.957,2.863c1.39,0.428,2.099,0.409,6.589-0.093
	c2.099-0.236,3.949-0.439,4.099-0.442c0.213-0.003,0.225-1.141,0.116-5.283C25.294,67.089,25.227,64.691,25.206,64.662z
	 M39.586,61.541l-0.435,0.699c-0.989,1.055-2.192,1.54-4.455,1.7l-1.925,0.14l-0.043,1.19c-0.157,2.613,0.729,4.466,2.482,5.261
	c0.484,0.219,1.33,0.377,1.869,0.373c1.472-0.009,6.271-0.514,6.431-0.673c0.197-0.197,0.157-4.909-0.206-21.305
	c-0.476-21.242-0.535-21.949-1.421-22.425c-0.5-0.267-4.053-0.43-6.194-0.373c-0.713,0.02-1.281,0.065-1.513,0.14
	c-1.664,0.55-2.464,2.319-2.212,4.821l0.14,1.443l2.421,0.116c2.901,0.129,3.743,0.553,4.674,1.957l0.387,0.906v26.031
	L39.586,61.541L39.586,61.541z"/>
<path d="M9.718,57.091l-2.025-0.113c-3.204-0.175-2.975,0.423-3.052-8.406c-0.071-8.247-0.096-8.143,1.489-8.569
	c0.513-0.137,1.131-0.176,1.808-0.092l0.923,0.139v-4.818l-0.713-0.139C7.882,35.051,7.562,35.011,7.046,35
	c-0.518-0.011-1.025,0.002-1.542,0.024c-1.81,0.076-2.156,0.11-2.768,0.791L1.88,36.511v9.199c0,5.06,0.322,10.618,0.403,12.339
	c0.131,2.855,0.317,3.172,0.784,3.727c0.28,0.335,0.944,0.714,1.392,0.84c0.45,0.126,1.195,0.336,1.617,0.283
	c0.42-0.051,1.456,0.05,2.267,0.05h1.49l-0.07-2.94L9.718,57.091z M16.494,57.359h-0.648v1.549c0,1.063,0.099,2.256,0.175,2.63
	c0.134,0.666,0.19,0.678,1.393,0.675c1.404,0,2.508-0.476,3.152-1.351c0.422-0.574,0.43-0.762,0.169-11.757
	c-0.231-9.648-0.312-11.275-0.628-11.921c-0.582-1.191-1.182-1.626-2.92-1.723l-1.338-0.093v3.837h0.324
	c0.882,0,2.099,0.98,2.42,1.564c0.376,0.675,0.521,14.033,0.165,14.897C18.468,56.355,17.4,57.359,16.494,57.359L16.494,57.359z"/>
</svg>
