<?xml version="1.0" encoding="utf-8"?>
<!-- Generator: Adobe Illustrator 19.2.1, SVG Export Plug-In . SVG Version: 6.00 Build 0)  -->
<svg version="1.1" id="Layer_1" xmlns="http://www.w3.org/2000/svg" xmlns:xlink="http://www.w3.org/1999/xlink" x="0px" y="0px"
	 viewBox="0 0 595.3 580.4" style="enable-background:new 0 0 595.3 580.4;" xml:space="preserve">
<path d="M24.8,24.8h545.7v530.8H24.8V24.8z M0,580.4h595.3V0H0V580.4z M401.3,238.1c-19.6,0-26.3,9.9-26.3,18.1
	c0,8.9,4.5,15.1,30.8,28.8c38.9,18.9,51.1,37,51.1,63.5c0,39.7-30.3,61-71.2,61c-21.6,0-40.2-4.5-50.8-10.7c-1.7-0.7-2-2-2-4v-36.5
	c0-2.5,1.2-3.2,3-2c15.6,10.2,33.5,14.6,49.9,14.6c19.6,0,27.8-8.2,27.8-19.3c0-8.9-5.7-16.9-30.8-29.8
	c-35.2-16.9-49.9-34-49.9-62.5c0-32,25.1-58.5,68.5-58.5c21.3,0,36.2,3.2,44.4,6.9c2,1.2,2.5,3.2,2.5,5v34c0,2-1.2,3.2-3.7,2.5
	C433.6,242.3,417.4,238.1,401.3,238.1L401.3,238.1z M188,267.6c5.7,0.5,10.2,0.5,20.1,0.5c29,0,56.3-10.2,56.3-49.6
	c0-31.5-19.6-47.4-52.6-47.4c-9.9,0-19.3,0.5-23.8,0.7L188,267.6L188,267.6z M143.9,135.9c0-1.7,3.5-3,5.5-3
	c15.9-0.7,39.4-1.2,64-1.2c68.7,0,95.5,37.7,95.5,85.8c0,63-45.6,90-101.7,90c-9.4,0-12.6-0.5-19.3-0.5v95.2c0,2-0.7,3-3,3H147
	c-2,0-3-0.7-3-3L143.9,135.9L143.9,135.9z"/>
</svg>
