<?xml version="1.0" encoding="UTF-8" standalone="no"?>
<svg xmlns:rdf="http://www.w3.org/1999/02/22-rdf-syntax-ns#" xmlns="http://www.w3.org/2000/svg" enable-background="new 0 0 100 100" xml:space="preserve" viewBox="0 0 80 100" version="1.1" y="0px" x="0px" xmlns:cc="http://creativecommons.org/ns#" xmlns:xlink="http://www.w3.org/1999/xlink" xmlns:dc="http://purl.org/dc/elements/1.1/"><metadata><rdf:RDF><cc:Work rdf:about=""><dc:format>image/svg+xml</dc:format><dc:type rdf:resource="http://purl.org/dc/dcmitype/StillImage"/><dc:title/></cc:Work></rdf:RDF></metadata>
<path d="m73.8,0.2-59.1,0-8.3,0c-3.4,0-6.4,2.8-6.4,6.1v0.1c0,0.2,0.3,0.5,0.3,0.7l6.8,61c0.1,0.9,0.4,1.699,0.9,2.4,0.6,1.199,1.6,2.1,2.8,2.699l26.9,13.201c0.9,0.398,1.8,0.6,2.7,0.6s1.8-0.201,2.7-0.6l26.8-13.2c2.199-1.1,3.5-3.4,3.399-5.799l6.601-60.501c0-0.2,0.1-0.5,0.1-0.7v-0.1c0-3.1-2.8-5.9-6.2-5.9z"/>
<path id="p" fill-rule="evenodd" fill="#FFF" d="m11.567,50.923,4.4307-22.43,10.246,0c4.4307,0.27692,6.646,2.4923,6.646,6.3691,0,6.646-5.2614,10.523-9.969,10.246h-4.9845l-1.1077,5.8153h-5.2614zm7.4768-9.969,1.3846-8.3075,3.5999,0c1.9384,0,3.323,0.83075,3.323,2.4923-0.27692,4.7076-2.4923,5.5384-4.9845,5.8153h-3.323z"/><path fill="#FFF" d="m31.228,45.108,4.4307-22.43,5.2614,0-1.1077,5.8153,4.9845,0c4.4307,0.27692,6.0922,2.4923,5.5384,5.2614l-1.9384,11.354h-5.5384l1.9384-10.246c0.27692-1.3846,0.27692-2.2153-1.6615-2.2153h-4.1538l-2.4923,12.461h-5.2614z"/><use xlink:href="#p" transform="matrix(0.99375001,0,0,0.99375001,37.348682,0.00447981)" height="160" width="300" y="0" x="0" fill="#ffffff"/></svg>
