<?xml version="1.0" encoding="UTF-8" standalone="no"?>
<svg xmlns:rdf="http://www.w3.org/1999/02/22-rdf-syntax-ns#" xmlns="http://www.w3.org/2000/svg" height="100" width="100" version="1.1" xmlns:cc="http://creativecommons.org/ns#" xmlns:xlink="http://www.w3.org/1999/xlink" viewBox="0 0 100 100.62893" xmlns:dc="http://purl.org/dc/elements/1.1/">
 <metadata>
  <rdf:RDF>
   <cc:Work rdf:about="">
    <dc:format>image/svg+xml</dc:format>
    <dc:type rdf:resource="http://purl.org/dc/dcmitype/StillImage"/>
    <dc:title/>
   </cc:Work>
  </rdf:RDF>
 </metadata>
 <defs></defs>
 <path fill="#000" d="M47.378,16.616c-16.602,0.747-35.414,4.591-46.088,18.201-6.5807,8.261-3.3155,20.669,4.7507,26.561,16.974,13.183,40.518,14.959,61.218,11.477,13.532-2.767,29.318-8.471,34.352-22.49,3.56-12.171-7.163-22.433-17.306-26.808-11.465-5.35-24.326-7.218-36.926-6.941zm1.4499,7.0644c15.229,0.157,32.378,2.537,43.373,14.191,5.71,5.943,2.346,15.178-3.979,19.096-16.959,11.447-39.135,12.367-58.521,7.99-9.644-2.739-22.054-7.089-24.802-17.924-0.7503-10.506,10.682-16.175,19.034-19.249,8.0802-2.7864,16.396-3.9616,24.895-4.1029z"/>
 <path id="p" fill-rule="evenodd" fill="#000" d="m23.51,57.312,4.1703-21.112,9.6438,0c4.1703,0.26064,6.2554,2.3458,6.2554,5.9948,0,6.2554-4.9522,9.9044-9.3831,9.6438h-4.6916l-1.0426,5.4735h-4.9522zm7.0374-9.3831,1.3032-7.8193,3.3884,0c1.8245,0,3.1277,0.78193,3.1277,2.3458-0.26064,4.4309-2.3458,5.2129-4.6916,5.4735h-3.1277z"/>
 <path fill="#000" d="m42.016,51.838,4.1703-21.112,4.9522,0-1.0426,5.4735,4.6916,0c4.1703,0.26064,5.7341,2.3458,5.2129,4.9522l-1.8245,10.686h-5.2129l1.8245-9.6438c0.26065-1.3032,0.26065-2.0851-1.5638-2.0851h-3.9097l-2.3458,11.729h-4.9522z"/>
 <use xlink:href="#p" transform="translate(34.926162,-1.9383966e-7)" height="160" width="300" y="0" x="0" fill="#000000"/>
</svg>
