<!-- Created with Inkscape (http://www.inkscape.org/) -->
<svg id="svg2" xmlns:rdf="http://www.w3.org/1999/02/22-rdf-syntax-ns#" xmlns="http://www.w3.org/2000/svg" viewBox="0 0 64.57 100" version="1.0" xmlns:cc="http://creativecommons.org/ns#" xmlns:dc="http://purl.org/dc/elements/1.1/">
 <metadata id="metadata7">
  <rdf:RDF>
   <cc:Work rdf:about="">
    <dc:format>image/svg+xml</dc:format>
    <dc:type rdf:resource="http://purl.org/dc/dcmitype/StillImage"/>
    <dc:title/>
   </cc:Work>
  </rdf:RDF>
 </metadata>
 <path id="rect3196" fill="#000" d="M32.284,0c-8.486,0-16.193,1.5485-22.023,4.2299-2.9149,1.3408-5.3668,2.9697-7.2045,4.9668-1.8378,1.9973-3.0565,4.4803-3.0565,7.1773v54.252c0,2.6969,1.2187,5.1801,3.0565,7.1772s4.2897,3.626,7.2045,4.9668c5.83,2.682,13.537,4.23,22.023,4.23,8.4863-0.000004,16.193-1.5485,22.023-4.2299,2.9148-1.3407,5.3668-2.9696,7.2045-4.9668,1.8378-1.9971,3.0565-4.4803,3.0565-7.1772v-54.252a2.8052,2.8052,0,0,0,-0.273,-1.201c-0.308-2.216-1.233-4.289-2.784-5.9763-1.836-1.9974-4.291-3.6259-7.204-4.9668-5.826-2.6818-13.537-4.2299-22.023-4.2299zm-26.69,24.343c1.5397,1.324,3.434,2.4844,5.5671,3.4658,5.724,2.6334,13.368,4.0662,21.122,4.0662,7.7544,0,15.426-1.4327,21.15-4.0662,2.1197-0.97523,4.0101-2.1248,5.5398-3.4385v46.256c0,1.0467-0.43415,2.1357-1.5828,3.3839-1.1487,1.2483-3.0075,2.5422-5.4307,3.6568-4.8464,2.2292-11.888,3.7114-19.676,3.7114-7.7879,0-14.83-1.4822-19.676-3.7114-2.423-1.115-4.2821-2.409-5.4308-3.657-1.1486-1.248-1.5828-2.337-1.5828-3.384v-46.284zm25.025,11.461c-1.6971,0.00004-3.5852,0.0675-5.6217,0.21832-1.9988,0.11318-3.8259,0.35973-5.4853,0.73682v38.642h7.1499v-13.809h3.5477c2.8662,0.000014,5.416-0.24654,7.6412-0.73683,2.2251-0.49026,4.1027-1.2468,5.649-2.2651,1.5462-1.056,2.7284-2.3899,3.5204-4.0116,0.82967-1.6594,1.228-3.6486,1.228-5.9492-0.000034-4.4125-1.5299-7.6409-4.5847-9.7152-3.0171-2.0742-7.3498-3.111-13.045-3.111zm0.49122,6.1675c1.3577,0.000033,2.6241,0.10123,3.7933,0.32748,1.2068,0.1886,2.2436,0.54677,3.111,1.037,0.86739,0.49031,1.5564,1.1521,2.0467,2.0194,0.49025,0.86744,0.7368,1.938,0.73682,3.2202-0.000025,2.6777-0.93562,4.5047-2.7836,5.4853-1.848,0.94286-4.4821,1.4191-7.9141,1.4191h-3.4385v-13.345c1.1691-0.11311,2.638-0.16371,4.4482-0.16374z"/>
</svg>
