<!-- Created with Inkscape (http://www.inkscape.org/) -->
<svg id="svg3022" xmlns:rdf="http://www.w3.org/1999/02/22-rdf-syntax-ns#" xmlns="http://www.w3.org/2000/svg" viewBox="0 0 76.02 100" version="1.1" xmlns:cc="http://creativecommons.org/ns#" xmlns:dc="http://purl.org/dc/elements/1.1/">
 <defs id="defs3024"></defs>
 <metadata id="metadata3027">
  <rdf:RDF>
   <cc:Work rdf:about="">
    <dc:format>image/svg+xml</dc:format>
    <dc:type rdf:resource="http://purl.org/dc/dcmitype/StillImage"/>
    <dc:title/>
   </cc:Work>
  </rdf:RDF>
 </metadata>
 <g id="layer1" transform="translate(0,-952.36218)" font-weight="normal" font-style="normal">
  <text id="text3788" style="letter-spacing:0px;word-spacing:0px;" xml:space="preserve" font-size="38.42759323px" y="993.80304" x="-2.9777246" font-family="Sans" line-height="125%" fill="#000000"><tspan id="tspan3790" x="-2.9777246" y="993.80304"/></text>
  <g id="text4609" style="letter-spacing:0px;word-spacing:0px;" transform="matrix(0.72359701,-0.01096258,-0.15316718,0.67218713,14.429596,339.6728)" font-stretch="normal" line-height="125%" font-size="84.9071579px" font-variant="normal" font-family="Ubuntu" fill="#000">
   <path id="path4665" fill="#000" d="m225.57,964.26c-0.00002,4.7548-0.16983,9.0851-0.50944,12.991-0.33965,3.8492-0.76418,7.6983-1.2736,11.547h-4.9246c-0.50945-3.8491-0.93398-7.6982-1.2736-11.547-0.33964-3.9057-0.50945-8.236-0.50945-12.991v-15.963h8.4907v15.963m1.4434,38.293c-0.00002,1.5284-0.50946,2.8586-1.5283,3.9907-1.0189,1.1321-2.4057,1.6981-4.1604,1.6981-1.7548,0-3.1416-0.566-4.1604-1.6981-1.0189-1.1321-1.5283-2.4623-1.5283-3.9907,0-1.5283,0.50944-2.8585,1.5283-3.9906s2.4057-1.6981,4.1604-1.6981c1.7547,0.00001,3.1416,0.56605,4.1604,1.6981,1.0189,1.1321,1.5283,2.4623,1.5283,3.9906m-24.41-87.81c0.24573-0.008-0.97959,0.13696-1.0881,0.12987,0.0267-0.007-0.0975,0.0252-0.12011,0.0349-0.13183,0.0567-0.82446,0.31261-0.68076,0.24723,0.16832-0.0766-0.88781,0.5374-0.73751,0.43083,0.15031-0.10655-0.77922,0.67735-0.65003,0.54297,0.12919-0.13439-0.66015,0.85158-0.55471,0.69213,0.10544-0.15944-0.51476,0.98604-0.43524,0.80481,0.0795-0.18123-0.3436,1.0802-0.29162,0.88095,0.052-0.1993-0.20336,1.1699-0.18,0.95658,0.0215-0.19661-0.0158,0.90549-0.0279,0.92216-0.001,0.001-0.0159,0.091-0.0163,0.0735l0.80872,59.835c0.23406,18.272,0.46812,36.543,0.70214,54.815-0.002-0.2222,0.0908,1.2622,0.0596,1.0343s0.27917,1.2658,0.21948,1.0369c-0.0597-0.2288,0.44218,1.3012,0.35528,1.0761s0.54787,1.2202,0.43552,1.0034c-0.11233-0.2166,0.73092,1.21,0.59546,1.0062s0.8237,1.0834,0.66789,0.8966c-0.1558-0.1867,0.9531,0.9906,0.78015,0.8246-0.17295-0.1659,1.0071,0.8562,0.82059,0.7146-0.18653-0.1416,1.0815,0.6825,0.8852,0.568-0.19624-0.1142,1.1277,0.5429,0.92565,0.458-0.20199-0.085,1.1377,0.401,0.9341,0.3473-0.20369-0.054,1.1599,0.1846,0.95889,0.1632-0.20092-0.021,1.0899,0,0.89554,0.015-0.19409,0.012,1.0797-0.1771,0.89618-0.133-0.18347,0.044,0.96984-0.3579,0.80085-0.2821-0.16886,0.076,0.89637-0.4997,0.74537-0.3938,26.776-18.913,53.551-37.827,80.327-56.741a6.5117,4.9051,57.537,0,0,0.0242,-0.0362c-0.13411,0.0947,0.68715-0.58765,0.56977-0.47041-0.1174,0.11712,0.61305-0.71971,0.51426-0.58209-0.0988,0.13751,0.47342-0.85035,0.39477-0.6948-0.0786,0.15554,0.37233-0.94093,0.31516-0.7698-0.0572,0.17101,0.24611-0.99235,0.21132-0.80857-0.0347,0.1839,0.14352-1.0772,0.13171-0.88356-0.0118,0.19372-0.0154-1.1229-0.004-0.92262,0.0114,0.20024-0.13434-1.1278-0.10006-0.92418,0.0339,0.20344-0.28468-1.13-0.22792-0.92639,0.0568,0.20357-0.37798-1.1647-0.29971-0.96441,0.0782,0.20027-0.51044-1.0861-0.41201-0.89242,0.0984,0.19362-0.62501-1.0779-0.50797-0.894,0.11705,0.18391-0.72198-0.99265-0.58825-0.82149,0.13374,0.17116-0.78477-0.9041-0.63653-0.74847s-0.87715-0.81354-0.71681-0.67597c0.14666,0.12582-0.66774-0.53468-0.69329-0.56488-0.0226-0.016-0.0492-0.0221-0.0718-0.038-27.2-19.275-54.398-38.556-81.598-57.832,0.0325,0.0243-0.11456-0.0913-0.15144-0.11313-0.1893-0.11244-0.98148-0.59143-0.80555-0.49289,0.21022,0.11774-1.2055-0.54282-0.98961-0.459,0.21591,0.0838-1.2388-0.35987-1.0222-0.3119,0.21657,0.0479-1.1952-0.13773-0.98302-0.12669a6.5117,4.9051,57.537,0,0,-0.3838,-0.006z"/>
  </g>
 </g>
</svg>
