<?xml version="1.0" encoding="utf-8"?>
<!-- Generator: Adobe Illustrator 13.0.1, SVG Export Plug-In . SVG Version: 6.00 Build 14948)  -->
<!DOCTYPE svg PUBLIC "-//W3C//DTD SVG 1.1//EN" "http://www.w3.org/Graphics/SVG/1.1/DTD/svg11.dtd">
<svg version="1.1" id="Layer_1" xmlns="http://www.w3.org/2000/svg" xmlns:xlink="http://www.w3.org/1999/xlink" x="0px" y="0px"
	 width="40.686px" height="40.686px" viewBox="0 0 40.686 40.686" enable-background="new 0 0 40.686 40.686" xml:space="preserve">
<circle fill="#0095D3" cx="17.717" cy="11.561" r="4.402"/>
<path fill="#0095D3" d="M31.069,20.355c0,2.436-1.969,4.401-4.4,4.401c-2.43,0-4.4-1.97-4.4-4.401c0-2.433,1.978-4.398,4.4-4.398
	C29.101,15.954,31.069,17.924,31.069,20.355z"/>
<circle fill="#0095D3" cx="17.702" cy="29.176" r="4.402"/>
<g>
	<path fill="#0095D3" d="M20.343,0C9.108,0.001,0.001,9.107,0,20.343c0.001,11.234,9.105,20.341,20.343,20.343
		c11.235-0.002,20.341-9.104,20.343-20.343C40.684,9.107,31.578,0.001,20.343,0z M31.792,31.792
		c-2.938,2.934-6.976,4.742-11.451,4.743c-4.479-0.001-8.513-1.812-11.45-4.743c-2.933-2.938-4.741-6.976-4.742-11.449
		C4.15,15.865,5.96,11.83,8.892,8.893c2.938-2.934,6.972-4.742,11.45-4.743c4.478,0.001,8.513,1.812,11.45,4.743
		c2.935,2.938,4.742,6.976,4.744,11.45C36.535,24.819,34.726,28.854,31.792,31.792z"/>
</g>
</svg>
