<svg id="svg2" xmlns:rdf="http://www.w3.org/1999/02/22-rdf-syntax-ns#" xmlns="http://www.w3.org/2000/svg" xml:space="preserve" height="100" viewBox="0 0 75.48 79.999999" width="94.35" version="1.1" xmlns:cc="http://creativecommons.org/ns#" xmlns:dc="http://purl.org/dc/elements/1.1/"><metadata id="metadata34"><rdf:RDF><cc:Work rdf:about=""><dc:format>image/svg+xml</dc:format><dc:type rdf:resource="http://purl.org/dc/dcmitype/StillImage"/><dc:title/></cc:Work></rdf:RDF></metadata>
<g id="orginal" stroke="#000" transform="matrix(0.17545927,0,0,0.16314625,0.09520117,-0.4837072)" stroke-miterlimit="4" fill-rule="nonzero">
	</g>
<path id="path6" fill="#000" d="m54.861,0.0021095c-2.862-0.031778-5.363,0.30026-7.201,0.66549-0.919,0.18262-1.682,0.3698-2.234,0.5229-0.082,0.0226-0.118,0.0503-0.19,0.0713-1.704-0.27781-3.515-0.46906-5.515-0.49913-3.802-0.05809-7.09,0.80133-9.72,2.2341-2.599-0.8387-7.969-2.2831-13.643-1.9965-3.944,0.1993-8.2657,1.3093-11.456,4.4446s-4.8709,7.9921-4.5158,14.593c0.097965,1.8216,0.64193,4.7818,1.5687,8.6276,0.92674,3.8458,2.2259,8.3694,3.8504,12.478,1.6244,4.1086,3.4015,7.8044,6.1796,10.315,1.389,1.2554,3.3053,2.2994,5.5616,2.2104,1.5806-0.06238,3.0198-0.69452,4.2544-1.64,0.60123,0.73473,1.2219,1.0573,1.8063,1.3548,0.73667,0.37488,1.4684,0.61179,2.2104,0.78433,1.3328,0.30992,3.6014,0.73408,6.2746,0.30898,0.91141-0.14494,1.8714-0.43566,2.8283-0.83187,0.03652,0.99447,0.07644,1.9638,0.11884,2.9472,0.1341,3.1064,0.20849,5.9899,1.2121,8.5088,0.16257,0.40792,0.61089,2.526,2.353,4.397s5.1663,3.0329,9.0555,2.2579c2.7399-0.54595,6.2172-1.5218,8.5326-4.5871,2.2908-3.0328,3.3379-7.3773,3.5414-14.427,0.05133-0.37986,0.10361-0.71942,0.16637-1.022l0.47535,0.04753h0.1426c2.9267,0.12381,6.0941-0.25653,8.7465-1.4023,2.3498-1.0138,4.1255-2.0362,5.419-3.8504,0.32338-0.45355,0.68793-1.0128,0.78433-1.9489,0.0964-0.93614-0.46647-2.388-1.4261-3.066-1.9192-1.356-3.1247-0.84297-4.4208-0.59419-1.7114,0.32828-2.9498,0.43437-3.8979,0.45158,3.7305-5.8436,6.413-12.049,7.9384-17.54,0.90085-3.2431,1.4065-6.2277,1.4498-8.8416,0.045-2.615-0.192-4.941-1.876-6.9414-5.262-6.2521-12.648-7.9699-18.373-8.0335zm-0.689,1.9014c5.4151-0.046772,12.337,1.3726,17.303,7.2729,1.1169,1.3272,1.4419,3.2697,1.4023,5.6567-0.03964,2.387-0.51017,5.2402-1.3785,8.3662-1.6846,6.0645-4.8622,13.128-9.3407,19.466,0.1104,0.07902,0.26571,0.1716,0.49912,0.26144,0.93363,0.35936,3.064,0.6743,7.3204-0.14261,1.0711-0.20569,1.8711-0.36243,2.6857,0.21391,0.4073,0.28817,0.63738,0.86643,0.59419,1.2834-0.04319,0.41702-0.22276,0.73445-0.42782,1.022-0.82023,1.1502-2.4602,2.2394-4.5396,3.1373-1.8446,0.796-4.4753,1.2119-6.8213,1.2359-1.173,0.01199-2.2647-0.09058-3.1849-0.35652-0.0073-0.0021-0.01649,0.0021-0.02377,0-0.38436,3.3499-1.2283,9.5818-1.735,12.312-0.42845,2.3106-1.1669,4.138-2.5907,5.5141s-3.4252,2.2174-6.132,2.757c-3.3481,0.66693-5.7939-0.05058-7.368-1.2834-1.5741-1.2329-2.3025-2.8729-2.7333-3.8741-0.29765-0.69221-0.44661-1.5871-0.59419-2.7808s-0.25668-2.6541-0.33275-4.3019c-0.10368-2.2458-0.14176-4.8374-0.11884-7.5343-1.5767,1.3195-3.3563,1.9979-4.9912,2.2579-2.2223,0.35351-4.2103-0.0095-5.3952-0.28521-0.55267-0.12846-1.1207-0.31795-1.6637-0.59419-0.54299-0.27624-1.0741-0.58152-1.4261-1.1884-0.17599-0.30343-0.29309-0.72554-0.19014-1.1408,0.10295-0.4153,0.39317-0.7557,0.71303-0.99824,0.63973-0.48508,1.4798-0.75344,2.757-0.99824,2.3174-0.44368,3.1162-0.74924,3.6127-1.1171,0.42809-0.31717,0.86593-0.90369,1.7588-1.8776-0.004-0.03989-0.02068-0.0787-0.02377-0.11884-1.5318-0.03503-2.975-0.41761-4.2782-1.0695-0.48676,0.47321-2.974,2.9015-5.9894,6.2746-1.2639,1.4129-2.658,2.2234-4.1356,2.2817-1.4776,0.05832-2.8109-0.63844-3.9454-1.6637-2.268-2.051-4.1035-5.57-5.6792-9.555-1.5757-3.986-2.8443-8.413-3.7553-12.193-0.9109-3.78-1.4421-6.827-1.5211-8.295-0.3361-6.248,1.2246-10.463,3.9216-13.12,2.6971-2.6565,6.403-3.6582,10.006-3.8503,0.90074-0.048025,1.8005-0.062514,2.6857-0.023768,5.3878,0.23581,9.9978,1.8126,11.171,2.2342,2.3951-1.5168,5.4608-2.4831,9.3169-2.4243,1.9612,0.029899,3.7615,0.27519,5.4428,0.66549,0.0307-0.014051,0.03185-0.017514,0.04753-0.023768,0.03137-0.012506,0.06905-0.014502,0.09507-0.023768,0.10407-0.037058,0.24773-0.08186,0.45158-0.14261,0.40771-0.12149,1.0401-0.29847,1.8539-0.47535,1.6276-0.35376,3.9712-0.73718,6.6787-0.76056zm0.02377,2.0202c-2.1348,0.018439-4.0367,0.26721-5.4903,0.54666,4.0286,1.6559,7.0597,4.2319,9.1981,6.7738,1.761,2.0934,2.9245,4.1849,3.6364,5.7755,0.35595,0.79533,0.6008,1.4525,0.7368,1.9727,0.06799,0.26011,0.10532,0.47939,0.11884,0.71303,0.0068,0.11682,0.02809,0.22734-0.02377,0.42782-0.0049,0.01917-0.01737,0.04929-0.02377,0.0713,0.09047,2.6172-0.6035,4.3923-0.68926,6.8926-0.06354,1.8186,0.42301,3.9666,0.54666,6.2984,0.11629,2.1929-0.15284,4.598-1.6875,6.9639,0.12166,0.13932,0.2389,0.26938,0.35651,0.40405,4.0423-5.9257,6.9803-12.475,8.5326-18.063,0.83582-3.0089,1.2713-5.7308,1.3072-7.8908,0.03588-2.1601-0.40082-3.7436-0.9507-4.397-4.472-5.313-10.564-6.5325-15.568-6.4892zm-14.617,0.7606c-3.7-0.056417-6.4067,0.86128-8.485,2.3055-0.17476,0.12143-0.35684,0.25173-0.52289,0.38028-2.1408,1.6574-3.5717,3.9246-4.5158,6.2509-1.1013,2.7136-1.5092,5.4283-1.6637,7.2491,0.01674-0.0087,0.03064-0.01502,0.04753-0.02377,1.1529-0.59689,2.6816-1.1974,4.3019-1.5449,0.81015-0.17376,1.6354-0.28554,2.4718-0.28521,0.83642,0.000378,1.6803,0.11987,2.4718,0.40405,1.583,0.56837,2.8778,1.9101,3.3512,3.9454,2.2713,9.7668-0.70821,13.394-1.8063,16.138-0.000696,0.0017,0.000695,0.02209,0,0.02377-0.46216,1.1583-0.84952,2.1852-1.0695,3.0423,0.1424-0.03393,0.28778-0.0837,0.42782-0.09507,0.77466-0.06291,1.3742,0.19376,1.735,0.33275,1.1032,0.42524,1.8743,1.3072,2.2817,2.3292,0.10171,0.2552,0.16619,0.53075,0.21391,0.8081a1.0845,1.0084,0,0,1,0,0.04753c0.0038,0.02375,0.02044,0.04746,0.02377,0.0713a1.0845,1.0084,0,0,1,0.04754,0.30898c-0.11985,3.9843-0.1016,7.9877,0.04753,11.218,0.07456,1.6153,0.19422,3.0388,0.33275,4.1593,0.13852,1.1205,0.32773,1.9699,0.45158,2.2579,0.41273,0.95926,1.024,2.2113,2.1153,3.066,1.0913,0.85475,2.6546,1.4252,5.5141,0.85563,2.4792-0.49421,3.9941-1.1762,5.015-2.1629,1.0209-0.98666,1.6299-2.363,2.0202-4.4683,0.57854-3.1168,1.7413-12.047,1.9014-13.904-0.0026-0.04231,0.002-0.07718,0-0.11884a1.0851,1.009,0,0,1,0,-0.04753c-0.05427-1.267,0.15462-2.2455,0.59419-2.9947,0.45968-0.78345,1.1673-1.2635,1.7826-1.5211,0.30347-0.12708,0.59424-0.19657,0.83187-0.26144-0.18525-0.24961-0.44548-0.57659-0.78433-0.97447-0.65662-0.771-1.5073-1.8259-2.1629-3.3037-0.06999-0.15774-0.40213-0.73314-0.83187-1.4498-0.42973-0.71669-0.9537-1.6257-1.5211-2.6382-1.1349-2.025-2.3774-4.4788-3.0185-6.8688-0.64113-2.39-0.73827-4.8611,0.90317-6.6074,1.4549-1.5478,3.9928-2.1897,7.8195-1.8301-0.11087-0.31824-0.167-0.57478-0.35651-0.99824-0.64115-1.4326-1.7538-3.3492-3.375-5.2764-3.244-3.8545-8.479-7.696-16.591-7.8197zm-21.32,0.1664c-0.573-0.0114-1.137-0.0068-1.711,0.0238-3.26,0.1738-6.351,1.0605-8.5563,3.2324-2.205,2.1721-3.6446,5.7271-3.3275,11.622,0.059969,1.1151,0.57847,4.2475,1.4736,7.9621,0.89512,3.7146,2.157,8.0931,3.684,11.955,1.5269,3.862,3.374,7.2274,5.1338,8.8178,0.87988,0.79519,1.6542,1.0971,2.353,1.0695,0.6988-0.02759,1.5387-0.39558,2.5669-1.5449,2.8628-3.2024,5.1094-5.412,5.8468-6.132-2.7238-2.1595-4.3512-5.6552-3.779-9.4595,0.33318-2.2153,0.37236-4.3024,0.33275-5.9419-0.03641-1.5073-0.12849-2.5133-0.14261-3.1849a1.0936,1.0169,0,0,1,-0.02377,-0.19014s0.000012-0.0233,0-0.02377c-0.0018-0.06785-0.13072-5.0833,1.9252-10.149,0.905-2.231,2.244-4.485,4.254-6.3223-2.123-0.6428-6.017-1.6551-10.03-1.735zm39.098,15.853c-1.9248,0.0851-3.036,0.59712-3.6364,1.2359-0.91496,0.9734-0.99317,2.6935-0.42782,4.8011s1.7295,4.4566,2.8283,6.4173c0.54941,0.98032,1.0664,1.8719,1.4974,2.5907,0.43097,0.71875,0.75809,1.2296,0.9507,1.6637,0.18081,0.40761,0.37022,0.76124,0.57042,1.0933,0.85442-1.6687,0.99372-3.3073,0.90317-5.015-0.11177-2.1076-0.62301-4.2795-0.54666-6.4648,0.08803-2.5665,0.64879-4.1932,0.68926-6.1796-0.70807-0.0811-1.37-0.13198-1.9489-0.14261-0.30887-0.0057-0.60443-0.01215-0.8794,0zm-26.144,0.33275c-0.628-0.000262-1.3134,0.09117-1.9965,0.23768-1.3661,0.293-2.7231,0.82118-3.7077,1.331-0.49233,0.2549-0.90605,0.5117-1.1408,0.68926-0.04073,0.0308-0.04152,0.04602-0.0713,0.0713,0.01661,0.44088,0.12865,1.4809,0.16637,3.0423,0.04135,1.7111-0.0013,3.9134-0.35651,6.2746-0.77152,5.1299,3.233,9.3812,7.9384,9.3882,0.27356-1.0542,0.71462-2.1285,1.1646-3.2562,1.3119-3.2823,3.8848-5.6747,1.7113-15.021-0.35504-1.5263-1.0532-2.1484-2.0202-2.4956-0.48352-0.1736-1.0595-0.26112-1.6875-0.26144zm25.717,0.61796c0.21254,0.0048,0.39785,0.03328,0.57042,0.0713s0.33037,0.08847,0.45158,0.16637,0.21663,0.19253,0.23768,0.33275c0.001,0.0069-0.000696,0.01687,0,0.02377,0.0142,0.13843-0.0404,0.26319-0.11884,0.40405-0.08235,0.14787-0.20441,0.30301-0.35651,0.45158-0.30421,0.29714-0.72517,0.57589-1.2359,0.64173-0.51018,0.06611-0.98705-0.09237-1.331-0.30898-0.17197-0.1083-0.32072-0.23278-0.42782-0.35651s-0.16981-0.24608-0.19014-0.38028c-0.02049-0.14024,0.04881-0.27452,0.1426-0.38028,0.0938-0.10576,0.20164-0.20476,0.35651-0.28521,0.30974-0.16091,0.73753-0.27125,1.2121-0.33275,0.23732-0.03075,0.47672-0.05238,0.68926-0.04753zm-25.574,0.49912c0.22306-0.005,0.46634,0.01552,0.71303,0.04753,0.49396,0.06393,0.92282,0.18147,1.2597,0.35651,0.16843,0.08752,0.31331,0.20333,0.42782,0.33275s0.19604,0.3011,0.16637,0.49912c-0.02793,0.18624-0.11788,0.31307-0.23768,0.45158-0.11979,0.13852-0.26524,0.28664-0.45158,0.40405-0.37269,0.23483-0.88541,0.40594-1.4498,0.33275-0.56519-0.07287-1.0288-0.37098-1.3548-0.68926-0.16299-0.15914-0.28839-0.33406-0.38028-0.49912-0.0919-0.16505-0.17454-0.31268-0.14261-0.52289l0.04753-0.28521h0.09507c0.05148-0.05918,0.12808-0.12644,0.19014-0.16637,0.14814-0.09532,0.31146-0.14879,0.49912-0.19014,0.18766-0.04136,0.3949-0.06626,0.61796-0.0713zm29.401,22.056c-0.47577,0.15593-0.86108,0.21945-1.1884,0.35651-0.3273,0.13706-0.57518,0.28525-0.78433,0.64172-0.20276,0.34556-0.38342,0.95637-0.33275,1.9965,0.05647,0.04143,0.21043,0.11358,0.47535,0.19014,0.55423,0.16017,1.4897,0.27196,2.5194,0.26144,2.0593-0.02105,4.5946-0.46435,5.9419-1.0458,1.2809-0.55314,2.3783-1.2964,3.0423-1.8539-4.4924,0.86157-7.049,0.64604-8.6039,0.04754-0.44887-0.17278-0.78342-0.37727-1.0695-0.59419zm-25.979,0.261c-0.17165,0.01394-0.42542,0.07327-0.90317,0.57042-1.1249,1.1684-1.5208,1.9037-2.4481,2.5907-0.92724,0.687-2.135,1.0608-4.5396,1.5211-0.76114,0.14588-1.1829,0.30117-1.4736,0.42782,0.09269,0.07,0.0699,0.06934,0.21391,0.14261,0.34928,0.17769,0.80129,0.34337,1.1646,0.42782,1.0366,0.2412,2.7447,0.51942,4.5158,0.23768s3.6081-1.0652,5.1813-3.1136c0.27024-0.35178,0.29463-0.88948,0.0713-1.4498-0.22333-0.56034-0.72008-1.0299-1.0695-1.1646-0.34-0.131-0.541-0.204-0.712-0.19z"/>
</svg>
