<?xml version="1.0" encoding="utf-8"?>
<!-- Generator: Adobe Illustrator 19.2.1, SVG Export Plug-In . SVG Version: 6.00 Build 0)  -->
<svg version="1.1" id="Layer_1" xmlns="http://www.w3.org/2000/svg" xmlns:xlink="http://www.w3.org/1999/xlink" x="0px" y="0px"
	 viewBox="0 0 595.3 580.4" style="enable-background:new 0 0 595.3 580.4;" xml:space="preserve">
<path d="M24.8,24.8h545.7v530.8H24.8V24.8z M0,580.4h595.3V0H0V580.4z M357.2,245.1c0-3,0-10.2-1.2-24.1c0-2,0.2-2.5,2-3.2
	c15.1-6.2,50.6-17.1,90.8-17.1c2,0,3,0.5,3,2.5v36c0,2-0.7,2.5-2.7,2.5c-15.6-0.7-38.2,1.2-46.9,5V403c0,2-0.7,3-3,3h-38.9
	c-2,0-3-0.7-3-3L357.2,245.1L357.2,245.1z M198.4,267.6c5.7,0.5,10.2,0.5,20.1,0.5c29,0,56.3-10.2,56.3-49.6
	c0-31.5-19.3-47.4-52.6-47.4c-9.9,0-19.3,0.5-23.8,0.7L198.4,267.6L198.4,267.6z M154.5,135.9c0-1.7,0.5-3,2.5-3
	c15.9-0.7,39.2-1.2,63.7-1.2c68.7,0,98.7,37.7,98.7,86.1c0,63-45.6,90-101.7,90c-9.4,0-12.6-0.5-19.3-0.5v95.2c0,2-0.7,3-3,3h-38.2
	c-2,0-3-0.7-3-3V135.9H154.5z"/>
</svg>
