<!-- Created with Inkscape (http://www.inkscape.org/) -->
<svg id="svg2169" xmlns:rdf="http://www.w3.org/1999/02/22-rdf-syntax-ns#" xmlns="http://www.w3.org/2000/svg" viewBox="0 0 83.49 100" version="1.0" xmlns:cc="http://creativecommons.org/ns#" xmlns:xlink="http://www.w3.org/1999/xlink" xmlns:dc="http://purl.org/dc/elements/1.1/">
 <defs id="defs2171"></defs>
 <metadata id="metadata2174">
  <rdf:RDF>
   <cc:Work rdf:about="">
    <dc:format>image/svg+xml</dc:format>
    <dc:type rdf:resource="http://purl.org/dc/dcmitype/StillImage"/>
    <dc:title/>
   </cc:Work>
  </rdf:RDF>
 </metadata>
 <g id="layer1" transform="translate(-473.36088,-261.57095)">
  <path id="path8615" d="m514.8,261.57c-21.195,0-19.871,9.628-19.871,9.628l0.0237,9.9745h20.225v2.9948h-28.259s-13.562-1.6112-13.562,20.79c-0.00001,22.402,11.838,21.607,11.838,21.607h7.0647v-10.395s-0.3808-12.4,11.649-12.4h20.06s11.27,0.19085,11.27-11.41v-19.182s1.7112-11.608-20.438-11.608zm-11.152,6.7074c2.0123,0,3.6387,1.7037,3.6387,3.8116s-1.6264,3.8116-3.6387,3.8116-3.6387-1.7037-3.6387-3.8116,1.6264-3.8116,3.6387-3.8116z"/>
  <path id="path8620" d="m515.41,348.57c21.195,0,19.871-9.628,19.871-9.628l-0.0237-9.9745h-20.225v-2.9948h28.259s13.562,1.6112,13.562-20.79c0-22.402-11.838-21.607-11.838-21.607h-7.0647v10.395s0.38081,12.4-11.649,12.4h-20.06s-11.27-0.19085-11.27,11.41v19.182s-1.7112,11.608,20.438,11.608zm11.152-6.7074c-2.0123,0-3.6387-1.7037-3.6387-3.8116s1.6264-3.8116,3.6387-3.8116,3.6387,1.7037,3.6387,3.8116-1.6264,3.8116-3.6387,3.8116z"/>
 </g>
</svg>
