<?xml version="1.0" encoding="utf-8"?>
<!-- Generator: Adobe Illustrator 19.2.1, SVG Export Plug-In . SVG Version: 6.00 Build 0)  -->
<svg version="1.1" id="Layer_2" xmlns="http://www.w3.org/2000/svg" xmlns:xlink="http://www.w3.org/1999/xlink" x="0px" y="0px"
	 viewBox="0 0 600 600" style="enable-background:new 0 0 600 600;" xml:space="preserve">
<path d="M249.3,299.6c0-27.7,22.5-50.2,50.2-50.2c27.7,0,50.2,22.5,50.2,50.2c0,27.7-22.5,50.2-50.2,50.2
	C271.8,349.8,249.3,327.3,249.3,299.6z M580.3,299.6c0,34.5-40.7,69.4-106.3,91.1c-3.4,1.1-6.9,2.2-10.5,3.3
	c1.3,5.1,2.4,10.1,3.4,15c6.1,31,7.1,59.8,2.8,83.2c-4.6,24.9-15,42.6-30,51.3c-7.5,4.4-16.4,6.6-26.3,6.6
	c-27.2,0-61.7-16.4-97.7-47.4c-5.1-4.4-10.1-9-15.2-13.9c-3.9,3.8-7.8,7.4-11.7,10.8c-23.8,20.8-48.3,36-70.7,43.9
	c-11.7,4.2-22.7,6.3-32.5,6.3c-10.2,0-19.2-2.2-26.8-6.6c-28.7-16.6-38.7-64.4-26.6-127.9c1.2-6.5,2.7-13.2,4.4-20
	c-5.3-1.5-10.4-3.1-15.3-4.8c-29.9-10.2-55.3-23.8-73.4-39.3c-19.2-16.4-29.4-34.3-29.4-51.6c0-33.2,36.4-65.7,97.5-86.9
	c6.7-2.3,13.7-4.5,20.9-6.6c-1.6-6.3-3-12.5-4.2-18.6c-5.9-30.2-7-57.9-3.2-80.2c4.2-24.3,14.1-41.6,28.8-50.1
	c29.8-17.3,80.5,0.5,132.1,46.4c3.1,2.8,6.2,5.7,9.4,8.7c4.7-4.5,9.4-8.8,14-12.9c23.2-20.2,46.7-35,67.9-42.8
	c23.1-8.5,43.1-8.5,57.7-0.1c29.9,17.2,39.8,70,25.8,137.6c-0.8,4.1-1.8,8.2-2.8,12.4c6.2,1.8,12.2,3.7,18,5.7
	c29.1,10,53.6,23,71,37.4C570.3,265.4,580.3,282.7,580.3,299.6z M316.6,129.4c16,17.2,32,37.2,47.4,59.2
	c26.5,2.5,51.8,6.5,75.2,11.9c0.9-3.8,1.8-7.5,2.5-11.2c13.1-63.7,1.8-102.7-14.3-112c-8.2-4.7-21.5-4.1-37.5,1.8
	c-18.5,6.8-39.4,20.1-60.4,38.4C325.2,121.2,320.9,125.2,316.6,129.4z M166.3,378c16,3.5,33.3,6.3,51.7,8.3
	c-6-9.4-11.9-19-17.6-28.8c-5.6-9.6-10.9-19.3-15.9-29C177.4,345.3,171.2,362,166.3,378z M200.4,242.9c5.6-9.6,11.3-19.1,17.2-28.3
	c-17.8,2.2-34.9,5.2-51,8.7c4.9,15.8,10.9,32.1,17.9,48.7C189.5,262.3,194.8,252.6,200.4,242.9z M221.2,345.5
	c8.7,15,17.9,29.6,27.5,43.5c16.3,1,33.3,1.6,50.8,1.6c17.6,0,34.8-0.6,51.4-1.8c9.1-13.7,18.1-28.2,27-43.5
	c8.8-15.2,16.9-30.5,24.2-45.5c-7.3-14.7-15.3-29.7-24.2-45c-8.7-15.1-17.8-29.5-27.1-43.3c-16.7-1.3-33.9-1.9-51.3-1.9
	c-17.2,0-34.4,0.7-51.2,2c-9.4,13.8-18.6,28.3-27.2,43.3c-8.6,14.9-16.6,30.1-23.9,45.3C204.5,315.3,212.5,330.5,221.2,345.5z
	 M381.5,385.9c18.5-2.2,36.1-5.2,52.4-8.9c-5-15.7-11.3-32.3-18.9-49.5c-5.1,9.9-10.6,19.9-16.3,29.8
	C393,367.1,387.3,376.7,381.5,385.9z M432.7,223.6c-16.2-3.7-33.4-6.7-51.3-9c5.8,9.1,11.5,18.5,17.1,28.1
	c5.7,9.9,11.1,19.7,16.2,29.3C421.8,255.4,427.9,239.1,432.7,223.6z M266.4,186.4c10.9-0.5,21.9-0.8,33-0.8
	c11.3,0,22.4,0.3,33.5,0.8c-10.9-14.5-22-27.9-33.1-39.9C288.5,158.6,277.3,172,266.4,186.4z M156.3,182.9
	c1.1,5.7,2.4,11.4,3.9,17.3c23.3-5.3,48.6-9.2,75.1-11.7c15.4-21.7,31.5-41.6,47.8-59.2c-2.8-2.7-5.6-5.3-8.4-7.7
	C225.9,78.4,186.5,68.7,170.4,78c-8.2,4.7-14.3,16.6-17.2,33.4C149.9,130.8,150.9,155.6,156.3,182.9z M170.7,300.3
	c-11.1-24.2-20.4-48.1-27.4-71c-6.7,1.9-13.1,3.9-19.3,6.1c-56.2,19.6-81.4,46.4-81.4,64.3c0,18.6,27.1,47.9,86.5,68.2
	c4.5,1.5,9.1,3,13.9,4.4C150.1,349,159.4,324.8,170.7,300.3z M283.7,471.7c-16.5-17.6-32.7-37.7-48.2-59.6
	c-27.4-2.2-52.8-5.9-75.6-11c-1.6,6.4-2.9,12.6-4.1,18.6c-11.1,58.5-0.4,93.7,15,102.6c16.1,9.3,55,0.5,102.3-40.9
	C276.5,478.4,280.1,475.1,283.7,471.7z M333.4,413.8c-11.1,0.5-22.5,0.8-33.9,0.8c-11.2,0-22.1-0.2-32.8-0.6
	c11.1,14.6,22.4,28.1,33.8,40.4C311.4,442.3,322.5,428.8,333.4,413.8z M443.5,413.7c-0.9-4.5-1.9-9-3.1-13.7
	c-23.2,5.4-48.8,9.3-76,11.7c-15.5,22.5-31.4,42.6-47.1,59.8c4.7,4.6,9.5,8.9,14.1,12.9c45.1,38.8,80.9,47.2,96.4,38.2
	C443.9,513.4,455.7,475.3,443.5,413.7z M556.4,299.6c0-9.5-7.2-20.7-20.3-31.6c-15.1-12.6-37.1-24.1-63.4-33.2
	c-5.4-1.8-11-3.6-16.7-5.3c-6.9,22.3-16.1,46-27.4,70.2c11.8,24.9,21.4,48.8,28.4,71.1c3.2-1,6.4-2,9.5-3
	C528.2,347.4,556.4,318.1,556.4,299.6z"/>
</svg>
