<?xml version="1.0" encoding="UTF-8" standalone="no"?>
<!-- Generator: Adobe Illustrator 19.2.1, SVG Export Plug-In . SVG Version: 6.00 Build 0)  -->

<svg
   xmlns:dc="http://purl.org/dc/elements/1.1/"
   xmlns:cc="http://creativecommons.org/ns#"
   xmlns:rdf="http://www.w3.org/1999/02/22-rdf-syntax-ns#"
   xmlns:svg="http://www.w3.org/2000/svg"
   xmlns="http://www.w3.org/2000/svg"
   xmlns:sodipodi="http://sodipodi.sourceforge.net/DTD/sodipodi-0.dtd"
   xmlns:inkscape="http://www.inkscape.org/namespaces/inkscape"
   version="1.1"
   id="Layer_2"
   x="0px"
   y="0px"
   viewBox="0 0 561.8 499.88756"
   xml:space="preserve"
   inkscape:version="0.48.4 r9939"
   width="100%"
   height="100%"
   sodipodi:docname="reactjs.svg"><metadata
     id="metadata4789"><rdf:RDF><cc:Work
         rdf:about=""><dc:format>image/svg+xml</dc:format><dc:type
           rdf:resource="http://purl.org/dc/dcmitype/StillImage" /></cc:Work></rdf:RDF></metadata><defs
     id="defs4787" /><sodipodi:namedview
     pagecolor="#ffffff"
     bordercolor="#666666"
     borderopacity="1"
     objecttolerance="10"
     gridtolerance="10"
     guidetolerance="10"
     inkscape:pageopacity="0"
     inkscape:pageshadow="2"
     inkscape:window-width="640"
     inkscape:window-height="480"
     id="namedview4785"
     showgrid="false"
     fit-margin-top="0"
     fit-margin-left="0"
     fit-margin-right="0"
     fit-margin-bottom="0"
     inkscape:zoom="0.39333333"
     inkscape:cx="281.5"
     inkscape:cy="250.1"
     inkscape:window-x="0"
     inkscape:window-y="0"
     inkscape:window-maximized="0"
     inkscape:current-layer="Layer_2" /><path
     d="m 230.8,249.38756 c 0,-27.7 22.5,-50.2 50.2,-50.2 27.7,0 50.2,22.5 50.2,50.2 0,27.7 -22.5,50.2 -50.2,50.2 -27.7,0 -50.2,-22.5 -50.2,-50.2 z m 331,0 c 0,34.5 -40.7,69.4 -106.3,91.1 -3.4,1.1 -6.9,2.2 -10.5,3.3 1.3,5.1 2.4,10.1 3.4,15 6.1,31 7.1,59.8 2.8,83.2 -4.6,24.9 -15,42.6 -30,51.3 -7.5,4.4 -16.4,6.6 -26.3,6.6 -27.2,0 -61.7,-16.4 -97.7,-47.4 -5.1,-4.4 -10.1,-9 -15.2,-13.9 -3.9,3.8 -7.8,7.4 -11.7,10.8 -23.8,20.8 -48.3,36 -70.7,43.9 -11.7,4.2 -22.7,6.3 -32.5,6.3 -10.2,0 -19.2,-2.2 -26.8,-6.6 -28.7,-16.6 -38.7,-64.4 -26.6,-127.9 1.2,-6.5 2.7,-13.2 4.4,-20 -5.3,-1.5 -10.4,-3.1 -15.3,-4.8 -29.9,-10.2 -55.3,-23.8 -73.4,-39.3 -19.2,-16.4 -29.4,-34.3 -29.4,-51.6 0,-33.2 36.4,-65.7 97.5,-86.9 6.7,-2.3 13.7,-4.5 20.9,-6.6 -1.6,-6.3 -3,-12.5 -4.2,-18.6 -5.9,-30.2 -7,-57.900005 -3.2,-80.200005 4.2,-24.3 14.1,-41.6 28.8,-50.0999995 29.8,-17.3000005 80.5,0.5 132.1,46.3999995 3.1,2.8 6.2,5.7 9.4,8.7 4.7,-4.5 9.4,-8.8 14,-12.9 23.2,-20.2 46.7,-35 67.9,-42.7999995 23.1,-8.5 43.1,-8.5 57.7,-0.1 29.9,17.1999995 39.8,69.9999995 25.8,137.6000045 -0.8,4.1 -1.8,8.2 -2.8,12.4 6.2,1.8 12.2,3.7 18,5.7 29.1,10 53.6,23 71,37.4 18.9,15.8 28.9,33.1 28.9,50 z M 298.1,79.187555 c 16,17.2 32,37.200005 47.4,59.200005 26.5,2.5 51.8,6.5 75.2,11.9 0.9,-3.8 1.8,-7.5 2.5,-11.2 13.1,-63.700005 1.8,-102.700005 -14.3,-112.000005 -8.2,-4.7 -21.5,-4.1 -37.5,1.8 -18.5,6.8 -39.4,20.1 -60.4,38.4 -4.3,3.7 -8.6,7.7 -12.9,11.9 z M 147.8,327.78756 c 16,3.5 33.3,6.3 51.7,8.3 -6,-9.4 -11.9,-19 -17.6,-28.8 -5.6,-9.6 -10.9,-19.3 -15.9,-29 -7.1,16.8 -13.3,33.5 -18.2,49.5 z m 34.1,-135.1 c 5.6,-9.6 11.3,-19.1 17.2,-28.3 -17.8,2.2 -34.9,5.2 -51,8.7 4.9,15.8 10.9,32.1 17.9,48.7 5,-9.7 10.3,-19.4 15.9,-29.1 z m 20.8,102.6 c 8.7,15 17.9,29.6 27.5,43.5 16.3,1 33.3,1.6 50.8,1.6 17.6,0 34.8,-0.6 51.4,-1.8 9.1,-13.7 18.1,-28.2 27,-43.5 8.8,-15.2 16.9,-30.5 24.2,-45.5 -7.3,-14.7 -15.3,-29.7 -24.2,-45 -8.7,-15.1 -17.8,-29.5 -27.1,-43.3 -16.7,-1.3 -33.9,-1.9 -51.3,-1.9 -17.2,0 -34.4,0.7 -51.2,2 -9.4,13.8 -18.6,28.3 -27.2,43.3 -8.6,14.9 -16.6,30.1 -23.9,45.3 7.3,15.1 15.3,30.3 24,45.3 z m 160.3,40.4 c 18.5,-2.2 36.1,-5.2 52.4,-8.9 -5,-15.7 -11.3,-32.3 -18.9,-49.5 -5.1,9.9 -10.6,19.9 -16.3,29.8 -5.7,9.8 -11.4,19.4 -17.2,28.6 z m 51.2,-162.3 c -16.2,-3.7 -33.4,-6.7 -51.3,-9 5.8,9.1 11.5,18.5 17.1,28.1 5.7,9.9 11.1,19.7 16.2,29.3 7.1,-16.6 13.2,-32.9 18,-48.4 z m -166.3,-37.2 c 10.9,-0.5 21.9,-0.8 33,-0.8 11.3,0 22.4,0.3 33.5,0.8 -10.9,-14.5 -22,-27.9 -33.1,-39.900005 -11.3,12.100005 -22.5,25.500005 -33.4,39.900005 z m -110.1,-3.5 c 1.1,5.7 2.4,11.4 3.9,17.3 23.3,-5.3 48.6,-9.2 75.1,-11.7 15.4,-21.7 31.5,-41.600005 47.8,-59.200005 -2.8,-2.7 -5.6,-5.3 -8.4,-7.7 -48.8,-43.2 -88.2,-52.9 -104.3,-43.6 -8.2,4.7 -14.3,16.6 -17.2,33.4 -3.3,19.4 -2.3,44.200005 3.1,71.500005 z m 14.4,117.4 c -11.1,-24.2 -20.4,-48.1 -27.4,-71 -6.7,1.9 -13.1,3.9 -19.3,6.1 -56.2,19.6 -81.4,46.4 -81.4,64.3 0,18.6 27.1,47.9 86.5,68.2 4.5,1.5 9.1,3 13.9,4.4 7.1,-23.3 16.4,-47.5 27.7,-72 z m 113,171.4 c -16.5,-17.6 -32.7,-37.7 -48.2,-59.6 -27.4,-2.2 -52.8,-5.9 -75.6,-11 -1.6,6.4 -2.9,12.6 -4.1,18.6 -11.1,58.5 -0.4,93.7 15,102.6 16.1,9.3 55,0.5 102.3,-40.9 3.4,-3 7,-6.3 10.6,-9.7 z m 49.7,-57.9 c -11.1,0.5 -22.5,0.8 -33.9,0.8 -11.2,0 -22.1,-0.2 -32.8,-0.6 11.1,14.6 22.4,28.1 33.8,40.4 10.9,-12.1 22,-25.6 32.9,-40.6 z m 110.1,-0.1 c -0.9,-4.5 -1.9,-9 -3.1,-13.7 -23.2,5.4 -48.8,9.3 -76,11.7 -15.5,22.5 -31.4,42.6 -47.1,59.8 4.7,4.6 9.5,8.9 14.1,12.9 45.1,38.8 80.9,47.2 96.4,38.2 16.1,-9.2 27.9,-47.3 15.7,-108.9 z m 112.9,-114.1 c 0,-9.5 -7.2,-20.7 -20.3,-31.6 -15.1,-12.6 -37.1,-24.1 -63.4,-33.2 -5.4,-1.8 -11,-3.6 -16.7,-5.3 -6.9,22.3 -16.1,46 -27.4,70.2 11.8,24.9 21.4,48.8 28.4,71.1 3.2,-1 6.4,-2 9.5,-3 61.7,-20.4 89.9,-49.7 89.9,-68.2 z"
     id="path4783"
     inkscape:connector-curvature="0" /></svg>