<!-- Generator: Adobe Illustrator 13.0.0, SVG Export Plug-In . SVG Version: 6.00 Build 14948)  -->
<svg id="Layer_1" xmlns:rdf="http://www.w3.org/1999/02/22-rdf-syntax-ns#" xmlns="http://www.w3.org/2000/svg" enable-background="new 0 0 187.086 53.867" xml:space="preserve" height="100" viewBox="0 0 98.349998 99.999999" width="98.35" version="1.1" y="0px" x="0px" xmlns:cc="http://creativecommons.org/ns#" xmlns:dc="http://purl.org/dc/elements/1.1/"><metadata id="metadata39"><rdf:RDF><cc:Work rdf:about=""><dc:format>image/svg+xml</dc:format><dc:type rdf:resource="http://purl.org/dc/dcmitype/StillImage"/><dc:title/></cc:Work></rdf:RDF></metadata><defs id="defs37">
</defs>
<path id="path5" fill="#020001" d="M49.199-4.5485E-7c-27.16,0-49.199,21.992-49.199,49.148,0,5.5,0.91192,10.808,2.5735,15.744h3.4313c3.0325,0,5.8058-0.74076,8.1746-1.9679,0.59583-0.31003,1.2982-0.5046,2.0184-0.5046,1.5065,0,2.8112,0.61481,3.6331,1.9679,0.7121,1.2223,1.356,1.9558,2.1698,2.4726,0.70079,0.45212,1.6567,0.82311,3.0276,0.7569,0.64751-0.03391,1.6184-0.1861,1.867-0.85782,0.28096-0.77507-0.06621-1.3753-1.0092-1.7661-1.3273-0.5587-1.6644-1.3693-2.3716-2.6239-0.70564-1.2579-2.2303-1.93-2.4726-4.2891-0.23252-2.3284,1.5509-5.2224,5.1469-4.2891,2.5981,0.6685,4.317,3.8439,4.9451,4.9451,0.33102,0.57646,1.4791,1.2676,2.4221,0.40368,0.93977-0.86226,1.8158-0.84894,2.523,0.2523,0.60552,0.93977,5,6.8053,9.7893,6.9635,4.8684,0.15663,7.4673-1.0916,9.5874-1.0092,1.4888,0.05652,2.2287,0.81988,3.0781,0.95874,1.4952,0.23575,2.5396-1.1388,4.1882-1.0597,1.3322,0.06621,2.7971,0.95874,4.2891,0.95874s4.6371-1.7976,4.5919-1.0597c-0.07267,1.3144-1.1202,3.6743-1.3624,4.7433-0.17278,0.74439-0.0036,2.5444-0.45414,3.9864-0.39884,1.471-1.7673,3.3053-2.1193,3.835-1.2062,1.8101-2.0963,2.343-3.0781,4.2387-1.098,2.1185-2.9093,4.1151-3.3808,4.7433-0.60229,0.80414,3.4232-0.06298,4.8442-1.4129,1.2078-1.1481,3.3118-4.5636,6.6608-5.2983,2.259-0.49572,2.7487-1.3689,2.4726-2.1698-0.04199-0.09365-0.10092-0.24342-0.10092-0.35322,0-0.3068,0.20063-0.57726,0.45414-0.70644,2.3349-0.96884,5.5038-1.5643,8.9819-1.5643,2.0346,0,4.0586,0.26885,5.9543,0.70644,4.9911-7.699,7.8702-16.888,7.8718-26.744,0.001-27.157-21.989-49.149-49.147-49.149zm7.367,10.143c3.3759-0.12814,6.6482,0.83885,8.6792,2.9267,2.8032,2.8887,6.6301,11.764,8.4773,18.418,0.93977,3.3845,0.7238,5.0178,0.2523,6.1561-0.34071,0.77991-0.54982,1.2546-1.7156,3.2295-0.20346,0.35524-0.04521,0.73228,0.40368,0.5046,3.0728-1.5808,3.7526-3.661,4.2387-5.2983,8.3514,1.886,13.332,6.2345,12.262,12.11-2.352,12.949-23.561,17.287-44.152,11.049-19.626-5.939-36.812-17.746-34.818-24.675,1.161-4.04,7.563-5.7646,16.097-4.8442-1.2966,2.6368-1.2094,5.7315,4.4405,9.1838,6.903,3.9222,18.541,7.2913,21.698,6.9635,1.1771-0.1211,2.2703-0.70564,1.211-1.4129-1.061-0.707-2.038-2.119-2.624-4.591-0.327-1.375-0.709-3.332-8.124-4.744-15.915-3.034-15.255-7.507-14.785-10.092,0,0,1.3802-6.3418,1.9679-8.5782,0.58938-2.2348,2.1109-7.4039,12.363-5.0965,5.9228,1.3338,9.1139-0.28823,10.748-0.70644,1.1085-0.28379,2.2555-0.46189,3.3808-0.5046z"/><path id="path7" d="m60.002,71.394c0.25513,0.24544,0.6911,1.0722,0.15824,2.1282-0.29711,0.55547-0.62006,0.94946-1.1981,1.4097-0.68949,0.55547-2.041,1.1917-3.898,0.01938-0.99467-0.63459-1.0544-0.8445-2.4302-0.6685-0.98498,0.12918-1.3741-0.86065-1.0221-1.6906,0.35524-0.82028,1.8053-1.4855,3.6138-0.43275,0.81221,0.47957,2.0782,1.4888,3.1859,0.5926,0.46343-0.36977,0.73632-0.61198,1.3741-1.3499,0.0323-0.0323,0.07105-0.05006,0.11626-0.05006,0.03875,0,0.0759,0.01615,0.10012,0.04199z" clip-rule="evenodd" fill="#020001"/><path id="path15" d="m45.346,23.414c-5.679,0.41176-6.27,1.0254-7.3341,2.1589-1.5001,1.5986-3.4749-2.0733-3.4749-2.0733-1.1884-0.25028-2.6239-2.1621-1.8505-3.9464,0.76538-1.7649,2.1767-1.2369,2.6191-0.6911,0.5377,0.67011,1.6842,1.7649,3.1762,1.7261,1.4888-0.03553,3.2117-0.3504,5.6112-0.3504,2.4286,0,4.0659,0.90909,4.1579,1.6842,0.07913,0.66688-0.197,1.295-2.9049,1.492z" clip-rule="evenodd" fill="#020001"/><path id="path17" d="m51.314,14.029h-0.02422c-0.08882,0-0.15986-0.06621-0.15986-0.14856,0-0.05975,0.03714-0.1098,0.09043-0.13402,1.0996-0.5813,2.7434-1.0463,4.6214-1.2385,0.56516-0.05652,1.1158-0.0872,1.6486-0.09366,0.09366,0,0.18569,0,0.28096,0.0033,3.1503,0.07105,5.6758,1.3257,5.6386,2.7983-0.03875,1.4726-2.6207,2.611-5.7759,2.5416-1.0189-0.02584-1.978-0.17116-2.7999-0.41176-0.10012-0.02422-0.17116-0.10496-0.17116-0.20184,0-0.10012,0.07105-0.18408,0.17116-0.2083,1.9684-0.45374,3.294-1.1981,3.1988-1.9038-0.12272-0.9317-2.695-1.4355-5.7436-1.1303-0.33586,0.03553-0.66042,0.08074-0.9753,0.12756z" clip-rule="evenodd" fill="#020001"/>
</svg>
