<?xml version="1.0" standalone="no"?>
<!DOCTYPE svg PUBLIC "-//W3C//DTD SVG 20010904//EN"
 "http://www.w3.org/TR/2001/REC-SVG-20010904/DTD/svg10.dtd">
<svg version="1.0" xmlns="http://www.w3.org/2000/svg"
 width="18.000000pt" height="18.000000pt" viewBox="0 0 18.000000 18.000000"
 preserveAspectRatio="xMidYMid meet">

<g transform="translate(0.000000,18.000000) scale(0.100000,-0.100000)"
fill="#000000" stroke="none">
<path d="M29 151 c-40 -40 -39 -82 1 -123 27 -26 36 -30 68 -25 46 8 82 47 82
88 0 42 -48 89 -90 89 -22 0 -41 -9 -61 -29z m94 12 c3 -5 -12 -8 -33 -8 -21
0 -36 3 -33 8 2 4 17 7 33 7 16 0 31 -3 33 -7z m-12 -39 c9 -11 9 -18 1 -26
-9 -9 -8 -16 5 -30 9 -10 13 -18 9 -18 -4 0 -16 10 -27 23 -14 16 -18 18 -19
7 0 -9 5 -21 11 -27 9 -9 7 -11 -7 -7 -26 7 -28 89 -2 91 9 1 22 -5 29 -13z"/>
<path d="M80 115 c0 -9 5 -15 11 -13 6 2 11 8 11 13 0 5 -5 11 -11 13 -6 2
-11 -4 -11 -13z"/>
</g>
</svg>
