<?xml version="1.0" encoding="UTF-8" standalone="no"?>
<!-- Created with Inkscape (http://www.inkscape.org/) -->
<svg xmlns:rdf="http://www.w3.org/1999/02/22-rdf-syntax-ns#" xmlns="http://www.w3.org/2000/svg" version="1.1" xmlns:cc="http://creativecommons.org/ns#" xmlns:dc="http://purl.org/dc/elements/1.1/" viewBox="0 0 79 100">
 <defs></defs>
 <g transform="translate(-273.27313,-493.51839)" fill="#000">
  <path d="m286.06,574.46,33.253,0s-7.3758-16.752-5.5006-32.128c1.8752-15.377,14.001-22.377,20.877-23.127,6.8757-0.75007,10.626,3.5004,10.626,3.5004l1.5002-2.2502s-9.876-10.001-22.377-8.8759-21.127,9.376-26.503,19.377c-5.3756,10.001-8.5009,17.002-10.626,27.503-2.1252,10.501-1.2501,16.002-1.2501,16.002z"/>
  <path d="m279.43,557.71,6.5007,0.50005-1.1251,6.5007-6.1256-0.75007z"/>
  <path d="m289.68,543.96,1.7502-4.8755-5.7506-2.2502-1.8752,5.2506z"/>
  <path d="m297.81,527.2,3.3754-4.0004-4.3755-2.8753-3.5004,3.8754z"/>
  <path d="m306.68,511.7,3.0003,3.6254,4.1254-2.3752-3.0003-3.3754z"/>
  <path d="m321.31,507.58,0.75008,3.6254,5.1255-0.12502-0.50006-3.2503z"/>
  <path d="m338.69,511.45-0.12502,2.2502,3.5004,1.8752,0.75008-1.1251z"/>
  <path d="m337.94,521.08,0,1.8752,3.3754,0.37504,0-1.5002z"/>
  <path d="m327.19,522.7,1.6252,3.0003,2.3752-1.8752-0.50006-2.0002z"/>
  <path d="m322.06,526.58,2.5003,3.7504-1.5002,2.6253-3.6254-4.0004z"/>
  <path d="m317.06,536.96-1.6252,3.2503,4.2504,3.6254,1.0001-4.1254z"/>
  <path d="m315.31,548.33-0.25003,4.3755,5.2506,2.2502-0.25003-4.1254z"/>
  <path d="m316.81,563.83,1.2501,4.5005,6.6257,0.37504-2.3752-4.8755z"/>
 </g>
 <path d="m18.538,0.01799c-5.3512,0-9.1717,0.15824-12.031,1.2499-2.8589,1.0917-4.6516,3.2625-5.531,6.6246-1.7587,6.7242-0.68747,18.513-0.68747,40.623,0,22.855-0.15624,45.341-0.15624,45.341v0.93745h0.93745s34.619,0.21874,57.309,0.21874c5.7277,0,9.8656-0.51777,12.937-1.6874,3.0712-1.1696,5.0496-3.077,6.1559-5.6247,2.2125-5.0954,1.3124-12.441,1.3124-22.905v-63.84-0.93745h-0.93745-59.309zm0,1.8436,58.372,0,0,62.934c0,10.559,0.70152,17.877-1.1562,22.155-0.92885,2.1391-2.385,3.5932-5.0935,4.6248-2.7085,1.0315-6.6661,1.5624-12.281,1.5624-22.32,0-55.306-0.21248-56.372-0.21874,0.007-0.901,0.1572-22.013,0.1572-44.404,0-22.166-0.9426-34.16,0.625-40.154,0.7838-2.9968,2.0223-4.4332,4.406-5.3435,2.3838-0.9102,6.0398-1.1562,11.343-1.1562z"/>
 <metadata>
  <rdf:RDF>
   <cc:Work rdf:about="">
    <dc:title/>
   </cc:Work>
  </rdf:RDF>
 </metadata>
</svg>
