<?xml version="1.0" encoding="UTF-8" standalone="no"?>
<!-- Created with Inkscape (http://www.inkscape.org/) -->
<svg xmlns:rdf="http://www.w3.org/1999/02/22-rdf-syntax-ns#" xmlns="http://www.w3.org/2000/svg" version="1.1" xmlns:cc="http://creativecommons.org/ns#" xmlns:dc="http://purl.org/dc/elements/1.1/" viewBox="0 0 77.6 100">
 <path d="m8.3041,75.871,0,14.696,3.7485,0,0-3.8278,3.4113,3.4113,5.7516,0-4.5616-4.5616s3.2818-0.053,3.5303-4.7996c0-4.3546-3.2858-4.9186-7.0805-4.9186h-4.7996zm3.927,3.9865,3.2328,0,0,2.618-3.2328,0,0-2.618z" fill="#000"/>
 <path d="m28.455,75.931c-2.0523-0.0116-4.8988,0.17871-4.8988,4.046v10.214h3.8476v-2.499h3.7286v2.4395h3.8675v-10.71c0-3.3592-3.7321-3.4906-5.7318-3.4906-0.24996,0-0.51998,0.002-0.81317,0zm-0.99166,3.689,3.6096,0,0,4.0262-3.6096,0,0-4.0262z" fill="#000"/>
 <path fill="#000" d="m38.854,75.94,3.9813,0,0,14.059-3.9813,0z"/>
 <path d="m47.004,76.127,0,14.059,9.5801,0,0-3.7325-5.6609,0,0-10.389z" fill="#000"/>
 <path d="m69.274,76.002,0,3.7947-6.4074,0,0,1.3686h2.7372c1.4308,0,4.4168-0.0622,4.4168,4.4168s-2.0529,4.7278-6.2208,4.7278h-5.0389v-3.4214h5.7854c1.7418,0,1.8379-0.56702,1.8379-1.0611,0-0.4941-0.89055-0.72393-2.7017-0.72393-1.8111,0-5.1704-0.88993-5.1704-4.3736s1.7418-4.79,5.2255-4.79,5.5365,0.0622,5.5365,0.0622z" fill="#000"/>
 <path d="m11.794,71.71,33.095,0s-7.3406-16.672-5.4743-31.975c1.866-15.303,13.934-22.27,20.777-23.017,6.8429-0.7465,10.575,3.4837,10.575,3.4837l1.493-2.2395s-9.8289-9.9533-22.271-8.8336c-12.442,1.1198-21.026,9.3312-26.376,19.285-5.3499,9.9533-8.4603,16.921-10.575,27.372-2.1151,10.451-1.2442,15.925-1.2442,15.925z" fill="#000"/>
 <path d="m5.1999,55.038,6.4697,0.49767-1.1198,6.4696-6.0964-0.74649z" fill="#000"/>
 <path d="m15.402,41.352,1.7418-4.8522-5.7232-2.2395-1.8662,5.2255z" fill="#000"/>
 <path d="m23.489,24.681,3.3592-3.9813-4.3546-2.8616-3.4836,3.8569z" fill="#000"/>
 <path d="m32.323,9.253,2.986,3.6081,4.1057-2.3639-2.986-3.3592z" fill="#000"/>
 <path d="m46.879,5.1473,0.7465,3.6081,5.1011-0.12442-0.49767-3.2348z" fill="#000"/>
 <path d="m64.173,9.0042-0.12442,2.2395,3.4837,1.8662,0.7465-1.1198z" fill="#000"/>
 <path d="m63.427,18.584,0,1.8662,3.3592,0.37325,0-1.493z" fill="#000"/>
 <path d="m52.727,20.202,1.6174,2.986,2.3639-1.8662-0.49766-1.9907z" fill="#000"/>
 <path d="m47.626,24.059,2.4883,3.7325-1.493,2.6128-3.6081-3.9813z" fill="#000"/>
 <path d="m42.649,34.385-1.6174,3.2348,4.2302,3.6081,0.99533-4.1057z" fill="#000"/>
 <path d="m40.907,45.707-0.24884,4.3546,5.2255,2.2395-0.24883-4.1057z" fill="#000"/>
 <path d="m42.4,61.135,1.2442,4.479,6.5941,0.37325-2.3639-4.8522z" fill="#000"/>
 <path d="M18.25,0c-5.258,0-9.0175,0.18615-11.844,1.3438-2.8262,1.1576-4.578,3.4128-5.4374,6.9374-1.7189,7.0493-0.6875,19.488-0.6875,42.781,0,24.076-0.125,47.75-0.125,47.75l-0.03125,0.96875h0.96875s33.966,0.21875,56.25,0.21875c5.6314,0,9.7196-0.54334,12.75-1.7812s4.9822-3.2378,6.0625-5.9062c2.1605-5.337,1.2812-13.066,1.2812-24.094v-67.281l0.001-0.938h-0.938-58.25zm0,1.9062,57.281,0,0,66.312c0,11.118,0.71183,18.838-1.125,23.375-0.91841,2.2687-2.3854,3.7942-5.0312,4.875s-6.5235,1.625-12.031,1.625c-21.901,0-54.211-0.21182-55.312-0.21875,0.0051-0.931,0.1555-23.216,0.1555-46.812,0-23.346-0.9228-35.964,0.625-42.312,0.7739-3.1739,1.99-4.705,4.3125-5.6562,2.3225-0.9513,5.92-1.1876,11.125-1.1876z"/>
 <metadata>
  <rdf:RDF>
   <cc:Work rdf:about="">
    <dc:title/>
   </cc:Work>
  </rdf:RDF>
 </metadata>
</svg>
