<?xml version="1.0" encoding="UTF-8" standalone="no"?>
<!-- Generator: Adobe Illustrator 19.2.1, SVG Export Plug-In . SVG Version: 6.00 Build 0)  -->

<svg
   xmlns:dc="http://purl.org/dc/elements/1.1/"
   xmlns:cc="http://creativecommons.org/ns#"
   xmlns:rdf="http://www.w3.org/1999/02/22-rdf-syntax-ns#"
   xmlns:svg="http://www.w3.org/2000/svg"
   xmlns="http://www.w3.org/2000/svg"
   xmlns:sodipodi="http://sodipodi.sourceforge.net/DTD/sodipodi-0.dtd"
   xmlns:inkscape="http://www.inkscape.org/namespaces/inkscape"
   version="1.1"
   id="Layer_1"
   x="0px"
   y="0px"
   viewBox="0 0 512.04 512.04"
   xml:space="preserve"
   inkscape:version="0.48.4 r9939"
   width="100%"
   height="100%"
   sodipodi:docname="sass.svg"><metadata
     id="metadata4866"><rdf:RDF><cc:Work
         rdf:about=""><dc:format>image/svg+xml</dc:format><dc:type
           rdf:resource="http://purl.org/dc/dcmitype/StillImage" /></cc:Work></rdf:RDF></metadata><defs
     id="defs4864" /><sodipodi:namedview
     pagecolor="#ffffff"
     bordercolor="#666666"
     borderopacity="1"
     objecttolerance="10"
     gridtolerance="10"
     guidetolerance="10"
     inkscape:pageopacity="0"
     inkscape:pageshadow="2"
     inkscape:window-width="886"
     inkscape:window-height="588"
     id="namedview4862"
     showgrid="false"
     fit-margin-top="0"
     fit-margin-left="0"
     fit-margin-right="0"
     fit-margin-bottom="0"
     inkscape:zoom="0.4609375"
     inkscape:cx="256.01153"
     inkscape:cy="176.0025"
     inkscape:window-x="712"
     inkscape:window-y="720"
     inkscape:window-maximized="0"
     inkscape:current-layer="Layer_1" /><path
     d="m 511.81153,326.69684 c -1.7,-13.6 -9.2,-24.1 -20.8,-32.4 2.9,2 5.3,3.8 -0.1,0 -7.2,-5.1 -3.4,-2.4 0,0 -28.5,-20.3 -65.7,-15.8 -96.7,-4.5 -12.4,-20.3 -13,-35.8 -5.8,-57.9 0.9,-2.8 0.3,-4.4 -2.6,-5.6 -7.1,-3 -17.3,-1.4 -24.4,0.5 -2.5,0.6 -4.3,1.9 -4.8,4.4 -5.2,24.2 -21,46.4 -34.8,66.9 -9.7,-18.7 -9,-33.1 -2.4,-52.5 0.8,-2.4 0.4,-3.6 -1.9,-4.9 -7.3,-3.8 -18.4,-1.9 -25.8,0.3 -8.5,2.5 -21.3,44.6 -25.4,52.9 -8.5,17.4 -16.1,44.7 -30.6,58.5 -12.3,-15.8 22.5,-51.5 10.9,-65.9 -3.9,-4.8 -11.1,-4.7 -15.6,-0.6 1.1,-7.6 1.6,-12.6 -0.3,-19.1 -2.1,-6.8 -7.4,-10.7 -15.1,-10.5 -18,0.5 -33.8,13.8 -44.6,26.4 -10.3,12.1 -37.4,19.6 -52,26.9 -25.000003,-21.8 -79.200003,-44.9 -80.600003,-82.1 -1.5,-41.8 48.3,-70.20001 81.600003,-87.20001 43.3,-22.1 110,-49.600002 159.1,-25.4 13,6.4 18.3,20.2 14.7,33.3 -9.4,34.40001 -47.2,57.30001 -80.1,67.80001 -16.2,5.2 -34,9 -51.1,8 -23,-1.3 -40.8,-15.2 -43.3,-16.1 -2,-0.4 -1.9,2.3 -1.3,3.7 23.8,62.4 144.4,16.7 176,-15.4 15.2,-15.4 24.4,-30.40001 28.4,-53.90001 4.6,-27.6 -15.6,-44.800002 -31,-52.000002 -78.2,-36 -185.9,11.200002 -244.800003,59.300002 -25.6,20.9 -57.6,54.20001 -42.8999996,89.00001 15.8999996,37.8 64.6999996,57.2 96.5000026,80.3 -25.700003,12.8 -57.900003,26 -74.500003,49.9 -9.5,13.7 -12.9,28.4 -5.8,44 12.6,27.6 58.3,15.6 77.6,3.5 17.700003,-11.1 29.600003,-26.1 34.700003,-45.2 4.5,-16.6 3.5,-33.9 -3.9,-49.5 l 28.6,-14.5 c -7.7,23.1 -11.1,52 4.9,72.9 6.4,8.3 23,8.7 29.8,0.3 8.8,-10.9 14.7,-24.7 20.5,-37.2 -0.7,9.4 -1.9,20 1.4,28.2 3.7,9.4 12.1,11.3 20.8,5.3 26.5,-18.2 43.4,-68.7 56.5,-98.1 3.6,12.8 7.5,24.5 14,36.4 1.6,2.9 1.4,4.8 -0.8,7.2 -9.7,10.7 -32.8,28.5 -35.1,42.9 -0.5,3.4 1.7,6.6 5.7,7.4 15.6,3.1 32.8,-2.5 45.5,-11.1 13.2,-8.9 17.4,-21.1 14.2,-35.5 -4.6,-20.8 11,-44 25.8,-61 2.7,12.9 6.8,25.3 14.1,36.6 -13.1,11.5 -32.6,27.8 -29.8,46.9 1,6.9 7.1,11.3 14.5,9.7 15.8,-3.3 29.4,-10.1 39.4,-22.1 9,-10.9 5.8,-22.7 1.9,-34.6 23.9,-6.8 48,-8.2 71.8,0 11.5,3.9 20.8,10.5 26.2,20.8 6.7,12.6 2.9,24.3 -10,32.6 -3.3,2.1 -5.6,3.8 -4.5,4.7 1.1,0.9 4.9,2.1 13.3,-3.2 8.4,-5.3 13.5,-12.4 14.8,-21.7 0.3,-2.6 0.3,-5.2 0,-7.8 z m -398.9,25.3 c -1.4,16.7 -9.6,30.2 -23.200003,41.1 -7.6,6.2 -17.1,11.2 -26.5,12.1 -9.4,0.9 -16.8,-1.5 -17.4,-11.2 -1.8,-27.5 40.9,-54.4 64.600003,-62.5 2.1,6.8 3.1,13.6 2.5,20.5 l 0,0 z m 103.1,-72.5 c -3.9,22.3 -14.8,62.3 -32.3,78.3 -2.4,2.1 -4.6,2 -5.8,-0.8 -10.3,-24.1 3.7,-73.7 33.1,-81.3 3.5,-0.8 5.6,0.6 5,3.8 z m 70.4,81.8 c 8.4,-9 16.8,-17.9 25.3,-26.9 1,10 -17.6,29.9 -25.3,26.9 z m 80.7,-17.7 c -2.3,1.3 -7.6,2.5 -7.8,0.8 -1.5,-12.1 11.8,-24.9 20.1,-30.9 4.4,11.4 -0.9,23.9 -12.3,30.1 z"
     id="path4860"
     inkscape:connector-curvature="0" /></svg>