<?xml version="1.0" encoding="utf-8"?>
<!-- Generator: Adobe Illustrator 19.2.1, SVG Export Plug-In . SVG Version: 6.00 Build 0)  -->
<svg version="1.1" id="Layer_1" xmlns="http://www.w3.org/2000/svg" xmlns:xlink="http://www.w3.org/1999/xlink" x="0px" y="0px"
	 viewBox="0 0 512 512" style="enable-background:new 0 0 512 512;" xml:space="preserve">
<path d="M511.8,329.1c-1.7-13.6-9.2-24.1-20.8-32.4c2.9,2,5.3,3.8-0.1,0c-7.2-5.1-3.4-2.4,0,0c-28.5-20.3-65.7-15.8-96.7-4.5
	c-12.4-20.3-13-35.8-5.8-57.9c0.9-2.8,0.3-4.4-2.6-5.6c-7.1-3-17.3-1.4-24.4,0.5c-2.5,0.6-4.3,1.9-4.8,4.4
	c-5.2,24.2-21,46.4-34.8,66.9c-9.7-18.7-9-33.1-2.4-52.5c0.8-2.4,0.4-3.6-1.9-4.9c-7.3-3.8-18.4-1.9-25.8,0.3
	c-8.5,2.5-21.3,44.6-25.4,52.9c-8.5,17.4-16.1,44.7-30.6,58.5c-12.3-15.8,22.5-51.5,10.9-65.9c-3.9-4.8-11.1-4.7-15.6-0.6
	c1.1-7.6,1.6-12.6-0.3-19.1c-2.1-6.8-7.4-10.7-15.1-10.5c-18,0.5-33.8,13.8-44.6,26.4c-10.3,12.1-37.4,19.6-52,26.9
	c-25-21.8-79.2-44.9-80.6-82.1c-1.5-41.8,48.3-70.2,81.6-87.2c43.3-22.1,110-49.6,159.1-25.4c13,6.4,18.3,20.2,14.7,33.3
	c-9.4,34.4-47.2,57.3-80.1,67.8c-16.2,5.2-34,9-51.1,8c-23-1.3-40.8-15.2-43.3-16.1c-2-0.4-1.9,2.3-1.3,3.7
	c23.8,62.4,144.4,16.7,176-15.4c15.2-15.4,24.4-30.4,28.4-53.9c4.6-27.6-15.6-44.8-31-52C213.2,56.7,105.5,103.9,46.6,152
	C21,172.9-11,206.2,3.7,241c15.9,37.8,64.7,57.2,96.5,80.3c-25.7,12.8-57.9,26-74.5,49.9c-9.5,13.7-12.9,28.4-5.8,44
	c12.6,27.6,58.3,15.6,77.6,3.5c17.7-11.1,29.6-26.1,34.7-45.2c4.5-16.6,3.5-33.9-3.9-49.5l28.6-14.5c-7.7,23.1-11.1,52,4.9,72.9
	c6.4,8.3,23,8.7,29.8,0.3c8.8-10.9,14.7-24.7,20.5-37.2c-0.7,9.4-1.9,20,1.4,28.2c3.7,9.4,12.1,11.3,20.8,5.3
	c26.5-18.2,43.4-68.7,56.5-98.1c3.6,12.8,7.5,24.5,14,36.4c1.6,2.9,1.4,4.8-0.8,7.2c-9.7,10.7-32.8,28.5-35.1,42.9
	c-0.5,3.4,1.7,6.6,5.7,7.4c15.6,3.1,32.8-2.5,45.5-11.1c13.2-8.9,17.4-21.1,14.2-35.5c-4.6-20.8,11-44,25.8-61
	c2.7,12.9,6.8,25.3,14.1,36.6c-13.1,11.5-32.6,27.8-29.8,46.9c1,6.9,7.1,11.3,14.5,9.7c15.8-3.3,29.4-10.1,39.4-22.1
	c9-10.9,5.8-22.7,1.9-34.6c23.9-6.8,48-8.2,71.8,0c11.5,3.9,20.8,10.5,26.2,20.8c6.7,12.6,2.9,24.3-10,32.6
	c-3.3,2.1-5.6,3.8-4.5,4.7c1.1,0.9,4.9,2.1,13.3-3.2c8.4-5.3,13.5-12.4,14.8-21.7C512.1,334.3,512.1,331.7,511.8,329.1z
	 M112.9,354.4c-1.4,16.7-9.6,30.2-23.2,41.1c-7.6,6.2-17.1,11.2-26.5,12.1c-9.4,0.9-16.8-1.5-17.4-11.2
	c-1.8-27.5,40.9-54.4,64.6-62.5C112.5,340.7,113.5,347.5,112.9,354.4L112.9,354.4z M216,281.9c-3.9,22.3-14.8,62.3-32.3,78.3
	c-2.4,2.1-4.6,2-5.8-0.8c-10.3-24.1,3.7-73.7,33.1-81.3C214.5,277.3,216.6,278.7,216,281.9z M286.4,363.7c8.4-9,16.8-17.9,25.3-26.9
	C312.7,346.8,294.1,366.7,286.4,363.7z M367.1,346c-2.3,1.3-7.6,2.5-7.8,0.8c-1.5-12.1,11.8-24.9,20.1-30.9
	C383.8,327.3,378.5,339.8,367.1,346z"/>
</svg>
