<svg id="Your_Icon" xmlns:rdf="http://www.w3.org/1999/02/22-rdf-syntax-ns#" xmlns="http://www.w3.org/2000/svg" enable-background="new 0 0 100 100" xml:space="preserve" height="100" viewBox="0 0 93.209999 100" width="93.21" version="1.1" y="0px" x="0px" xmlns:cc="http://creativecommons.org/ns#" xmlns:dc="http://purl.org/dc/elements/1.1/"><metadata id="metadata9"><rdf:RDF><cc:Work rdf:about=""><dc:format>image/svg+xml</dc:format><dc:type rdf:resource="http://purl.org/dc/dcmitype/StillImage"/><dc:title/></cc:Work></rdf:RDF></metadata>
<path id="path3" d="M61.206,89.98c-24.438,0.734-50.784-18.481-58.846-42.92-8.0645-24.434,5.2057-44.839,29.643-45.573,10.938-0.3272,22.225,3.4021,32.116,9.7483l-22.199,30.833c-1.5305,2.1242-1.0467,5.0948,1.0645,6.6141,0.81372,0.59188,1.7747,0.90506,2.7814,0.90506,1.5249,0,2.9641-0.73728,3.8551-1.9742l22.132-30.734c8.6834,7.4185,15.613,16.968,19.098,27.53,8.0645,24.438-5.2057,44.839-29.643,45.57zm11.54-79.47-25.49,35.401c-0.35886,0.49867-0.91904,0.76245-1.4913,0.76245-0.36911,0-0.74288-0.10999-1.0672-0.34674-0.82211-0.59188-1.0067-1.7356-0.41478-2.5577l25.53-35.456c0.67763,1.0924,1.7188,1.8894,2.9333,2.1988zm1.124-10.51c-2.702,0-4.89,2.389-4.89,5.3334,0,1.1036,0.30666,2.128,0.83329,2.978,0.67763,1.0924,1.7188,1.8884,2.9324,2.1988,0.36445,0.09414,0.73729,0.1538,1.1241,0.1538,2.6993,0,4.887-2.3834,4.887-5.3306,0-2.9445-2.1886-5.3334-4.887-5.3334z"/>
</svg>
