<svg id="Layer_1" xmlns:rdf="http://www.w3.org/1999/02/22-rdf-syntax-ns#" xmlns="http://www.w3.org/2000/svg" enable-background="new 0 0 100 100" xml:space="preserve" viewBox="0 0 80 100" version="1.1" y="0px" x="0px" xmlns:cc="http://creativecommons.org/ns#" xmlns:dc="http://purl.org/dc/elements/1.1/"><metadata id="metadata9"><rdf:RDF><cc:Work rdf:about=""><dc:format>image/svg+xml</dc:format><dc:type rdf:resource="http://purl.org/dc/dcmitype/StillImage"/><dc:title/></cc:Work></rdf:RDF></metadata>
<path id="path3" d="M6.4062,0.1875c-3.4,0-6.4062,2.825-6.4062,6.125v0.0937c0,0.2,0.3125,0.4876,0.3125,0.6876l6.7813,61c0.1,0.9,0.4062,1.705,0.9062,2.406,0.6,1.199,1.6125,2.088,2.812,2.688l26.876,13.218c0.9,0.398,1.818,0.594,2.718,0.594s1.788-0.195,2.688-0.594l26.812-13.218c2.199-1.1,3.508-3.383,3.406-5.782l6.594-60.5c0-0.2,0.094-0.5187,0.094-0.7187v-0.0937c0-3.1-2.788-5.9063-6.188-5.9063h-59.124-8.2818zm51.219,19.812h10.375v15.344l-1.469,11.218h-7.437l-1.469-11.218v-15.344zm-31.813,0.625h6.407l-2.75,10.313h7.593l2.782-10.313h6.375l-2.781,10.313h7.968v5.687h-9.5l-2,7.344h8.188v5.781h-9.688l-2.75,10.25h-6.375l2.781-10.25h-7.624l-2.75,10.25h-6.407l2.75-10.25h-8.031v-5.781h9.438l2.031-7.344h-8.157v-5.687h9.719l2.781-10.313zm2.063,16l-2,7.344h7.594l2-7.344h-7.594zm29.75,13.844h10.375v9.531h-10.375v-9.531z"/>
</svg>
