<?xml version="1.0" encoding="utf-8"?>
<!-- Generator: Adobe Illustrator 19.2.1, SVG Export Plug-In . SVG Version: 6.00 Build 0)  -->
<svg version="1.1" id="Layer_1" xmlns="http://www.w3.org/2000/svg" xmlns:xlink="http://www.w3.org/1999/xlink" x="0px" y="0px"
	 viewBox="0 0 1435 222" style="enable-background:new 0 0 1435 222;" xml:space="preserve">
<path d="M192,51.3c-12.5-12.2-24.9-24.6-37.1-37.1c-2.5-2.5-3.8-2.5-6.3,0c-12,12.3-24.3,24.2-36.3,36.5c-2.7,2.8-4.2,2.8-6.9,0
	C93.3,38.4,80.9,26.3,68.8,13.9c-2.1-2.1-3.3-2.3-5.5-0.1C50.7,26.5,38.2,39.2,25.4,51.6c-2.3,2.2-2.1,3.4,0.1,5.4
	c4,3.7,7.9,7.6,11.6,11.7c2.1,2.3,3.4,2.3,5.5,0c6.6-6.9,13.5-13.3,20-20.3c2.7-2.9,4.1-2.5,6.6,0.2c6.3,6.6,12.8,13.1,19.4,19.4
	c2.5,2.3,2.7,3.7,0.1,6.2c-12.5,12.2-24.8,24.7-37.2,37c-1.6,1.6-3.2,2.6-0.7,5.1c18.6,18.4,37,36.9,55.5,55.4
	c0.7,0.7,1.4,1.3,2.3,2.1c1.1-1.1,2.1-1.9,3-2.8c17.9-17.9,35.8-35.9,53.8-53.6c2.7-2.7,2.6-4-0.1-6.6
	c-12.4-12.1-24.5-24.5-36.9-36.6c-2.3-2.2-2.6-3.5-0.1-5.8c6.9-6.5,13.6-13.3,20.1-20.1c2.3-2.4,3.7-2.3,5.9,0.1
	c6.6,6.9,13.5,13.4,20,20.2c2.3,2.4,3.7,2.3,5.8-0.1c3.6-3.9,7.4-7.7,11.3-11.3C194.3,55,194.4,53.7,192,51.3z M132.3,111.7
	c1.1,1.1,2.3,2,0.7,3.7c-7.6,7.5-15.1,15-22.6,22.6c-0.4,0.5-1,0.8-1.7,1.2c-0.8-0.8-1.6-1.4-2.3-2c-7-6.9-13.9-13.9-20.9-20.8
	c-1.5-1.5-2.2-2.6-0.3-4.4c7.3-7.1,14.4-14.3,21.5-21.5c1.8-1.8,2.8-1.5,4.4,0.2C118.2,97.7,125.3,104.7,132.3,111.7z M726.7,83.7
	c-6.5,6.1-13.1,12.2-19.5,18.5c-6.3,6.2-12.3,12.7-18.7,18.7c-2.7,2.5-2.1,3.9,0,6.3c12.9,15.2,25.7,30.5,39.2,46.7
	c-9.9,0-18.9,0-28,0c-1.7,0-2.3-1.8-3.2-2.9c-10.1-11.9-20.2-23.8-31.3-36.9c0,6.7,0,12.1,0,17.4c0,6.3-0.1,12.7,0,19
	c0.1,2.4-0.4,3.6-3.2,3.5c-5.7-0.2-11.3-0.2-17,0c-2.9,0.1-3.1-1.1-3.1-3.5c0.1-39.2,0.1-78.3,0-117.5c0-2.5,0.6-3.5,3.3-3.4
	c5.3,0.2,10.7,0.3,16,0c3.3-0.2,4.1,0.9,4.1,4.2c-0.1,20-0.1,40-0.1,60.7c4.1-2.5,6.5-6,9.4-9c6.8-6.9,13.4-13.9,20-20.9
	c1.7-1.9,3.6-2.6,6.1-2.5c8.3,0.1,16.6,0.1,24.9,0.1C725.9,82.5,726.3,83.1,726.7,83.7z M521.6,129.3c-0.5-5-0.2-10-0.9-14.9
	c-2.2-15.2-8.6-28-24.1-33.2c-16.1-5.3-31.4-3.1-43.8,9.4c-11.1,11.1-14.4,25.1-13.8,40.3c0.7,17.2,7.2,31.7,23.2,39.7
	c16.8,8.4,34,7.5,50.7-1.5c1.7-0.9,2.8-2,2.8-4.3c-0.2-6.1,0-12.2,0-19.7c-10.2,8.3-20.8,11.1-32.6,9.8c-10-1.1-17.8-7.9-20.2-17.3
	c-0.9-3.5,0-4.1,3.3-4.1c17,0.1,34,0,51,0.1C520.4,133.7,522,133,521.6,129.3z M467.3,114.9c-1.1,0-2.2-0.1-3.4-0.2
	c2.3-10,9.4-16,18.5-15.8c9,0.2,14.5,5.4,16.3,16C488.2,114.9,477.8,114.9,467.3,114.9z M389.2,129.8c-0.3-4.7-0.1-9.3-0.4-14
	c-1.3-17.9-12.2-31.9-27.6-35.8c-18.1-4.6-36.1,2-45.9,17.1c-6.5,10-8.7,21-8.4,32.8c0.5,17.5,6.7,32.1,22.8,40.4
	c16.7,8.6,33.9,7.8,50.6-1c1.5-0.8,2.9-1.6,2.9-3.6c-0.1-6.4,0-12.9,0-19.2c-0.6-0.1-0.8-0.3-0.9-0.2c-1,0.6-2,1.2-2.9,1.8
	c-8.6,6-18.1,7.9-28.4,6.8c-9.8-1-17.3-7.4-20.1-16.8c-1.1-3.7-0.6-4.8,3.5-4.7c17,0.2,34,0,50.9,0.2
	C388.2,133.7,389.4,132.9,389.2,129.8z M331.8,114.7c2.5-10.4,9.9-16.3,19.1-15.8c8.8,0.5,14.3,6,15.4,15.8H331.8z M271.9,49.6
	c16.3,0,32.6,0.1,49-0.1c3.5,0,4.6,0.9,4.4,4.4c-0.3,4.5-0.3,9,0,13.5c0.2,3.3-0.8,4.3-4.2,4.2c-11-0.2-22,0.1-33-0.2
	c-3.6-0.1-4.3,1.1-4.3,4.5c0.1,31,0,61.9,0.2,92.9c0,4.2-0.9,5.5-5.1,5.1c-5-0.4-10-0.3-15,0c-3.6,0.2-4.4-0.9-4.3-4.4
	c0.1-31,0-61.9,0.2-92.9c0-4.2-1.2-5.3-5.3-5.2c-10.5,0.3-21-0.1-31.5,0.2c-4.1,0.1-5.2-1.3-4.9-5.1c0.3-4,0.4-8,0-12
	c-0.4-4.4,1.4-5.1,5.3-5.1C239.6,49.8,255.7,49.6,271.9,49.6z M822,67.6c-8.5-6.7-16.9-10.9-26.5-12.3c-7.7-1.1-15.3-1.2-22.7,1.5
	c-8.6,3.1-13.9,8.9-14.8,18.2c-0.9,9.2,3.6,15.6,11.4,19.9c9.3,5.2,19.5,8.6,29.2,12.9c5.2,2.3,10.1,4.9,15,7.9
	c19,11.8,17.9,42.7-1.9,54.2c-16.7,9.7-47.8,7.6-62.5-4.8c-4.3-3.7-1.1-8.6-2.4-14.1c3,2.2,5,3.7,6.9,5c13.8,9.5,28.9,12.6,45.1,8.5
	c16.7-4.2,23.6-23.4,13.2-35.7c-3.3-3.9-7.7-6.3-12.3-8.4c-9.4-4.2-18.9-8.2-28.4-12.3c-2.9-1.3-5.7-2.8-8.4-4.4
	c-12.5-7.4-17.3-18.6-15-32.6c2.1-13.2,10.7-20.8,22.9-24.4c15.6-4.5,30.6-2.2,45.1,4.7c4.7,2.2,7,5.1,6.1,10.3
	C821.8,63.4,822,64.9,822,67.6z M588.6,105.9c-12.1-6.8-22.6-4.9-28,4.6c-1.6,2.7-2,5.5-2,8.6c0.1,16.8-0.1,33.6,0.1,50.5
	c0,3.5-0.8,4.6-4.4,4.4c-5.5-0.3-11-0.2-16.5,0c-2.1,0-2.9-0.6-2.9-2.8c0.1-28.6,0.1-57.3,0-85.9c0-2.8,1.1-3.3,3.5-3.2
	c4.8,0.1,9.7,0.2,14.5,0c3.8-0.2,6.9-0.1,5.3,6.5c6.7-6.7,13.3-10.4,21.6-9.4c1.8,0.2,3.6,0.6,5.4,0.9c2.3,0.4,3.4,1.5,3.3,4
	C588.5,91,588.6,98.1,588.6,105.9z M426.1,111.9c0,19.3-0.1,38.6,0.1,57.9c0,3.2-0.8,4.3-4.1,4.1c-5.3-0.3-10.7-0.2-16,0
	c-2.7,0.1-3.3-0.8-3.3-3.3c0.1-39.1,0.1-78.3,0-117.4c0-2.7,0.6-3.8,3.5-3.7c5.3,0.2,10.7,0.3,16,0c3.1-0.2,3.9,0.8,3.9,3.9
	C426.1,72.9,426.1,92.4,426.1,111.9z M1002,124.7c-0.5-4.4-0.5-9-1.3-13.4c-3-17.2-13.2-27.9-29-30.7c-16.2-2.9-31.2,4.2-39.5,18.9
	c-6.3,11.1-7.6,23.2-6.6,35.7c3.3,39.1,37.7,47.2,62.5,37.4c7.3-2.9,8.2-5.2,6.3-13.8c-1.9,1.2-3.7,2.3-5.5,3.4
	c-23.5,13.7-50.9-0.5-53.1-27.3c-0.3-4.3,0.3-6.1,5.3-6c18.8,0.3,37.6,0,56.4,0.2C1001.1,129.1,1002.5,128.2,1002,124.7z
	 M984.5,120.3H964c-8.1,0-16.3,0-24.4,0c-1.7,0-3.1,0.3-3-2.5c0.7-16.2,15.4-29.4,31.5-28.1c11.9,1,20.4,9.2,22.8,22.8
	C992.3,120.9,993.5,120.3,984.5,120.3z M1116,95.8c6.2-7.5,12.7-12.7,21.2-14.8c22.3-5.4,39.9,7.8,40.4,30.9c0.4,19.5,0,39,0.2,58.5
	c0.1,4.8-2.9,3.8-5.6,3.9c-3,0.1-5.3,0.3-5.3-4.2c0.2-18.3,0-36.7,0.1-55c0-9.6-2.3-18.2-11.6-22.6c-10-4.8-19.9-3.4-28.7,3.3
	c-7,5.4-11.3,12-11,21.7c0.6,17.5,0,35,0.3,52.5c0.1,4.2-1.9,4.5-5.1,4.4c-3.1-0.1-5.6,0.3-5.6-4.5c0.2-28,0.2-56,0-84
	c0-5.2,3.2-3.7,5.9-4c3-0.3,5.2,0.1,4.7,4.1C1115.7,88.8,1116,91.8,1116,95.8z M1327.4,158.6c9.2-23.6,18.4-46.8,27.1-70.1
	c2-5.3,4.4-7.6,9.9-6.6c1,0.2,2,0.1,3.6,0.2c-3.8,9.5-7.4,18.7-11.1,27.9c-12.1,30.6-24.3,61.2-36.4,91.8c-3.5,8.8-3.5,8.8-13.8,7.7
	c4.1-10.1,7.9-20.2,12.3-30c2-4.4,2-8.2,0.2-12.7c-10.8-26.6-21.3-53.4-32.1-80.1c-1.6-3.9-1.2-4.9,3.2-5c4.6-0.1,6.9,1.1,8.6,5.7
	c8.3,22.3,17.1,44.4,25.7,66.5C1325.4,155.5,1325.5,157.2,1327.4,158.6z M626.1,128.4c0,13.8-0.1,27.6,0.1,41.5
	c0,3.3-0.9,4.3-4.1,4.1c-5.3-0.3-10.7-0.1-16,0c-2.3,0-3.6-0.2-3.5-3.1c0.1-28.5,0.1-57,0-85.4c0-2.5,0.6-3.5,3.3-3.4
	c5.5,0.2,11,0.3,16.5,0c3.3-0.2,3.8,1.1,3.8,4C626.1,100.1,626.1,114.2,626.1,128.4z M1059.9,48.4c-2.9-0.6-5.3-1.4-7.7-1.6
	c-10-0.7-17.1,5-18.1,15c-0.6,5.8-0.2,11.6-0.3,17.5c-0.1,2.4,1.3,2.6,3.2,2.6c5,0,10,0.2,15-0.1c4-0.2,3.1,2.5,3.1,4.6
	c0,2.2,0.7,4.8-3.2,4.6c-4.5-0.2-9,0.2-13.5-0.1c-3.9-0.3-4.7,1.2-4.7,4.8c0.2,24.2,0.1,48.3,0.1,72.5c0,5.4-4.4,8.2-9.3,5.9
	c-2.3-1.1-1.3-3.2-1.3-4.9c-0.1-24-0.2-48,0.1-72c0.1-4.9-0.9-7.3-6.2-6.3c-1.1,0.2-2.3,0-3.5,0c-5.3,0-6.8-2.2-5.4-7.4
	c0.3-1.2,0.9-1.7,2-1.7c0.7,0,1.3,0,2,0c11-0.3,11.1-0.3,11-11.2c0-6.2,0.1-12.3,2.6-18.1c5.3-12.3,18.8-18.4,31.5-14.5
	c2.1,0.6,3,1.7,2.8,3.9C1059.7,44,1059.9,46,1059.9,48.4z M888,132.9c0-12.5-0.1-25,0.1-37.5c0.1-3.5-0.9-4.8-4.5-4.5
	c-3.1,0.3-6.3,0.1-9.5,0.1c-5.9,0-6-0.3-5.7-6.2c0.1-2.5,1.2-3,3.4-3c4,0.1,8-0.2,12,0.1c3.2,0.2,4.5-0.7,4.3-4.1
	c-0.3-4.8,0.3-9.7-0.2-14.5c-0.4-4.6,1.3-5.4,5.6-5.5c4.7-0.1,5.6,1.6,5.3,5.8c-0.3,4.8,0.1,9.7-0.1,14.5c-0.2,3.2,1,4.2,4,3.8
	c0.8-0.1,1.7,0,2.5,0c15.6,0,15.6,0,15.6,4.7c0,4.5,0,4.5-15.3,4.5c-0.7,0-1.3,0.1-2,0c-3.7-0.6-4.8,0.9-4.8,4.6
	c0.2,24.3,0.1,48.6,0,72.9c0,1.8,1.1,4.5-1.2,5.3c-2.6,0.9-5.7,0.8-8.3,0c-1.8-0.6-1-2.6-1-4C888,157.6,888,145.2,888,132.9z
	 M1254.9,132.7c0,12.5-0.2,25,0.1,37.5c0.1,4-1.7,4.3-4.8,4.1c-2.9-0.2-5.8,0.7-5.8-4.3c0.2-24.5,0-49,0.2-73.4
	c0-4.2-0.9-6.1-5.5-5.6c-3.8,0.4-7.7,0-11.5,0.1c-4.1,0.1-2.7-2.9-2.9-4.9c-0.1-2-0.8-4.5,2.9-4.3c4.3,0.2,8.7-0.1,13,0.1
	c3.2,0.2,4-1,3.9-4c-0.2-5.5,0.1-11-0.1-16.5c-0.2-4.6,3.1-3.3,5.5-3.4c2.3-0.1,5.2-1,5,3.3c-0.3,5.5,0.1,11-0.1,16.5
	c-0.2,3.4,1.1,4.2,4.3,4.1c4.8-0.2,9.7,0.2,14.5-0.1c3.9-0.3,3.4,2.1,3.3,4.4c0,2.4,0.8,5.1-3.4,4.9c-4.8-0.3-9.7,0.1-14.5-0.1
	c-3.4-0.2-4.2,1-4.1,4.3C1255,107.7,1254.9,120.2,1254.9,132.7z M844,127.9c0-13.8,0.3-27.7-0.1-41.5c-0.1-5.1,2.6-4.4,5.8-4.6
	c3.7-0.2,5.1,0.7,5.1,4.8c-0.2,27.6-0.2,55.3,0,82.9c0,5-2.4,4.6-5.8,4.8c-3.9,0.2-5.2-0.9-5.1-5C844.2,155.6,844,141.7,844,127.9z
	 M1082,128.4c0,13.8-0.2,27.7,0.1,41.5c0.1,4.2-1.8,4.6-5.1,4.4c-3.1-0.1-5.7,0.4-5.7-4.4c0.2-28,0.2-56,0-84c0-4.7,2.6-4,5.4-4
	c2.8,0,5.4-0.7,5.3,4C1081.8,100.1,1082,114.2,1082,128.4z M1210.9,128.4c0,13.8-0.2,27.6,0.1,41.5c0.1,4.2-1.7,4.6-5,4.5
	c-3.2-0.1-5.6,0.2-5.6-4.5c0.2-28,0.2-55.9,0-83.9c0-5.2,3.1-3.8,5.9-4.1c3.1-0.3,4.8,0.2,4.7,4.1
	C1210.7,100.1,1210.9,114.3,1210.9,128.4z M614.3,45.9c7.8,0,14.1,6,14.3,13.5c0.2,7.6-6.5,14.3-14.2,14.4
	c-7.5,0.1-14.5-6.8-14.4-14.3C600.1,52.2,606.7,45.9,614.3,45.9z M1413.2,83.2c-1.6,2.3-3.1,4.6-4.9,7.2c-1.9-2.6-3.6-5-6.1-8.6
	c0,4.3,0,7.3,0,10.3c0,1.7-0.2,2.8-2.4,2.8c-2,0-2.6-0.8-2.6-2.7c0.1-5.3,0-10.6,0-16c0-1.2-0.6-2.9,1.5-3.1
	c1.6-0.2,3.3-0.4,4.4,1.5c1.6,2.7,3.4,5.3,5.3,8.1c1.8-2.7,3.5-5.2,5-7.7c1-1.8,2.4-2.2,4.1-1.9c2.4,0.3,1.4,2.3,1.4,3.5
	c0.1,5.2,0,10.3,0.1,15.5c0,1.5,0.2,3-2.2,2.9c-2-0.1-2.6-0.9-2.5-2.7c0.1-2.9,0-5.9,0-8.8C1413.8,83.3,1413.5,83.2,1413.2,83.2z
	 M849.5,61c-4.1,0-7.4-3.2-7.4-7.1c0-3.9,3.5-7.2,7.5-7.1c3.8,0.1,7,3.3,7.2,6.9C856.8,57.6,853.5,61,849.5,61z M1385.6,73
	c2.3,0,4.6,0.1,7,0c1.7-0.1,2.3,0.6,2.3,2.3c0,1.6-0.8,2.2-2.1,1.9c-5.3-1.1-5.1,2.2-4.9,5.7c0.1,2.8,0,5.6,0,8.4
	c0,1.7,0.5,3.7-2.5,3.6c-3.1-0.1-2.3-2.1-2.4-3.8c-0.1-3.3-0.2-6.6,0-9.9c0.2-2.8-0.4-4.5-3.7-4c-1.5,0.2-3.5,0.6-3.3-2.2
	c0.2-2.8,2.3-1.8,3.7-1.9C1381.7,72.9,1383.7,73,1385.6,73z M1076.9,46.8c3.9,0.1,7.1,3.4,7,7.4c-0.1,4.1-3.3,7-7.5,6.8
	c-4-0.2-6.6-3-6.6-7.1C1069.7,49.6,1072.6,46.7,1076.9,46.8z M1205.9,61c-4.3,0.1-7.3-2.8-7.3-7c0-4.1,3-7.3,7.1-7.3
	c3.9,0,7.2,3.4,7.2,7.3C1212.8,57.9,1209.8,60.9,1205.9,61z"/>
</svg>
