<?xml version="1.0" encoding="utf-8"?>
<!-- Generator: Adobe Illustrator 19.2.1, SVG Export Plug-In . SVG Version: 6.00 Build 0)  -->
<svg version="1.1" id="Layer_1" xmlns="http://www.w3.org/2000/svg" xmlns:xlink="http://www.w3.org/1999/xlink" x="0px" y="0px"
	 viewBox="0 0 268.8 252.9" style="enable-background:new 0 0 268.8 252.9;" xml:space="preserve">
<title>sitefinitity-logo</title>
<path d="M134.7,118.8l-41,41L134.7,118.8L134.7,118.8z"/>
<path d="M242.8,92.9l26-26L201.8,0l-67,67.3l0,0L67.8,0L0.6,66.9l26,25.9l41-41.1l41,41l-41,41l0,0l-26,26l93,93l93.1-92.9l-67-67
	l41-41L242.8,92.9z M175.8,159.9l-41,41l-41-41l41-41L175.8,159.9z"/>
<line x1="0.6" y1="66.8" x2="0" y2="66.2"/>
</svg>
