<svg id="Layer_1" xmlns:rdf="http://www.w3.org/1999/02/22-rdf-syntax-ns#" xmlns="http://www.w3.org/2000/svg" enable-background="new 0 0 100 100" xml:space="preserve" viewBox="0 0 100 100" version="1.1" y="0px" x="0px" xmlns:cc="http://creativecommons.org/ns#" xmlns:dc="http://purl.org/dc/elements/1.1/"><metadata id="metadata15"><rdf:RDF><cc:Work rdf:about=""><dc:format>image/svg+xml</dc:format><dc:type rdf:resource="http://purl.org/dc/dcmitype/StillImage"/><dc:title/></cc:Work></rdf:RDF></metadata>
<path id="path3" d="m28.235,20.103c-0.59539,0.23753-1.8493,0.04972-3.957-0.856-3.599-1.49-5.895-3.36-8.416-5.035-2.486-1.668-5.365-3.379-6.7284-5.1931-1.1392-1.6464,1.9884-2.4412,6.0064-1.3811,5.2395,1.3773,8.2717,4.8177,10.576,6.7541,0.87281,0.70463,4.3397,5.0474,2.5194,5.7114z"/>
<path id="path5" d="m68.523,76.118c0.14409,0,3.8782,4.9434,4.668,6.282,1.0249,1.6981,4.8501,5.8809,2.6222,7.6669-1.4722,1.1618-2.7105-0.52059-3.7164-1.519-1.0766-1.0705-6.3033-12.296-3.5737-12.43z"/>
<path id="path7" d="m29.958,76.255c0.11396,0.03513,0.21137,0.09847,0.30037,0.156,2.5843,1.3991-2.9327,10.618-3.5239,12.686-0.78314,2.6414-4.5676,5.3907-6.3669,1.611-1.5082-3.2142,8.0274-14.751,9.5905-14.453z"/>
<path id="path9" d="M23.999,26.112c-3.483-0.418-7.164-2.025-10.217-3.856-3.701-2.249-2.859-5.579-8.0652-4.417-5.0472,1.1313-1.8324,5.4324,0.86046,7.1001,4.6884,2.8745,3.918,1.2779,8.8904,3.6589,2.4074,1.146,4.1677,2.7235,5.3368,4.8239,0.52724,0.97038-2.1169,3.2264-3.8704,1.6642-1.8034-1.6066-5.538,0.77956-5.5322,2.0477,0.0052,1.1273-0.10624,3.6251,4.5829,4.1545,3.4805,0.39298,4.5667,4.4943,2.9491,5.1787-4.7047,1.9945-11.583-0.28724-15.714,2.7056-1.9751,1.4435-3.1972,4.5997-0.21206,5.8065,3.8945,1.5922,9.8389-3.0121,14.117-2.2379,10.591,1.9348,1.3002,8.8326-0.69399,11.17-5.5488,6.566,5.7667,7.0227,9.7142,5.7719,5.3871-1.6959,7.5148-6.0259,12.746-4.3582,2.3503,0.75948,1.6706,4.7191,1.5265,6.2539-0.16448,1.9055-0.88085,3.7365-0.84415,5.6578,0,0.89244-0.02175,1.6959,1.0752,2.0395,1.2057,0.38763,2.4618-0.67046,3.6294-0.13522,1.1867,0.53637,1.2723,2.1601,1.4708,3.1123,0.48528,2.5455,0.47033,5.3152,0,7.8607-0.37382,2.0688-1.6353,4.2121-1.4178,6.3406,0.26779,2.8734,4.7074,3.1416,6.5711,0.96794,1.1147-1.2812,1.3675-3.5889,1.1323-5.1068-1.759-7.3243-4.9031-21.573,4.6707-25.994,6.7695-3.1416,5.5312,1.653,7.6327,4.5253,1.8854,2.5613,3.5384,3.2914,3.9149,0.43383,0.35751-2.6356-0.96921-6.0138-1.0956-8.7239-0.08972-2.0542,2.0825-3.1416,4.112-3.8413,5.1356-1.7421,11.565-1.2812,16.199,1.2361,3.6458,1.9787,2.4508,2.0763,6.8333,3.1028,3.8252,0.89357,5.2567-1.579,4.4125-5.3471-4.7665-4.6397-6.6118-1.286-12.808-2.7002-4.0742-0.92398-2.4716-3.8985,1.2471-3.2842,1.5838,0.26164,2.276-1.9024,1.7552-3.3095-1.2467-3.3687-0.17052-6.8773,2.9243-9.0974,1.6149-1.1618,2.2943-2.6495,2.6178-4.5245,0.37654-1.9956-0.2118-4.4225-2.7973-3.9909-3.0177,0.52059-4.3825,4.1535-7.0958,5.1361-2.9987,1.0716-5.6032-1.1595-5.6752-3.7208-0.08836-2.7855,2.3177-5.2713,2.7296-7.9959,0.79114-5.2994-7.7578-2.932-11.636-4.5095-6.2516-2.5613-1.6916-3.8621,0.32018-7.2122,1.0956-1.7871,3.1238-5.0763,1.4015-7.0257-1.4926-1.7128-3.8456-1.0874-5.2987,0.32678-2.4251,2.3382-1.9031,5.8662-2.3897,8.7396-0.68103,4.1681-1.3791,4.785-6.3896,6.6904-3.431,1.2936-8.3708,0.60848-10.955-1.7139-2.1586-1.9798-1.9411-5.1361-4.2208-6.9671-4.4151-3.5732-6.8633,2.6503-7.9032,5.3592-1.6883,4.5129-3.4269,9.0675-10.542,8.2044z"/>
<path id="path3-0" d="m84.472,20.141c-0.46364-0.09395-0.4995-0.80523,0.24684-2.441,1.1978-2.7514,3.2175-5.1922,4.92-7.5908,1.7001-2.3768,3.3668-4.9643,5.5286-6.9391,1.9848-1.7473,3.8013-0.91559,3.2896,1.7053-0.66016,3.4141-4.6558,7.3623-6.7652,9.8565-0.75958,0.92329-5.8873,5.7427-7.2198,5.409z"/><path id="path3-8" d="m88.466,72.472c-0.3968,0.1723-1.2325,0.03606-2.6372-0.62094-2.3986-1.0812-3.9291-2.4373-5.6092-3.6528-1.6568-1.2099-3.5752-2.4508-4.4841-3.7668-0.75927-1.1943,1.3255-1.7708,4.0031-1.0018,3.4919,0.99907,5.5128,3.4947,7.0483,4.8993,0.58169,0.51113,2.8922,3.6613,1.6791,4.143z"/><path id="path3-8-5" d="M51.882,7.3591c-0.426-0.0546-0.892-0.3354-1.307-0.9496-0.743-1.0353-0.642-1.9171-0.767-2.7944-0.113-0.8689-0.383-1.8219,0.118-2.5152,0.50011-0.61071,2.4544-0.21454,3.6617,0.79567,1.5778,1.3162,0.83608,2.7148,0.69686,3.6142-0.03464,0.33374-1.1388,2.0314-2.4021,1.8494z"/><path id="path3-8-5-2" d="m50.199,46.064c-0.42596-0.05463-0.89232-0.33545-1.3068-0.94963-0.74288-1.0353-0.64204-1.9171-0.76702-2.7944-0.11349-0.8689-0.38317-1.8219,0.11743-2.5152,0.50011-0.61071,2.4544-0.21454,3.6617,0.79566,1.5778,1.3162,0.83608,2.7148,0.69686,3.6142-0.03464,0.33374-1.1388,2.0314-2.4021,1.8494z"/></svg>
