<?xml version="1.0" encoding="UTF-8" standalone="no"?>
<!-- Created with Inkscape (http://www.inkscape.org/) -->

<svg
   xmlns:dc="http://purl.org/dc/elements/1.1/"
   xmlns:cc="http://creativecommons.org/ns#"
   xmlns:rdf="http://www.w3.org/1999/02/22-rdf-syntax-ns#"
   xmlns:svg="http://www.w3.org/2000/svg"
   xmlns="http://www.w3.org/2000/svg"
   version="1.1"
   width="505.67102"
   height="505.34647"
   id="svg2">
  <defs
     id="defs4" />
  <metadata
     id="metadata7">
    <rdf:RDF>
      <cc:Work
         rdf:about="">
        <dc:format>image/svg+xml</dc:format>
        <dc:type
           rdf:resource="http://purl.org/dc/dcmitype/StillImage" />
        <dc:title></dc:title>
      </cc:Work>
    </rdf:RDF>
  </metadata>
  <g
     transform="translate(296.1327,-469.04669)"
     id="layer1">
    <path
       d="m -59.627844,974.29748 c -1.846413,-0.12145 -6.241074,-0.51441 -9.766008,-0.87313 -3.524884,-0.35882 -8.331572,-0.94144 -10.681511,-1.29473 -2.349939,-0.3532 -7.156675,-1.17039 -10.68156,-1.81588 -3.524933,-0.64549 -8.743597,-1.7501 -11.597117,-2.45472 -2.85351,-0.70472 -8.34688,-2.19374 -12.20749,-3.30911 -3.86062,-1.11537 -10.72729,-3.39169 -15.25933,-5.05848 -4.53203,-1.66688 -10.57474,-4.03443 -13.42822,-5.26137 -2.85351,-1.22694 -9.17088,-4.23311 -14.03864,-6.68048 -4.86772,-2.44728 -12.14642,-6.44523 -16.17488,-8.88419 -4.02846,-2.43904 -10.4832,-6.64864 -14.34382,-9.35467 -3.86062,-2.70605 -8.22398,-5.89716 -9.69632,-7.09147 -2.5964,-2.10593 -2.63319,-2.18365 -1.22079,-2.57932 0.801,-0.22442 2.72409,-0.43546 4.27359,-0.46887 1.90972,-0.0412 4.19685,-0.75104 7.09989,-2.20339 2.51748,-1.25945 5.34106,-3.29081 6.85077,-4.92865 1.41256,-1.53243 3.24934,-4.27388 4.08178,-6.09219 0.83246,-1.81831 1.80854,-5.08645 2.16917,-7.26257 0.47883,-2.88969 0.46698,-4.90717 -0.044,-7.48238 -0.38471,-1.93928 -1.52277,-5.20763 -2.52899,-7.26306 -1.01732,-2.07795 -3.06792,-4.87864 -4.61919,-6.30845 -1.53433,-1.41426 -4.5299,-3.38582 -6.6568,-4.38109 -2.56968,-1.20254 -5.26873,-1.92701 -8.04453,-2.15925 -2.86145,-0.23941 -5.3748,-0.0426 -7.9789,0.62506 -2.09088,0.53605 -4.97488,1.70168 -6.40891,2.59022 -1.43405,0.88854 -3.39823,2.33774 -4.36489,3.22049 -0.96661,0.88268 -2.68334,3.03383 -3.81504,4.78035 -1.13163,1.74652 -2.46943,4.7569 -2.97286,6.68976 -0.50348,1.93286 -0.91536,5.09601 -0.91536,7.02914 0,2.58449 -0.20195,3.42574 -0.76296,3.17823 -0.41964,-0.18521 -3.84444,-3.81597 -7.61058,-8.06837 -3.76616,-4.2524 -8.71016,-10.07405 -10.98673,-12.9371 -2.27651,-2.86298 -6.32615,-8.33577 -8.99918,-12.16172 -2.67304,-3.82595 -7.01724,-10.54752 -9.65382,-14.93686 -2.63654,-4.38933 -6.80786,-12.10061 -9.2696,-17.13617 -2.46168,-5.03562 -5.57355,-11.76501 -6.91521,-14.95422 -1.34165,-3.1892 -3.54735,-8.9572 -4.90154,-12.81783 -1.35414,-3.86061 -3.41461,-10.3153 -4.57876,-14.34376 -1.16413,-4.02851 -2.82383,-10.4832 -3.68817,-14.34382 -0.8644,-3.86062 -2.12136,-10.31531 -2.79323,-14.34376 -0.6719,-4.02848 -1.49235,-9.79654 -1.82324,-12.8179 -0.33095,-3.02135 -0.88401,-10.43736 -1.22908,-16.48008 -0.41227,-7.21921 -0.4299,-15.17288 -0.0514,-23.19424 0.31682,-6.7141 0.98592,-15.38011 1.48693,-19.25782 0.501,-3.8777 1.20157,-8.86977 1.55679,-11.09344 0.35525,-2.22367 1.17659,-6.60441 1.82519,-9.73495 0.64861,-3.13048 2.0305,-8.98787 3.07084,-13.01634 1.04033,-4.02845 3.13957,-11.03249 4.665,-15.56454 1.52546,-4.53203 4.16116,-11.67339 5.85716,-15.8697 1.69599,-4.19631 5.26873,-12.00918 7.93939,-17.36192 2.67066,-5.35277 6.50003,-12.46991 8.50968,-15.81588 2.00967,-3.34599 5.3004,-8.54904 7.31268,-11.56235 2.01228,-3.01327 4.79024,-7.02019 6.17322,-8.90427 1.38304,-1.88405 5.26281,-6.85892 8.62183,-11.05522 3.35897,-4.19635 10.79153,-12.3112 16.51678,-18.03305 5.72526,-5.72184 12.88154,-12.45316 15.90289,-14.9585 3.02135,-2.50528 8.6557,-6.92953 12.52076,-9.83153 3.86507,-2.90206 10.53894,-7.50555 14.8308,-10.23003 4.29185,-2.72449 11.42957,-6.91338 15.86162,-9.30865 4.43204,-2.39532 11.07961,-5.71025 14.77238,-7.36659 3.69273,-1.6563 8.77412,-3.84734 11.2919,-4.86897 2.51778,-1.02156 7.73649,-2.9498 11.59711,-4.28493 3.86061,-1.33509 9.35398,-3.08427 12.2075,-3.88699 2.85346,-0.80276 7.93485,-2.11982 11.29189,-2.92679 3.357047,-0.80697 8.987785,-2.01742 12.512669,-2.68983 3.524935,-0.67239 8.606272,-1.51511 11.291946,-1.87268 2.685623,-0.35755 7.767012,-0.98464 11.291895,-1.3935 3.573277,-0.41449 13.8357,-0.73846 23.194225,-0.7322 9.317886,0.006 19.772249,0.34951 23.499394,0.77171 3.692774,0.41834 9.598113,1.17731 13.1230534,1.68667 3.5248836,0.50935 9.155617,1.45621 12.512664,2.10408 3.3570395,0.6479 9.7643756,2.13796 14.2384366,3.31127 4.474068,1.17325 11.20346,3.11779 14.95416,4.32112 3.750699,1.20334 11.160394,3.94995 16.465966,6.10361 5.305572,2.15366 12.721597,5.45766 16.480092,7.3422 3.758495,1.88448 9.305637,4.8089 12.326991,6.49863 3.021317,1.68968 8.514678,4.99448 12.207451,7.34388 3.692783,2.34944 9.872827,6.60797 13.733427,9.46336 3.86063,2.85539 9.35399,7.13539 12.20751,9.51115 2.85346,2.37572 8.2765,7.27307 12.05111,10.88298 3.77465,3.60992 7.26798,6.56347 7.76302,6.56347 0.49502,0 1.99637,-1.48405 3.33635,-3.29792 1.33997,-1.81383 3.90452,-5.59055 5.69898,-8.39261 1.79446,-2.80211 4.60096,-7.42945 6.23668,-10.28292 1.63571,-2.85351 4.85606,-8.97602 7.15638,-13.60559 2.3003,-4.62956 4.43797,-8.25942 4.75034,-8.06635 0.31243,0.19308 2.25775,5.62891 4.32302,12.0796 2.06526,6.45075 4.29664,13.51399 4.95867,15.69604 0.66198,2.1821 1.99282,6.43949 2.9574,9.46084 0.96455,3.02132 2.87896,9.47605 4.25419,14.34377 1.37523,4.86772 3.29309,11.59711 4.26192,14.95416 0.96884,3.35704 3.12961,11.45978 4.80165,18.00603 1.67206,6.54629 4.00249,16.02234 5.17866,21.0579 1.1762,5.03562 2.97327,13.27563 3.99346,18.31124 1.02019,5.03557 2.43537,12.45164 3.14485,16.4801 0.70945,4.02846 1.53335,8.83515 1.83086,10.68156 0.29757,1.84636 1.231,8.85041 2.07431,15.56454 0.84331,6.71408 1.81431,16.73949 2.15776,22.27862 0.34343,5.53914 0.62143,15.83919 0.61774,22.88902 -0.006,7.04986 -0.40854,17.62456 -0.89961,23.49945 -0.49103,5.87483 -1.19396,13.15357 -1.56204,16.17488 -0.36807,3.02134 -1.35814,9.33871 -2.20022,14.0386 -0.84207,4.69987 -2.62444,12.80263 -3.96086,18.00607 -1.33641,5.20341 -3.47816,12.61948 -4.75942,16.4801 -1.28132,3.86061 -3.58647,10.19028 -5.12258,14.06595 -1.53616,3.87564 -4.40848,10.4677 -6.38299,14.64894 -1.9745,4.18129 -5.60387,11.17302 -8.06526,15.53718 -2.46139,4.36421 -6.93486,11.6429 -9.94101,16.17496 -3.00621,4.532 -6.30784,9.33871 -7.33706,10.68153 -1.02917,1.34277 -3.39705,4.36417 -5.26197,6.71412 -1.86488,2.34989 -6.46729,7.73853 -10.22757,11.97468 -3.76023,4.23615 -10.28113,10.94153 -14.49091,14.90086 -4.20974,3.95926 -11.4352,10.21302 -16.05652,13.89721 -4.62131,3.68413 -12.24774,9.22435 -16.947616,12.31145 -4.699879,3.08719 -11.429277,7.27439 -14.95416,9.30499 -3.524931,2.0306 -9.176358,5.07625 -12.558737,6.7681 -3.382421,1.69194 -9.040713,4.31096 -12.57404,5.82017 -3.533283,1.50914 -10.346273,4.15133 -15.139873,5.8715 -4.793655,1.72018 -12.534786,4.20686 -17.202523,5.52606 -4.66773,1.31912 -12.528807,3.2062 -17.4690226,4.19338 -4.9402562,0.98728 -11.1796017,2.09685 -13.8652238,2.46577 -2.6856786,0.36873 -7.2177106,0.95659 -10.0711766,1.30614 -2.853518,0.34965 -12.741594,0.7283 -21.973508,0.84151 -9.231865,0.11312 -18.295939,0.10638 -20.142301,-0.015 z m 84.632379,-78.06356 c 6.766673,-0.48239 14.045416,-1.15014 16.174928,-1.48401 2.129505,-0.33381 6.206512,-0.90759 9.060024,-1.27523 2.853469,-0.36757 6.973524,-0.95342 9.155615,-1.30187 2.182049,-0.34846 4.791433,-0.85331 5.798538,-1.12183 1.007097,-0.2685 3.479112,-0.83363 5.493365,-1.25589 2.014253,-0.42226 6.189566,-1.41893 9.278529,-2.2147 3.088916,-0.79582 8.032967,-2.23799 10.986731,-3.20479 2.953755,-0.96689 7.979786,-2.77633 11.168985,-4.02107 3.18921,-1.24475 9.24919,-3.98655 13.46663,-6.09296 4.21744,-2.10636 9.98546,-5.27809 12.81783,-7.0482 2.8324,-1.7701 7.07249,-4.66147 9.42243,-6.42516 2.34994,-1.76361 6.60733,-5.2598 9.46084,-7.7691 2.85347,-2.50929 7.2628,-6.86206 9.79846,-9.67286 2.5357,-2.81086 6.2698,-7.30796 8.29803,-9.99358 2.02824,-2.68568 5.05694,-7.08034 6.73048,-9.76601 1.67354,-2.68562 4.58078,-7.76702 6.46062,-11.29189 1.87979,-3.52494 4.68644,-9.51487 6.23697,-13.31104 1.55058,-3.79613 3.6444,-9.42683 4.65297,-12.51267 1.00858,-3.0858 2.63782,-8.6319 3.62059,-12.32467 0.9827,-3.69277 2.31621,-9.4608 2.96333,-12.81789 0.64713,-3.35705 1.46061,-7.88908 1.8077,-10.07117 0.3471,-2.18205 0.91758,-6.43944 1.26767,-9.46079 0.35017,-3.02136 0.95685,-11.07178 1.34818,-17.88981 0.40091,-6.98508 0.53103,-16.17739 0.29811,-21.0579 -0.2274,-4.76382 -0.67567,-12.78148 -0.99609,-17.8171 -0.32048,-5.03557 -0.85037,-11.49026 -1.17752,-14.34378 -0.32714,-2.85351 -0.85491,-7.24817 -1.17281,-9.76594 -0.31792,-2.51784 -1.02109,-7.48433 -1.56259,-11.03671 -0.54149,-3.5524 -1.79299,-10.83109 -2.78102,-16.17492 -0.98804,-5.34379 -2.22456,-11.77603 -2.7478,-14.29385 -0.52323,-2.51779 -1.2061,-5.67647 -1.51754,-7.0193 -0.31138,-1.3428 -1.1146,-4.77617 -1.78498,-7.62969 -0.67033,-2.85346 -1.67126,-6.97347 -2.22428,-9.15557 -0.55295,-2.1821 -1.21775,-4.92881 -1.47728,-6.10375 -0.25959,-1.175 -1.21159,-4.88298 -2.11564,-8.24007 -0.90405,-3.35705 -2.46855,-8.98773 -3.47663,-12.51267 -1.00815,-3.52489 -2.66109,-9.15557 -3.67318,-12.51266 -1.01213,-3.35705 -3.64162,-11.59712 -5.84332,-18.3112 -2.2017,-6.71414 -4.13917,-12.56536 -4.30544,-13.00272 -0.16625,-0.4374 -0.87229,-0.71205 -1.56899,-0.61038 -0.89357,0.13041 -2.2694,1.98276 -4.67075,6.28858 -1.87218,3.35708 -4.8804,8.28303 -6.6849,10.94658 -1.80453,2.66355 -4.35683,6.23426 -5.67176,7.93486 -1.31495,1.70064 -3.51936,4.6027 -4.89864,6.44911 -1.37933,1.84636 -6.7845,7.61443 -12.01151,12.81783 -5.22701,5.20345 -11.83818,11.40107 -14.69144,13.77245 -2.85327,2.37141 -7.38511,5.9721 -10.07079,8.00151 -2.68562,2.02937 -8.178991,5.88203 -12.207451,8.56139 -4.028506,2.6794 -10.239413,6.542 -13.802022,8.58351 -3.562661,2.04156 -9.193352,5.07388 -12.512667,6.73853 -3.319358,1.66464 -9.880522,4.6858 -14.580397,6.71373 -4.699877,2.02789 -12.253271,4.93123 -16.785261,6.45183 -4.532033,1.52061 -10.437428,3.33468 -13.12305,4.03127 -2.685671,0.69655 -7.492357,1.82804 -10.6815595,2.51438 -3.1891973,0.68633 -7.3092087,1.50668 -9.15562449,1.82306 -1.84636151,0.31637 -5.41707051,0.85966 -7.93484941,1.20728 -2.5177845,0.34769 -7.1871476,0.89897 -10.3763436,1.22511 -3.189202,0.32616 -9.781268,0.85961 -14.648989,1.18546 -4.867721,0.32587 -13.931794,0.86525 -20.142351,1.19865 -6.210557,0.33338 -15.137256,0.88391 -19.837134,1.2234 -4.699879,0.33948 -10.87992,0.87723 -13.733435,1.19499 -2.853515,0.3178 -6.973526,0.84607 -9.155623,1.174 -2.182048,0.32794 -6.714083,1.15702 -10.071173,1.84237 -3.35705,0.68539 -8.16373,1.79288 -10.68151,2.46109 -2.51779,0.66821 -7.84524,2.34209 -11.83873,3.71979 -3.99351,1.37765 -10.17354,3.83687 -13.73344,5.46487 -3.55984,1.628 -8.53249,4.11522 -11.05028,5.52715 -2.51778,1.4119 -5.95116,3.41817 -7.62968,4.45835 -1.67853,1.04019 -5.11191,3.38746 -7.62969,5.21615 -2.51778,1.82872 -7.2231,5.61721 -10.45618,8.41882 -3.23311,2.80167 -8.34185,7.90908 -11.35269,11.34982 -3.01085,3.44074 -7.54219,9.27724 -10.0697,12.97002 -2.52745,3.69278 -5.8491,9.04881 -7.38135,11.90228 -1.53225,2.85351 -3.78507,7.52288 -5.00628,10.37639 -1.22116,2.85347 -2.86689,7.11088 -3.65712,9.46081 -0.79024,2.34995 -1.96532,6.33262 -2.61131,8.8504 -0.64599,2.51779 -1.46683,6.08849 -1.82409,7.93486 -0.35722,1.84641 -0.94542,5.02164 -1.30704,7.05604 -0.36166,2.03445 -0.65754,10.04757 -0.65754,17.80688 0,7.75936 0.28932,15.57085 0.64293,17.35895 0.35356,1.78805 0.91633,4.62433 1.25058,6.30291 0.33421,1.67851 0.90485,4.28784 1.26798,5.79853 0.36314,1.51068 1.2864,4.66935 2.05159,7.0193 0.76524,2.34993 2.37454,6.42936 3.57619,9.06541 1.20171,2.63603 3.19651,6.4814 4.43293,8.54523 1.23648,2.06383 3.96288,5.96978 6.05876,8.67987 2.09584,2.71012 5.38696,6.36817 7.31361,8.12891 1.92661,1.76084 5.0397,4.23008 6.91802,5.48725 1.87827,1.25722 4.99023,3.1612 6.91546,4.23118 2.66636,1.48185 4.24929,1.94541 6.64332,1.94541 1.72859,0 4.13606,-0.25086 5.35001,-0.55746 1.21391,-0.30659 3.64913,-0.85596 5.4116,-1.22073 1.76241,-0.36485 4.50913,-0.94729 6.10375,-1.29434 1.59458,-0.34713 10.17798,-2.27831 19.07417,-4.29161 8.89617,-2.01328 19.0589,-4.35382 22.58383,-5.20121 3.52488,-0.84738 8.33162,-2.06463 10.68156,-2.70503 2.34994,-0.64048 7.156629,-1.88124 10.681513,-2.75736 3.524934,-0.87611 8.468946,-2.1413 10.986728,-2.81155 2.517831,-0.6702 5.401814,-1.45872 6.408966,-1.75233 1.007102,-0.29357 2.929759,-0.8394 4.272594,-1.21297 1.342837,-0.37357 3.265492,-0.90795 4.272644,-1.18749 1.007103,-0.27954 5.027663,-1.49167 8.9345,-2.69357 3.906887,-1.20196 9.190782,-2.88607 11.741993,-3.74245 2.551212,-0.8564 6.908049,-2.38998 9.681866,-3.4079 2.773815,-1.01797 7.899101,-2.98063 11.389519,-4.36154 3.490417,-1.3809 11.220836,-4.91201 17.178719,-7.84701 5.9578829,-2.93494 13.8141672,-7.04305 17.4584038,-9.12914 3.6441892,-2.08606 9.0978492,-5.32474 12.1192082,-7.19697 3.02136,-1.87225 8.58178,-5.55243 12.356478,-8.17821 3.774697,-2.62572 10.111519,-7.20738 14.081813,-10.18149 3.970293,-2.97405 10.357963,-8.07652 14.194832,-11.3388 3.836818,-3.26229 10.334919,-9.07928 14.440213,-12.92657 4.105295,-3.84734 11.110274,-11.03039 15.566654,-15.96234 4.456447,-4.93196 9.354633,-10.47788 10.884966,-12.32425 1.53028,-1.84636 4.54666,-5.69172 6.70297,-8.54523 2.15632,-2.85352 6.67227,-9.30822 10.03538,-14.34377 3.36306,-5.03562 8.5604,-13.75886 11.54955,-19.38502 2.98917,-5.62619 5.54137,-10.12288 5.67158,-9.99271 0.13017,0.13017 -0.77018,3.36006 -2.00082,7.17751 -1.2306,3.81747 -3.04709,9.00087 -4.03656,11.51865 -0.98947,2.51779 -3.27587,7.87382 -5.08079,11.90228 -1.80494,4.02846 -4.97153,10.4832 -7.03684,14.34383 -2.06535,3.86056 -5.8477,10.45262 -8.40524,14.64894 -2.55759,4.19635 -6.2561,9.93055 -8.21894,12.74268 -1.962808,2.81214 -4.708562,6.6575 -6.101673,8.54523 -1.3931,1.88776 -4.725852,6.17896 -7.406093,9.53601 -2.680288,3.35703 -7.071642,8.57575 -9.758601,11.59711 -2.686956,3.02136 -7.783202,8.47013 -11.324982,12.10839 -3.541771,3.63832 -10.010237,9.82868 -14.374428,13.7564 -4.3642,3.92777 -9.99489,8.8033 -12.512668,10.83453 -2.517786,2.03124 -7.974263,6.22088 -12.125431,9.31024 -4.151216,3.08935 -9.91923,7.17104 -12.817881,9.07034 -2.898601,1.89935 -7.7422256,4.91346 -10.7635844,6.69804 -3.02135232,1.78458 -9.5431523,5.30163 -14.4928966,7.81567 -4.949737,2.51403 -12.77877,6.18748 -17.397765,8.16317 -4.619044,1.97577 -15.126639,5.86073 -23.350266,8.63336 -8.223677,2.77264 -15.776083,5.24761 -16.783186,5.5 -1.007152,0.25232 -6.363141,1.83603 -11.90233,3.51929 -5.539139,1.68324 -16.525867,5.13248 -24.414945,7.66493 -7.88908,2.53239 -18.18913,5.87559 -22.88901,7.4293 -4.69988,1.55378 -10.64882,3.63585 -13.21989,4.6268 -2.57106,0.99102 -5.00534,2.20031 -5.40951,2.68732 -0.5895,0.7103 -0.52234,0.96709 0.33943,1.29776 0.59089,0.22672 5.49717,-0.0804 10.90289,-0.6824 5.40571,-0.60204 10.65257,-1.18523 11.65968,-1.29601 1.00709,-0.11079 8.97252,-0.21438 17.70086,-0.23022 8.728336,-0.0161 18.616411,0.10806 21.973453,0.27535 3.357042,0.16728 11.185087,0.59345 17.395644,0.947 6.210558,0.35355 15.411957,0.86385 20.447569,1.13395 5.035563,0.27012 20.417002,0.52677 34.180951,0.57036 16.4299739,0.0516 29.251015,-0.22204 37.328378,-0.79791 z"
       id="path3585"
       style="fill:#000000" />
  </g>
</svg>
