<?xml version="1.0" encoding="utf-8"?>
<!-- Generator: Adobe Illustrator 17.0.0, SVG Export Plug-In . SVG Version: 6.00 Build 0)  -->
<!DOCTYPE svg PUBLIC "-//W3C//DTD SVG 1.1//EN" "http://www.w3.org/Graphics/SVG/1.1/DTD/svg11.dtd">
<svg version="1.1"
	 id="Your_Icon" xmlns:svg="http://www.w3.org/2000/svg" xmlns:dc="http://purl.org/dc/elements/1.1/" xmlns:cc="http://creativecommons.org/ns#" xmlns:rdf="http://www.w3.org/1999/02/22-rdf-syntax-ns#"
	 xmlns="http://www.w3.org/2000/svg" xmlns:xlink="http://www.w3.org/1999/xlink" x="0px" y="0px" width="100px" height="100px"
	 viewBox="0 0 100 100" enable-background="new 0 0 100 100" xml:space="preserve">
<path d="M98.995,98.605H50.642c-0.027,0-0.053,0.004-0.08,0.004s-0.053-0.004-0.08-0.004H2.124V50.249h0
	c0-0.028-0.004-0.054-0.004-0.082c0-7.833,6.355-14.188,14.188-14.188c-5.537-5.541-5.537-14.525,0-20.066
	c5.541-5.537,14.525-5.537,20.066,0c0-7.833,6.355-14.188,14.188-14.188S64.75,8.08,64.75,15.913c5.542-5.537,14.525-5.537,20.066,0
	c5.537,5.541,5.537,14.525,0,20.066C92.649,35.979,99,42.334,99,50.167c0,0.033-0.005,0.066-0.005,0.099V98.605z M92.489,50.249
	c0-0.028,0.004-0.054,0.004-0.082c0-4.239-3.438-7.681-7.677-7.681c-2.123,0-4.043,0.862-5.433,2.252H63.672l11.111-11.111
	c1.963,0,3.93-0.749,5.429-2.248c3.001-3.001,3.001-7.865,0-10.862c-2.997-3.001-7.861-3.001-10.862,0
	c-1.499,1.498-2.248,3.466-2.248,5.429L55.991,37.057V21.346c1.39-1.39,2.252-3.309,2.252-5.433c0-4.239-3.442-7.677-7.681-7.677
	s-7.681,3.438-7.681,7.677c0,2.123,0.862,4.043,2.252,5.433v15.711L34.022,25.946c0-1.963-0.749-3.93-2.248-5.429
	c-3.001-3.001-7.865-3.001-10.862,0c-3.001,2.997-3.001,7.861,0,10.862c1.498,1.499,3.466,2.248,5.429,2.248l11.111,11.111H21.741
	c-1.39-1.391-3.309-2.252-5.433-2.252c-4.239,0-7.677,3.442-7.677,7.681c0,0.028,0.004,0.054,0.004,0.082H92.489z M55.715,53.428
	l-5.237,25.299l-5.241-25.299h-7.413l8.948,43.194h7.412l8.943-43.194H55.715z M75.78,71.319v7.412h5.24v5.237v0.004
	c0,2.889-2.348,5.237-5.241,5.237s-5.237-2.348-5.237-5.241l0,0v-17.89c0-2.893,2.344-5.237,5.237-5.237s5.241,2.344,5.241,5.237
	h7.413c0-6.983-5.665-12.649-12.653-12.649c-6.987,0-12.653,5.665-12.653,12.649h0.004v17.89l0,0
	c0,6.987,5.665,12.653,12.653,12.653c6.983,0,12.649-5.665,12.649-12.653l0,0V71.319H75.78L75.78,71.319z M16.228,75.025
	L16.228,75.025c2.292,2.288,5.453,3.706,8.947,3.706l0,0c1.446,0,2.756,0.589,3.706,1.535l0,0c0.95,0.949,1.535,2.26,1.535,3.702
	c0,2.897-2.348,5.241-5.241,5.241s-5.241-2.344-5.241-5.241h-7.413c0,6.987,5.665,12.653,12.653,12.653
	c6.983,0,12.649-5.665,12.649-12.653c0-3.49-1.414-6.655-3.706-8.943l0,0c-2.288-2.292-5.449-3.706-8.943-3.706v-0.004
	c-1.446,0-2.756-0.585-3.706-1.535h-0.004c-0.946-0.949-1.531-2.256-1.531-3.702c0-2.893,2.348-5.241,5.241-5.241
	s5.241,2.348,5.241,5.241h7.409c0-6.987-5.665-12.649-12.649-12.649c-6.987,0-12.653,5.661-12.653,12.649
	C12.522,69.572,13.94,72.733,16.228,75.025L16.228,75.025z"/>
</svg>
