<?xml version="1.0" encoding="utf-8"?>
<!-- Generator: Adobe Illustrator 17.0.0, SVG Export Plug-In . SVG Version: 6.00 Build 0)  -->
<!DOCTYPE svg PUBLIC "-//W3C//DTD SVG 1.1 Basic//EN" "http://www.w3.org/Graphics/SVG/1.1/DTD/svg11-basic.dtd">
<svg
   version="1.1"
   baseProfile="basic"
   id="swift"
   x="0px"
   y="0px"
   width="80px"
   height="100px"
   viewBox="0 0 80 100"
   xml:space="preserve"
   xmlns:svg="http://www.w3.org/2000/svg"
   xmlns:dc="http://purl.org/dc/elements/1.1/"
   xmlns:rdf="http://www.w3.org/1999/02/22-rdf-syntax-ns#"
   xmlns:cc="http://creativecommons.org/ns#"
   xmlns="http://www.w3.org/2000/svg"
   xmlns:xlink="http://www.w3.org/1999/xlink">
	<path
       d="m 18.472656,10.251953 c -1.350694,0 -2.700954,0.169055 -3.882812,0.337891 -1.35069,0.168837 -2.53299,0.507163 -3.714844,1.013672 -0.337674,0.168837 -0.843966,0.337022 -1.1816406,0.505859 -1.1818539,0.675346 -2.1940122,1.351131 -3.2070313,2.195313 -0.3376747,0.337673 -0.6759972,0.506077 -1.0136719,0.84375 -1.1818539,1.181855 -2.3637163,2.701174 -3.0390624,4.220703 -0.8441826,1.519528 -1.349827,3.207252 -1.68750005,5.064453 -0.33767304,1.688366 -0.33897598,3.54601 -0.5078125,5.234375 v 2.363281 2.871094 13 16.884765 2.869141 2.363281 c 0,1.688365 0.17013946,3.54601 0.5078125,5.234375 0.33767295,1.688365 0.84331745,3.376088 1.68750005,5.064453 0.8441833,1.519529 1.8572085,3.040802 3.0390624,4.222657 1.1818573,1.181856 2.7011762,2.363716 4.2207032,3.039062 1.5195296,0.844182 3.2081196,1.349827 4.8964846,1.6875 1.688365,0.337673 3.54601,0.337022 5.234375,0.50586 h 2.363281 2.871094 29.882812 2.871094 2.363281 c 1.688365,0 3.54601,-0.168187 5.234375,-0.50586 1.688365,-0.337673 3.376955,-0.843318 4.896485,-1.6875 1.519527,-0.844183 3.038848,-1.857206 4.220703,-3.039062 1.181856,-1.181855 2.363714,-2.703128 3.039062,-4.222657 0.844182,-1.519528 1.349825,-3.207251 1.6875,-5.064453 0.337673,-1.688365 0.338978,-3.54601 0.507813,-5.234375 V 67.65625 64.787109 34.902344 32.369141 30.005859 c 0,-1.688366 -0.170142,-3.546009 -0.507813,-5.234375 -0.337675,-1.688365 -0.843318,-3.376088 -1.6875,-5.064453 -0.844183,-1.519529 -1.857208,-3.038848 -3.039062,-4.220703 -1.181855,-1.181857 -2.701176,-2.363716 -4.220703,-3.039062 -1.51953,-0.844183 -3.20812,-1.351781 -4.896485,-1.689454 -1.688365,-0.337673 -3.54601,-0.337022 -5.234375,-0.505859 H 57.8125 54.941406 33.837891 25.058594 22.1875 19.824219 Z m 26.507813,11.3125 c 13.675757,8.272989 21.781028,23.806229 18.404297,36.806641 -0.08948,0.35118 -0.184118,0.695795 -0.28711,1.035156 0.03883,0.04896 0.07667,0.09752 0.117188,0.146484 6.753461,8.441826 4.896916,17.389537 4.052734,15.701172 C 63.603825,68.086796 56.820951,70.27874 53.375,71.732422 46.288931,75.826708 36.547054,76.247528 26.746094,72.046875 18.810776,68.670145 12.226772,62.759319 8.0058594,56.005859 c 2.0260396,1.688365 4.3893266,3.040801 6.9218746,4.222657 10.121749,4.744306 20.241494,4.420038 27.361328,0.01172 -0.0034,-0.0034 -0.0064,-0.0083 -0.0098,-0.01172 C 32.149107,52.462036 23.538836,42.331583 17.123047,34.058594 15.772357,32.707902 14.759113,31.019529 13.746094,29.5 21.512574,36.591134 33.836813,45.539718 38.226562,48.072266 28.940554,38.279748 20.668184,26.123264 21.005859,26.460938 35.694636,41.31855 49.371094,49.759766 49.371094,49.759766 c 0.454171,0.254944 0.802028,0.467154 1.083984,0.65625 0.295464,-0.75301 0.553949,-1.533335 0.773438,-2.34375 2.363709,-8.610662 -0.338768,-18.403661 -6.248047,-26.507813 z" />
</svg>