<?xml version="1.0" encoding="utf-8"?>
<!-- Generator: Adobe Illustrator 17.0.0, SVG Export Plug-In . SVG Version: 6.00 Build 0)  -->
<!DOCTYPE svg PUBLIC "-//W3C//DTD SVG 1.1 Basic//EN" "http://www.w3.org/Graphics/SVG/1.1/DTD/svg11-basic.dtd">
<svg version="1.1" baseProfile="basic"
	 id="Your_Icon" xmlns:svg="http://www.w3.org/2000/svg" xmlns:dc="http://purl.org/dc/elements/1.1/" xmlns:rdf="http://www.w3.org/1999/02/22-rdf-syntax-ns#" xmlns:cc="http://creativecommons.org/ns#"
	 xmlns="http://www.w3.org/2000/svg" xmlns:xlink="http://www.w3.org/1999/xlink" x="0px" y="0px" width="100px" height="100px"
	 viewBox="0 0 100 100" xml:space="preserve">
<g>
	<path d="M96.823,49.495c0,25.975-21.055,47.032-47.03,47.032c-25.973,0-47.027-21.057-47.027-47.032
		c0-25.971,21.054-47.026,47.027-47.026C75.767,2.47,96.823,23.524,96.823,49.495z"/>
	<path fill="#FFFFFF" d="M70.356,19.87c-4.777,0.164-8.947,2.801-12.053,6.44c-3.438,3.996-5.722,8.73-7.372,13.568
		c-2.947-2.417-5.218-5.544-9.949-6.904c-3.655-1.051-7.493-0.618-11.024,2.012c-1.67,1.249-2.823,3.135-3.371,4.913
		c-1.419,4.61,1.491,8.718,2.813,10.189l2.891,3.095c0.595,0.608,2.031,2.191,1.328,4.46c-0.755,2.471-3.732,4.067-6.786,3.129
		c-1.364-0.418-3.323-1.434-2.884-2.862c0.18-0.586,0.6-1.027,0.825-1.527c0.205-0.437,0.304-0.761,0.367-0.956
		c0.558-1.819-0.205-4.188-2.155-4.791c-1.821-0.558-3.682-0.116-4.404,2.226c-0.819,2.662,0.455,7.493,7.28,9.594
		c7.996,2.461,14.756-1.894,15.716-7.569c0.605-3.555-1.002-6.199-3.942-9.594l-2.397-2.652c-1.451-1.45-1.949-3.922-0.447-5.821
		c1.268-1.603,3.072-2.286,6.03-1.483c4.319,1.171,6.241,4.167,9.451,6.584c-1.323,4.35-2.191,8.714-2.974,12.628l-0.481,2.919
		c-2.294,12.035-4.047,18.645-8.6,22.44c-0.917,0.653-2.229,1.629-4.205,1.7c-1.038,0.031-1.373-0.683-1.387-0.995
		c-0.023-0.725,0.59-1.06,0.996-1.385c0.61-0.332,1.53-0.883,1.466-2.646c-0.065-2.083-1.792-3.89-4.286-3.808
		c-1.869,0.063-4.717,1.821-4.61,5.041c0.11,3.327,3.209,5.818,7.883,5.66c2.498-0.086,8.078-1.1,13.575-7.635
		c6.399-7.493,8.189-16.079,9.536-22.365l1.504-8.299c0.832,0.1,1.727,0.168,2.698,0.191c7.97,0.169,11.955-3.958,12.015-6.962
		c0.041-1.817-1.191-3.607-2.917-3.565c-1.234,0.034-2.784,0.857-3.155,2.563c-0.366,1.673,2.535,3.185,0.268,4.657
		c-1.61,1.041-4.496,1.774-8.561,1.18l0.739-4.085c1.509-7.747,3.369-17.274,10.428-17.507c0.516-0.024,2.396,0.022,2.44,1.268
		c0.012,0.413-0.091,0.522-0.578,1.473c-0.496,0.741-0.683,1.375-0.658,2.1c0.067,1.976,1.571,3.277,3.749,3.202
		c2.912-0.097,3.748-2.932,3.7-4.388C78.737,21.876,75.128,19.712,70.356,19.87z"/>
</g>
</svg>
