<svg id="svg2" xmlns:rdf="http://www.w3.org/1999/02/22-rdf-syntax-ns#" xmlns="http://www.w3.org/2000/svg" space="preserve" height="100" width="96.45" version="1.1" xmlns:cc="http://creativecommons.org/ns#" xmlns:dc="http://purl.org/dc/elements/1.1/" viewBox="0 0 96.449997 100">
 <metadata id="metadata4">
  <rdf:RDF>
   <cc:Work rdf:about="">
    <dc:title/>
    <dc:description/>
    <dc:subject>
     <rdf:Bag>
      <rdf:li/>
     </rdf:Bag>
    </dc:subject>
    <dc:publisher>
     <cc:Agent rdf:about="http://commons.wikimedia.org/wiki/Main_Page">
      <dc:title>Source: Wikimedia Commons, Source: Wikimedia Commons, Source: Wikimedia Commons, Source: Wikimedia Commons</dc:title>
     </cc:Agent>
    </dc:publisher>
    <dc:creator>
     <cc:Agent>
      <dc:title/>
     </cc:Agent>
    </dc:creator>
    <dc:rights>
     <cc:Agent>
      <dc:title/>
     </cc:Agent>
    </dc:rights>
    <dc:date/>
    <dc:format>image/svg+xml</dc:format>
    <dc:type rdf:resource="http://purl.org/dc/dcmitype/StillImage"/>
    <cc:license rdf:resource="http://en.wikipedia.org/wiki/GNU_General_Public_License"/>
    <dc:language>en</dc:language>
   </cc:Work>
  </rdf:RDF>
 </metadata>
 <path id="path6" opacity="0.2" d="M77.469,0c-5.462,2.3685E-15-9.875,4.4177-9.875,9.875,0,0.134-0.006,0.273,0,0.406-0.006,0.133,0,0.272,0,0.407,0,0.127-0.005,0.248,0,0.374-0.006,0.133,0,0.272,0,0.407,0,0.138-0.006,0.269,0,0.406-0.005,0.127,0,0.247,0,0.375,0,5.456,4.414,9.875,9.875,9.875s9.875-4.419,9.875-9.875c0-0.128,0.005-0.248,0-0.375,0.005-0.137,0-0.268,0-0.406,0-0.135,0.005-0.274,0-0.407,0.005-0.126,0-0.247,0-0.374,0-0.135,0.005-0.274,0-0.407,0.005-0.133,0-0.272,0-0.406,0-5.4573-4.414-9.875-9.875-9.875zm-20.875,7.75c-6.096,0.0008-12.255,1.5038-17.813,4.25-0.197,0.098-0.347,0.288-0.406,0.5-0.06,0.212-0.023,0.438,0.094,0.625-0.03,0.053-0.077,0.096-0.094,0.156-0.06,0.212-0.023,0.439,0.094,0.625-0.033,0.056-0.076,0.124-0.094,0.188-0.06,0.212-0.023,0.438,0.094,0.625-0.03,0.053-0.077,0.096-0.094,0.156-0.06,0.212-0.023,0.438,0.094,0.625l8,12.688c0.203,0.322,0.617,0.46,0.969,0.312,2.967-1.255,6.044-1.906,9.156-1.906,11.445,0,21.424,8.497,23.218,19.75,0.061,0.378,0.4,0.656,0.782,0.656l15.062,0.031c0.22,0,0.446-0.118,0.594-0.281s0.208-0.374,0.188-0.594c-0.015-0.146-0.047-0.291-0.063-0.437,0.044-0.113,0.074-0.22,0.063-0.344-0.015-0.147-0.047-0.291-0.063-0.437,0.044-0.113,0.074-0.22,0.063-0.344-0.015-0.147-0.047-0.291-0.063-0.438,0.044-0.113,0.074-0.25,0.063-0.375-0.813-8.349-4.36-16.383-10-22.656-0.255-0.285-0.679-0.333-1-0.125-2.275,1.469-4.859,2.219-7.469,2.219-7.615,0-13.812-6.151-13.813-13.719,0.001-0.004,0-0.2686,0-0.2812,0-0.3771-0.251-0.7165-0.625-0.7813-2.381-0.4126-4.718-0.6875-6.937-0.6875zm-23.875,8.25c-0.216-0.038-0.454,0.023-0.625,0.156-6.536,5.034-11.457,12.11-13.844,19.938-0.06,0.195-0.026,0.418,0.062,0.594-0.022,0.071-0.04,0.147-0.062,0.218-0.06,0.196-0.026,0.388,0.062,0.563-0.022,0.071-0.04,0.147-0.062,0.219-0.058,0.191-0.021,0.389,0.062,0.562-0.022,0.072-0.04,0.147-0.062,0.219-0.093,0.306,0.029,0.644,0.281,0.843,2.983,2.363,4.866,5.891,5.188,9.594-0.353,3.658-2.237,7.133-5.188,9.469-0.25,0.198-0.374,0.537-0.281,0.844,0.022,0.073,0.04,0.146,0.062,0.219-0.083,0.172-0.12,0.37-0.062,0.562,0.022,0.073,0.04,0.146,0.062,0.219-0.083,0.172-0.12,0.371-0.062,0.562,0.022,0.073,0.04,0.146,0.062,0.219-0.088,0.175-0.122,0.367-0.062,0.562,2.368,7.762,7.232,14.821,13.688,19.844,0.173,0.135,0.408,0.194,0.624,0.156,0.216-0.037,0.383-0.159,0.5-0.343l8.094-12.688c0.158-0.249,0.139-0.537,0-0.781,0.158-0.249,0.139-0.537,0-0.781,0.162-0.256,0.15-0.565,0-0.813,0.207-0.323,0.133-0.746-0.156-1-4.781-4.207-7.631-10.113-7.938-16.375,0.342-6.26,3.232-12.163,8.032-16.343,0.281-0.246,0.311-0.648,0.125-0.969,0.15-0.241,0.148-0.559,0-0.813,0.147-0.239,0.146-0.529,0-0.781,0.152-0.247,0.162-0.556,0-0.813l-8-12.718c-0.117-0.185-0.284-0.306-0.5-0.344zm-22.594,21.719c-5.5896,0-10.125,4.539-10.125,10.125-2.9186E-17,0.137,0.025797,0.27,0.03125,0.406-0.004653,0.126-0.03125,0.248-0.03125,0.375s0.026597,0.249,0.03125,0.375c-0.005452,0.136-0.03125,0.269-0.03125,0.406,0,0.134,0.026111,0.274,0.03125,0.406-0.005452,0.137-0.03125,0.269-0.03125,0.407,0,5.585,4.5353,10.093,10.125,10.093,5.59,0,10.125-4.508,10.125-10.093,0-0.138-0.026-0.27-0.031-0.407,0.005-0.132,0.031-0.272,0.031-0.406,0-0.137-0.026-0.27-0.031-0.406,0.004-0.126,0.031-0.248,0.031-0.375s-0.027-0.249-0.031-0.375c0.005-0.136,0.031-0.269,0.031-0.406,0-5.586-4.535-10.125-10.125-10.125zm85.531,13.062l-15.094,0.031c-0.38,0.001-0.689,0.282-0.75,0.657-1.818,11.169-11.805,19.593-23.218,19.593-3.148,0-6.281-0.652-9.282-1.937-0.35-0.149-0.762-0.008-0.968,0.313l-8.063,12.656c-0.118,0.186-0.152,0.412-0.093,0.625,0.016,0.06,0.063,0.103,0.093,0.156-0.118,0.186-0.152,0.412-0.093,0.625,0.019,0.069,0.057,0.127,0.093,0.188-0.118,0.185-0.152,0.412-0.093,0.624,0.016,0.06,0.063,0.103,0.093,0.157-0.118,0.186-0.152,0.412-0.093,0.625,0.058,0.212,0.209,0.37,0.406,0.468,5.6,2.804,11.834,4.313,18,4.313,2.287,0,4.652-0.229,7.062-0.656,0.339-0.06,0.616-0.347,0.656-0.688,0.804-6.936,6.675-12.156,13.657-12.156,2.164,0,4.373,0.55,6.375,1.594,0.304,0.159,0.665,0.089,0.906-0.157,6.312-6.437,10.293-14.89,11.188-23.812,0.011-0.109-0.029-0.21-0.063-0.312,0.018-0.158,0.047-0.311,0.063-0.469,0.011-0.11-0.029-0.21-0.063-0.313,0.018-0.157,0.047-0.311,0.063-0.468,0.011-0.11-0.029-0.242-0.063-0.344,0.017-0.155,0.047-0.314,0.063-0.469,0.022-0.219-0.071-0.43-0.219-0.594-0.149-0.163-0.343-0.251-0.563-0.25zm-17.812,26.719c-5.59,0-10.125,4.506-10.125,10.062,0,0.137,0.026,0.271,0.031,0.407-0.005,0.129-0.031,0.244-0.031,0.375,0,0.137,0.026,0.27,0.031,0.406-0.005,0.136-0.031,0.269-0.031,0.406s0.026,0.271,0.031,0.406c-0.005,0.126-0.031,0.249-0.031,0.376,0,5.556,4.534,10.062,10.125,10.062,5.589,0,10.125-4.505,10.125-10.062,0-0.127,0.004-0.25,0-0.376,0.005-0.135,0-0.269,0-0.406,0-0.136,0.005-0.271,0-0.406,0.005-0.135,0-0.27,0-0.406,0-0.13,0.005-0.246,0-0.375,0.005-0.136,0-0.27,0-0.407,0-5.556-4.536-10.062-10.125-10.062z" fill-rule="evenodd" fill="#141414"/>
</svg>
