<?xml version="1.0" encoding="utf-8"?>
<!-- Generator: Adobe Illustrator 17.1.0, SVG Export Plug-In . SVG Version: 6.00 Build 0)  -->
<!DOCTYPE svg PUBLIC "-//W3C//DTD SVG 1.1//EN" "http://www.w3.org/Graphics/SVG/1.1/DTD/svg11.dtd">
<svg version="1.1" id="Layer_1" xmlns="http://www.w3.org/2000/svg" xmlns:xlink="http://www.w3.org/1999/xlink" x="0px" y="0px"
	 viewBox="189.8 42.5 2000 2000" enable-background="new 189.8 42.5 2000 2000" xml:space="preserve">
<g>
	<path d="M189.8,1043.7c0.5-557.6,450-1002.2,1000.7-1001.2c562,1,1000.2,455.4,999.3,999.8c-0.5,560.5-453.4,1001.7-1001.2,1000.2
		C626.6,2041,189.8,1586.2,189.8,1043.7z M1194,1905.5c476.4-1.5,864.8-381,868.7-867.2c-2.9-488.1-393.3-869.2-868.2-869.2
		c-482.3,0-864.3,387.4-868.7,860.8C321.9,1507.9,704.8,1903.1,1194,1905.5z"/>
	<path d="M1829.8,1208.6c-1,2.4-2.4,4.9-3.4,7.3c-33.7,68.5-75.3,132.1-122.8,191.2c-50.9,63.1-107.6,119.8-172.7,167.3
		c-17.6,12.7-35.7,24-53.8,35.7c-2,1.5-4.4,2.4-6.4,3.9c-45.5-38.2-90.5-76.8-136-115.4c-3.9,3.9-6.8,6.8-9.8,10.3
		c-43.5,46-87.6,92-130.6,138.4c-3.4,3.9-6.4,4.9-11.2,4.4c-97.8-12.7-191.7-37.2-280.8-79.7c-48.4-23.5-93.4-52.3-132.6-89.5
		c-15.7-15.2-30.8-31.8-43.5-49.4c-1.5-2.4-2.9-4.4-4.9-6.8c10.3,2.4,19.6,4.9,29.3,5.9c12.7,2,24.9,2.4,37.7-1
		c17.6-4.4,29.3-14.7,33.3-32.8c2-7.3,2.9-15.2,2.9-23c0-134.5,0-268,0-402.5c0-20.1-0.5-40.6,0-60.7c1-26.9-18.1-54.3-55.8-52.8
		c-13.2,0.5-24.9,3.9-37.2,8.8c-24.9,10.3-46.5,25.9-67,43c-32.8,27.4-60.7,59.2-88.5,91c-48.4,56.7-90,117.4-125.2,182.9
		c-2.4,4.9-4.9,9.3-7.3,14.2c-2.4,4.9-4.9,8.8-6.8,14.2c-1-2.4-1.5-3.4-2-4.9c-2.9-25.9-2.4-51.4,0.5-77.8
		c11.2-93.9,48.4-177.1,100.3-254.8c25.9-39.1,56.2-74.8,88-109.1c49.4-53.8,100.8-106.1,157-153.1
		c61.6-51.8,128.1-96.8,201.5-130.6c42.1-19.6,86.1-34.7,131.1-47c1-0.5,2-0.5,3.4,0.5c-2,1.5-3.9,2.4-4.9,3.9
		c-32.3,22-60.7,47.4-83.6,79.2c-16.6,23-28.9,47.9-34.2,76.3c-3.4,17.6-3.4,35.7-1.5,53.3c1.5,11.7,3.9,23,6.4,33.7
		c2,6.4,4.9,12.7,8.3,18.6c11.2,17.6,28.9,23.5,48.4,16.6c4.9-2,9.8-4.4,15.2-6.4c0,2,0.5,3.4,0.5,4.9c0,2.4,0,4.9,0,7.3
		c0,198.1,0,395.7,0,593.3c0,6.4,1.5,11.7,4.9,17.1c14.2,24,33.3,41.6,60.7,47.9c18.6,4.9,37.2,2.4,55.3-2.9
		c24.9-7.8,48.4-20.1,69.9-34.2c13.7-8.8,25.9-19.1,39.6-28.4c4.4-2.9,5.4-6.4,5.4-11.7c0-65.1,0-129.6,0-194.7
		c0-97.3,0-194.2,0-291.5c0-17.6-2.9-34.2-8.8-50.9c-11.2-29.3-27.9-55.3-51.8-75.8c-4.4-3.9-9.3-6.8-15.2-11.7
		c22.5-1.5,43,0,63.6,3.9s40.6,9.3,57.7,22c77.3-80.7,168.3-138.9,271.9-178.5c36.7-14.2,74.8-24.5,114.5-31.3
		c-2.4,2.9-4.9,5.9-6.8,8.8c-43,51.8-86.1,105.2-125.2,160.4c-13.7,19.6-25.9,40.1-39.1,59.7c-4.9,7.3-6.8,15.7-6.8,24.5
		c-1,32.8-2.9,65.1-3.4,97.3c-0.5,43-1,87.1-0.5,130.1c1,85.1,2.4,170.7,3.9,255.8c0.5,27.4,2,55.3,2.9,82.7c0,4.9,2,8.3,5.4,11.2
		c9.8,8.8,22,13.7,34.7,15.2c19.6,2.9,38.2-1.5,56.2-7.8c26.4-9.8,50.4-24,72.4-41.1c32.8-24,62.6-51.4,91-80.7
		c2.4-2.4,4.9-4.9,7.3-7.3C1828.8,1208.1,1829.3,1208.1,1829.8,1208.6z"/>
</g>
</svg>
