<svg width="115" height="115" viewBox="0 0 115 115" version="1.1" xmlns="http://www.w3.org/2000/svg" xmlns:xlink="http://www.w3.org/1999/xlink">
<title>VS-IDE</title>
<desc>Created using Figma</desc>
<g id="Canvas" transform="translate(-10674 -330)">
<g id="VS-IDE">
<use xlink:href="#path0_fill" transform="translate(10674 330)" fill="#865FC5"/>
</g>
</g>
<defs>
<path id="path0_fill" d="M 86.2438 -1.66064e-06L 86.2438 98.7697L 36.4565 91.3753L 36.36 91.2008L 36.1321 91.3261L 0 85.9605L 30.1258 96.1044L 30.1628 96.1721L 30.2244 96.1372L 86.2438 115L 114.992 103.039L 114.992 11.9591L 86.2438 -1.66064e-06ZM 30.3147 55.2289L 56.309 80.946L 71.8699 74.3258L 71.8699 23.9039L 56.309 17.2837L 30.3147 43.0049L 14.6635 31.2059L 8.2137 33.364L 8.2137 64.8697L 14.6635 67.0279L 30.3147 55.2289ZM 55.4425 35.4175L 55.4425 62.8122L 37.2697 49.1138L 55.4425 35.4175ZM 14.374 39.5941L 23.9984 49.1159L 14.374 58.6397L 14.374 39.5941Z"/>
</defs>
</svg>
