<?xml version="1.0" standalone="no"?>
<!DOCTYPE svg PUBLIC "-//W3C//DTD SVG 20010904//EN"
 "http://www.w3.org/TR/2001/REC-SVG-20010904/DTD/svg10.dtd">
<svg version="1.0" xmlns="http://www.w3.org/2000/svg"
 width="900.000000pt" height="900.000000pt" viewBox="0 0 900.000000 900.000000"
 preserveAspectRatio="xMidYMid meet">
<metadata>
Created by potrace 1.10, written by Peter Selinger 2001-2011
</metadata>
<g transform="translate(0.000000,900.000000) scale(0.100000,-0.100000)"
fill="#000000" stroke="none">
<path d="M6599 8902 c-14 -9 -782 -774 -1707 -1699 -925 -925 -1687 -1683
-1694 -1685 -7 -2 -33 14 -58 34 -79 64 -301 241 -374 297 -39 30 -105 82
-147 115 -78 63 -147 118 -279 221 -42 33 -94 74 -116 92 -80 64 -314 250
-389 308 -43 33 -101 79 -129 102 -48 39 -212 169 -300 238 -21 17 -62 48 -90
71 -180 143 -214 168 -243 181 -18 7 -41 13 -52 13 -18 0 -156 -68 -611 -303
-102 -52 -210 -107 -240 -123 -30 -15 -70 -41 -88 -58 l-32 -30 0 -2190 c0
-2158 0 -2191 20 -2223 26 -43 44 -53 405 -238 171 -87 356 -182 412 -211 86
-46 110 -54 155 -54 58 0 66 4 168 85 36 28 119 94 185 146 66 52 199 157 295
234 96 76 200 158 230 182 141 111 185 145 315 249 77 61 271 213 430 339 160
126 346 273 414 327 68 54 128 98 135 98 6 0 769 -759 1696 -1686 927 -927
1697 -1692 1712 -1700 41 -21 92 -17 171 15 40 16 108 43 152 61 44 18 152 61
240 97 88 36 176 71 195 79 19 7 76 29 125 49 50 21 169 68 265 106 96 38 184
74 195 79 11 5 61 25 110 45 50 19 98 40 107 45 10 6 23 10 28 10 6 0 30 9 53
19 23 10 74 31 112 46 39 15 84 33 100 41 17 7 116 47 220 89 129 52 200 86
220 106 l30 29 2 3488 c1 2206 -2 3499 -9 3519 -10 35 -79 103 -104 103 -9 0
-28 6 -42 14 -15 8 -63 28 -107 46 -44 18 -92 38 -107 46 -14 8 -33 14 -41 14
-9 0 -28 6 -44 14 -36 18 -87 39 -143 61 -25 10 -54 21 -65 26 -43 17 -204 83
-275 111 -41 17 -84 34 -95 39 -11 4 -45 18 -75 29 -30 12 -68 27 -85 35 -37
16 -176 72 -230 92 -22 9 -53 21 -70 28 -16 8 -66 28 -110 45 -44 18 -94 39
-112 46 -17 8 -36 14 -41 14 -6 0 -23 6 -39 14 -36 18 -87 39 -143 61 -25 10
-54 21 -65 26 -11 4 -45 18 -75 29 -30 12 -68 27 -85 34 -72 31 -88 36 -123
35 -20 0 -49 -8 -63 -17z m-79 -4432 l0 -1450 -21 0 c-11 0 -48 21 -81 48
-123 96 -325 255 -403 315 -86 66 -94 72 -140 110 -16 14 -115 91 -220 172
-104 80 -215 166 -245 191 -138 110 -447 351 -599 467 -124 94 -162 129 -159
143 2 7 131 113 288 236 157 122 348 272 426 333 78 60 201 157 275 215 448
350 742 580 794 622 33 26 66 48 72 48 10 0 13 -294 13 -1450z m-5004 618
c433 -435 588 -596 592 -613 2 -8 -91 -110 -205 -227 -115 -117 -258 -265
-318 -328 -291 -304 -382 -393 -399 -387 -15 6 -16 83 -16 919 0 502 3 923 6
936 4 12 9 22 13 22 4 0 151 -145 327 -322z"/>
</g>
</svg>
