<svg width="34" height="34" xmlns="http://www.w3.org/2000/svg">
 <metadata id="metadata4156">image/svg+xml</metadata>
 <defs>
  <clipPath clipPathUnits="userSpaceOnUse" id="clipPath4181">
   <path d="m0,792l612,0l0,-792l-612,0l0,792z" id="path4183"/>
  </clipPath>
 </defs>
 <g>
  <title>background</title>
  <rect fill="none" id="canvas_background" height="36" width="36" y="-1" x="-1"/>
 </g>
 <g>
  <title>Layer 1</title>
  <g id="g4175" transform="matrix(0.50580295,0,0,-0.50580295,-72.888583,177.03598) ">
   <g id="g4177">
    <g id="g4179" clip-path="url(#clipPath4181)">
     <g id="g4185">
      <path fill="#7cc734" fill-rule="evenodd" d="m183.994598,331.136688c-3.088,8.913 5.938,18.468 13.363,18.753c4.449,-2.321 8.269,-8.416 8.078,-16.687c-0.583,-10.19 -7.793,-18.972 -15.639,-27.063c-0.438,9.866 -2.532,16.155 -5.802,24.997" id="path4187"/>
     </g>
     <g id="g4189">
      <path fill="#3e7fca" fill-rule="evenodd" d="m166.489304,282.873993c-1.242,9.949 2.797,18.436 6.806,23.611c1.905,2.43 3.369,4.647 4.484,6.689c2.106,-0.912 7.767,-3.882 10.886,-8.704c-0.453,-6.995 -5.622,-19.725 -22.176,-21.596" id="path4191"/>
     </g>
     <g id="g4193">
      <path fill="#eb6e2e" fill-rule="evenodd" d="m160.234406,320.661102c-13.175,3.685 -16.425,15.259 -15.837,23.043c12.794,5.186 26.563,-0.126 34.513,-11.198c5.574,-7.76 9.064,-17.709 9.772,-26.392c-3.824,5.047 -8.654,7.971 -14.806,10.261c-4.208,1.565 -8.095,2.602 -13.642,4.286" id="path4195"/>
     </g>
     <g id="g4197"/>
     <g id="g4201"/>
     <g id="g4205"/>
     <g id="g4209"/>
    </g>
   </g>
  </g>
 </g>
</svg>